G04 #@! TF.FileFunction,Copper,L1,Top,Signal*
%FSLAX46Y46*%
G04 Gerber Fmt 4.6, Leading zero omitted, Abs format (unit mm)*
G04 Created by KiCad (PCBNEW 4.1.0-alpha+201605041001+6771~44~ubuntu14.04.1-product) date Wed 11 May 2016 01:12:45 PM EEST*
%MOMM*%
%LPD*%
G01*
G04 APERTURE LIST*
%ADD10C,0.100000*%
%ADD11R,0.750000X1.200000*%
%ADD12O,1.200000X1.600000*%
%ADD13O,2.200000X3.000000*%
%ADD14C,3.200000*%
%ADD15R,1.727200X1.727200*%
%ADD16O,1.727200X1.727200*%
%ADD17O,1.600000X1.600000*%
%ADD18R,1.000000X1.900000*%
%ADD19R,1.800860X0.800100*%
%ADD20C,3.000000*%
%ADD21R,1.200000X0.750000*%
%ADD22R,0.508000X1.143000*%
%ADD23R,1.200000X0.900000*%
%ADD24R,1.600200X3.599180*%
%ADD25R,3.599180X1.600200*%
%ADD26R,0.797560X0.797560*%
%ADD27R,2.900000X2.900000*%
%ADD28C,2.900000*%
%ADD29R,0.900000X1.200000*%
%ADD30R,0.650000X1.060000*%
%ADD31R,3.000000X1.200000*%
%ADD32R,1.524000X2.199640*%
%ADD33C,2.000000*%
%ADD34C,1.600000*%
%ADD35C,0.500000*%
%ADD36C,1.000000*%
%ADD37C,0.800000*%
%ADD38C,0.300000*%
%ADD39C,2.000000*%
%ADD40C,0.250000*%
%ADD41C,0.254000*%
G04 APERTURE END LIST*
D10*
D11*
X91500000Y-113350000D03*
X91500000Y-111450000D03*
D12*
X79300000Y-131700000D03*
X81300000Y-131700000D03*
X77300000Y-131700000D03*
D13*
X75200000Y-131700000D03*
X83400000Y-131700000D03*
D14*
X116910000Y-99910000D03*
X57510000Y-99910000D03*
X71060000Y-129970000D03*
D15*
X109650000Y-94660000D03*
D16*
X112190000Y-94660000D03*
X109650000Y-97200000D03*
X112190000Y-97200000D03*
D17*
X109650000Y-99740000D03*
X112190000Y-99740000D03*
D18*
X67000000Y-121500000D03*
X64000000Y-121500000D03*
D19*
X115998860Y-121950000D03*
X115998860Y-123850000D03*
X119001140Y-122900000D03*
D20*
X110210000Y-115750000D03*
X117830000Y-113210000D03*
X110210000Y-110670000D03*
X56610000Y-113200000D03*
X64230000Y-110660000D03*
X64230000Y-115740000D03*
D21*
X97400000Y-100700000D03*
X95500000Y-100700000D03*
X86900000Y-117000000D03*
X88800000Y-117000000D03*
X87650000Y-111300000D03*
X89550000Y-111300000D03*
D11*
X102650000Y-102850000D03*
X102650000Y-104750000D03*
D21*
X63450000Y-105600000D03*
X61550000Y-105600000D03*
D22*
X98890000Y-100402000D03*
X100160000Y-100402000D03*
X101430000Y-100402000D03*
X102700000Y-100402000D03*
X103970000Y-100402000D03*
X105240000Y-100402000D03*
X106510000Y-100402000D03*
X106510000Y-94052000D03*
X105240000Y-94052000D03*
X102700000Y-94052000D03*
X101430000Y-94052000D03*
X100160000Y-94052000D03*
X98890000Y-94052000D03*
X103970000Y-94052000D03*
D23*
X94400000Y-98200000D03*
X96600000Y-98200000D03*
D24*
X76500000Y-127150820D03*
X76500000Y-121649180D03*
D25*
X100650820Y-124200000D03*
X95149180Y-124200000D03*
D11*
X99450000Y-102950000D03*
X99450000Y-104850000D03*
X103720000Y-123950000D03*
X103720000Y-122050000D03*
D26*
X105550700Y-103500000D03*
X107049300Y-103500000D03*
D27*
X107860000Y-131300000D03*
D28*
X107860000Y-127340000D03*
D27*
X66580000Y-127350000D03*
D28*
X66580000Y-131310000D03*
D29*
X104250000Y-104900000D03*
X104250000Y-102700000D03*
X96250000Y-105000000D03*
X96250000Y-102800000D03*
X97850000Y-102800000D03*
X97850000Y-105000000D03*
D23*
X115900000Y-120300000D03*
X118100000Y-120300000D03*
D29*
X114000000Y-120400000D03*
X114000000Y-122600000D03*
D30*
X87650000Y-115100000D03*
X88600000Y-115100000D03*
X89550000Y-115100000D03*
X89550000Y-112900000D03*
X87650000Y-112900000D03*
D31*
X63400000Y-89600000D03*
X63400000Y-91600000D03*
X63400000Y-93600000D03*
X63400000Y-95600000D03*
X63400000Y-97600000D03*
X63400000Y-99600000D03*
X63400000Y-101600000D03*
X63400000Y-103600000D03*
X83100000Y-103600000D03*
X83100000Y-101600000D03*
X83100000Y-99600000D03*
X83100000Y-97600000D03*
X83100000Y-95600000D03*
X83100000Y-93600000D03*
X83100000Y-91600000D03*
X83100000Y-89600000D03*
D14*
X103360000Y-129980000D03*
D21*
X80050000Y-115750000D03*
X81950000Y-115750000D03*
D29*
X91200000Y-101700000D03*
X91200000Y-99500000D03*
D23*
X86100000Y-112750000D03*
X83900000Y-112750000D03*
X86150000Y-91500000D03*
X88350000Y-91500000D03*
X86150000Y-93500000D03*
X88350000Y-93500000D03*
X86150000Y-95750000D03*
X88350000Y-95750000D03*
X86150000Y-97500000D03*
X88350000Y-97500000D03*
X87600000Y-87500000D03*
X85400000Y-87500000D03*
D32*
X104200000Y-90500000D03*
D33*
X91900002Y-124500000D03*
D34*
X78900000Y-118500000D03*
X76900000Y-118400000D03*
X74700000Y-118400000D03*
X93750000Y-92750000D03*
X92250000Y-94000000D03*
X74000000Y-106000000D03*
X75499996Y-109500000D03*
D33*
X89500000Y-109499996D03*
D34*
X112200000Y-101249990D03*
D33*
X121000000Y-121000000D03*
X112000000Y-123000000D03*
X93200000Y-122100000D03*
X92300000Y-105300000D03*
D34*
X74900000Y-128500000D03*
D33*
X102100000Y-109000000D03*
D34*
X91500000Y-91750000D03*
X87700000Y-89300000D03*
X101400000Y-86900000D03*
X102400000Y-91300000D03*
D33*
X96200000Y-112600000D03*
X78900002Y-113400000D03*
D34*
X90400000Y-95400000D03*
X88250000Y-99000000D03*
X109650000Y-97200000D03*
X104900000Y-87400000D03*
X107700000Y-101249990D03*
X106900000Y-91700000D03*
D33*
X83500000Y-115400000D03*
X91800000Y-98300000D03*
D34*
X81100000Y-124800000D03*
X85700000Y-120200000D03*
X92200000Y-118000000D03*
D35*
X89550000Y-112900000D02*
X91050000Y-112900000D01*
X91050000Y-112900000D02*
X91500000Y-113350000D01*
D36*
X89950000Y-103100000D02*
X90650000Y-102400000D01*
X90650000Y-102400000D02*
X91000000Y-102050000D01*
X91200000Y-101700000D02*
X91200000Y-101850000D01*
X91200000Y-101850000D02*
X90650000Y-102400000D01*
X86100000Y-112750000D02*
X87500000Y-112750000D01*
X87500000Y-112750000D02*
X87650000Y-112900000D01*
X87650000Y-111300000D02*
X71800000Y-111300000D01*
X71800000Y-111300000D02*
X66100000Y-105600000D01*
X66100000Y-105600000D02*
X65050000Y-105600000D01*
X65050000Y-105600000D02*
X63450000Y-105600000D01*
X97400000Y-100700000D02*
X97400000Y-100400000D01*
X97400000Y-100400000D02*
X96500000Y-99500000D01*
X96500000Y-99500000D02*
X95700000Y-99500000D01*
X95700000Y-99500000D02*
X94400000Y-98200000D01*
D37*
X94400000Y-98200000D02*
X94400000Y-98650000D01*
X94400000Y-98650000D02*
X94350000Y-98700000D01*
D36*
X87650000Y-111300000D02*
X87650000Y-105400000D01*
X87650000Y-111300000D02*
X87425000Y-111300000D01*
X87650000Y-111300000D02*
X87300000Y-111300000D01*
X87650000Y-112900000D02*
X87650000Y-111300000D01*
D35*
X97400000Y-100700000D02*
X98592000Y-100700000D01*
X98592000Y-100700000D02*
X98890000Y-100402000D01*
D36*
X87650000Y-105400000D02*
X91000000Y-102050000D01*
X91000000Y-102050000D02*
X94350000Y-98700000D01*
X63450000Y-105600000D02*
X63450000Y-103650000D01*
X63450000Y-103650000D02*
X63400000Y-103600000D01*
D35*
X92200002Y-124200000D02*
X91900002Y-124500000D01*
X95149180Y-124200000D02*
X92200002Y-124200000D01*
X93014215Y-124500000D02*
X91900002Y-124500000D01*
X93049180Y-124534965D02*
X93014215Y-124500000D01*
X93049180Y-124600000D02*
X93049180Y-124534965D01*
X89550000Y-116750000D02*
X89900000Y-117100000D01*
X89534998Y-116750000D02*
X89550000Y-116750000D01*
D37*
X76900000Y-118400000D02*
X78800000Y-118400000D01*
X78800000Y-118400000D02*
X78900000Y-118500000D01*
X76500000Y-121649180D02*
X76500000Y-120200000D01*
X76500000Y-120200000D02*
X74700000Y-118400000D01*
D36*
X93500000Y-92750000D02*
X93750000Y-92750000D01*
X92250000Y-94000000D02*
X93500000Y-92750000D01*
D35*
X88600000Y-115815002D02*
X89534998Y-116750000D01*
X89250000Y-116500000D02*
X89500000Y-116750000D01*
X89250000Y-116465002D02*
X89250000Y-116500000D01*
X88600000Y-115815002D02*
X89034998Y-116250000D01*
X89034998Y-116250000D02*
X89250000Y-116465002D01*
X88800000Y-117000000D02*
X88800000Y-116484998D01*
X88800000Y-116484998D02*
X89034998Y-116250000D01*
X88600000Y-115100000D02*
X88600000Y-115815002D01*
X88600000Y-115100000D02*
X88600000Y-116800000D01*
X88600000Y-116800000D02*
X88800000Y-117000000D01*
X74799999Y-106799999D02*
X74000000Y-106000000D01*
X75499996Y-109500000D02*
X75499996Y-107499996D01*
X74799999Y-105200001D02*
X74000000Y-106000000D01*
X75499996Y-107499996D02*
X74799999Y-106799999D01*
X76400000Y-103600000D02*
X74799999Y-105200001D01*
X83100000Y-103600000D02*
X76400000Y-103600000D01*
X89500000Y-108100000D02*
X89500000Y-109499996D01*
X92300000Y-105300000D02*
X89500000Y-108100000D01*
D38*
X112190000Y-101239990D02*
X112200000Y-101249990D01*
X112190000Y-99740000D02*
X112190000Y-101239990D01*
X95500000Y-100700000D02*
X94600000Y-100700000D01*
X92300000Y-103885787D02*
X92300000Y-105300000D01*
X94600000Y-100700000D02*
X92300000Y-103000000D01*
X92300000Y-103000000D02*
X92300000Y-103885787D01*
D35*
X114000000Y-122600000D02*
X112400000Y-122600000D01*
X112400000Y-122600000D02*
X112000000Y-123000000D01*
X95500000Y-100700000D02*
X94754164Y-100700000D01*
X94754164Y-100700000D02*
X92277082Y-103177082D01*
X86248670Y-116402660D02*
X86672339Y-116402660D01*
X86672339Y-116402660D02*
X87650000Y-115424999D01*
X87650000Y-115424999D02*
X87650000Y-115100000D01*
D37*
X76500000Y-127150820D02*
X76249180Y-127150820D01*
X76249180Y-127150820D02*
X74900000Y-128500000D01*
D39*
X100650820Y-124200000D02*
X99651330Y-124200000D01*
X99651330Y-124200000D02*
X96700510Y-127150820D01*
X96700510Y-127150820D02*
X79300100Y-127150820D01*
X105120000Y-124600000D02*
X104720000Y-124200000D01*
X104720000Y-124200000D02*
X100650820Y-124200000D01*
D37*
X77300000Y-127950820D02*
X76500000Y-127150820D01*
D39*
X79300100Y-127150820D02*
X76500000Y-127150820D01*
X86248670Y-116402660D02*
X76500000Y-126151330D01*
X76500000Y-126151330D02*
X76500000Y-127150820D01*
X76500000Y-127150820D02*
X70849180Y-121500000D01*
X70849180Y-121500000D02*
X67000000Y-121500000D01*
D35*
X86900000Y-117000000D02*
X86900000Y-116125000D01*
X86900000Y-116125000D02*
X86775000Y-116000000D01*
D37*
X103720000Y-123950000D02*
X103720000Y-124175000D01*
X103720000Y-124175000D02*
X104145000Y-124600000D01*
X104145000Y-124600000D02*
X105120000Y-124600000D01*
D39*
X107860000Y-127340000D02*
X105120000Y-124600000D01*
D36*
X106560000Y-126040000D02*
X107860000Y-127340000D01*
D35*
X102700000Y-99330500D02*
X102650000Y-99280500D01*
X102650000Y-99280500D02*
X102650000Y-99000000D01*
X102650000Y-99000000D02*
X102550000Y-98900000D01*
X102550000Y-98900000D02*
X97700000Y-98900000D01*
X97700000Y-98900000D02*
X97000000Y-98200000D01*
X97000000Y-98200000D02*
X96600000Y-98200000D01*
X102600000Y-102800000D02*
X102650000Y-102850000D01*
X102700000Y-100402000D02*
X102700000Y-102800000D01*
X102700000Y-102800000D02*
X102650000Y-102850000D01*
X109650000Y-99740000D02*
X108428686Y-99740000D01*
X108428686Y-99740000D02*
X107688686Y-99000000D01*
X107688686Y-99000000D02*
X103030500Y-99000000D01*
X103030500Y-99000000D02*
X102700000Y-99330500D01*
X102700000Y-99330500D02*
X102700000Y-100402000D01*
X96250000Y-102800000D02*
X97850000Y-102800000D01*
X97850000Y-102800000D02*
X99300000Y-102800000D01*
X99300000Y-102800000D02*
X99450000Y-102950000D01*
X99450000Y-102950000D02*
X99450000Y-101850000D01*
X99450000Y-101850000D02*
X100160000Y-101140000D01*
X100160000Y-101140000D02*
X100160000Y-100402000D01*
D38*
X104250000Y-104900000D02*
X104250000Y-104800700D01*
X104250000Y-104800700D02*
X105550700Y-103500000D01*
D35*
X101430000Y-100402000D02*
X101430000Y-108330000D01*
X101430000Y-108330000D02*
X102100000Y-109000000D01*
X103970000Y-100402000D02*
X103970000Y-102420000D01*
X103970000Y-102420000D02*
X104250000Y-102700000D01*
X100160000Y-94052000D02*
X100160000Y-91860000D01*
X100160000Y-91860000D02*
X99550000Y-91250000D01*
X99550000Y-91250000D02*
X92000000Y-91250000D01*
X92000000Y-91250000D02*
X91500000Y-91750000D01*
D36*
X87700000Y-89300000D02*
X87700000Y-87600000D01*
X87700000Y-87600000D02*
X87600000Y-87500000D01*
D35*
X88350000Y-91500000D02*
X88500000Y-91500000D01*
X101400000Y-87900000D02*
X101400000Y-86900000D01*
X88500000Y-91500000D02*
X90600000Y-89400000D01*
X90600000Y-89400000D02*
X99900000Y-89400000D01*
X99900000Y-89400000D02*
X101400000Y-87900000D01*
X102700000Y-91600000D02*
X102400000Y-91300000D01*
X102700000Y-94052000D02*
X102700000Y-91600000D01*
D39*
X119001140Y-122900000D02*
X119001140Y-128798860D01*
X119001140Y-128798860D02*
X116500000Y-131300000D01*
X116500000Y-131300000D02*
X111310000Y-131300000D01*
X111310000Y-131300000D02*
X107860000Y-131300000D01*
D37*
X64230000Y-110660000D02*
X69160000Y-110660000D01*
X69160000Y-110660000D02*
X71900000Y-113400000D01*
X71900000Y-113400000D02*
X77485789Y-113400000D01*
X77485789Y-113400000D02*
X78900002Y-113400000D01*
X96250000Y-112550000D02*
X96200000Y-112600000D01*
X96250000Y-105000000D02*
X96250000Y-112550000D01*
D39*
X64000000Y-121500000D02*
X64000000Y-124770000D01*
X64000000Y-124770000D02*
X66580000Y-127350000D01*
X64000000Y-121500000D02*
X64000000Y-115970000D01*
X64000000Y-115970000D02*
X64230000Y-115740000D01*
X64230000Y-115740000D02*
X61690000Y-113200000D01*
X64230000Y-110660000D02*
X64230000Y-115740000D01*
X56610000Y-113200000D02*
X61690000Y-113200000D01*
X61690000Y-113200000D02*
X64230000Y-110660000D01*
D37*
X115998860Y-121950000D02*
X116950000Y-121950000D01*
X116950000Y-121950000D02*
X118100000Y-120800000D01*
X118100000Y-120800000D02*
X118100000Y-120300000D01*
D35*
X106510000Y-94052000D02*
X106510000Y-95123500D01*
X106510000Y-95123500D02*
X104883500Y-96750000D01*
X104883500Y-96750000D02*
X89500000Y-96750000D01*
X88500000Y-95750000D02*
X88350000Y-95750000D01*
X89500000Y-96750000D02*
X88500000Y-95750000D01*
X106510000Y-94052000D02*
X106510000Y-93686498D01*
X109700000Y-94610000D02*
X109650000Y-94660000D01*
X106510000Y-94052000D02*
X109042000Y-94052000D01*
X109042000Y-94052000D02*
X109650000Y-94660000D01*
D40*
X108942000Y-93952000D02*
X109650000Y-94660000D01*
D35*
X105240000Y-94052000D02*
X105240000Y-94369500D01*
X105240000Y-94369500D02*
X103709500Y-95900000D01*
X103709500Y-95900000D02*
X90800000Y-95900000D01*
X90800000Y-95900000D02*
X90400000Y-95500000D01*
X90400000Y-95500000D02*
X90400000Y-95400000D01*
X90500000Y-95500000D02*
X90400000Y-95400000D01*
X88250000Y-99000000D02*
X88250000Y-97600000D01*
X88250000Y-97600000D02*
X88350000Y-97500000D01*
D38*
X110976399Y-93629197D02*
X110497204Y-93150002D01*
X110976399Y-95873601D02*
X110976399Y-93629197D01*
X107247998Y-93050002D02*
X105924498Y-93050002D01*
X107347998Y-93150002D02*
X107247998Y-93050002D01*
X110497204Y-93150002D02*
X107347998Y-93150002D01*
X105924498Y-93050002D02*
X105240000Y-93734500D01*
X109650000Y-97200000D02*
X110976399Y-95873601D01*
X105240000Y-93734500D02*
X105240000Y-94052000D01*
D35*
X105240000Y-94052000D02*
X105240000Y-94597502D01*
X89700000Y-92300000D02*
X89700000Y-91300000D01*
X88500000Y-93500000D02*
X89700000Y-92300000D01*
X102560042Y-87999989D02*
X104300011Y-87999989D01*
X88350000Y-93500000D02*
X88500000Y-93500000D01*
X90710036Y-90289964D02*
X100270067Y-90289964D01*
X100270067Y-90289964D02*
X102560042Y-87999989D01*
X104300011Y-87999989D02*
X104900000Y-87400000D01*
X89700000Y-91300000D02*
X90710036Y-90289964D01*
X107264000Y-100402000D02*
X107700000Y-100838000D01*
X106510000Y-100402000D02*
X107264000Y-100402000D01*
X107700000Y-100838000D02*
X107700000Y-101249990D01*
D38*
X112190000Y-97200000D02*
X110900001Y-98489999D01*
X110250001Y-100990001D02*
X108390001Y-100990001D01*
X110900001Y-98489999D02*
X110900001Y-100340001D01*
X110900001Y-100340001D02*
X110250001Y-100990001D01*
X108390001Y-100990001D02*
X107802000Y-100402000D01*
X107802000Y-100402000D02*
X106510000Y-100402000D01*
D35*
X122000000Y-118000000D02*
X122000000Y-107000000D01*
X115900000Y-120300000D02*
X115900000Y-120100000D01*
X121000000Y-119000000D02*
X122000000Y-118000000D01*
X106600000Y-102500000D02*
X105240000Y-101140000D01*
X115900000Y-120100000D02*
X117000000Y-119000000D01*
X117000000Y-119000000D02*
X121000000Y-119000000D01*
X122000000Y-107000000D02*
X117500000Y-102500000D01*
X117500000Y-102500000D02*
X106600000Y-102500000D01*
X105240000Y-101140000D02*
X105240000Y-100402000D01*
D40*
X105240000Y-100402000D02*
X105240000Y-100084500D01*
D37*
X115900000Y-120300000D02*
X114100000Y-120300000D01*
X114100000Y-120300000D02*
X114000000Y-120400000D01*
D35*
X101430000Y-94052000D02*
X101430000Y-93734500D01*
X101100000Y-93404500D02*
X101100000Y-90700000D01*
X101430000Y-93734500D02*
X101100000Y-93404500D01*
X101100000Y-90700000D02*
X103000000Y-88800000D01*
X103000000Y-88800000D02*
X105171822Y-88800000D01*
X105171822Y-88800000D02*
X106900000Y-90528178D01*
X106900000Y-90528178D02*
X106900000Y-91700000D01*
D40*
X101450000Y-94032000D02*
X101430000Y-94052000D01*
D35*
X103970000Y-94052000D02*
X103970000Y-90730000D01*
X103970000Y-90730000D02*
X104200000Y-90500000D01*
D36*
X81950000Y-115750000D02*
X83150000Y-115750000D01*
X83150000Y-115750000D02*
X83500000Y-115400000D01*
X83500000Y-115400000D02*
X83500000Y-113150000D01*
X83500000Y-113150000D02*
X83900000Y-112750000D01*
X83500000Y-115225000D02*
X83500000Y-115400000D01*
X91200000Y-99500000D02*
X91200000Y-98900000D01*
X91200000Y-98900000D02*
X91800000Y-98300000D01*
X86150000Y-91500000D02*
X83200000Y-91500000D01*
X83200000Y-91500000D02*
X83100000Y-91600000D01*
D37*
X83100000Y-93600000D02*
X86050000Y-93600000D01*
X86050000Y-93600000D02*
X86150000Y-93500000D01*
X83100000Y-95600000D02*
X86000000Y-95600000D01*
X86000000Y-95600000D02*
X86150000Y-95750000D01*
X83100000Y-97600000D02*
X86050000Y-97600000D01*
X86050000Y-97600000D02*
X86150000Y-97500000D01*
D35*
X63400000Y-91600000D02*
X67400000Y-91600000D01*
X67400000Y-91600000D02*
X71500000Y-87500000D01*
X71500000Y-87500000D02*
X85400000Y-87500000D01*
X85700000Y-120200000D02*
X85600000Y-120300000D01*
X85600000Y-120300000D02*
X84900000Y-120300000D01*
X84900000Y-120300000D02*
X81100000Y-124100000D01*
X81100000Y-124100000D02*
X81100000Y-124800000D01*
X89550000Y-115100000D02*
X89550000Y-115350000D01*
X89550000Y-115350000D02*
X92200000Y-118000000D01*
X89550000Y-115100000D02*
X89550000Y-115305000D01*
D41*
G36*
X122239691Y-129907285D02*
X121974953Y-131238212D01*
X121259259Y-132309323D01*
X120188150Y-133025014D01*
X118857224Y-133289752D01*
X109645174Y-133289752D01*
X109767809Y-133207809D01*
X109908157Y-132997765D01*
X109920642Y-132935000D01*
X116499995Y-132935000D01*
X116500000Y-132935001D01*
X117125688Y-132810543D01*
X117656120Y-132456120D01*
X120157260Y-129954980D01*
X120511683Y-129424548D01*
X120636141Y-128798860D01*
X120636140Y-128798855D01*
X120636140Y-122900000D01*
X120511683Y-122274313D01*
X120500926Y-122258214D01*
X120499727Y-122252185D01*
X120359379Y-122042141D01*
X120354270Y-122038727D01*
X120157260Y-121743880D01*
X119626827Y-121389457D01*
X119055912Y-121275895D01*
X119157809Y-121207809D01*
X119298157Y-120997765D01*
X119347440Y-120750000D01*
X119347440Y-119885000D01*
X120999995Y-119885000D01*
X121000000Y-119885001D01*
X121282484Y-119828810D01*
X121338675Y-119817633D01*
X121625790Y-119625790D01*
X121625791Y-119625789D01*
X122239691Y-119011888D01*
X122239691Y-129907285D01*
X122239691Y-129907285D01*
G37*
X122239691Y-129907285D02*
X121974953Y-131238212D01*
X121259259Y-132309323D01*
X120188150Y-133025014D01*
X118857224Y-133289752D01*
X109645174Y-133289752D01*
X109767809Y-133207809D01*
X109908157Y-132997765D01*
X109920642Y-132935000D01*
X116499995Y-132935000D01*
X116500000Y-132935001D01*
X117125688Y-132810543D01*
X117656120Y-132456120D01*
X120157260Y-129954980D01*
X120511683Y-129424548D01*
X120636141Y-128798860D01*
X120636140Y-128798855D01*
X120636140Y-122900000D01*
X120511683Y-122274313D01*
X120500926Y-122258214D01*
X120499727Y-122252185D01*
X120359379Y-122042141D01*
X120354270Y-122038727D01*
X120157260Y-121743880D01*
X119626827Y-121389457D01*
X119055912Y-121275895D01*
X119157809Y-121207809D01*
X119298157Y-120997765D01*
X119347440Y-120750000D01*
X119347440Y-119885000D01*
X120999995Y-119885000D01*
X121000000Y-119885001D01*
X121282484Y-119828810D01*
X121338675Y-119817633D01*
X121625790Y-119625790D01*
X121625791Y-119625789D01*
X122239691Y-119011888D01*
X122239691Y-129907285D01*
G36*
X61252560Y-90200000D02*
X61301843Y-90447765D01*
X61403564Y-90600000D01*
X61301843Y-90752235D01*
X61252560Y-91000000D01*
X61252560Y-92200000D01*
X61301843Y-92447765D01*
X61403564Y-92600000D01*
X61301843Y-92752235D01*
X61252560Y-93000000D01*
X61252560Y-94200000D01*
X61301843Y-94447765D01*
X61403564Y-94600000D01*
X61301843Y-94752235D01*
X61252560Y-95000000D01*
X61252560Y-96200000D01*
X61301843Y-96447765D01*
X61403564Y-96600000D01*
X61301843Y-96752235D01*
X61252560Y-97000000D01*
X61252560Y-98200000D01*
X61301843Y-98447765D01*
X61403564Y-98600000D01*
X61301843Y-98752235D01*
X61252560Y-99000000D01*
X61252560Y-100200000D01*
X61301843Y-100447765D01*
X61403564Y-100600000D01*
X61301843Y-100752235D01*
X61252560Y-101000000D01*
X61252560Y-102200000D01*
X61301843Y-102447765D01*
X61403564Y-102600000D01*
X61301843Y-102752235D01*
X61252560Y-103000000D01*
X61252560Y-104200000D01*
X61301843Y-104447765D01*
X61422998Y-104629085D01*
X61422998Y-104748748D01*
X61264250Y-104590000D01*
X60823691Y-104590000D01*
X60590302Y-104686673D01*
X60411673Y-104865301D01*
X60315000Y-105098690D01*
X60315000Y-105314250D01*
X60473750Y-105473000D01*
X61423000Y-105473000D01*
X61423000Y-105453000D01*
X61677000Y-105453000D01*
X61677000Y-105473000D01*
X61697000Y-105473000D01*
X61697000Y-105727000D01*
X61677000Y-105727000D01*
X61677000Y-106451250D01*
X61835750Y-106610000D01*
X62276309Y-106610000D01*
X62509698Y-106513327D01*
X62510898Y-106512127D01*
X62602235Y-106573157D01*
X62850000Y-106622440D01*
X62976498Y-106622440D01*
X63015654Y-106648603D01*
X63450000Y-106735000D01*
X65629868Y-106735000D01*
X65767868Y-106873000D01*
X53000000Y-106873000D01*
X52951399Y-106882667D01*
X52910197Y-106910197D01*
X52882667Y-106951399D01*
X52873000Y-107000000D01*
X52873000Y-119000000D01*
X52882667Y-119048601D01*
X52910197Y-119089803D01*
X52951399Y-119117333D01*
X53000000Y-119127000D01*
X62365000Y-119127000D01*
X62365000Y-124769995D01*
X62364999Y-124770000D01*
X62489457Y-125395688D01*
X62843880Y-125926120D01*
X64482560Y-127564800D01*
X64482560Y-128800000D01*
X64531843Y-129047765D01*
X64672191Y-129257809D01*
X64882235Y-129398157D01*
X65130000Y-129447440D01*
X65607172Y-129447440D01*
X65435435Y-129518576D01*
X65281756Y-129832151D01*
X66580000Y-131130395D01*
X67878244Y-129832151D01*
X67724565Y-129518576D01*
X67542346Y-129447440D01*
X68030000Y-129447440D01*
X68277765Y-129398157D01*
X68487809Y-129257809D01*
X68628157Y-129047765D01*
X68677440Y-128800000D01*
X68677440Y-125900000D01*
X68628157Y-125652235D01*
X68487809Y-125442191D01*
X68277765Y-125301843D01*
X68030000Y-125252560D01*
X66794800Y-125252560D01*
X65635000Y-124092760D01*
X65635000Y-122343508D01*
X65843880Y-122656120D01*
X65901174Y-122694403D01*
X65901843Y-122697765D01*
X66042191Y-122907809D01*
X66252235Y-123048157D01*
X66500000Y-123097440D01*
X66811173Y-123097440D01*
X67000000Y-123135000D01*
X70171940Y-123135000D01*
X74252012Y-127215071D01*
X74088200Y-127282757D01*
X73684176Y-127686077D01*
X73465250Y-128213309D01*
X73464752Y-128784187D01*
X73682757Y-129311800D01*
X74086077Y-129715824D01*
X74307669Y-129807837D01*
X73973170Y-130031343D01*
X73597069Y-130594217D01*
X73465000Y-131258173D01*
X73465000Y-132141827D01*
X73597069Y-132805783D01*
X73920447Y-133289752D01*
X67269901Y-133289752D01*
X67724565Y-133101424D01*
X67878244Y-132787849D01*
X66580000Y-131489605D01*
X65281756Y-132787849D01*
X65435435Y-133101424D01*
X65917848Y-133289752D01*
X55557467Y-133289752D01*
X54226540Y-133025014D01*
X53155429Y-132309320D01*
X52439738Y-131238211D01*
X52380044Y-130938108D01*
X64486934Y-130938108D01*
X64503942Y-131767398D01*
X64788576Y-132454565D01*
X65102151Y-132608244D01*
X66400395Y-131310000D01*
X66759605Y-131310000D01*
X68057849Y-132608244D01*
X68371424Y-132454565D01*
X68673066Y-131681892D01*
X68656058Y-130852602D01*
X68473812Y-130412619D01*
X68824613Y-130412619D01*
X69164155Y-131234372D01*
X69792321Y-131863636D01*
X70613481Y-132204611D01*
X71502619Y-132205387D01*
X72324372Y-131865845D01*
X72953636Y-131237679D01*
X73294611Y-130416519D01*
X73295387Y-129527381D01*
X72955845Y-128705628D01*
X72327679Y-128076364D01*
X71506519Y-127735389D01*
X70617381Y-127734613D01*
X69795628Y-128074155D01*
X69166364Y-128702321D01*
X68825389Y-129523481D01*
X68824613Y-130412619D01*
X68473812Y-130412619D01*
X68371424Y-130165435D01*
X68057849Y-130011756D01*
X66759605Y-131310000D01*
X66400395Y-131310000D01*
X65102151Y-130011756D01*
X64788576Y-130165435D01*
X64486934Y-130938108D01*
X52380044Y-130938108D01*
X52175000Y-129907285D01*
X52175000Y-106461615D01*
X52174992Y-106461572D01*
X52176049Y-106271100D01*
X52179222Y-106080574D01*
X52184518Y-105889953D01*
X52184679Y-105885750D01*
X60315000Y-105885750D01*
X60315000Y-106101310D01*
X60411673Y-106334699D01*
X60590302Y-106513327D01*
X60823691Y-106610000D01*
X61264250Y-106610000D01*
X61423000Y-106451250D01*
X61423000Y-105727000D01*
X60473750Y-105727000D01*
X60315000Y-105885750D01*
X52184679Y-105885750D01*
X52191827Y-105699608D01*
X52201267Y-105508994D01*
X52212710Y-105318876D01*
X52226278Y-105128732D01*
X52241977Y-104938425D01*
X52259584Y-104748500D01*
X52279417Y-104558638D01*
X52301216Y-104368529D01*
X52324978Y-104179009D01*
X52350878Y-103989623D01*
X52378844Y-103800031D01*
X52408704Y-103610854D01*
X52440704Y-103421744D01*
X52474661Y-103232665D01*
X52510612Y-103043946D01*
X52548607Y-102855320D01*
X52588529Y-102666994D01*
X52630471Y-102478975D01*
X52674472Y-102291006D01*
X52720420Y-102103257D01*
X52768333Y-101915565D01*
X52818130Y-101728437D01*
X52869948Y-101541527D01*
X52923760Y-101354778D01*
X52979534Y-101168123D01*
X53037237Y-100981871D01*
X53096741Y-100796115D01*
X53158280Y-100610628D01*
X53221806Y-100425274D01*
X53247493Y-100352619D01*
X55274613Y-100352619D01*
X55614155Y-101174372D01*
X56242321Y-101803636D01*
X57063481Y-102144611D01*
X57952619Y-102145387D01*
X58774372Y-101805845D01*
X59403636Y-101177679D01*
X59744611Y-100356519D01*
X59745387Y-99467381D01*
X59405845Y-98645628D01*
X58777679Y-98016364D01*
X57956519Y-97675389D01*
X57067381Y-97674613D01*
X56245628Y-98014155D01*
X55616364Y-98642321D01*
X55275389Y-99463481D01*
X55274613Y-100352619D01*
X53247493Y-100352619D01*
X53287197Y-100240318D01*
X53354526Y-100055647D01*
X53423691Y-99871369D01*
X53494803Y-99687446D01*
X53567821Y-99503983D01*
X53642799Y-99320605D01*
X53719601Y-99137752D01*
X53798212Y-98955361D01*
X53878765Y-98773438D01*
X53961211Y-98591787D01*
X54045576Y-98410449D01*
X54131653Y-98229572D01*
X54219535Y-98049550D01*
X54309537Y-97869448D01*
X54401188Y-97689929D01*
X54494661Y-97511031D01*
X54590025Y-97332626D01*
X54687185Y-97154516D01*
X54786149Y-96977157D01*
X54886904Y-96800107D01*
X54989516Y-96623715D01*
X55093912Y-96447748D01*
X55200145Y-96272312D01*
X55308099Y-96097409D01*
X55417754Y-95923167D01*
X55529291Y-95749546D01*
X55642572Y-95576367D01*
X55757571Y-95403919D01*
X55874375Y-95231969D01*
X55992877Y-95060682D01*
X56113175Y-94890007D01*
X56235132Y-94720103D01*
X56359051Y-94550495D01*
X56484452Y-94381801D01*
X56611786Y-94213549D01*
X56740490Y-94046224D01*
X56871139Y-93879553D01*
X57003480Y-93713397D01*
X57137511Y-93548098D01*
X57273073Y-93383515D01*
X57410312Y-93219899D01*
X57549624Y-93056473D01*
X57690332Y-92893925D01*
X57832537Y-92732434D01*
X57976439Y-92571677D01*
X58122169Y-92411608D01*
X58269447Y-92252235D01*
X58418418Y-92093703D01*
X58568950Y-91936049D01*
X58721193Y-91779122D01*
X58874967Y-91623105D01*
X59030262Y-91468004D01*
X59187357Y-91313644D01*
X59345935Y-91160143D01*
X59506192Y-91007503D01*
X59667939Y-90855720D01*
X59831200Y-90704949D01*
X59996103Y-90554991D01*
X60162621Y-90405967D01*
X60330603Y-90257909D01*
X60500124Y-90110761D01*
X60671332Y-89964528D01*
X60843975Y-89819209D01*
X61018110Y-89674967D01*
X61193931Y-89531563D01*
X61252560Y-89484469D01*
X61252560Y-90200000D01*
X61252560Y-90200000D01*
G37*
X61252560Y-90200000D02*
X61301843Y-90447765D01*
X61403564Y-90600000D01*
X61301843Y-90752235D01*
X61252560Y-91000000D01*
X61252560Y-92200000D01*
X61301843Y-92447765D01*
X61403564Y-92600000D01*
X61301843Y-92752235D01*
X61252560Y-93000000D01*
X61252560Y-94200000D01*
X61301843Y-94447765D01*
X61403564Y-94600000D01*
X61301843Y-94752235D01*
X61252560Y-95000000D01*
X61252560Y-96200000D01*
X61301843Y-96447765D01*
X61403564Y-96600000D01*
X61301843Y-96752235D01*
X61252560Y-97000000D01*
X61252560Y-98200000D01*
X61301843Y-98447765D01*
X61403564Y-98600000D01*
X61301843Y-98752235D01*
X61252560Y-99000000D01*
X61252560Y-100200000D01*
X61301843Y-100447765D01*
X61403564Y-100600000D01*
X61301843Y-100752235D01*
X61252560Y-101000000D01*
X61252560Y-102200000D01*
X61301843Y-102447765D01*
X61403564Y-102600000D01*
X61301843Y-102752235D01*
X61252560Y-103000000D01*
X61252560Y-104200000D01*
X61301843Y-104447765D01*
X61422998Y-104629085D01*
X61422998Y-104748748D01*
X61264250Y-104590000D01*
X60823691Y-104590000D01*
X60590302Y-104686673D01*
X60411673Y-104865301D01*
X60315000Y-105098690D01*
X60315000Y-105314250D01*
X60473750Y-105473000D01*
X61423000Y-105473000D01*
X61423000Y-105453000D01*
X61677000Y-105453000D01*
X61677000Y-105473000D01*
X61697000Y-105473000D01*
X61697000Y-105727000D01*
X61677000Y-105727000D01*
X61677000Y-106451250D01*
X61835750Y-106610000D01*
X62276309Y-106610000D01*
X62509698Y-106513327D01*
X62510898Y-106512127D01*
X62602235Y-106573157D01*
X62850000Y-106622440D01*
X62976498Y-106622440D01*
X63015654Y-106648603D01*
X63450000Y-106735000D01*
X65629868Y-106735000D01*
X65767868Y-106873000D01*
X53000000Y-106873000D01*
X52951399Y-106882667D01*
X52910197Y-106910197D01*
X52882667Y-106951399D01*
X52873000Y-107000000D01*
X52873000Y-119000000D01*
X52882667Y-119048601D01*
X52910197Y-119089803D01*
X52951399Y-119117333D01*
X53000000Y-119127000D01*
X62365000Y-119127000D01*
X62365000Y-124769995D01*
X62364999Y-124770000D01*
X62489457Y-125395688D01*
X62843880Y-125926120D01*
X64482560Y-127564800D01*
X64482560Y-128800000D01*
X64531843Y-129047765D01*
X64672191Y-129257809D01*
X64882235Y-129398157D01*
X65130000Y-129447440D01*
X65607172Y-129447440D01*
X65435435Y-129518576D01*
X65281756Y-129832151D01*
X66580000Y-131130395D01*
X67878244Y-129832151D01*
X67724565Y-129518576D01*
X67542346Y-129447440D01*
X68030000Y-129447440D01*
X68277765Y-129398157D01*
X68487809Y-129257809D01*
X68628157Y-129047765D01*
X68677440Y-128800000D01*
X68677440Y-125900000D01*
X68628157Y-125652235D01*
X68487809Y-125442191D01*
X68277765Y-125301843D01*
X68030000Y-125252560D01*
X66794800Y-125252560D01*
X65635000Y-124092760D01*
X65635000Y-122343508D01*
X65843880Y-122656120D01*
X65901174Y-122694403D01*
X65901843Y-122697765D01*
X66042191Y-122907809D01*
X66252235Y-123048157D01*
X66500000Y-123097440D01*
X66811173Y-123097440D01*
X67000000Y-123135000D01*
X70171940Y-123135000D01*
X74252012Y-127215071D01*
X74088200Y-127282757D01*
X73684176Y-127686077D01*
X73465250Y-128213309D01*
X73464752Y-128784187D01*
X73682757Y-129311800D01*
X74086077Y-129715824D01*
X74307669Y-129807837D01*
X73973170Y-130031343D01*
X73597069Y-130594217D01*
X73465000Y-131258173D01*
X73465000Y-132141827D01*
X73597069Y-132805783D01*
X73920447Y-133289752D01*
X67269901Y-133289752D01*
X67724565Y-133101424D01*
X67878244Y-132787849D01*
X66580000Y-131489605D01*
X65281756Y-132787849D01*
X65435435Y-133101424D01*
X65917848Y-133289752D01*
X55557467Y-133289752D01*
X54226540Y-133025014D01*
X53155429Y-132309320D01*
X52439738Y-131238211D01*
X52380044Y-130938108D01*
X64486934Y-130938108D01*
X64503942Y-131767398D01*
X64788576Y-132454565D01*
X65102151Y-132608244D01*
X66400395Y-131310000D01*
X66759605Y-131310000D01*
X68057849Y-132608244D01*
X68371424Y-132454565D01*
X68673066Y-131681892D01*
X68656058Y-130852602D01*
X68473812Y-130412619D01*
X68824613Y-130412619D01*
X69164155Y-131234372D01*
X69792321Y-131863636D01*
X70613481Y-132204611D01*
X71502619Y-132205387D01*
X72324372Y-131865845D01*
X72953636Y-131237679D01*
X73294611Y-130416519D01*
X73295387Y-129527381D01*
X72955845Y-128705628D01*
X72327679Y-128076364D01*
X71506519Y-127735389D01*
X70617381Y-127734613D01*
X69795628Y-128074155D01*
X69166364Y-128702321D01*
X68825389Y-129523481D01*
X68824613Y-130412619D01*
X68473812Y-130412619D01*
X68371424Y-130165435D01*
X68057849Y-130011756D01*
X66759605Y-131310000D01*
X66400395Y-131310000D01*
X65102151Y-130011756D01*
X64788576Y-130165435D01*
X64486934Y-130938108D01*
X52380044Y-130938108D01*
X52175000Y-129907285D01*
X52175000Y-106461615D01*
X52174992Y-106461572D01*
X52176049Y-106271100D01*
X52179222Y-106080574D01*
X52184518Y-105889953D01*
X52184679Y-105885750D01*
X60315000Y-105885750D01*
X60315000Y-106101310D01*
X60411673Y-106334699D01*
X60590302Y-106513327D01*
X60823691Y-106610000D01*
X61264250Y-106610000D01*
X61423000Y-106451250D01*
X61423000Y-105727000D01*
X60473750Y-105727000D01*
X60315000Y-105885750D01*
X52184679Y-105885750D01*
X52191827Y-105699608D01*
X52201267Y-105508994D01*
X52212710Y-105318876D01*
X52226278Y-105128732D01*
X52241977Y-104938425D01*
X52259584Y-104748500D01*
X52279417Y-104558638D01*
X52301216Y-104368529D01*
X52324978Y-104179009D01*
X52350878Y-103989623D01*
X52378844Y-103800031D01*
X52408704Y-103610854D01*
X52440704Y-103421744D01*
X52474661Y-103232665D01*
X52510612Y-103043946D01*
X52548607Y-102855320D01*
X52588529Y-102666994D01*
X52630471Y-102478975D01*
X52674472Y-102291006D01*
X52720420Y-102103257D01*
X52768333Y-101915565D01*
X52818130Y-101728437D01*
X52869948Y-101541527D01*
X52923760Y-101354778D01*
X52979534Y-101168123D01*
X53037237Y-100981871D01*
X53096741Y-100796115D01*
X53158280Y-100610628D01*
X53221806Y-100425274D01*
X53247493Y-100352619D01*
X55274613Y-100352619D01*
X55614155Y-101174372D01*
X56242321Y-101803636D01*
X57063481Y-102144611D01*
X57952619Y-102145387D01*
X58774372Y-101805845D01*
X59403636Y-101177679D01*
X59744611Y-100356519D01*
X59745387Y-99467381D01*
X59405845Y-98645628D01*
X58777679Y-98016364D01*
X57956519Y-97675389D01*
X57067381Y-97674613D01*
X56245628Y-98014155D01*
X55616364Y-98642321D01*
X55275389Y-99463481D01*
X55274613Y-100352619D01*
X53247493Y-100352619D01*
X53287197Y-100240318D01*
X53354526Y-100055647D01*
X53423691Y-99871369D01*
X53494803Y-99687446D01*
X53567821Y-99503983D01*
X53642799Y-99320605D01*
X53719601Y-99137752D01*
X53798212Y-98955361D01*
X53878765Y-98773438D01*
X53961211Y-98591787D01*
X54045576Y-98410449D01*
X54131653Y-98229572D01*
X54219535Y-98049550D01*
X54309537Y-97869448D01*
X54401188Y-97689929D01*
X54494661Y-97511031D01*
X54590025Y-97332626D01*
X54687185Y-97154516D01*
X54786149Y-96977157D01*
X54886904Y-96800107D01*
X54989516Y-96623715D01*
X55093912Y-96447748D01*
X55200145Y-96272312D01*
X55308099Y-96097409D01*
X55417754Y-95923167D01*
X55529291Y-95749546D01*
X55642572Y-95576367D01*
X55757571Y-95403919D01*
X55874375Y-95231969D01*
X55992877Y-95060682D01*
X56113175Y-94890007D01*
X56235132Y-94720103D01*
X56359051Y-94550495D01*
X56484452Y-94381801D01*
X56611786Y-94213549D01*
X56740490Y-94046224D01*
X56871139Y-93879553D01*
X57003480Y-93713397D01*
X57137511Y-93548098D01*
X57273073Y-93383515D01*
X57410312Y-93219899D01*
X57549624Y-93056473D01*
X57690332Y-92893925D01*
X57832537Y-92732434D01*
X57976439Y-92571677D01*
X58122169Y-92411608D01*
X58269447Y-92252235D01*
X58418418Y-92093703D01*
X58568950Y-91936049D01*
X58721193Y-91779122D01*
X58874967Y-91623105D01*
X59030262Y-91468004D01*
X59187357Y-91313644D01*
X59345935Y-91160143D01*
X59506192Y-91007503D01*
X59667939Y-90855720D01*
X59831200Y-90704949D01*
X59996103Y-90554991D01*
X60162621Y-90405967D01*
X60330603Y-90257909D01*
X60500124Y-90110761D01*
X60671332Y-89964528D01*
X60843975Y-89819209D01*
X61018110Y-89674967D01*
X61193931Y-89531563D01*
X61252560Y-89484469D01*
X61252560Y-90200000D01*
G36*
X105774800Y-127567040D02*
X105774638Y-127752913D01*
X106091392Y-128519515D01*
X106677400Y-129106547D01*
X106908625Y-129202560D01*
X106410000Y-129202560D01*
X106162235Y-129251843D01*
X105952191Y-129392191D01*
X105811843Y-129602235D01*
X105762560Y-129850000D01*
X105762560Y-132750000D01*
X105811843Y-132997765D01*
X105952191Y-133207809D01*
X106074826Y-133289752D01*
X84679553Y-133289752D01*
X85002931Y-132805783D01*
X85135000Y-132141827D01*
X85135000Y-131258173D01*
X85002931Y-130594217D01*
X84626830Y-130031343D01*
X84531433Y-129967600D01*
X101103256Y-129967600D01*
X101124915Y-130076488D01*
X101124613Y-130422619D01*
X101257957Y-130745335D01*
X101275288Y-130832465D01*
X101324212Y-130905685D01*
X101464155Y-131244372D01*
X101725339Y-131506013D01*
X101765195Y-131565661D01*
X101824322Y-131605168D01*
X102092321Y-131873636D01*
X102445742Y-132020389D01*
X102498391Y-132055568D01*
X102559952Y-132067813D01*
X102913481Y-132214611D01*
X103299650Y-132214948D01*
X103363256Y-132227600D01*
X103426306Y-132215059D01*
X103802619Y-132215387D01*
X104153475Y-132070416D01*
X104228121Y-132055568D01*
X104290850Y-132013654D01*
X104624372Y-131875845D01*
X104882023Y-131618644D01*
X104961317Y-131565661D01*
X105013837Y-131487060D01*
X105253636Y-131247679D01*
X105384718Y-130931998D01*
X105451224Y-130832465D01*
X105474374Y-130716083D01*
X105594611Y-130426519D01*
X105594887Y-130110221D01*
X105623256Y-129967600D01*
X105595135Y-129826225D01*
X105595387Y-129537381D01*
X105484112Y-129268076D01*
X105451224Y-129102735D01*
X105358383Y-128963790D01*
X105255845Y-128715628D01*
X105064471Y-128523919D01*
X104961317Y-128369539D01*
X104808286Y-128267287D01*
X104627679Y-128086364D01*
X104389505Y-127987466D01*
X104228121Y-127879632D01*
X104039417Y-127842096D01*
X103806519Y-127745389D01*
X103552118Y-127745167D01*
X103363256Y-127707600D01*
X103176044Y-127744839D01*
X102917381Y-127744613D01*
X102676216Y-127844260D01*
X102498391Y-127879632D01*
X102348955Y-127979482D01*
X102095628Y-128084155D01*
X101899929Y-128279512D01*
X101765195Y-128369539D01*
X101675955Y-128503096D01*
X101466364Y-128712321D01*
X101351795Y-128988235D01*
X101275288Y-129102735D01*
X101248657Y-129236618D01*
X101125389Y-129533481D01*
X101125106Y-129857752D01*
X101103256Y-129967600D01*
X84531433Y-129967600D01*
X84063956Y-129655242D01*
X83400000Y-129523173D01*
X82736044Y-129655242D01*
X82173170Y-130031343D01*
X81899734Y-130440568D01*
X81660161Y-130312526D01*
X81617609Y-130306538D01*
X81427000Y-130431269D01*
X81427000Y-131573000D01*
X81447000Y-131573000D01*
X81447000Y-131827000D01*
X81427000Y-131827000D01*
X81427000Y-132968731D01*
X81617609Y-133093462D01*
X81660161Y-133087474D01*
X81899734Y-132959432D01*
X82120447Y-133289752D01*
X76479553Y-133289752D01*
X76688841Y-132976531D01*
X76827386Y-133069104D01*
X77300000Y-133163113D01*
X77772614Y-133069104D01*
X78173277Y-132801390D01*
X78300000Y-132611735D01*
X78426723Y-132801390D01*
X78827386Y-133069104D01*
X79300000Y-133163113D01*
X79772614Y-133069104D01*
X80173277Y-132801390D01*
X80304342Y-132605236D01*
X80512828Y-132859255D01*
X80939839Y-133087474D01*
X80982391Y-133093462D01*
X81173000Y-132968731D01*
X81173000Y-131827000D01*
X81153000Y-131827000D01*
X81153000Y-131573000D01*
X81173000Y-131573000D01*
X81173000Y-130431269D01*
X80982391Y-130306538D01*
X80939839Y-130312526D01*
X80512828Y-130540745D01*
X80304342Y-130794764D01*
X80173277Y-130598610D01*
X79772614Y-130330896D01*
X79300000Y-130236887D01*
X78827386Y-130330896D01*
X78426723Y-130598610D01*
X78300000Y-130788265D01*
X78173277Y-130598610D01*
X77772614Y-130330896D01*
X77300000Y-130236887D01*
X76827386Y-130330896D01*
X76688841Y-130423469D01*
X76426830Y-130031343D01*
X75863956Y-129655242D01*
X75788871Y-129640307D01*
X75831401Y-129597850D01*
X77300100Y-129597850D01*
X77547865Y-129548567D01*
X77757909Y-129408219D01*
X77898257Y-129198175D01*
X77947540Y-128950410D01*
X77947540Y-128785820D01*
X96700505Y-128785820D01*
X96700510Y-128785821D01*
X97326198Y-128661363D01*
X97856630Y-128306940D01*
X100328569Y-125835000D01*
X104042760Y-125835000D01*
X105774800Y-127567040D01*
X105774800Y-127567040D01*
G37*
X105774800Y-127567040D02*
X105774638Y-127752913D01*
X106091392Y-128519515D01*
X106677400Y-129106547D01*
X106908625Y-129202560D01*
X106410000Y-129202560D01*
X106162235Y-129251843D01*
X105952191Y-129392191D01*
X105811843Y-129602235D01*
X105762560Y-129850000D01*
X105762560Y-132750000D01*
X105811843Y-132997765D01*
X105952191Y-133207809D01*
X106074826Y-133289752D01*
X84679553Y-133289752D01*
X85002931Y-132805783D01*
X85135000Y-132141827D01*
X85135000Y-131258173D01*
X85002931Y-130594217D01*
X84626830Y-130031343D01*
X84531433Y-129967600D01*
X101103256Y-129967600D01*
X101124915Y-130076488D01*
X101124613Y-130422619D01*
X101257957Y-130745335D01*
X101275288Y-130832465D01*
X101324212Y-130905685D01*
X101464155Y-131244372D01*
X101725339Y-131506013D01*
X101765195Y-131565661D01*
X101824322Y-131605168D01*
X102092321Y-131873636D01*
X102445742Y-132020389D01*
X102498391Y-132055568D01*
X102559952Y-132067813D01*
X102913481Y-132214611D01*
X103299650Y-132214948D01*
X103363256Y-132227600D01*
X103426306Y-132215059D01*
X103802619Y-132215387D01*
X104153475Y-132070416D01*
X104228121Y-132055568D01*
X104290850Y-132013654D01*
X104624372Y-131875845D01*
X104882023Y-131618644D01*
X104961317Y-131565661D01*
X105013837Y-131487060D01*
X105253636Y-131247679D01*
X105384718Y-130931998D01*
X105451224Y-130832465D01*
X105474374Y-130716083D01*
X105594611Y-130426519D01*
X105594887Y-130110221D01*
X105623256Y-129967600D01*
X105595135Y-129826225D01*
X105595387Y-129537381D01*
X105484112Y-129268076D01*
X105451224Y-129102735D01*
X105358383Y-128963790D01*
X105255845Y-128715628D01*
X105064471Y-128523919D01*
X104961317Y-128369539D01*
X104808286Y-128267287D01*
X104627679Y-128086364D01*
X104389505Y-127987466D01*
X104228121Y-127879632D01*
X104039417Y-127842096D01*
X103806519Y-127745389D01*
X103552118Y-127745167D01*
X103363256Y-127707600D01*
X103176044Y-127744839D01*
X102917381Y-127744613D01*
X102676216Y-127844260D01*
X102498391Y-127879632D01*
X102348955Y-127979482D01*
X102095628Y-128084155D01*
X101899929Y-128279512D01*
X101765195Y-128369539D01*
X101675955Y-128503096D01*
X101466364Y-128712321D01*
X101351795Y-128988235D01*
X101275288Y-129102735D01*
X101248657Y-129236618D01*
X101125389Y-129533481D01*
X101125106Y-129857752D01*
X101103256Y-129967600D01*
X84531433Y-129967600D01*
X84063956Y-129655242D01*
X83400000Y-129523173D01*
X82736044Y-129655242D01*
X82173170Y-130031343D01*
X81899734Y-130440568D01*
X81660161Y-130312526D01*
X81617609Y-130306538D01*
X81427000Y-130431269D01*
X81427000Y-131573000D01*
X81447000Y-131573000D01*
X81447000Y-131827000D01*
X81427000Y-131827000D01*
X81427000Y-132968731D01*
X81617609Y-133093462D01*
X81660161Y-133087474D01*
X81899734Y-132959432D01*
X82120447Y-133289752D01*
X76479553Y-133289752D01*
X76688841Y-132976531D01*
X76827386Y-133069104D01*
X77300000Y-133163113D01*
X77772614Y-133069104D01*
X78173277Y-132801390D01*
X78300000Y-132611735D01*
X78426723Y-132801390D01*
X78827386Y-133069104D01*
X79300000Y-133163113D01*
X79772614Y-133069104D01*
X80173277Y-132801390D01*
X80304342Y-132605236D01*
X80512828Y-132859255D01*
X80939839Y-133087474D01*
X80982391Y-133093462D01*
X81173000Y-132968731D01*
X81173000Y-131827000D01*
X81153000Y-131827000D01*
X81153000Y-131573000D01*
X81173000Y-131573000D01*
X81173000Y-130431269D01*
X80982391Y-130306538D01*
X80939839Y-130312526D01*
X80512828Y-130540745D01*
X80304342Y-130794764D01*
X80173277Y-130598610D01*
X79772614Y-130330896D01*
X79300000Y-130236887D01*
X78827386Y-130330896D01*
X78426723Y-130598610D01*
X78300000Y-130788265D01*
X78173277Y-130598610D01*
X77772614Y-130330896D01*
X77300000Y-130236887D01*
X76827386Y-130330896D01*
X76688841Y-130423469D01*
X76426830Y-130031343D01*
X75863956Y-129655242D01*
X75788871Y-129640307D01*
X75831401Y-129597850D01*
X77300100Y-129597850D01*
X77547865Y-129548567D01*
X77757909Y-129408219D01*
X77898257Y-129198175D01*
X77947540Y-128950410D01*
X77947540Y-128785820D01*
X96700505Y-128785820D01*
X96700510Y-128785821D01*
X97326198Y-128661363D01*
X97856630Y-128306940D01*
X100328569Y-125835000D01*
X104042760Y-125835000D01*
X105774800Y-127567040D01*
G36*
X94265000Y-100414250D02*
X94423750Y-100573000D01*
X95373000Y-100573000D01*
X95373000Y-100569956D01*
X95647000Y-100624458D01*
X95647000Y-100827000D01*
X95627000Y-100827000D01*
X95627000Y-100847000D01*
X95373000Y-100847000D01*
X95373000Y-100827000D01*
X94423750Y-100827000D01*
X94265000Y-100985750D01*
X94265000Y-101201310D01*
X94361673Y-101434699D01*
X94540302Y-101613327D01*
X94773691Y-101710000D01*
X95214250Y-101710000D01*
X95372998Y-101551252D01*
X95372998Y-101710000D01*
X95390368Y-101710000D01*
X95342191Y-101742191D01*
X95201843Y-101952235D01*
X95152560Y-102200000D01*
X95152560Y-103400000D01*
X95201843Y-103647765D01*
X95342191Y-103857809D01*
X95405334Y-103900000D01*
X95342191Y-103942191D01*
X95201843Y-104152235D01*
X95152560Y-104400000D01*
X95152560Y-105600000D01*
X95201843Y-105847765D01*
X95215000Y-105867456D01*
X95215000Y-111273058D01*
X94814722Y-111672637D01*
X94565284Y-112273352D01*
X94564716Y-112923795D01*
X94813106Y-113524943D01*
X95272637Y-113985278D01*
X95873352Y-114234716D01*
X96523795Y-114235284D01*
X97124943Y-113986894D01*
X97585278Y-113527363D01*
X97834716Y-112926648D01*
X97834803Y-112826187D01*
X115687277Y-112826187D01*
X115703503Y-113675387D01*
X115997261Y-114384582D01*
X116316030Y-114544365D01*
X117650395Y-113210000D01*
X118009605Y-113210000D01*
X119343970Y-114544365D01*
X119662739Y-114384582D01*
X119972723Y-113593813D01*
X119956497Y-112744613D01*
X119662739Y-112035418D01*
X119343970Y-111875635D01*
X118009605Y-113210000D01*
X117650395Y-113210000D01*
X116316030Y-111875635D01*
X115997261Y-112035418D01*
X115687277Y-112826187D01*
X97834803Y-112826187D01*
X97835284Y-112276205D01*
X97797174Y-112183970D01*
X108875635Y-112183970D01*
X109035418Y-112502739D01*
X109826187Y-112812723D01*
X110675387Y-112796497D01*
X111384582Y-112502739D01*
X111544365Y-112183970D01*
X110210000Y-110849605D01*
X108875635Y-112183970D01*
X97797174Y-112183970D01*
X97586894Y-111675057D01*
X97285000Y-111372635D01*
X97285000Y-106235000D01*
X97564250Y-106235000D01*
X97723000Y-106076250D01*
X97723000Y-105127000D01*
X97703000Y-105127000D01*
X97703000Y-104873000D01*
X97723000Y-104873000D01*
X97723000Y-104853000D01*
X97977000Y-104853000D01*
X97977000Y-104873000D01*
X97997000Y-104873000D01*
X97997000Y-105127000D01*
X97977000Y-105127000D01*
X97977000Y-106076250D01*
X98135750Y-106235000D01*
X98426310Y-106235000D01*
X98659699Y-106138327D01*
X98782050Y-106015975D01*
X98948690Y-106085000D01*
X99164250Y-106085000D01*
X99323000Y-105926250D01*
X99323000Y-104977000D01*
X99577000Y-104977000D01*
X99577000Y-105926250D01*
X99735750Y-106085000D01*
X99951310Y-106085000D01*
X100184699Y-105988327D01*
X100363327Y-105809698D01*
X100460000Y-105576309D01*
X100460000Y-105135750D01*
X100301250Y-104977000D01*
X99577000Y-104977000D01*
X99323000Y-104977000D01*
X99303000Y-104977000D01*
X99303000Y-104723000D01*
X99323000Y-104723000D01*
X99323000Y-104703000D01*
X99577000Y-104703000D01*
X99577000Y-104723000D01*
X100301250Y-104723000D01*
X100460000Y-104564250D01*
X100460000Y-104123691D01*
X100363327Y-103890302D01*
X100362127Y-103889102D01*
X100423157Y-103797765D01*
X100472440Y-103550000D01*
X100472440Y-102350000D01*
X100427502Y-102124078D01*
X100545000Y-102006579D01*
X100545000Y-108329995D01*
X100544999Y-108330000D01*
X100565358Y-108432347D01*
X100465284Y-108673352D01*
X100464716Y-109323795D01*
X100713106Y-109924943D01*
X101172637Y-110385278D01*
X101773352Y-110634716D01*
X102423795Y-110635284D01*
X103024943Y-110386894D01*
X103125826Y-110286187D01*
X108067277Y-110286187D01*
X108083503Y-111135387D01*
X108377261Y-111844582D01*
X108696030Y-112004365D01*
X110030395Y-110670000D01*
X110389605Y-110670000D01*
X111723970Y-112004365D01*
X112042739Y-111844582D01*
X112100971Y-111696030D01*
X116495635Y-111696030D01*
X117830000Y-113030395D01*
X119164365Y-111696030D01*
X119004582Y-111377261D01*
X118213813Y-111067277D01*
X117364613Y-111083503D01*
X116655418Y-111377261D01*
X116495635Y-111696030D01*
X112100971Y-111696030D01*
X112352723Y-111053813D01*
X112336497Y-110204613D01*
X112042739Y-109495418D01*
X111723970Y-109335635D01*
X110389605Y-110670000D01*
X110030395Y-110670000D01*
X108696030Y-109335635D01*
X108377261Y-109495418D01*
X108067277Y-110286187D01*
X103125826Y-110286187D01*
X103485278Y-109927363D01*
X103734716Y-109326648D01*
X103734864Y-109156030D01*
X108875635Y-109156030D01*
X110210000Y-110490395D01*
X111544365Y-109156030D01*
X111384582Y-108837261D01*
X110593813Y-108527277D01*
X109744613Y-108543503D01*
X109035418Y-108837261D01*
X108875635Y-109156030D01*
X103734864Y-109156030D01*
X103735284Y-108676205D01*
X103486894Y-108075057D01*
X103027363Y-107614722D01*
X102426648Y-107365284D01*
X102315000Y-107365187D01*
X102315000Y-105985000D01*
X102364250Y-105985000D01*
X102523000Y-105826250D01*
X102523000Y-104877000D01*
X102503000Y-104877000D01*
X102503000Y-104623000D01*
X102523000Y-104623000D01*
X102523000Y-104603000D01*
X102777000Y-104603000D01*
X102777000Y-104623000D01*
X102797000Y-104623000D01*
X102797000Y-104877000D01*
X102777000Y-104877000D01*
X102777000Y-105826250D01*
X102935750Y-105985000D01*
X103151310Y-105985000D01*
X103315043Y-105917179D01*
X103342191Y-105957809D01*
X103552235Y-106098157D01*
X103800000Y-106147440D01*
X104700000Y-106147440D01*
X104947765Y-106098157D01*
X105157809Y-105957809D01*
X105298157Y-105747765D01*
X105347440Y-105500000D01*
X105347440Y-104813418D01*
X105614638Y-104546220D01*
X105949480Y-104546220D01*
X106197245Y-104496937D01*
X106289205Y-104435490D01*
X106290822Y-104437107D01*
X106524211Y-104533780D01*
X106763550Y-104533780D01*
X106922300Y-104375030D01*
X106922300Y-103627000D01*
X107176300Y-103627000D01*
X107176300Y-104375030D01*
X107335050Y-104533780D01*
X107574389Y-104533780D01*
X107807778Y-104437107D01*
X107986407Y-104258479D01*
X108083080Y-104025090D01*
X108083080Y-103785750D01*
X107924330Y-103627000D01*
X107176300Y-103627000D01*
X106922300Y-103627000D01*
X106902300Y-103627000D01*
X106902300Y-103385000D01*
X117133420Y-103385000D01*
X121115000Y-107366579D01*
X121115000Y-117633421D01*
X120633420Y-118115000D01*
X117000005Y-118115000D01*
X117000000Y-118114999D01*
X116717516Y-118171190D01*
X116661325Y-118182367D01*
X116374210Y-118374210D01*
X116374208Y-118374213D01*
X115545860Y-119202560D01*
X115300000Y-119202560D01*
X115052235Y-119251843D01*
X115032544Y-119265000D01*
X114792285Y-119265000D01*
X114697765Y-119201843D01*
X114450000Y-119152560D01*
X113550000Y-119152560D01*
X113302235Y-119201843D01*
X113092191Y-119342191D01*
X112951843Y-119552235D01*
X112902560Y-119800000D01*
X112902560Y-121000000D01*
X112951843Y-121247765D01*
X113092191Y-121457809D01*
X113153320Y-121498654D01*
X113011673Y-121640302D01*
X112915000Y-121873691D01*
X112915000Y-122314250D01*
X113073750Y-122473000D01*
X113873000Y-122473000D01*
X113873000Y-122453000D01*
X114127000Y-122453000D01*
X114127000Y-122473000D01*
X114147000Y-122473000D01*
X114147000Y-122727000D01*
X114127000Y-122727000D01*
X114127000Y-123676250D01*
X114285750Y-123835000D01*
X114576310Y-123835000D01*
X114809699Y-123738327D01*
X114825026Y-123723000D01*
X115871860Y-123723000D01*
X115871860Y-123703000D01*
X116125860Y-123703000D01*
X116125860Y-123723000D01*
X116145860Y-123723000D01*
X116145860Y-123977000D01*
X116125860Y-123977000D01*
X116125860Y-124726300D01*
X116284610Y-124885050D01*
X117025600Y-124885050D01*
X117258989Y-124788377D01*
X117366140Y-124681225D01*
X117366140Y-128121620D01*
X115822760Y-129665000D01*
X109920642Y-129665000D01*
X109908157Y-129602235D01*
X109767809Y-129392191D01*
X109557765Y-129251843D01*
X109310000Y-129202560D01*
X108812134Y-129202560D01*
X109039515Y-129108608D01*
X109626547Y-128522600D01*
X109944638Y-127756552D01*
X109945362Y-126927087D01*
X109628608Y-126160485D01*
X109042600Y-125573453D01*
X108276552Y-125255362D01*
X108087436Y-125255197D01*
X106967990Y-124135750D01*
X114463430Y-124135750D01*
X114463430Y-124376359D01*
X114560103Y-124609748D01*
X114738731Y-124788377D01*
X114972120Y-124885050D01*
X115713110Y-124885050D01*
X115871860Y-124726300D01*
X115871860Y-123977000D01*
X114622180Y-123977000D01*
X114463430Y-124135750D01*
X106967990Y-124135750D01*
X106276120Y-123443880D01*
X106276117Y-123443878D01*
X105876120Y-123043880D01*
X105639462Y-122885750D01*
X112915000Y-122885750D01*
X112915000Y-123326309D01*
X113011673Y-123559698D01*
X113190301Y-123738327D01*
X113423690Y-123835000D01*
X113714250Y-123835000D01*
X113873000Y-123676250D01*
X113873000Y-122727000D01*
X113073750Y-122727000D01*
X112915000Y-122885750D01*
X105639462Y-122885750D01*
X105345688Y-122689457D01*
X104730000Y-122566988D01*
X104730000Y-122335750D01*
X104571250Y-122177000D01*
X103847000Y-122177000D01*
X103847000Y-122197000D01*
X103593000Y-122197000D01*
X103593000Y-122177000D01*
X102868750Y-122177000D01*
X102710000Y-122335750D01*
X102710000Y-122565000D01*
X99651335Y-122565000D01*
X99651330Y-122564999D01*
X99025643Y-122689457D01*
X98931352Y-122752460D01*
X98851230Y-122752460D01*
X98603465Y-122801743D01*
X98393421Y-122942091D01*
X98253073Y-123152135D01*
X98219830Y-123319261D01*
X97466093Y-124072998D01*
X97425022Y-124072998D01*
X97583770Y-123914250D01*
X97583770Y-123273590D01*
X97487097Y-123040201D01*
X97308468Y-122861573D01*
X97075079Y-122764900D01*
X95434930Y-122764900D01*
X95276180Y-122923650D01*
X95276180Y-124073000D01*
X95296180Y-124073000D01*
X95296180Y-124327000D01*
X95276180Y-124327000D01*
X95276180Y-124347000D01*
X95022180Y-124347000D01*
X95022180Y-124327000D01*
X92873340Y-124327000D01*
X92714590Y-124485750D01*
X92714590Y-125126410D01*
X92811263Y-125359799D01*
X92967285Y-125515820D01*
X82356560Y-125515820D01*
X82534750Y-125086691D01*
X82535248Y-124515813D01*
X82359971Y-124091609D01*
X83177989Y-123273590D01*
X92714590Y-123273590D01*
X92714590Y-123914250D01*
X92873340Y-124073000D01*
X95022180Y-124073000D01*
X95022180Y-122923650D01*
X94863430Y-122764900D01*
X93223281Y-122764900D01*
X92989892Y-122861573D01*
X92811263Y-123040201D01*
X92714590Y-123273590D01*
X83177989Y-123273590D01*
X84991839Y-121459740D01*
X85413309Y-121634750D01*
X85984187Y-121635248D01*
X86511800Y-121417243D01*
X86605515Y-121323691D01*
X102710000Y-121323691D01*
X102710000Y-121764250D01*
X102868750Y-121923000D01*
X103593000Y-121923000D01*
X103593000Y-120973750D01*
X103847000Y-120973750D01*
X103847000Y-121923000D01*
X104571250Y-121923000D01*
X104730000Y-121764250D01*
X104730000Y-121323691D01*
X104633327Y-121090302D01*
X104454699Y-120911673D01*
X104221310Y-120815000D01*
X104005750Y-120815000D01*
X103847000Y-120973750D01*
X103593000Y-120973750D01*
X103434250Y-120815000D01*
X103218690Y-120815000D01*
X102985301Y-120911673D01*
X102806673Y-121090302D01*
X102710000Y-121323691D01*
X86605515Y-121323691D01*
X86915824Y-121013923D01*
X87134750Y-120486691D01*
X87135248Y-119915813D01*
X86917243Y-119388200D01*
X86513923Y-118984176D01*
X86136227Y-118827343D01*
X86941129Y-118022440D01*
X87500000Y-118022440D01*
X87747765Y-117973157D01*
X87839102Y-117912127D01*
X87840302Y-117913327D01*
X88073691Y-118010000D01*
X88514250Y-118010000D01*
X88673000Y-117851250D01*
X88673000Y-117127000D01*
X88653000Y-117127000D01*
X88653000Y-116873000D01*
X88673000Y-116873000D01*
X88673000Y-116853000D01*
X88927000Y-116853000D01*
X88927000Y-116873000D01*
X88947000Y-116873000D01*
X88947000Y-117127000D01*
X88927000Y-117127000D01*
X88927000Y-117851250D01*
X89085750Y-118010000D01*
X89526309Y-118010000D01*
X89759698Y-117913327D01*
X89938327Y-117734699D01*
X90035000Y-117501310D01*
X90035000Y-117285750D01*
X89876252Y-117127002D01*
X90035000Y-117127002D01*
X90035000Y-117086580D01*
X90765160Y-117816739D01*
X90764752Y-118284187D01*
X90982757Y-118811800D01*
X91386077Y-119215824D01*
X91913309Y-119434750D01*
X92484187Y-119435248D01*
X93011800Y-119217243D01*
X93415824Y-118813923D01*
X93634750Y-118286691D01*
X93635248Y-117715813D01*
X93448551Y-117263970D01*
X108875635Y-117263970D01*
X109035418Y-117582739D01*
X109826187Y-117892723D01*
X110675387Y-117876497D01*
X111384582Y-117582739D01*
X111544365Y-117263970D01*
X110210000Y-115929605D01*
X108875635Y-117263970D01*
X93448551Y-117263970D01*
X93417243Y-117188200D01*
X93013923Y-116784176D01*
X92486691Y-116565250D01*
X92016419Y-116564840D01*
X90817767Y-115366187D01*
X108067277Y-115366187D01*
X108083503Y-116215387D01*
X108377261Y-116924582D01*
X108696030Y-117084365D01*
X110030395Y-115750000D01*
X110389605Y-115750000D01*
X111723970Y-117084365D01*
X112042739Y-116924582D01*
X112352723Y-116133813D01*
X112336497Y-115284613D01*
X112104272Y-114723970D01*
X116495635Y-114723970D01*
X116655418Y-115042739D01*
X117446187Y-115352723D01*
X118295387Y-115336497D01*
X119004582Y-115042739D01*
X119164365Y-114723970D01*
X117830000Y-113389605D01*
X116495635Y-114723970D01*
X112104272Y-114723970D01*
X112042739Y-114575418D01*
X111723970Y-114415635D01*
X110389605Y-115750000D01*
X110030395Y-115750000D01*
X108696030Y-114415635D01*
X108377261Y-114575418D01*
X108067277Y-115366187D01*
X90817767Y-115366187D01*
X90522440Y-115070860D01*
X90522440Y-114570000D01*
X90473157Y-114322235D01*
X90332809Y-114112191D01*
X90164905Y-114000000D01*
X90332809Y-113887809D01*
X90401504Y-113785000D01*
X90477560Y-113785000D01*
X90477560Y-113950000D01*
X90526843Y-114197765D01*
X90667191Y-114407809D01*
X90877235Y-114548157D01*
X91125000Y-114597440D01*
X91875000Y-114597440D01*
X92122765Y-114548157D01*
X92332809Y-114407809D01*
X92447588Y-114236030D01*
X108875635Y-114236030D01*
X110210000Y-115570395D01*
X111544365Y-114236030D01*
X111384582Y-113917261D01*
X110593813Y-113607277D01*
X109744613Y-113623503D01*
X109035418Y-113917261D01*
X108875635Y-114236030D01*
X92447588Y-114236030D01*
X92473157Y-114197765D01*
X92522440Y-113950000D01*
X92522440Y-112750000D01*
X92473157Y-112502235D01*
X92412127Y-112410898D01*
X92413327Y-112409698D01*
X92510000Y-112176309D01*
X92510000Y-111735750D01*
X92351250Y-111577000D01*
X91627000Y-111577000D01*
X91627000Y-111597000D01*
X91373000Y-111597000D01*
X91373000Y-111577000D01*
X91353000Y-111577000D01*
X91353000Y-111323000D01*
X91373000Y-111323000D01*
X91373000Y-110373750D01*
X91627000Y-110373750D01*
X91627000Y-111323000D01*
X92351250Y-111323000D01*
X92510000Y-111164250D01*
X92510000Y-110723691D01*
X92413327Y-110490302D01*
X92234699Y-110311673D01*
X92001310Y-110215000D01*
X91785750Y-110215000D01*
X91627000Y-110373750D01*
X91373000Y-110373750D01*
X91214250Y-110215000D01*
X90998690Y-110215000D01*
X90765301Y-110311673D01*
X90600000Y-110476975D01*
X90509698Y-110386673D01*
X90276309Y-110290000D01*
X89835750Y-110290000D01*
X89677000Y-110448750D01*
X89677000Y-111173000D01*
X89697000Y-111173000D01*
X89697000Y-111427000D01*
X89677000Y-111427000D01*
X89677000Y-111447000D01*
X89423000Y-111447000D01*
X89423000Y-111427000D01*
X89403000Y-111427000D01*
X89403000Y-111173000D01*
X89423000Y-111173000D01*
X89423000Y-110448750D01*
X89264250Y-110290000D01*
X88823691Y-110290000D01*
X88785000Y-110306026D01*
X88785000Y-105870132D01*
X91722018Y-102933115D01*
X91897765Y-102898157D01*
X92107809Y-102757809D01*
X92248157Y-102547765D01*
X92283115Y-102372017D01*
X94265000Y-100390133D01*
X94265000Y-100414250D01*
X94265000Y-100414250D01*
G37*
X94265000Y-100414250D02*
X94423750Y-100573000D01*
X95373000Y-100573000D01*
X95373000Y-100569956D01*
X95647000Y-100624458D01*
X95647000Y-100827000D01*
X95627000Y-100827000D01*
X95627000Y-100847000D01*
X95373000Y-100847000D01*
X95373000Y-100827000D01*
X94423750Y-100827000D01*
X94265000Y-100985750D01*
X94265000Y-101201310D01*
X94361673Y-101434699D01*
X94540302Y-101613327D01*
X94773691Y-101710000D01*
X95214250Y-101710000D01*
X95372998Y-101551252D01*
X95372998Y-101710000D01*
X95390368Y-101710000D01*
X95342191Y-101742191D01*
X95201843Y-101952235D01*
X95152560Y-102200000D01*
X95152560Y-103400000D01*
X95201843Y-103647765D01*
X95342191Y-103857809D01*
X95405334Y-103900000D01*
X95342191Y-103942191D01*
X95201843Y-104152235D01*
X95152560Y-104400000D01*
X95152560Y-105600000D01*
X95201843Y-105847765D01*
X95215000Y-105867456D01*
X95215000Y-111273058D01*
X94814722Y-111672637D01*
X94565284Y-112273352D01*
X94564716Y-112923795D01*
X94813106Y-113524943D01*
X95272637Y-113985278D01*
X95873352Y-114234716D01*
X96523795Y-114235284D01*
X97124943Y-113986894D01*
X97585278Y-113527363D01*
X97834716Y-112926648D01*
X97834803Y-112826187D01*
X115687277Y-112826187D01*
X115703503Y-113675387D01*
X115997261Y-114384582D01*
X116316030Y-114544365D01*
X117650395Y-113210000D01*
X118009605Y-113210000D01*
X119343970Y-114544365D01*
X119662739Y-114384582D01*
X119972723Y-113593813D01*
X119956497Y-112744613D01*
X119662739Y-112035418D01*
X119343970Y-111875635D01*
X118009605Y-113210000D01*
X117650395Y-113210000D01*
X116316030Y-111875635D01*
X115997261Y-112035418D01*
X115687277Y-112826187D01*
X97834803Y-112826187D01*
X97835284Y-112276205D01*
X97797174Y-112183970D01*
X108875635Y-112183970D01*
X109035418Y-112502739D01*
X109826187Y-112812723D01*
X110675387Y-112796497D01*
X111384582Y-112502739D01*
X111544365Y-112183970D01*
X110210000Y-110849605D01*
X108875635Y-112183970D01*
X97797174Y-112183970D01*
X97586894Y-111675057D01*
X97285000Y-111372635D01*
X97285000Y-106235000D01*
X97564250Y-106235000D01*
X97723000Y-106076250D01*
X97723000Y-105127000D01*
X97703000Y-105127000D01*
X97703000Y-104873000D01*
X97723000Y-104873000D01*
X97723000Y-104853000D01*
X97977000Y-104853000D01*
X97977000Y-104873000D01*
X97997000Y-104873000D01*
X97997000Y-105127000D01*
X97977000Y-105127000D01*
X97977000Y-106076250D01*
X98135750Y-106235000D01*
X98426310Y-106235000D01*
X98659699Y-106138327D01*
X98782050Y-106015975D01*
X98948690Y-106085000D01*
X99164250Y-106085000D01*
X99323000Y-105926250D01*
X99323000Y-104977000D01*
X99577000Y-104977000D01*
X99577000Y-105926250D01*
X99735750Y-106085000D01*
X99951310Y-106085000D01*
X100184699Y-105988327D01*
X100363327Y-105809698D01*
X100460000Y-105576309D01*
X100460000Y-105135750D01*
X100301250Y-104977000D01*
X99577000Y-104977000D01*
X99323000Y-104977000D01*
X99303000Y-104977000D01*
X99303000Y-104723000D01*
X99323000Y-104723000D01*
X99323000Y-104703000D01*
X99577000Y-104703000D01*
X99577000Y-104723000D01*
X100301250Y-104723000D01*
X100460000Y-104564250D01*
X100460000Y-104123691D01*
X100363327Y-103890302D01*
X100362127Y-103889102D01*
X100423157Y-103797765D01*
X100472440Y-103550000D01*
X100472440Y-102350000D01*
X100427502Y-102124078D01*
X100545000Y-102006579D01*
X100545000Y-108329995D01*
X100544999Y-108330000D01*
X100565358Y-108432347D01*
X100465284Y-108673352D01*
X100464716Y-109323795D01*
X100713106Y-109924943D01*
X101172637Y-110385278D01*
X101773352Y-110634716D01*
X102423795Y-110635284D01*
X103024943Y-110386894D01*
X103125826Y-110286187D01*
X108067277Y-110286187D01*
X108083503Y-111135387D01*
X108377261Y-111844582D01*
X108696030Y-112004365D01*
X110030395Y-110670000D01*
X110389605Y-110670000D01*
X111723970Y-112004365D01*
X112042739Y-111844582D01*
X112100971Y-111696030D01*
X116495635Y-111696030D01*
X117830000Y-113030395D01*
X119164365Y-111696030D01*
X119004582Y-111377261D01*
X118213813Y-111067277D01*
X117364613Y-111083503D01*
X116655418Y-111377261D01*
X116495635Y-111696030D01*
X112100971Y-111696030D01*
X112352723Y-111053813D01*
X112336497Y-110204613D01*
X112042739Y-109495418D01*
X111723970Y-109335635D01*
X110389605Y-110670000D01*
X110030395Y-110670000D01*
X108696030Y-109335635D01*
X108377261Y-109495418D01*
X108067277Y-110286187D01*
X103125826Y-110286187D01*
X103485278Y-109927363D01*
X103734716Y-109326648D01*
X103734864Y-109156030D01*
X108875635Y-109156030D01*
X110210000Y-110490395D01*
X111544365Y-109156030D01*
X111384582Y-108837261D01*
X110593813Y-108527277D01*
X109744613Y-108543503D01*
X109035418Y-108837261D01*
X108875635Y-109156030D01*
X103734864Y-109156030D01*
X103735284Y-108676205D01*
X103486894Y-108075057D01*
X103027363Y-107614722D01*
X102426648Y-107365284D01*
X102315000Y-107365187D01*
X102315000Y-105985000D01*
X102364250Y-105985000D01*
X102523000Y-105826250D01*
X102523000Y-104877000D01*
X102503000Y-104877000D01*
X102503000Y-104623000D01*
X102523000Y-104623000D01*
X102523000Y-104603000D01*
X102777000Y-104603000D01*
X102777000Y-104623000D01*
X102797000Y-104623000D01*
X102797000Y-104877000D01*
X102777000Y-104877000D01*
X102777000Y-105826250D01*
X102935750Y-105985000D01*
X103151310Y-105985000D01*
X103315043Y-105917179D01*
X103342191Y-105957809D01*
X103552235Y-106098157D01*
X103800000Y-106147440D01*
X104700000Y-106147440D01*
X104947765Y-106098157D01*
X105157809Y-105957809D01*
X105298157Y-105747765D01*
X105347440Y-105500000D01*
X105347440Y-104813418D01*
X105614638Y-104546220D01*
X105949480Y-104546220D01*
X106197245Y-104496937D01*
X106289205Y-104435490D01*
X106290822Y-104437107D01*
X106524211Y-104533780D01*
X106763550Y-104533780D01*
X106922300Y-104375030D01*
X106922300Y-103627000D01*
X107176300Y-103627000D01*
X107176300Y-104375030D01*
X107335050Y-104533780D01*
X107574389Y-104533780D01*
X107807778Y-104437107D01*
X107986407Y-104258479D01*
X108083080Y-104025090D01*
X108083080Y-103785750D01*
X107924330Y-103627000D01*
X107176300Y-103627000D01*
X106922300Y-103627000D01*
X106902300Y-103627000D01*
X106902300Y-103385000D01*
X117133420Y-103385000D01*
X121115000Y-107366579D01*
X121115000Y-117633421D01*
X120633420Y-118115000D01*
X117000005Y-118115000D01*
X117000000Y-118114999D01*
X116717516Y-118171190D01*
X116661325Y-118182367D01*
X116374210Y-118374210D01*
X116374208Y-118374213D01*
X115545860Y-119202560D01*
X115300000Y-119202560D01*
X115052235Y-119251843D01*
X115032544Y-119265000D01*
X114792285Y-119265000D01*
X114697765Y-119201843D01*
X114450000Y-119152560D01*
X113550000Y-119152560D01*
X113302235Y-119201843D01*
X113092191Y-119342191D01*
X112951843Y-119552235D01*
X112902560Y-119800000D01*
X112902560Y-121000000D01*
X112951843Y-121247765D01*
X113092191Y-121457809D01*
X113153320Y-121498654D01*
X113011673Y-121640302D01*
X112915000Y-121873691D01*
X112915000Y-122314250D01*
X113073750Y-122473000D01*
X113873000Y-122473000D01*
X113873000Y-122453000D01*
X114127000Y-122453000D01*
X114127000Y-122473000D01*
X114147000Y-122473000D01*
X114147000Y-122727000D01*
X114127000Y-122727000D01*
X114127000Y-123676250D01*
X114285750Y-123835000D01*
X114576310Y-123835000D01*
X114809699Y-123738327D01*
X114825026Y-123723000D01*
X115871860Y-123723000D01*
X115871860Y-123703000D01*
X116125860Y-123703000D01*
X116125860Y-123723000D01*
X116145860Y-123723000D01*
X116145860Y-123977000D01*
X116125860Y-123977000D01*
X116125860Y-124726300D01*
X116284610Y-124885050D01*
X117025600Y-124885050D01*
X117258989Y-124788377D01*
X117366140Y-124681225D01*
X117366140Y-128121620D01*
X115822760Y-129665000D01*
X109920642Y-129665000D01*
X109908157Y-129602235D01*
X109767809Y-129392191D01*
X109557765Y-129251843D01*
X109310000Y-129202560D01*
X108812134Y-129202560D01*
X109039515Y-129108608D01*
X109626547Y-128522600D01*
X109944638Y-127756552D01*
X109945362Y-126927087D01*
X109628608Y-126160485D01*
X109042600Y-125573453D01*
X108276552Y-125255362D01*
X108087436Y-125255197D01*
X106967990Y-124135750D01*
X114463430Y-124135750D01*
X114463430Y-124376359D01*
X114560103Y-124609748D01*
X114738731Y-124788377D01*
X114972120Y-124885050D01*
X115713110Y-124885050D01*
X115871860Y-124726300D01*
X115871860Y-123977000D01*
X114622180Y-123977000D01*
X114463430Y-124135750D01*
X106967990Y-124135750D01*
X106276120Y-123443880D01*
X106276117Y-123443878D01*
X105876120Y-123043880D01*
X105639462Y-122885750D01*
X112915000Y-122885750D01*
X112915000Y-123326309D01*
X113011673Y-123559698D01*
X113190301Y-123738327D01*
X113423690Y-123835000D01*
X113714250Y-123835000D01*
X113873000Y-123676250D01*
X113873000Y-122727000D01*
X113073750Y-122727000D01*
X112915000Y-122885750D01*
X105639462Y-122885750D01*
X105345688Y-122689457D01*
X104730000Y-122566988D01*
X104730000Y-122335750D01*
X104571250Y-122177000D01*
X103847000Y-122177000D01*
X103847000Y-122197000D01*
X103593000Y-122197000D01*
X103593000Y-122177000D01*
X102868750Y-122177000D01*
X102710000Y-122335750D01*
X102710000Y-122565000D01*
X99651335Y-122565000D01*
X99651330Y-122564999D01*
X99025643Y-122689457D01*
X98931352Y-122752460D01*
X98851230Y-122752460D01*
X98603465Y-122801743D01*
X98393421Y-122942091D01*
X98253073Y-123152135D01*
X98219830Y-123319261D01*
X97466093Y-124072998D01*
X97425022Y-124072998D01*
X97583770Y-123914250D01*
X97583770Y-123273590D01*
X97487097Y-123040201D01*
X97308468Y-122861573D01*
X97075079Y-122764900D01*
X95434930Y-122764900D01*
X95276180Y-122923650D01*
X95276180Y-124073000D01*
X95296180Y-124073000D01*
X95296180Y-124327000D01*
X95276180Y-124327000D01*
X95276180Y-124347000D01*
X95022180Y-124347000D01*
X95022180Y-124327000D01*
X92873340Y-124327000D01*
X92714590Y-124485750D01*
X92714590Y-125126410D01*
X92811263Y-125359799D01*
X92967285Y-125515820D01*
X82356560Y-125515820D01*
X82534750Y-125086691D01*
X82535248Y-124515813D01*
X82359971Y-124091609D01*
X83177989Y-123273590D01*
X92714590Y-123273590D01*
X92714590Y-123914250D01*
X92873340Y-124073000D01*
X95022180Y-124073000D01*
X95022180Y-122923650D01*
X94863430Y-122764900D01*
X93223281Y-122764900D01*
X92989892Y-122861573D01*
X92811263Y-123040201D01*
X92714590Y-123273590D01*
X83177989Y-123273590D01*
X84991839Y-121459740D01*
X85413309Y-121634750D01*
X85984187Y-121635248D01*
X86511800Y-121417243D01*
X86605515Y-121323691D01*
X102710000Y-121323691D01*
X102710000Y-121764250D01*
X102868750Y-121923000D01*
X103593000Y-121923000D01*
X103593000Y-120973750D01*
X103847000Y-120973750D01*
X103847000Y-121923000D01*
X104571250Y-121923000D01*
X104730000Y-121764250D01*
X104730000Y-121323691D01*
X104633327Y-121090302D01*
X104454699Y-120911673D01*
X104221310Y-120815000D01*
X104005750Y-120815000D01*
X103847000Y-120973750D01*
X103593000Y-120973750D01*
X103434250Y-120815000D01*
X103218690Y-120815000D01*
X102985301Y-120911673D01*
X102806673Y-121090302D01*
X102710000Y-121323691D01*
X86605515Y-121323691D01*
X86915824Y-121013923D01*
X87134750Y-120486691D01*
X87135248Y-119915813D01*
X86917243Y-119388200D01*
X86513923Y-118984176D01*
X86136227Y-118827343D01*
X86941129Y-118022440D01*
X87500000Y-118022440D01*
X87747765Y-117973157D01*
X87839102Y-117912127D01*
X87840302Y-117913327D01*
X88073691Y-118010000D01*
X88514250Y-118010000D01*
X88673000Y-117851250D01*
X88673000Y-117127000D01*
X88653000Y-117127000D01*
X88653000Y-116873000D01*
X88673000Y-116873000D01*
X88673000Y-116853000D01*
X88927000Y-116853000D01*
X88927000Y-116873000D01*
X88947000Y-116873000D01*
X88947000Y-117127000D01*
X88927000Y-117127000D01*
X88927000Y-117851250D01*
X89085750Y-118010000D01*
X89526309Y-118010000D01*
X89759698Y-117913327D01*
X89938327Y-117734699D01*
X90035000Y-117501310D01*
X90035000Y-117285750D01*
X89876252Y-117127002D01*
X90035000Y-117127002D01*
X90035000Y-117086580D01*
X90765160Y-117816739D01*
X90764752Y-118284187D01*
X90982757Y-118811800D01*
X91386077Y-119215824D01*
X91913309Y-119434750D01*
X92484187Y-119435248D01*
X93011800Y-119217243D01*
X93415824Y-118813923D01*
X93634750Y-118286691D01*
X93635248Y-117715813D01*
X93448551Y-117263970D01*
X108875635Y-117263970D01*
X109035418Y-117582739D01*
X109826187Y-117892723D01*
X110675387Y-117876497D01*
X111384582Y-117582739D01*
X111544365Y-117263970D01*
X110210000Y-115929605D01*
X108875635Y-117263970D01*
X93448551Y-117263970D01*
X93417243Y-117188200D01*
X93013923Y-116784176D01*
X92486691Y-116565250D01*
X92016419Y-116564840D01*
X90817767Y-115366187D01*
X108067277Y-115366187D01*
X108083503Y-116215387D01*
X108377261Y-116924582D01*
X108696030Y-117084365D01*
X110030395Y-115750000D01*
X110389605Y-115750000D01*
X111723970Y-117084365D01*
X112042739Y-116924582D01*
X112352723Y-116133813D01*
X112336497Y-115284613D01*
X112104272Y-114723970D01*
X116495635Y-114723970D01*
X116655418Y-115042739D01*
X117446187Y-115352723D01*
X118295387Y-115336497D01*
X119004582Y-115042739D01*
X119164365Y-114723970D01*
X117830000Y-113389605D01*
X116495635Y-114723970D01*
X112104272Y-114723970D01*
X112042739Y-114575418D01*
X111723970Y-114415635D01*
X110389605Y-115750000D01*
X110030395Y-115750000D01*
X108696030Y-114415635D01*
X108377261Y-114575418D01*
X108067277Y-115366187D01*
X90817767Y-115366187D01*
X90522440Y-115070860D01*
X90522440Y-114570000D01*
X90473157Y-114322235D01*
X90332809Y-114112191D01*
X90164905Y-114000000D01*
X90332809Y-113887809D01*
X90401504Y-113785000D01*
X90477560Y-113785000D01*
X90477560Y-113950000D01*
X90526843Y-114197765D01*
X90667191Y-114407809D01*
X90877235Y-114548157D01*
X91125000Y-114597440D01*
X91875000Y-114597440D01*
X92122765Y-114548157D01*
X92332809Y-114407809D01*
X92447588Y-114236030D01*
X108875635Y-114236030D01*
X110210000Y-115570395D01*
X111544365Y-114236030D01*
X111384582Y-113917261D01*
X110593813Y-113607277D01*
X109744613Y-113623503D01*
X109035418Y-113917261D01*
X108875635Y-114236030D01*
X92447588Y-114236030D01*
X92473157Y-114197765D01*
X92522440Y-113950000D01*
X92522440Y-112750000D01*
X92473157Y-112502235D01*
X92412127Y-112410898D01*
X92413327Y-112409698D01*
X92510000Y-112176309D01*
X92510000Y-111735750D01*
X92351250Y-111577000D01*
X91627000Y-111577000D01*
X91627000Y-111597000D01*
X91373000Y-111597000D01*
X91373000Y-111577000D01*
X91353000Y-111577000D01*
X91353000Y-111323000D01*
X91373000Y-111323000D01*
X91373000Y-110373750D01*
X91627000Y-110373750D01*
X91627000Y-111323000D01*
X92351250Y-111323000D01*
X92510000Y-111164250D01*
X92510000Y-110723691D01*
X92413327Y-110490302D01*
X92234699Y-110311673D01*
X92001310Y-110215000D01*
X91785750Y-110215000D01*
X91627000Y-110373750D01*
X91373000Y-110373750D01*
X91214250Y-110215000D01*
X90998690Y-110215000D01*
X90765301Y-110311673D01*
X90600000Y-110476975D01*
X90509698Y-110386673D01*
X90276309Y-110290000D01*
X89835750Y-110290000D01*
X89677000Y-110448750D01*
X89677000Y-111173000D01*
X89697000Y-111173000D01*
X89697000Y-111427000D01*
X89677000Y-111427000D01*
X89677000Y-111447000D01*
X89423000Y-111447000D01*
X89423000Y-111427000D01*
X89403000Y-111427000D01*
X89403000Y-111173000D01*
X89423000Y-111173000D01*
X89423000Y-110448750D01*
X89264250Y-110290000D01*
X88823691Y-110290000D01*
X88785000Y-110306026D01*
X88785000Y-105870132D01*
X91722018Y-102933115D01*
X91897765Y-102898157D01*
X92107809Y-102757809D01*
X92248157Y-102547765D01*
X92283115Y-102372017D01*
X94265000Y-100390133D01*
X94265000Y-100414250D01*
G36*
X71168142Y-114131853D02*
X71168144Y-114131856D01*
X71393401Y-114282367D01*
X71503923Y-114356215D01*
X71900000Y-114435001D01*
X71900005Y-114435000D01*
X77622973Y-114435000D01*
X77972639Y-114785278D01*
X78573354Y-115034716D01*
X78903512Y-115035004D01*
X78815000Y-115248690D01*
X78815000Y-115464250D01*
X78973750Y-115623000D01*
X79923000Y-115623000D01*
X79923000Y-114898750D01*
X79815179Y-114790929D01*
X79824945Y-114786894D01*
X80285280Y-114327363D01*
X80534718Y-113726648D01*
X80535286Y-113076205D01*
X80286896Y-112475057D01*
X80246909Y-112435000D01*
X82638924Y-112435000D01*
X82451397Y-112715654D01*
X82365000Y-113150000D01*
X82365000Y-114222796D01*
X82114722Y-114472637D01*
X82055608Y-114615000D01*
X81950000Y-114615000D01*
X81515654Y-114701397D01*
X81476498Y-114727560D01*
X81350000Y-114727560D01*
X81102235Y-114776843D01*
X81010898Y-114837873D01*
X81009698Y-114836673D01*
X80776309Y-114740000D01*
X80335750Y-114740000D01*
X80177000Y-114898750D01*
X80177000Y-115623000D01*
X80197000Y-115623000D01*
X80197000Y-115877000D01*
X80177000Y-115877000D01*
X80177000Y-116601250D01*
X80335750Y-116760000D01*
X80776309Y-116760000D01*
X81009698Y-116663327D01*
X81010898Y-116662127D01*
X81102235Y-116723157D01*
X81350000Y-116772440D01*
X81476498Y-116772440D01*
X81515654Y-116798603D01*
X81950000Y-116885000D01*
X82812795Y-116885000D01*
X83173352Y-117034716D01*
X83304261Y-117034830D01*
X77935100Y-122403990D01*
X77935100Y-121934930D01*
X77776350Y-121776180D01*
X76627000Y-121776180D01*
X76627000Y-121796180D01*
X76373000Y-121796180D01*
X76373000Y-121776180D01*
X75223650Y-121776180D01*
X75064900Y-121934930D01*
X75064900Y-123403481D01*
X72005300Y-120343880D01*
X71474868Y-119989457D01*
X70849180Y-119864999D01*
X70849175Y-119865000D01*
X67000000Y-119865000D01*
X66811173Y-119902560D01*
X66500000Y-119902560D01*
X66252235Y-119951843D01*
X66042191Y-120092191D01*
X65901843Y-120302235D01*
X65901174Y-120305597D01*
X65843880Y-120343880D01*
X65635000Y-120656492D01*
X65635000Y-119723281D01*
X75064900Y-119723281D01*
X75064900Y-121363430D01*
X75223650Y-121522180D01*
X76373000Y-121522180D01*
X76373000Y-119373340D01*
X76627000Y-119373340D01*
X76627000Y-121522180D01*
X77776350Y-121522180D01*
X77935100Y-121363430D01*
X77935100Y-119723281D01*
X77838427Y-119489892D01*
X77659799Y-119311263D01*
X77426410Y-119214590D01*
X76785750Y-119214590D01*
X76627000Y-119373340D01*
X76373000Y-119373340D01*
X76214250Y-119214590D01*
X75573590Y-119214590D01*
X75340201Y-119311263D01*
X75161573Y-119489892D01*
X75064900Y-119723281D01*
X65635000Y-119723281D01*
X65635000Y-119127000D01*
X66500000Y-119127000D01*
X66548601Y-119117333D01*
X66589803Y-119089803D01*
X66617333Y-119048601D01*
X66627000Y-119000000D01*
X66627000Y-116035750D01*
X78815000Y-116035750D01*
X78815000Y-116251310D01*
X78911673Y-116484699D01*
X79090302Y-116663327D01*
X79323691Y-116760000D01*
X79764250Y-116760000D01*
X79923000Y-116601250D01*
X79923000Y-115877000D01*
X78973750Y-115877000D01*
X78815000Y-116035750D01*
X66627000Y-116035750D01*
X66627000Y-111695000D01*
X68731288Y-111695000D01*
X71168142Y-114131853D01*
X71168142Y-114131853D01*
G37*
X71168142Y-114131853D02*
X71168144Y-114131856D01*
X71393401Y-114282367D01*
X71503923Y-114356215D01*
X71900000Y-114435001D01*
X71900005Y-114435000D01*
X77622973Y-114435000D01*
X77972639Y-114785278D01*
X78573354Y-115034716D01*
X78903512Y-115035004D01*
X78815000Y-115248690D01*
X78815000Y-115464250D01*
X78973750Y-115623000D01*
X79923000Y-115623000D01*
X79923000Y-114898750D01*
X79815179Y-114790929D01*
X79824945Y-114786894D01*
X80285280Y-114327363D01*
X80534718Y-113726648D01*
X80535286Y-113076205D01*
X80286896Y-112475057D01*
X80246909Y-112435000D01*
X82638924Y-112435000D01*
X82451397Y-112715654D01*
X82365000Y-113150000D01*
X82365000Y-114222796D01*
X82114722Y-114472637D01*
X82055608Y-114615000D01*
X81950000Y-114615000D01*
X81515654Y-114701397D01*
X81476498Y-114727560D01*
X81350000Y-114727560D01*
X81102235Y-114776843D01*
X81010898Y-114837873D01*
X81009698Y-114836673D01*
X80776309Y-114740000D01*
X80335750Y-114740000D01*
X80177000Y-114898750D01*
X80177000Y-115623000D01*
X80197000Y-115623000D01*
X80197000Y-115877000D01*
X80177000Y-115877000D01*
X80177000Y-116601250D01*
X80335750Y-116760000D01*
X80776309Y-116760000D01*
X81009698Y-116663327D01*
X81010898Y-116662127D01*
X81102235Y-116723157D01*
X81350000Y-116772440D01*
X81476498Y-116772440D01*
X81515654Y-116798603D01*
X81950000Y-116885000D01*
X82812795Y-116885000D01*
X83173352Y-117034716D01*
X83304261Y-117034830D01*
X77935100Y-122403990D01*
X77935100Y-121934930D01*
X77776350Y-121776180D01*
X76627000Y-121776180D01*
X76627000Y-121796180D01*
X76373000Y-121796180D01*
X76373000Y-121776180D01*
X75223650Y-121776180D01*
X75064900Y-121934930D01*
X75064900Y-123403481D01*
X72005300Y-120343880D01*
X71474868Y-119989457D01*
X70849180Y-119864999D01*
X70849175Y-119865000D01*
X67000000Y-119865000D01*
X66811173Y-119902560D01*
X66500000Y-119902560D01*
X66252235Y-119951843D01*
X66042191Y-120092191D01*
X65901843Y-120302235D01*
X65901174Y-120305597D01*
X65843880Y-120343880D01*
X65635000Y-120656492D01*
X65635000Y-119723281D01*
X75064900Y-119723281D01*
X75064900Y-121363430D01*
X75223650Y-121522180D01*
X76373000Y-121522180D01*
X76373000Y-119373340D01*
X76627000Y-119373340D01*
X76627000Y-121522180D01*
X77776350Y-121522180D01*
X77935100Y-121363430D01*
X77935100Y-119723281D01*
X77838427Y-119489892D01*
X77659799Y-119311263D01*
X77426410Y-119214590D01*
X76785750Y-119214590D01*
X76627000Y-119373340D01*
X76373000Y-119373340D01*
X76214250Y-119214590D01*
X75573590Y-119214590D01*
X75340201Y-119311263D01*
X75161573Y-119489892D01*
X75064900Y-119723281D01*
X65635000Y-119723281D01*
X65635000Y-119127000D01*
X66500000Y-119127000D01*
X66548601Y-119117333D01*
X66589803Y-119089803D01*
X66617333Y-119048601D01*
X66627000Y-119000000D01*
X66627000Y-116035750D01*
X78815000Y-116035750D01*
X78815000Y-116251310D01*
X78911673Y-116484699D01*
X79090302Y-116663327D01*
X79323691Y-116760000D01*
X79764250Y-116760000D01*
X79923000Y-116601250D01*
X79923000Y-115877000D01*
X78973750Y-115877000D01*
X78815000Y-116035750D01*
X66627000Y-116035750D01*
X66627000Y-111695000D01*
X68731288Y-111695000D01*
X71168142Y-114131853D01*
G36*
X81352235Y-88401843D02*
X81156519Y-88532617D01*
X80000000Y-88532617D01*
X79951399Y-88542284D01*
X79910197Y-88569814D01*
X79882667Y-88611016D01*
X79873000Y-88659617D01*
X79873000Y-98750000D01*
X79882667Y-98798601D01*
X79910197Y-98839803D01*
X79951399Y-98867333D01*
X80000000Y-98877000D01*
X80965000Y-98877000D01*
X80965000Y-99314250D01*
X81123750Y-99473000D01*
X82973000Y-99473000D01*
X82973000Y-99453000D01*
X83227000Y-99453000D01*
X83227000Y-99473000D01*
X85076250Y-99473000D01*
X85235000Y-99314250D01*
X85235000Y-98873690D01*
X85138327Y-98640301D01*
X85133026Y-98635000D01*
X86049995Y-98635000D01*
X86050000Y-98635001D01*
X86238829Y-98597440D01*
X86750000Y-98597440D01*
X86873569Y-98572861D01*
X86815250Y-98713309D01*
X86814752Y-99284187D01*
X87032757Y-99811800D01*
X87436077Y-100215824D01*
X87963309Y-100434750D01*
X88534187Y-100435248D01*
X89061800Y-100217243D01*
X89465824Y-99813923D01*
X89684750Y-99286691D01*
X89685248Y-98715813D01*
X89500602Y-98268935D01*
X89548157Y-98197765D01*
X89597440Y-97950000D01*
X89597440Y-97635000D01*
X90305780Y-97635000D01*
X90165284Y-97973352D01*
X90164872Y-98445488D01*
X90151397Y-98465654D01*
X90065000Y-98900000D01*
X90065000Y-99500000D01*
X90102560Y-99688826D01*
X90102560Y-100100000D01*
X90151843Y-100347765D01*
X90292191Y-100557809D01*
X90355334Y-100600000D01*
X90292191Y-100642191D01*
X90151843Y-100852235D01*
X90102560Y-101100000D01*
X90102560Y-101342307D01*
X86847434Y-104597434D01*
X86601397Y-104965654D01*
X86515000Y-105400000D01*
X86515000Y-110165000D01*
X72270132Y-110165000D01*
X66902566Y-104797434D01*
X66861424Y-104769944D01*
X66590427Y-104588869D01*
X66617333Y-104548601D01*
X66627000Y-104500000D01*
X66627000Y-103885750D01*
X80965000Y-103885750D01*
X80965000Y-104326310D01*
X81061673Y-104559699D01*
X81240302Y-104738327D01*
X81473691Y-104835000D01*
X82814250Y-104835000D01*
X82973000Y-104676250D01*
X82973000Y-103727000D01*
X83227000Y-103727000D01*
X83227000Y-104676250D01*
X83385750Y-104835000D01*
X84726309Y-104835000D01*
X84959698Y-104738327D01*
X85138327Y-104559699D01*
X85235000Y-104326310D01*
X85235000Y-103885750D01*
X85076250Y-103727000D01*
X83227000Y-103727000D01*
X82973000Y-103727000D01*
X81123750Y-103727000D01*
X80965000Y-103885750D01*
X66627000Y-103885750D01*
X66627000Y-100250000D01*
X79873000Y-100250000D01*
X79873000Y-102750000D01*
X79882667Y-102798601D01*
X79910197Y-102839803D01*
X79951399Y-102867333D01*
X80000000Y-102877000D01*
X80965000Y-102877000D01*
X80965000Y-103314250D01*
X81123750Y-103473000D01*
X82973000Y-103473000D01*
X82973000Y-103453000D01*
X83227000Y-103453000D01*
X83227000Y-103473000D01*
X85076250Y-103473000D01*
X85235000Y-103314250D01*
X85235000Y-102873690D01*
X85138327Y-102640301D01*
X85097073Y-102599047D01*
X85198157Y-102447765D01*
X85247440Y-102200000D01*
X85247440Y-101000000D01*
X85198157Y-100752235D01*
X85097073Y-100600953D01*
X85138327Y-100559699D01*
X85235000Y-100326310D01*
X85235000Y-99885750D01*
X85076250Y-99727000D01*
X83227000Y-99727000D01*
X83227000Y-99747000D01*
X82973000Y-99747000D01*
X82973000Y-99727000D01*
X81123750Y-99727000D01*
X80965000Y-99885750D01*
X80965000Y-100123000D01*
X80000000Y-100123000D01*
X79951399Y-100132667D01*
X79910197Y-100160197D01*
X79882667Y-100201399D01*
X79873000Y-100250000D01*
X66627000Y-100250000D01*
X66627000Y-92485000D01*
X67399995Y-92485000D01*
X67400000Y-92485001D01*
X67690659Y-92427184D01*
X67738675Y-92417633D01*
X68025790Y-92225790D01*
X68025791Y-92225789D01*
X71866579Y-88385000D01*
X81436911Y-88385000D01*
X81352235Y-88401843D01*
X81352235Y-88401843D01*
G37*
X81352235Y-88401843D02*
X81156519Y-88532617D01*
X80000000Y-88532617D01*
X79951399Y-88542284D01*
X79910197Y-88569814D01*
X79882667Y-88611016D01*
X79873000Y-88659617D01*
X79873000Y-98750000D01*
X79882667Y-98798601D01*
X79910197Y-98839803D01*
X79951399Y-98867333D01*
X80000000Y-98877000D01*
X80965000Y-98877000D01*
X80965000Y-99314250D01*
X81123750Y-99473000D01*
X82973000Y-99473000D01*
X82973000Y-99453000D01*
X83227000Y-99453000D01*
X83227000Y-99473000D01*
X85076250Y-99473000D01*
X85235000Y-99314250D01*
X85235000Y-98873690D01*
X85138327Y-98640301D01*
X85133026Y-98635000D01*
X86049995Y-98635000D01*
X86050000Y-98635001D01*
X86238829Y-98597440D01*
X86750000Y-98597440D01*
X86873569Y-98572861D01*
X86815250Y-98713309D01*
X86814752Y-99284187D01*
X87032757Y-99811800D01*
X87436077Y-100215824D01*
X87963309Y-100434750D01*
X88534187Y-100435248D01*
X89061800Y-100217243D01*
X89465824Y-99813923D01*
X89684750Y-99286691D01*
X89685248Y-98715813D01*
X89500602Y-98268935D01*
X89548157Y-98197765D01*
X89597440Y-97950000D01*
X89597440Y-97635000D01*
X90305780Y-97635000D01*
X90165284Y-97973352D01*
X90164872Y-98445488D01*
X90151397Y-98465654D01*
X90065000Y-98900000D01*
X90065000Y-99500000D01*
X90102560Y-99688826D01*
X90102560Y-100100000D01*
X90151843Y-100347765D01*
X90292191Y-100557809D01*
X90355334Y-100600000D01*
X90292191Y-100642191D01*
X90151843Y-100852235D01*
X90102560Y-101100000D01*
X90102560Y-101342307D01*
X86847434Y-104597434D01*
X86601397Y-104965654D01*
X86515000Y-105400000D01*
X86515000Y-110165000D01*
X72270132Y-110165000D01*
X66902566Y-104797434D01*
X66861424Y-104769944D01*
X66590427Y-104588869D01*
X66617333Y-104548601D01*
X66627000Y-104500000D01*
X66627000Y-103885750D01*
X80965000Y-103885750D01*
X80965000Y-104326310D01*
X81061673Y-104559699D01*
X81240302Y-104738327D01*
X81473691Y-104835000D01*
X82814250Y-104835000D01*
X82973000Y-104676250D01*
X82973000Y-103727000D01*
X83227000Y-103727000D01*
X83227000Y-104676250D01*
X83385750Y-104835000D01*
X84726309Y-104835000D01*
X84959698Y-104738327D01*
X85138327Y-104559699D01*
X85235000Y-104326310D01*
X85235000Y-103885750D01*
X85076250Y-103727000D01*
X83227000Y-103727000D01*
X82973000Y-103727000D01*
X81123750Y-103727000D01*
X80965000Y-103885750D01*
X66627000Y-103885750D01*
X66627000Y-100250000D01*
X79873000Y-100250000D01*
X79873000Y-102750000D01*
X79882667Y-102798601D01*
X79910197Y-102839803D01*
X79951399Y-102867333D01*
X80000000Y-102877000D01*
X80965000Y-102877000D01*
X80965000Y-103314250D01*
X81123750Y-103473000D01*
X82973000Y-103473000D01*
X82973000Y-103453000D01*
X83227000Y-103453000D01*
X83227000Y-103473000D01*
X85076250Y-103473000D01*
X85235000Y-103314250D01*
X85235000Y-102873690D01*
X85138327Y-102640301D01*
X85097073Y-102599047D01*
X85198157Y-102447765D01*
X85247440Y-102200000D01*
X85247440Y-101000000D01*
X85198157Y-100752235D01*
X85097073Y-100600953D01*
X85138327Y-100559699D01*
X85235000Y-100326310D01*
X85235000Y-99885750D01*
X85076250Y-99727000D01*
X83227000Y-99727000D01*
X83227000Y-99747000D01*
X82973000Y-99747000D01*
X82973000Y-99727000D01*
X81123750Y-99727000D01*
X80965000Y-99885750D01*
X80965000Y-100123000D01*
X80000000Y-100123000D01*
X79951399Y-100132667D01*
X79910197Y-100160197D01*
X79882667Y-100201399D01*
X79873000Y-100250000D01*
X66627000Y-100250000D01*
X66627000Y-92485000D01*
X67399995Y-92485000D01*
X67400000Y-92485001D01*
X67690659Y-92427184D01*
X67738675Y-92417633D01*
X68025790Y-92225790D01*
X68025791Y-92225789D01*
X71866579Y-88385000D01*
X81436911Y-88385000D01*
X81352235Y-88401843D01*
G36*
X87612043Y-81174148D02*
X87877162Y-81176119D01*
X88142208Y-81179569D01*
X88407457Y-81184499D01*
X88672643Y-81190911D01*
X88937505Y-81198696D01*
X89202269Y-81208057D01*
X89467054Y-81218900D01*
X89731902Y-81231132D01*
X89996259Y-81244921D01*
X90260660Y-81260201D01*
X90524659Y-81276947D01*
X90788793Y-81295286D01*
X91052509Y-81314988D01*
X91316345Y-81336292D01*
X91579381Y-81358934D01*
X91842676Y-81383282D01*
X92105428Y-81408996D01*
X92367953Y-81436272D01*
X92630388Y-81465059D01*
X92892401Y-81495299D01*
X93153998Y-81527112D01*
X93415360Y-81560411D01*
X93676382Y-81595181D01*
X93937046Y-81631447D01*
X94197429Y-81669194D01*
X94457383Y-81708330D01*
X94716808Y-81748923D01*
X94975847Y-81790914D01*
X95234314Y-81834353D01*
X95492279Y-81879268D01*
X95750071Y-81925601D01*
X96006935Y-81973351D01*
X96263676Y-82022550D01*
X96519767Y-82073098D01*
X96775202Y-82125091D01*
X97030359Y-82178528D01*
X97284501Y-82233254D01*
X97538556Y-82289546D01*
X97791829Y-82347077D01*
X98044326Y-82406065D01*
X98296518Y-82466379D01*
X98547905Y-82528141D01*
X98798629Y-82591167D01*
X99048519Y-82655633D01*
X99298102Y-82721478D01*
X99546643Y-82788608D01*
X99795030Y-82857238D01*
X100042101Y-82927000D01*
X100288701Y-82998203D01*
X100534699Y-83070810D01*
X100779641Y-83144618D01*
X101023891Y-83219832D01*
X101267704Y-83296405D01*
X101510252Y-83374139D01*
X101752222Y-83453286D01*
X101993311Y-83533715D01*
X102233391Y-83615447D01*
X102472917Y-83698572D01*
X102711538Y-83782838D01*
X102949105Y-83868420D01*
X103185846Y-83955304D01*
X103421519Y-84043399D01*
X103656762Y-84133043D01*
X103890671Y-84223636D01*
X104123544Y-84315547D01*
X104355825Y-84408854D01*
X104586770Y-84503197D01*
X104816972Y-84599016D01*
X105046019Y-84695943D01*
X105274282Y-84794178D01*
X105501207Y-84893495D01*
X105727149Y-84994132D01*
X105952180Y-85095981D01*
X106176111Y-85199099D01*
X106398892Y-85303365D01*
X106620508Y-85408770D01*
X106840963Y-85515413D01*
X107060628Y-85623377D01*
X107278986Y-85732409D01*
X107496032Y-85842552D01*
X107712190Y-85954069D01*
X107926830Y-86066491D01*
X108140453Y-86180324D01*
X108352755Y-86295108D01*
X108564171Y-86411328D01*
X108774117Y-86528466D01*
X108982761Y-86646766D01*
X109189999Y-86766167D01*
X109396433Y-86886964D01*
X109601361Y-87008705D01*
X109804780Y-87131482D01*
X110006990Y-87255474D01*
X110207831Y-87380546D01*
X110407521Y-87506810D01*
X110605764Y-87634105D01*
X110802581Y-87762541D01*
X110998046Y-87891968D01*
X111192121Y-88022593D01*
X111384645Y-88154138D01*
X111575911Y-88286937D01*
X111765633Y-88420692D01*
X111953813Y-88555540D01*
X112140534Y-88691400D01*
X112325728Y-88828364D01*
X112509270Y-88966191D01*
X112691422Y-89105299D01*
X112872129Y-89245328D01*
X113051163Y-89386445D01*
X113228778Y-89528477D01*
X113404828Y-89671586D01*
X113579278Y-89815561D01*
X113752362Y-89960774D01*
X113923788Y-90106706D01*
X114093557Y-90253618D01*
X114261775Y-90401528D01*
X114428622Y-90550489D01*
X114593797Y-90700231D01*
X114757204Y-90850761D01*
X114919067Y-91002374D01*
X115079497Y-91154894D01*
X115238162Y-91308192D01*
X115395364Y-91462464D01*
X115550787Y-91617497D01*
X115704723Y-91773484D01*
X115857087Y-91930339D01*
X116007583Y-92087751D01*
X116156429Y-92246148D01*
X116304016Y-92405652D01*
X116449694Y-92565556D01*
X116593648Y-92726372D01*
X116735970Y-92887884D01*
X116876573Y-93050214D01*
X117015675Y-93213394D01*
X117152891Y-93377196D01*
X117288667Y-93541919D01*
X117422550Y-93707156D01*
X117554762Y-93873150D01*
X117685306Y-94039908D01*
X117814147Y-94207412D01*
X117941231Y-94375463D01*
X118066550Y-94544176D01*
X118190147Y-94713574D01*
X118312084Y-94883683D01*
X118432161Y-95054415D01*
X118550745Y-95225963D01*
X118667350Y-95397859D01*
X118782144Y-95570245D01*
X118895211Y-95743491D01*
X119006621Y-95917314D01*
X119116229Y-96091734D01*
X119224044Y-96266667D01*
X119329967Y-96442008D01*
X119434214Y-96618149D01*
X119536590Y-96794567D01*
X119637093Y-96971611D01*
X119735982Y-97149379D01*
X119832840Y-97327293D01*
X119927922Y-97505911D01*
X120021272Y-97685042D01*
X120112830Y-97864667D01*
X120202312Y-98044406D01*
X120290071Y-98224966D01*
X120376053Y-98405847D01*
X120460040Y-98587188D01*
X120542288Y-98768928D01*
X120622601Y-98951158D01*
X120701065Y-99133756D01*
X120777628Y-99316694D01*
X120852390Y-99500113D01*
X120925167Y-99683798D01*
X120996091Y-99867834D01*
X121064986Y-100052005D01*
X121132030Y-100236882D01*
X121197249Y-100422087D01*
X121260488Y-100607454D01*
X121321857Y-100793201D01*
X121381212Y-100979195D01*
X121438703Y-101165484D01*
X121494232Y-101352059D01*
X121547741Y-101538954D01*
X121599437Y-101726125D01*
X121649080Y-101913589D01*
X121696839Y-102101150D01*
X121742495Y-102288986D01*
X121786335Y-102477193D01*
X121828055Y-102665173D01*
X121867804Y-102853689D01*
X121905643Y-103042594D01*
X121941505Y-103231448D01*
X121975237Y-103420349D01*
X122007078Y-103609748D01*
X122036957Y-103799146D01*
X122064696Y-103988599D01*
X122090405Y-104178093D01*
X122114135Y-104368128D01*
X122135895Y-104558002D01*
X122155527Y-104747870D01*
X122173060Y-104938031D01*
X122188660Y-105128317D01*
X122202133Y-105318484D01*
X122213588Y-105508886D01*
X122222928Y-105699439D01*
X122230245Y-105889955D01*
X122232779Y-105981200D01*
X118125790Y-101874210D01*
X118089557Y-101850000D01*
X118081132Y-101844371D01*
X118174372Y-101805845D01*
X118803636Y-101177679D01*
X119144611Y-100356519D01*
X119145387Y-99467381D01*
X118805845Y-98645628D01*
X118177679Y-98016364D01*
X117356519Y-97675389D01*
X116467381Y-97674613D01*
X115645628Y-98014155D01*
X115016364Y-98642321D01*
X114675389Y-99463481D01*
X114674613Y-100352619D01*
X115014155Y-101174372D01*
X115454014Y-101615000D01*
X110700437Y-101615000D01*
X110805080Y-101545080D01*
X111418289Y-100931871D01*
X111840959Y-101131914D01*
X112063000Y-101010629D01*
X112063000Y-99867000D01*
X112317000Y-99867000D01*
X112317000Y-101010629D01*
X112539041Y-101131914D01*
X113045134Y-100892389D01*
X113421041Y-100477423D01*
X113581904Y-100089039D01*
X113459915Y-99867000D01*
X112317000Y-99867000D01*
X112063000Y-99867000D01*
X112043000Y-99867000D01*
X112043000Y-99613000D01*
X112063000Y-99613000D01*
X112063000Y-99593000D01*
X112317000Y-99593000D01*
X112317000Y-99613000D01*
X113459915Y-99613000D01*
X113581904Y-99390961D01*
X113421041Y-99002577D01*
X113045134Y-98587611D01*
X112894750Y-98516437D01*
X113279029Y-98259670D01*
X113603885Y-97773489D01*
X113717959Y-97200000D01*
X113603885Y-96626511D01*
X113279029Y-96140330D01*
X112964248Y-95930000D01*
X113279029Y-95719670D01*
X113603885Y-95233489D01*
X113717959Y-94660000D01*
X113603885Y-94086511D01*
X113279029Y-93600330D01*
X112792848Y-93275474D01*
X112219359Y-93161400D01*
X112160641Y-93161400D01*
X111656767Y-93261627D01*
X111531478Y-93074118D01*
X111052283Y-92594923D01*
X110797611Y-92424757D01*
X110497204Y-92365002D01*
X108177661Y-92365002D01*
X108334750Y-91986691D01*
X108335248Y-91415813D01*
X108117243Y-90888200D01*
X107785000Y-90555377D01*
X107785000Y-90528183D01*
X107785001Y-90528178D01*
X107723228Y-90217633D01*
X107717633Y-90189503D01*
X107525790Y-89902388D01*
X107525787Y-89902386D01*
X105976453Y-88353051D01*
X106115824Y-88213923D01*
X106334750Y-87686691D01*
X106335248Y-87115813D01*
X106117243Y-86588200D01*
X105713923Y-86184176D01*
X105186691Y-85965250D01*
X104615813Y-85964752D01*
X104088200Y-86182757D01*
X103684176Y-86586077D01*
X103465250Y-87113309D01*
X103465249Y-87114989D01*
X102834813Y-87114989D01*
X102835248Y-86615813D01*
X102617243Y-86088200D01*
X102213923Y-85684176D01*
X101686691Y-85465250D01*
X101115813Y-85464752D01*
X100588200Y-85682757D01*
X100184176Y-86086077D01*
X99965250Y-86613309D01*
X99964752Y-87184187D01*
X100182757Y-87711800D01*
X100259622Y-87788799D01*
X99533420Y-88515000D01*
X90600000Y-88515000D01*
X90261325Y-88582367D01*
X89974210Y-88774210D01*
X89974208Y-88774213D01*
X89115592Y-89632829D01*
X89134750Y-89586691D01*
X89135248Y-89015813D01*
X88917243Y-88488200D01*
X88835000Y-88405813D01*
X88835000Y-88012541D01*
X88847440Y-87950000D01*
X88847440Y-87050000D01*
X88798157Y-86802235D01*
X88657809Y-86592191D01*
X88447765Y-86451843D01*
X88200000Y-86402560D01*
X87788826Y-86402560D01*
X87600000Y-86365000D01*
X87411174Y-86402560D01*
X87000000Y-86402560D01*
X86752235Y-86451843D01*
X86542191Y-86592191D01*
X86500000Y-86655334D01*
X86457809Y-86592191D01*
X86247765Y-86451843D01*
X86000000Y-86402560D01*
X84800000Y-86402560D01*
X84552235Y-86451843D01*
X84342191Y-86592191D01*
X84326950Y-86615000D01*
X71500005Y-86615000D01*
X71500000Y-86614999D01*
X71161326Y-86682366D01*
X71088540Y-86731000D01*
X70874210Y-86874210D01*
X70874208Y-86874213D01*
X67033420Y-90715000D01*
X66627000Y-90715000D01*
X66627000Y-88500000D01*
X66617333Y-88451399D01*
X66589803Y-88410197D01*
X66548601Y-88382667D01*
X66500000Y-88373000D01*
X65002760Y-88373000D01*
X64900000Y-88352560D01*
X62750650Y-88352560D01*
X62842655Y-88287339D01*
X63033245Y-88154328D01*
X63225380Y-88022314D01*
X63418839Y-87891450D01*
X63613674Y-87761782D01*
X63809934Y-87633285D01*
X64007710Y-87505782D01*
X64206916Y-87379442D01*
X64407467Y-87254299D01*
X64609547Y-87130211D01*
X64812800Y-87007385D01*
X65017327Y-86885847D01*
X65223365Y-86765347D01*
X65430734Y-86645990D01*
X65639268Y-86527856D01*
X65849043Y-86411004D01*
X66060144Y-86295274D01*
X66272490Y-86180796D01*
X66486125Y-86067453D01*
X66700972Y-85955269D01*
X66916897Y-85844417D01*
X67134155Y-85734748D01*
X67352683Y-85626190D01*
X67572031Y-85518969D01*
X67792773Y-85412983D01*
X68014744Y-85308121D01*
X68237732Y-85204467D01*
X68461658Y-85102156D01*
X68686705Y-85001192D01*
X68913096Y-84901175D01*
X69140423Y-84802576D01*
X69368733Y-84705174D01*
X69598174Y-84608995D01*
X69828409Y-84514176D01*
X70059816Y-84420554D01*
X70292187Y-84328210D01*
X70525538Y-84237133D01*
X70759870Y-84147315D01*
X70995153Y-84058765D01*
X71231449Y-83971356D01*
X71468429Y-83885401D01*
X71706456Y-83800662D01*
X71945222Y-83717247D01*
X72185110Y-83635118D01*
X72425700Y-83554212D01*
X72667255Y-83474640D01*
X72909512Y-83396378D01*
X73152646Y-83319374D01*
X73396440Y-83243684D01*
X73641175Y-83169319D01*
X73886626Y-83096244D01*
X74132936Y-83024414D01*
X74379767Y-82954023D01*
X74627554Y-82884840D01*
X74875804Y-82817101D01*
X75124958Y-82750580D01*
X75374749Y-82685450D01*
X75625152Y-82621608D01*
X75876299Y-82559119D01*
X76128043Y-82497920D01*
X76380162Y-82438155D01*
X76633259Y-82379678D01*
X76886904Y-82322493D01*
X77140913Y-82266731D01*
X77395766Y-82212288D01*
X77650877Y-82159183D01*
X77906662Y-82107429D01*
X78162934Y-82057059D01*
X78419766Y-82008057D01*
X78676922Y-81960463D01*
X78934627Y-81914235D01*
X79193147Y-81869323D01*
X79451756Y-81825755D01*
X79710740Y-81783674D01*
X79970335Y-81742841D01*
X80230156Y-81703513D01*
X80490410Y-81665562D01*
X80751407Y-81628926D01*
X81012218Y-81593665D01*
X81273558Y-81559937D01*
X81535446Y-81527473D01*
X81797434Y-81496425D01*
X82059878Y-81466826D01*
X82322318Y-81438640D01*
X82585270Y-81411802D01*
X82848215Y-81386483D01*
X83111897Y-81362494D01*
X83375532Y-81339908D01*
X83639184Y-81318816D01*
X83903060Y-81299102D01*
X84167449Y-81280844D01*
X84431986Y-81263971D01*
X84696386Y-81248494D01*
X84960903Y-81234499D01*
X85225677Y-81221975D01*
X85490508Y-81210933D01*
X85755725Y-81201161D01*
X86020831Y-81192978D01*
X86285772Y-81186177D01*
X86551011Y-81180852D01*
X86816064Y-81177008D01*
X87081512Y-81174640D01*
X87346736Y-81173654D01*
X87612043Y-81174148D01*
X87612043Y-81174148D01*
G37*
X87612043Y-81174148D02*
X87877162Y-81176119D01*
X88142208Y-81179569D01*
X88407457Y-81184499D01*
X88672643Y-81190911D01*
X88937505Y-81198696D01*
X89202269Y-81208057D01*
X89467054Y-81218900D01*
X89731902Y-81231132D01*
X89996259Y-81244921D01*
X90260660Y-81260201D01*
X90524659Y-81276947D01*
X90788793Y-81295286D01*
X91052509Y-81314988D01*
X91316345Y-81336292D01*
X91579381Y-81358934D01*
X91842676Y-81383282D01*
X92105428Y-81408996D01*
X92367953Y-81436272D01*
X92630388Y-81465059D01*
X92892401Y-81495299D01*
X93153998Y-81527112D01*
X93415360Y-81560411D01*
X93676382Y-81595181D01*
X93937046Y-81631447D01*
X94197429Y-81669194D01*
X94457383Y-81708330D01*
X94716808Y-81748923D01*
X94975847Y-81790914D01*
X95234314Y-81834353D01*
X95492279Y-81879268D01*
X95750071Y-81925601D01*
X96006935Y-81973351D01*
X96263676Y-82022550D01*
X96519767Y-82073098D01*
X96775202Y-82125091D01*
X97030359Y-82178528D01*
X97284501Y-82233254D01*
X97538556Y-82289546D01*
X97791829Y-82347077D01*
X98044326Y-82406065D01*
X98296518Y-82466379D01*
X98547905Y-82528141D01*
X98798629Y-82591167D01*
X99048519Y-82655633D01*
X99298102Y-82721478D01*
X99546643Y-82788608D01*
X99795030Y-82857238D01*
X100042101Y-82927000D01*
X100288701Y-82998203D01*
X100534699Y-83070810D01*
X100779641Y-83144618D01*
X101023891Y-83219832D01*
X101267704Y-83296405D01*
X101510252Y-83374139D01*
X101752222Y-83453286D01*
X101993311Y-83533715D01*
X102233391Y-83615447D01*
X102472917Y-83698572D01*
X102711538Y-83782838D01*
X102949105Y-83868420D01*
X103185846Y-83955304D01*
X103421519Y-84043399D01*
X103656762Y-84133043D01*
X103890671Y-84223636D01*
X104123544Y-84315547D01*
X104355825Y-84408854D01*
X104586770Y-84503197D01*
X104816972Y-84599016D01*
X105046019Y-84695943D01*
X105274282Y-84794178D01*
X105501207Y-84893495D01*
X105727149Y-84994132D01*
X105952180Y-85095981D01*
X106176111Y-85199099D01*
X106398892Y-85303365D01*
X106620508Y-85408770D01*
X106840963Y-85515413D01*
X107060628Y-85623377D01*
X107278986Y-85732409D01*
X107496032Y-85842552D01*
X107712190Y-85954069D01*
X107926830Y-86066491D01*
X108140453Y-86180324D01*
X108352755Y-86295108D01*
X108564171Y-86411328D01*
X108774117Y-86528466D01*
X108982761Y-86646766D01*
X109189999Y-86766167D01*
X109396433Y-86886964D01*
X109601361Y-87008705D01*
X109804780Y-87131482D01*
X110006990Y-87255474D01*
X110207831Y-87380546D01*
X110407521Y-87506810D01*
X110605764Y-87634105D01*
X110802581Y-87762541D01*
X110998046Y-87891968D01*
X111192121Y-88022593D01*
X111384645Y-88154138D01*
X111575911Y-88286937D01*
X111765633Y-88420692D01*
X111953813Y-88555540D01*
X112140534Y-88691400D01*
X112325728Y-88828364D01*
X112509270Y-88966191D01*
X112691422Y-89105299D01*
X112872129Y-89245328D01*
X113051163Y-89386445D01*
X113228778Y-89528477D01*
X113404828Y-89671586D01*
X113579278Y-89815561D01*
X113752362Y-89960774D01*
X113923788Y-90106706D01*
X114093557Y-90253618D01*
X114261775Y-90401528D01*
X114428622Y-90550489D01*
X114593797Y-90700231D01*
X114757204Y-90850761D01*
X114919067Y-91002374D01*
X115079497Y-91154894D01*
X115238162Y-91308192D01*
X115395364Y-91462464D01*
X115550787Y-91617497D01*
X115704723Y-91773484D01*
X115857087Y-91930339D01*
X116007583Y-92087751D01*
X116156429Y-92246148D01*
X116304016Y-92405652D01*
X116449694Y-92565556D01*
X116593648Y-92726372D01*
X116735970Y-92887884D01*
X116876573Y-93050214D01*
X117015675Y-93213394D01*
X117152891Y-93377196D01*
X117288667Y-93541919D01*
X117422550Y-93707156D01*
X117554762Y-93873150D01*
X117685306Y-94039908D01*
X117814147Y-94207412D01*
X117941231Y-94375463D01*
X118066550Y-94544176D01*
X118190147Y-94713574D01*
X118312084Y-94883683D01*
X118432161Y-95054415D01*
X118550745Y-95225963D01*
X118667350Y-95397859D01*
X118782144Y-95570245D01*
X118895211Y-95743491D01*
X119006621Y-95917314D01*
X119116229Y-96091734D01*
X119224044Y-96266667D01*
X119329967Y-96442008D01*
X119434214Y-96618149D01*
X119536590Y-96794567D01*
X119637093Y-96971611D01*
X119735982Y-97149379D01*
X119832840Y-97327293D01*
X119927922Y-97505911D01*
X120021272Y-97685042D01*
X120112830Y-97864667D01*
X120202312Y-98044406D01*
X120290071Y-98224966D01*
X120376053Y-98405847D01*
X120460040Y-98587188D01*
X120542288Y-98768928D01*
X120622601Y-98951158D01*
X120701065Y-99133756D01*
X120777628Y-99316694D01*
X120852390Y-99500113D01*
X120925167Y-99683798D01*
X120996091Y-99867834D01*
X121064986Y-100052005D01*
X121132030Y-100236882D01*
X121197249Y-100422087D01*
X121260488Y-100607454D01*
X121321857Y-100793201D01*
X121381212Y-100979195D01*
X121438703Y-101165484D01*
X121494232Y-101352059D01*
X121547741Y-101538954D01*
X121599437Y-101726125D01*
X121649080Y-101913589D01*
X121696839Y-102101150D01*
X121742495Y-102288986D01*
X121786335Y-102477193D01*
X121828055Y-102665173D01*
X121867804Y-102853689D01*
X121905643Y-103042594D01*
X121941505Y-103231448D01*
X121975237Y-103420349D01*
X122007078Y-103609748D01*
X122036957Y-103799146D01*
X122064696Y-103988599D01*
X122090405Y-104178093D01*
X122114135Y-104368128D01*
X122135895Y-104558002D01*
X122155527Y-104747870D01*
X122173060Y-104938031D01*
X122188660Y-105128317D01*
X122202133Y-105318484D01*
X122213588Y-105508886D01*
X122222928Y-105699439D01*
X122230245Y-105889955D01*
X122232779Y-105981200D01*
X118125790Y-101874210D01*
X118089557Y-101850000D01*
X118081132Y-101844371D01*
X118174372Y-101805845D01*
X118803636Y-101177679D01*
X119144611Y-100356519D01*
X119145387Y-99467381D01*
X118805845Y-98645628D01*
X118177679Y-98016364D01*
X117356519Y-97675389D01*
X116467381Y-97674613D01*
X115645628Y-98014155D01*
X115016364Y-98642321D01*
X114675389Y-99463481D01*
X114674613Y-100352619D01*
X115014155Y-101174372D01*
X115454014Y-101615000D01*
X110700437Y-101615000D01*
X110805080Y-101545080D01*
X111418289Y-100931871D01*
X111840959Y-101131914D01*
X112063000Y-101010629D01*
X112063000Y-99867000D01*
X112317000Y-99867000D01*
X112317000Y-101010629D01*
X112539041Y-101131914D01*
X113045134Y-100892389D01*
X113421041Y-100477423D01*
X113581904Y-100089039D01*
X113459915Y-99867000D01*
X112317000Y-99867000D01*
X112063000Y-99867000D01*
X112043000Y-99867000D01*
X112043000Y-99613000D01*
X112063000Y-99613000D01*
X112063000Y-99593000D01*
X112317000Y-99593000D01*
X112317000Y-99613000D01*
X113459915Y-99613000D01*
X113581904Y-99390961D01*
X113421041Y-99002577D01*
X113045134Y-98587611D01*
X112894750Y-98516437D01*
X113279029Y-98259670D01*
X113603885Y-97773489D01*
X113717959Y-97200000D01*
X113603885Y-96626511D01*
X113279029Y-96140330D01*
X112964248Y-95930000D01*
X113279029Y-95719670D01*
X113603885Y-95233489D01*
X113717959Y-94660000D01*
X113603885Y-94086511D01*
X113279029Y-93600330D01*
X112792848Y-93275474D01*
X112219359Y-93161400D01*
X112160641Y-93161400D01*
X111656767Y-93261627D01*
X111531478Y-93074118D01*
X111052283Y-92594923D01*
X110797611Y-92424757D01*
X110497204Y-92365002D01*
X108177661Y-92365002D01*
X108334750Y-91986691D01*
X108335248Y-91415813D01*
X108117243Y-90888200D01*
X107785000Y-90555377D01*
X107785000Y-90528183D01*
X107785001Y-90528178D01*
X107723228Y-90217633D01*
X107717633Y-90189503D01*
X107525790Y-89902388D01*
X107525787Y-89902386D01*
X105976453Y-88353051D01*
X106115824Y-88213923D01*
X106334750Y-87686691D01*
X106335248Y-87115813D01*
X106117243Y-86588200D01*
X105713923Y-86184176D01*
X105186691Y-85965250D01*
X104615813Y-85964752D01*
X104088200Y-86182757D01*
X103684176Y-86586077D01*
X103465250Y-87113309D01*
X103465249Y-87114989D01*
X102834813Y-87114989D01*
X102835248Y-86615813D01*
X102617243Y-86088200D01*
X102213923Y-85684176D01*
X101686691Y-85465250D01*
X101115813Y-85464752D01*
X100588200Y-85682757D01*
X100184176Y-86086077D01*
X99965250Y-86613309D01*
X99964752Y-87184187D01*
X100182757Y-87711800D01*
X100259622Y-87788799D01*
X99533420Y-88515000D01*
X90600000Y-88515000D01*
X90261325Y-88582367D01*
X89974210Y-88774210D01*
X89974208Y-88774213D01*
X89115592Y-89632829D01*
X89134750Y-89586691D01*
X89135248Y-89015813D01*
X88917243Y-88488200D01*
X88835000Y-88405813D01*
X88835000Y-88012541D01*
X88847440Y-87950000D01*
X88847440Y-87050000D01*
X88798157Y-86802235D01*
X88657809Y-86592191D01*
X88447765Y-86451843D01*
X88200000Y-86402560D01*
X87788826Y-86402560D01*
X87600000Y-86365000D01*
X87411174Y-86402560D01*
X87000000Y-86402560D01*
X86752235Y-86451843D01*
X86542191Y-86592191D01*
X86500000Y-86655334D01*
X86457809Y-86592191D01*
X86247765Y-86451843D01*
X86000000Y-86402560D01*
X84800000Y-86402560D01*
X84552235Y-86451843D01*
X84342191Y-86592191D01*
X84326950Y-86615000D01*
X71500005Y-86615000D01*
X71500000Y-86614999D01*
X71161326Y-86682366D01*
X71088540Y-86731000D01*
X70874210Y-86874210D01*
X70874208Y-86874213D01*
X67033420Y-90715000D01*
X66627000Y-90715000D01*
X66627000Y-88500000D01*
X66617333Y-88451399D01*
X66589803Y-88410197D01*
X66548601Y-88382667D01*
X66500000Y-88373000D01*
X65002760Y-88373000D01*
X64900000Y-88352560D01*
X62750650Y-88352560D01*
X62842655Y-88287339D01*
X63033245Y-88154328D01*
X63225380Y-88022314D01*
X63418839Y-87891450D01*
X63613674Y-87761782D01*
X63809934Y-87633285D01*
X64007710Y-87505782D01*
X64206916Y-87379442D01*
X64407467Y-87254299D01*
X64609547Y-87130211D01*
X64812800Y-87007385D01*
X65017327Y-86885847D01*
X65223365Y-86765347D01*
X65430734Y-86645990D01*
X65639268Y-86527856D01*
X65849043Y-86411004D01*
X66060144Y-86295274D01*
X66272490Y-86180796D01*
X66486125Y-86067453D01*
X66700972Y-85955269D01*
X66916897Y-85844417D01*
X67134155Y-85734748D01*
X67352683Y-85626190D01*
X67572031Y-85518969D01*
X67792773Y-85412983D01*
X68014744Y-85308121D01*
X68237732Y-85204467D01*
X68461658Y-85102156D01*
X68686705Y-85001192D01*
X68913096Y-84901175D01*
X69140423Y-84802576D01*
X69368733Y-84705174D01*
X69598174Y-84608995D01*
X69828409Y-84514176D01*
X70059816Y-84420554D01*
X70292187Y-84328210D01*
X70525538Y-84237133D01*
X70759870Y-84147315D01*
X70995153Y-84058765D01*
X71231449Y-83971356D01*
X71468429Y-83885401D01*
X71706456Y-83800662D01*
X71945222Y-83717247D01*
X72185110Y-83635118D01*
X72425700Y-83554212D01*
X72667255Y-83474640D01*
X72909512Y-83396378D01*
X73152646Y-83319374D01*
X73396440Y-83243684D01*
X73641175Y-83169319D01*
X73886626Y-83096244D01*
X74132936Y-83024414D01*
X74379767Y-82954023D01*
X74627554Y-82884840D01*
X74875804Y-82817101D01*
X75124958Y-82750580D01*
X75374749Y-82685450D01*
X75625152Y-82621608D01*
X75876299Y-82559119D01*
X76128043Y-82497920D01*
X76380162Y-82438155D01*
X76633259Y-82379678D01*
X76886904Y-82322493D01*
X77140913Y-82266731D01*
X77395766Y-82212288D01*
X77650877Y-82159183D01*
X77906662Y-82107429D01*
X78162934Y-82057059D01*
X78419766Y-82008057D01*
X78676922Y-81960463D01*
X78934627Y-81914235D01*
X79193147Y-81869323D01*
X79451756Y-81825755D01*
X79710740Y-81783674D01*
X79970335Y-81742841D01*
X80230156Y-81703513D01*
X80490410Y-81665562D01*
X80751407Y-81628926D01*
X81012218Y-81593665D01*
X81273558Y-81559937D01*
X81535446Y-81527473D01*
X81797434Y-81496425D01*
X82059878Y-81466826D01*
X82322318Y-81438640D01*
X82585270Y-81411802D01*
X82848215Y-81386483D01*
X83111897Y-81362494D01*
X83375532Y-81339908D01*
X83639184Y-81318816D01*
X83903060Y-81299102D01*
X84167449Y-81280844D01*
X84431986Y-81263971D01*
X84696386Y-81248494D01*
X84960903Y-81234499D01*
X85225677Y-81221975D01*
X85490508Y-81210933D01*
X85755725Y-81201161D01*
X86020831Y-81192978D01*
X86285772Y-81186177D01*
X86551011Y-81180852D01*
X86816064Y-81177008D01*
X87081512Y-81174640D01*
X87346736Y-81173654D01*
X87612043Y-81174148D01*
G36*
X99275000Y-92226579D02*
X99275000Y-92847443D01*
X99270309Y-92845500D01*
X99175750Y-92845500D01*
X99017000Y-93004250D01*
X99017000Y-93925000D01*
X99037000Y-93925000D01*
X99037000Y-94179000D01*
X99017000Y-94179000D01*
X99017000Y-94199000D01*
X98763000Y-94199000D01*
X98763000Y-94179000D01*
X98159750Y-94179000D01*
X98001000Y-94337750D01*
X98001000Y-94749810D01*
X98097673Y-94983199D01*
X98129474Y-95015000D01*
X91793593Y-95015000D01*
X91617243Y-94588200D01*
X91213923Y-94184176D01*
X90686691Y-93965250D01*
X90115813Y-93964752D01*
X89588200Y-94182757D01*
X89498060Y-94272740D01*
X89548157Y-94197765D01*
X89597440Y-93950000D01*
X89597440Y-93654140D01*
X89897389Y-93354190D01*
X98001000Y-93354190D01*
X98001000Y-93766250D01*
X98159750Y-93925000D01*
X98763000Y-93925000D01*
X98763000Y-93004250D01*
X98604250Y-92845500D01*
X98509691Y-92845500D01*
X98276302Y-92942173D01*
X98097673Y-93120801D01*
X98001000Y-93354190D01*
X89897389Y-93354190D01*
X90325787Y-92925792D01*
X90325790Y-92925790D01*
X90454227Y-92733569D01*
X90686077Y-92965824D01*
X91213309Y-93184750D01*
X91784187Y-93185248D01*
X92311800Y-92967243D01*
X92715824Y-92563923D01*
X92893929Y-92135000D01*
X99183420Y-92135000D01*
X99275000Y-92226579D01*
X99275000Y-92226579D01*
G37*
X99275000Y-92226579D02*
X99275000Y-92847443D01*
X99270309Y-92845500D01*
X99175750Y-92845500D01*
X99017000Y-93004250D01*
X99017000Y-93925000D01*
X99037000Y-93925000D01*
X99037000Y-94179000D01*
X99017000Y-94179000D01*
X99017000Y-94199000D01*
X98763000Y-94199000D01*
X98763000Y-94179000D01*
X98159750Y-94179000D01*
X98001000Y-94337750D01*
X98001000Y-94749810D01*
X98097673Y-94983199D01*
X98129474Y-95015000D01*
X91793593Y-95015000D01*
X91617243Y-94588200D01*
X91213923Y-94184176D01*
X90686691Y-93965250D01*
X90115813Y-93964752D01*
X89588200Y-94182757D01*
X89498060Y-94272740D01*
X89548157Y-94197765D01*
X89597440Y-93950000D01*
X89597440Y-93654140D01*
X89897389Y-93354190D01*
X98001000Y-93354190D01*
X98001000Y-93766250D01*
X98159750Y-93925000D01*
X98763000Y-93925000D01*
X98763000Y-93004250D01*
X98604250Y-92845500D01*
X98509691Y-92845500D01*
X98276302Y-92942173D01*
X98097673Y-93120801D01*
X98001000Y-93354190D01*
X89897389Y-93354190D01*
X90325787Y-92925792D01*
X90325790Y-92925790D01*
X90454227Y-92733569D01*
X90686077Y-92965824D01*
X91213309Y-93184750D01*
X91784187Y-93185248D01*
X92311800Y-92967243D01*
X92715824Y-92563923D01*
X92893929Y-92135000D01*
X99183420Y-92135000D01*
X99275000Y-92226579D01*
M02*
