M48
;DRILL file {KiCad 4.1.0-alpha+201605041001+6771~44~ubuntu14.04.1-product} date Wed 11 May 2016 01:12:50 PM EEST
;FORMAT={-:-/ absolute / metric / decimal}
FMAT,2
METRIC,TZ
T1C0.800
T2C1.001
T3C1.500
T4C1.780
T5C1.800
T6C3.200
%
G90
G05
M71
T1
X74.Y-106.
X74.7Y-118.4
X74.9Y-128.5
X75.5Y-109.5
X76.9Y-118.4
X77.3Y-131.7
X78.9Y-118.5
X78.9Y-113.4
X79.3Y-131.7
X81.1Y-124.8
X81.3Y-131.7
X83.5Y-115.4
X85.7Y-120.2
X87.7Y-89.3
X88.25Y-99.
X89.5Y-109.5
X90.4Y-95.4
X91.5Y-91.75
X91.8Y-98.3
X91.9Y-124.5
X92.2Y-118.
X92.25Y-94.
X92.3Y-105.3
X93.2Y-122.1
X93.75Y-92.75
X96.2Y-112.6
X101.4Y-86.9
X102.1Y-109.
X102.4Y-91.3
X104.9Y-87.4
X106.9Y-91.7
X107.7Y-101.25
X109.65Y-97.2
X112.Y-123.
X112.2Y-101.25
X121.Y-121.
T2
X104.2Y-90.5
T3
X75.2Y-131.7
X83.4Y-131.7
T4
X66.58Y-127.35
X66.58Y-131.31
X107.86Y-127.34
X107.86Y-131.3
T5
X56.61Y-113.2
X64.23Y-110.66
X64.23Y-115.74
X110.21Y-110.67
X110.21Y-115.75
X117.83Y-113.21
T6
X57.51Y-99.91
X71.06Y-129.97
X103.36Y-129.98
X116.91Y-99.91
T0
M30
