G04 #@! TF.FileFunction,Copper,L2,Bot,Signal*
%FSLAX46Y46*%
G04 Gerber Fmt 4.6, Leading zero omitted, Abs format (unit mm)*
G04 Created by KiCad (PCBNEW 0.201603210401+6634~43~ubuntu14.04.1-product) date Wed 13 Apr 2016 05:04:02 PM EEST*
%MOMM*%
G01*
G04 APERTURE LIST*
%ADD10C,0.100000*%
%ADD11O,1.200000X1.600000*%
%ADD12O,2.200000X3.000000*%
%ADD13R,1.550000X0.600000*%
%ADD14C,3.200000*%
%ADD15C,3.000000*%
%ADD16R,0.750000X1.200000*%
%ADD17R,0.900000X1.200000*%
%ADD18R,1.200000X0.900000*%
%ADD19R,2.900000X2.900000*%
%ADD20C,2.900000*%
%ADD21R,1.198880X1.198880*%
%ADD22R,1.524000X2.199640*%
%ADD23C,2.000000*%
%ADD24C,1.600000*%
%ADD25C,0.500000*%
%ADD26C,0.800000*%
%ADD27C,0.300000*%
%ADD28C,1.000000*%
%ADD29C,0.254000*%
G04 APERTURE END LIST*
D10*
D11*
X79300000Y-131700000D03*
X81300000Y-131700000D03*
X77300000Y-131700000D03*
D12*
X75200000Y-131700000D03*
X83400000Y-131700000D03*
D13*
X105800000Y-93295000D03*
X105800000Y-94565000D03*
X105800000Y-95835000D03*
X105800000Y-97105000D03*
X100400000Y-97105000D03*
X100400000Y-95835000D03*
X100400000Y-94565000D03*
X100400000Y-93295000D03*
D14*
X116910000Y-99910000D03*
X57510000Y-99910000D03*
X71060000Y-129970000D03*
D15*
X110210000Y-115750000D03*
X117830000Y-113210000D03*
X110210000Y-110670000D03*
X56610000Y-113200000D03*
X64230000Y-110660000D03*
X64230000Y-115740000D03*
D16*
X100250000Y-105700000D03*
X100250000Y-107600000D03*
X94400000Y-96550000D03*
X94400000Y-94650000D03*
D17*
X101948026Y-106950000D03*
X101948026Y-104750000D03*
X101948026Y-100550000D03*
X101948026Y-102750000D03*
X97700000Y-96600000D03*
X97700000Y-94400000D03*
D18*
X93600000Y-109500000D03*
X91400000Y-109500000D03*
D19*
X107860000Y-131300000D03*
D20*
X107860000Y-127340000D03*
D19*
X66580000Y-127350000D03*
D20*
X66580000Y-131310000D03*
D21*
X78249020Y-105900000D03*
X76150980Y-105900000D03*
X87200000Y-96949020D03*
X87200000Y-94850980D03*
X87200000Y-114850980D03*
X87200000Y-116949020D03*
X96150980Y-105900000D03*
X98249020Y-105900000D03*
D13*
X94548026Y-103855000D03*
X94548026Y-102585000D03*
X94548026Y-101315000D03*
X94548026Y-100045000D03*
X99948026Y-100045000D03*
X99948026Y-101315000D03*
X99948026Y-102585000D03*
X99948026Y-103855000D03*
D14*
X103360000Y-129980000D03*
D22*
X104200000Y-90500000D03*
D23*
X91900002Y-124500000D03*
D24*
X78900000Y-118500000D03*
X76900000Y-118400000D03*
X74700000Y-118400000D03*
X93750000Y-92750000D03*
X92250000Y-94000000D03*
X74000000Y-106000000D03*
X75499996Y-109500000D03*
D23*
X89500000Y-109499996D03*
D24*
X112200000Y-101249990D03*
D23*
X121000000Y-121000000D03*
X112000000Y-123000000D03*
X93200000Y-122100000D03*
X92300000Y-105300000D03*
X102100000Y-109000000D03*
D24*
X91500000Y-91750000D03*
X87700000Y-89300000D03*
X101400000Y-86900000D03*
X102400000Y-91300000D03*
D23*
X96200000Y-112600000D03*
X78900002Y-113400000D03*
D24*
X90400000Y-95400000D03*
X88250000Y-99000000D03*
X109650000Y-97200000D03*
X104900000Y-87400000D03*
X107700000Y-101249990D03*
X106900000Y-91700000D03*
D23*
X83500000Y-115400000D03*
X91800000Y-98300000D03*
D24*
X79300000Y-129800000D03*
X81100000Y-124800000D03*
X85700000Y-120200000D03*
X92200000Y-118000000D03*
D25*
X91900002Y-123399998D02*
X91900002Y-124500000D01*
X93200000Y-122100000D02*
X91900002Y-123399998D01*
D26*
X74700000Y-118400000D02*
X76900000Y-118400000D01*
D25*
X94400000Y-94650000D02*
X92900000Y-94650000D01*
X92900000Y-94650000D02*
X92250000Y-94000000D01*
D27*
X100400000Y-94565000D02*
X101475000Y-94565000D01*
X101475000Y-94565000D02*
X101600000Y-94440000D01*
X101600000Y-94440000D02*
X101600000Y-92300000D01*
D25*
X112000000Y-123000000D02*
X114000000Y-121000000D01*
X114000000Y-121000000D02*
X121000000Y-121000000D01*
X92277082Y-103177082D02*
X92277082Y-105277082D01*
X92277082Y-105277082D02*
X92300000Y-105300000D01*
X97700000Y-94400000D02*
X97700000Y-94880000D01*
X97700000Y-94880000D02*
X99925000Y-97105000D01*
X99925000Y-97105000D02*
X100400000Y-97105000D01*
X101948026Y-104750000D02*
X101948026Y-104900000D01*
X101948026Y-104900000D02*
X103100000Y-106051974D01*
X103100000Y-106051974D02*
X103100000Y-108000000D01*
X103100000Y-108000000D02*
X102100000Y-109000000D01*
X101948026Y-102750000D02*
X101948026Y-104750000D01*
X99948026Y-102585000D02*
X101783026Y-102585000D01*
X101783026Y-102585000D02*
X101948026Y-102750000D01*
X90150000Y-91750000D02*
X90368630Y-91750000D01*
X90368630Y-91750000D02*
X91500000Y-91750000D01*
X87700000Y-89300000D02*
X90150000Y-91750000D01*
X101400000Y-86900000D02*
X101400000Y-90300000D01*
X101400000Y-90300000D02*
X102400000Y-91300000D01*
D26*
X78900002Y-113400000D02*
X79900000Y-113400000D01*
X79900000Y-113400000D02*
X81400000Y-114900000D01*
X81400000Y-114900000D02*
X81400000Y-115899998D01*
X81400000Y-115899998D02*
X84000002Y-118500000D01*
X84000002Y-118500000D02*
X89400000Y-118500000D01*
X89400000Y-118500000D02*
X95300000Y-112600000D01*
X95300000Y-112600000D02*
X96200000Y-112600000D01*
D28*
X88799440Y-114850980D02*
X93500000Y-110150420D01*
X93500000Y-110150420D02*
X96150980Y-107499440D01*
D25*
X93600000Y-109500000D02*
X93600000Y-110050420D01*
X93600000Y-110050420D02*
X93500000Y-110150420D01*
X96150980Y-105900000D02*
X96150980Y-102567046D01*
X96150980Y-102567046D02*
X98673026Y-100045000D01*
X98673026Y-100045000D02*
X99948026Y-100045000D01*
D28*
X87200000Y-114850980D02*
X88799440Y-114850980D01*
X96150980Y-107499440D02*
X96150980Y-105900000D01*
X87200000Y-96949020D02*
X85600560Y-96949020D01*
X85600560Y-96949020D02*
X78249020Y-104300560D01*
X78249020Y-104300560D02*
X78249020Y-105900000D01*
X87200000Y-114850980D02*
X85600560Y-114850980D01*
X85600560Y-114850980D02*
X78249020Y-107499440D01*
X78249020Y-107499440D02*
X78249020Y-105900000D01*
D25*
X101948026Y-100550000D02*
X101183026Y-101315000D01*
X101183026Y-101315000D02*
X99948026Y-101315000D01*
X100400000Y-95835000D02*
X101675000Y-95835000D01*
X101675000Y-95835000D02*
X101948026Y-96108026D01*
X101948026Y-96108026D02*
X101948026Y-99450000D01*
X101948026Y-99450000D02*
X101948026Y-100550000D01*
D27*
X102010705Y-100487321D02*
X101948026Y-100550000D01*
D25*
X89600001Y-96199999D02*
X90400000Y-95400000D01*
X88250000Y-97550000D02*
X89600001Y-96199999D01*
X88250000Y-99000000D02*
X88250000Y-97550000D01*
X105800000Y-94565000D02*
X107015000Y-94565000D01*
X107015000Y-94565000D02*
X109650000Y-97200000D01*
X104574999Y-95225001D02*
X104400000Y-95050002D01*
X104400000Y-95050002D02*
X104400000Y-92905037D01*
X104400000Y-92905037D02*
X105600000Y-91705037D01*
X105600000Y-91705037D02*
X105600000Y-88100000D01*
X105600000Y-88100000D02*
X104900000Y-87400000D01*
X105800000Y-95835000D02*
X105184998Y-95835000D01*
X105184998Y-95835000D02*
X104574999Y-95225001D01*
X105325000Y-95835000D02*
X105500000Y-95660000D01*
X104664999Y-95315001D02*
X104574999Y-95225001D01*
X106700001Y-100249991D02*
X107700000Y-101249990D01*
X104300000Y-97849990D02*
X106700001Y-100249991D01*
X105325000Y-95835000D02*
X104300000Y-96860000D01*
X104300000Y-96860000D02*
X104300000Y-97849990D01*
X105800000Y-95835000D02*
X105325000Y-95835000D01*
X105800000Y-93295000D02*
X105800000Y-93100000D01*
X105800000Y-93100000D02*
X106900000Y-92000000D01*
X106900000Y-92000000D02*
X106900000Y-91700000D01*
D26*
X98249020Y-105900000D02*
X100050000Y-105900000D01*
X100050000Y-105900000D02*
X100250000Y-105700000D01*
D28*
X83500000Y-115351540D02*
X83500000Y-115400000D01*
X83751540Y-115100000D02*
X83500000Y-115351540D01*
X85600560Y-116949020D02*
X83751540Y-115100000D01*
X83751540Y-115100000D02*
X78600000Y-109948460D01*
X78600000Y-109948460D02*
X76150980Y-107499440D01*
X78565759Y-109948460D02*
X78600000Y-109948460D01*
X76150980Y-105900000D02*
X76150980Y-104300560D01*
X76150980Y-104300560D02*
X85600560Y-94850980D01*
X85600560Y-94850980D02*
X87200000Y-94850980D01*
X87200000Y-116949020D02*
X85600560Y-116949020D01*
X76150980Y-107499440D02*
X76150980Y-105900000D01*
X98249020Y-105900000D02*
X98249020Y-107499440D01*
X98249020Y-107499440D02*
X88799440Y-116949020D01*
X88799440Y-116949020D02*
X87200000Y-116949020D01*
D26*
X100250000Y-105700000D02*
X100698026Y-105700000D01*
X100698026Y-105700000D02*
X101948026Y-106950000D01*
D25*
X100250000Y-105700000D02*
X100250000Y-104156974D01*
X100250000Y-104156974D02*
X99948026Y-103855000D01*
D28*
X94400000Y-96775000D02*
X92875000Y-98300000D01*
X92875000Y-98300000D02*
X91800000Y-98300000D01*
X94400000Y-96550000D02*
X94400000Y-96775000D01*
X95900000Y-96550000D02*
X95900000Y-92800000D01*
X95900000Y-92800000D02*
X96100000Y-92600000D01*
X96100000Y-92600000D02*
X99230000Y-92600000D01*
X99230000Y-92600000D02*
X99925000Y-93295000D01*
X99925000Y-93295000D02*
X100400000Y-93295000D01*
X95900000Y-96550000D02*
X97650000Y-96550000D01*
X94400000Y-96550000D02*
X95900000Y-96550000D01*
X97650000Y-96550000D02*
X97700000Y-96600000D01*
D25*
X92200000Y-118000000D02*
X91500000Y-118000000D01*
X91500000Y-118000000D02*
X89900000Y-119600000D01*
X89900000Y-119600000D02*
X86300000Y-119600000D01*
X86300000Y-119600000D02*
X85700000Y-120200000D01*
X81100000Y-124800000D02*
X79300000Y-126600000D01*
X79300000Y-126600000D02*
X79300000Y-129800000D01*
D29*
G36*
X87612043Y-81174148D02*
X87877162Y-81176119D01*
X88142208Y-81179569D01*
X88407457Y-81184499D01*
X88672643Y-81190911D01*
X88937505Y-81198696D01*
X89202269Y-81208057D01*
X89467054Y-81218900D01*
X89731902Y-81231132D01*
X89996259Y-81244921D01*
X90260660Y-81260201D01*
X90524659Y-81276947D01*
X90788793Y-81295286D01*
X91052509Y-81314988D01*
X91316345Y-81336292D01*
X91579381Y-81358934D01*
X91842676Y-81383282D01*
X92105428Y-81408996D01*
X92367953Y-81436272D01*
X92630388Y-81465059D01*
X92892401Y-81495299D01*
X93153998Y-81527112D01*
X93415360Y-81560411D01*
X93676382Y-81595181D01*
X93937046Y-81631447D01*
X94197429Y-81669194D01*
X94457383Y-81708330D01*
X94716808Y-81748923D01*
X94975847Y-81790914D01*
X95234314Y-81834353D01*
X95492279Y-81879268D01*
X95750071Y-81925601D01*
X96006935Y-81973351D01*
X96263676Y-82022550D01*
X96519767Y-82073098D01*
X96775202Y-82125091D01*
X97030359Y-82178528D01*
X97284501Y-82233254D01*
X97538556Y-82289546D01*
X97791829Y-82347077D01*
X98044326Y-82406065D01*
X98296518Y-82466379D01*
X98547905Y-82528141D01*
X98798629Y-82591167D01*
X99048519Y-82655633D01*
X99298102Y-82721478D01*
X99546643Y-82788608D01*
X99795030Y-82857238D01*
X100042101Y-82927000D01*
X100288701Y-82998203D01*
X100534699Y-83070810D01*
X100779641Y-83144618D01*
X101023891Y-83219832D01*
X101267704Y-83296405D01*
X101510252Y-83374139D01*
X101752222Y-83453286D01*
X101993311Y-83533715D01*
X102233391Y-83615447D01*
X102472917Y-83698572D01*
X102711538Y-83782838D01*
X102949105Y-83868420D01*
X103185846Y-83955304D01*
X103421519Y-84043399D01*
X103656762Y-84133043D01*
X103890671Y-84223636D01*
X104123544Y-84315547D01*
X104355825Y-84408854D01*
X104586770Y-84503197D01*
X104816972Y-84599016D01*
X105046019Y-84695943D01*
X105274282Y-84794178D01*
X105501207Y-84893495D01*
X105727149Y-84994132D01*
X105952180Y-85095981D01*
X106176111Y-85199099D01*
X106398892Y-85303365D01*
X106620508Y-85408770D01*
X106840963Y-85515413D01*
X107060628Y-85623377D01*
X107278986Y-85732409D01*
X107496032Y-85842552D01*
X107712190Y-85954069D01*
X107926830Y-86066491D01*
X108140453Y-86180324D01*
X108352755Y-86295108D01*
X108564171Y-86411328D01*
X108774117Y-86528466D01*
X108982761Y-86646766D01*
X109189999Y-86766167D01*
X109396433Y-86886964D01*
X109601361Y-87008705D01*
X109804780Y-87131482D01*
X110006990Y-87255474D01*
X110207831Y-87380546D01*
X110407521Y-87506810D01*
X110605764Y-87634105D01*
X110802581Y-87762541D01*
X110998046Y-87891968D01*
X111192121Y-88022593D01*
X111384645Y-88154138D01*
X111575911Y-88286937D01*
X111765633Y-88420692D01*
X111953813Y-88555540D01*
X112140534Y-88691400D01*
X112325728Y-88828364D01*
X112509270Y-88966191D01*
X112691422Y-89105299D01*
X112872129Y-89245328D01*
X113051163Y-89386445D01*
X113228778Y-89528477D01*
X113404828Y-89671586D01*
X113579278Y-89815561D01*
X113752362Y-89960774D01*
X113923788Y-90106706D01*
X114093557Y-90253618D01*
X114261775Y-90401528D01*
X114428622Y-90550489D01*
X114593797Y-90700231D01*
X114757204Y-90850761D01*
X114919067Y-91002374D01*
X115079497Y-91154894D01*
X115238162Y-91308192D01*
X115395364Y-91462464D01*
X115550787Y-91617497D01*
X115704723Y-91773484D01*
X115857087Y-91930339D01*
X116007583Y-92087751D01*
X116156429Y-92246148D01*
X116304016Y-92405652D01*
X116449694Y-92565556D01*
X116593648Y-92726372D01*
X116735970Y-92887884D01*
X116876573Y-93050214D01*
X117015675Y-93213394D01*
X117152891Y-93377196D01*
X117288667Y-93541919D01*
X117422550Y-93707156D01*
X117554762Y-93873150D01*
X117685306Y-94039908D01*
X117814147Y-94207412D01*
X117941231Y-94375463D01*
X118066550Y-94544176D01*
X118190147Y-94713574D01*
X118312084Y-94883683D01*
X118432161Y-95054415D01*
X118550745Y-95225963D01*
X118667350Y-95397859D01*
X118782144Y-95570245D01*
X118895211Y-95743491D01*
X119006621Y-95917314D01*
X119116229Y-96091734D01*
X119224044Y-96266667D01*
X119329967Y-96442008D01*
X119434214Y-96618149D01*
X119536590Y-96794567D01*
X119637093Y-96971611D01*
X119735982Y-97149379D01*
X119832840Y-97327293D01*
X119927922Y-97505911D01*
X120021250Y-97685000D01*
X120112830Y-97864667D01*
X120202312Y-98044406D01*
X120290071Y-98224966D01*
X120376053Y-98405847D01*
X120460040Y-98587188D01*
X120542288Y-98768928D01*
X120622601Y-98951158D01*
X120701065Y-99133756D01*
X120777628Y-99316694D01*
X120852390Y-99500113D01*
X120925167Y-99683798D01*
X120996091Y-99867834D01*
X121064986Y-100052005D01*
X121132030Y-100236882D01*
X121197249Y-100422087D01*
X121260488Y-100607454D01*
X121321857Y-100793201D01*
X121381212Y-100979195D01*
X121438703Y-101165484D01*
X121494232Y-101352059D01*
X121547741Y-101538954D01*
X121599437Y-101726125D01*
X121649080Y-101913589D01*
X121696839Y-102101150D01*
X121742495Y-102288986D01*
X121786335Y-102477193D01*
X121828055Y-102665173D01*
X121867804Y-102853689D01*
X121905643Y-103042594D01*
X121941505Y-103231448D01*
X121975237Y-103420349D01*
X122007078Y-103609748D01*
X122036957Y-103799146D01*
X122064696Y-103988599D01*
X122090405Y-104178093D01*
X122114135Y-104368128D01*
X122135895Y-104558002D01*
X122155527Y-104747870D01*
X122173060Y-104938031D01*
X122188660Y-105128317D01*
X122202133Y-105318484D01*
X122213588Y-105508886D01*
X122222928Y-105699439D01*
X122230245Y-105889955D01*
X122235534Y-106080373D01*
X122238613Y-106270961D01*
X122239691Y-106465274D01*
X122239691Y-129907285D01*
X121974953Y-131238212D01*
X121259259Y-132309323D01*
X120188150Y-133025014D01*
X118857224Y-133289752D01*
X109645174Y-133289752D01*
X109767809Y-133207809D01*
X109908157Y-132997765D01*
X109957440Y-132750000D01*
X109957440Y-129850000D01*
X109908157Y-129602235D01*
X109767809Y-129392191D01*
X109557765Y-129251843D01*
X109310000Y-129202560D01*
X108812134Y-129202560D01*
X109039515Y-129108608D01*
X109626547Y-128522600D01*
X109944638Y-127756552D01*
X109945362Y-126927087D01*
X109628608Y-126160485D01*
X109042600Y-125573453D01*
X108276552Y-125255362D01*
X107447087Y-125254638D01*
X106680485Y-125571392D01*
X106093453Y-126157400D01*
X105775362Y-126923448D01*
X105774638Y-127752913D01*
X106091392Y-128519515D01*
X106677400Y-129106547D01*
X106908625Y-129202560D01*
X106410000Y-129202560D01*
X106162235Y-129251843D01*
X105952191Y-129392191D01*
X105811843Y-129602235D01*
X105762560Y-129850000D01*
X105762560Y-132750000D01*
X105811843Y-132997765D01*
X105952191Y-133207809D01*
X106074826Y-133289752D01*
X84679553Y-133289752D01*
X85002931Y-132805783D01*
X85135000Y-132141827D01*
X85135000Y-131258173D01*
X85002931Y-130594217D01*
X84626830Y-130031343D01*
X84531433Y-129967600D01*
X101103256Y-129967600D01*
X101124915Y-130076488D01*
X101124613Y-130422619D01*
X101257957Y-130745335D01*
X101275288Y-130832465D01*
X101324212Y-130905685D01*
X101464155Y-131244372D01*
X101725339Y-131506013D01*
X101765195Y-131565661D01*
X101824322Y-131605168D01*
X102092321Y-131873636D01*
X102445742Y-132020389D01*
X102498391Y-132055568D01*
X102559952Y-132067813D01*
X102913481Y-132214611D01*
X103299650Y-132214948D01*
X103363256Y-132227600D01*
X103426306Y-132215059D01*
X103802619Y-132215387D01*
X104153475Y-132070416D01*
X104228121Y-132055568D01*
X104290850Y-132013654D01*
X104624372Y-131875845D01*
X104882023Y-131618644D01*
X104961317Y-131565661D01*
X105013837Y-131487060D01*
X105253636Y-131247679D01*
X105384718Y-130931998D01*
X105451224Y-130832465D01*
X105474374Y-130716083D01*
X105594611Y-130426519D01*
X105594887Y-130110221D01*
X105623256Y-129967600D01*
X105595135Y-129826225D01*
X105595387Y-129537381D01*
X105484112Y-129268076D01*
X105451224Y-129102735D01*
X105358383Y-128963790D01*
X105255845Y-128715628D01*
X105064471Y-128523919D01*
X104961317Y-128369539D01*
X104808286Y-128267287D01*
X104627679Y-128086364D01*
X104389505Y-127987466D01*
X104228121Y-127879632D01*
X104039417Y-127842096D01*
X103806519Y-127745389D01*
X103552118Y-127745167D01*
X103363256Y-127707600D01*
X103176044Y-127744839D01*
X102917381Y-127744613D01*
X102676216Y-127844260D01*
X102498391Y-127879632D01*
X102348955Y-127979482D01*
X102095628Y-128084155D01*
X101899929Y-128279512D01*
X101765195Y-128369539D01*
X101675955Y-128503096D01*
X101466364Y-128712321D01*
X101351795Y-128988235D01*
X101275288Y-129102735D01*
X101248657Y-129236618D01*
X101125389Y-129533481D01*
X101125106Y-129857752D01*
X101103256Y-129967600D01*
X84531433Y-129967600D01*
X84063956Y-129655242D01*
X83400000Y-129523173D01*
X82736044Y-129655242D01*
X82173170Y-130031343D01*
X81899734Y-130440568D01*
X81660161Y-130312526D01*
X81617609Y-130306538D01*
X81427000Y-130431269D01*
X81427000Y-131573000D01*
X81447000Y-131573000D01*
X81447000Y-131827000D01*
X81427000Y-131827000D01*
X81427000Y-132968731D01*
X81617609Y-133093462D01*
X81660161Y-133087474D01*
X81899734Y-132959432D01*
X82120447Y-133289752D01*
X76479553Y-133289752D01*
X76688841Y-132976531D01*
X76827386Y-133069104D01*
X77300000Y-133163113D01*
X77772614Y-133069104D01*
X78173277Y-132801390D01*
X78300000Y-132611735D01*
X78426723Y-132801390D01*
X78827386Y-133069104D01*
X79300000Y-133163113D01*
X79772614Y-133069104D01*
X80173277Y-132801390D01*
X80304342Y-132605236D01*
X80512828Y-132859255D01*
X80939839Y-133087474D01*
X80982391Y-133093462D01*
X81173000Y-132968731D01*
X81173000Y-131827000D01*
X81153000Y-131827000D01*
X81153000Y-131573000D01*
X81173000Y-131573000D01*
X81173000Y-130431269D01*
X80982391Y-130306538D01*
X80939839Y-130312526D01*
X80555732Y-130517815D01*
X80734750Y-130086691D01*
X80735248Y-129515813D01*
X80517243Y-128988200D01*
X80185000Y-128655377D01*
X80185000Y-126966580D01*
X80916739Y-126234840D01*
X81384187Y-126235248D01*
X81911800Y-126017243D01*
X82315824Y-125613923D01*
X82534750Y-125086691D01*
X82535248Y-124515813D01*
X82317243Y-123988200D01*
X81913923Y-123584176D01*
X81386691Y-123365250D01*
X80815813Y-123364752D01*
X80288200Y-123582757D01*
X79884176Y-123986077D01*
X79665250Y-124513309D01*
X79664840Y-124983581D01*
X78674210Y-125974210D01*
X78482367Y-126261325D01*
X78482367Y-126261326D01*
X78414999Y-126600000D01*
X78415000Y-126600005D01*
X78415000Y-128655829D01*
X78084176Y-128986077D01*
X77865250Y-129513309D01*
X77864752Y-130084187D01*
X78040706Y-130510029D01*
X77772614Y-130330896D01*
X77300000Y-130236887D01*
X76827386Y-130330896D01*
X76688841Y-130423469D01*
X76426830Y-130031343D01*
X75863956Y-129655242D01*
X75200000Y-129523173D01*
X74536044Y-129655242D01*
X73973170Y-130031343D01*
X73597069Y-130594217D01*
X73465000Y-131258173D01*
X73465000Y-132141827D01*
X73597069Y-132805783D01*
X73920447Y-133289752D01*
X67269901Y-133289752D01*
X67724565Y-133101424D01*
X67878244Y-132787849D01*
X66580000Y-131489605D01*
X65281756Y-132787849D01*
X65435435Y-133101424D01*
X65917848Y-133289752D01*
X55557467Y-133289752D01*
X54226540Y-133025014D01*
X53155429Y-132309320D01*
X52439738Y-131238211D01*
X52380044Y-130938108D01*
X64486934Y-130938108D01*
X64503942Y-131767398D01*
X64788576Y-132454565D01*
X65102151Y-132608244D01*
X66400395Y-131310000D01*
X66759605Y-131310000D01*
X68057849Y-132608244D01*
X68371424Y-132454565D01*
X68673066Y-131681892D01*
X68656058Y-130852602D01*
X68473812Y-130412619D01*
X68824613Y-130412619D01*
X69164155Y-131234372D01*
X69792321Y-131863636D01*
X70613481Y-132204611D01*
X71502619Y-132205387D01*
X72324372Y-131865845D01*
X72953636Y-131237679D01*
X73294611Y-130416519D01*
X73295387Y-129527381D01*
X72955845Y-128705628D01*
X72327679Y-128076364D01*
X71506519Y-127735389D01*
X70617381Y-127734613D01*
X69795628Y-128074155D01*
X69166364Y-128702321D01*
X68825389Y-129523481D01*
X68824613Y-130412619D01*
X68473812Y-130412619D01*
X68371424Y-130165435D01*
X68057849Y-130011756D01*
X66759605Y-131310000D01*
X66400395Y-131310000D01*
X65102151Y-130011756D01*
X64788576Y-130165435D01*
X64486934Y-130938108D01*
X52380044Y-130938108D01*
X52175000Y-129907285D01*
X52175000Y-125900000D01*
X64482560Y-125900000D01*
X64482560Y-128800000D01*
X64531843Y-129047765D01*
X64672191Y-129257809D01*
X64882235Y-129398157D01*
X65130000Y-129447440D01*
X65607172Y-129447440D01*
X65435435Y-129518576D01*
X65281756Y-129832151D01*
X66580000Y-131130395D01*
X67878244Y-129832151D01*
X67724565Y-129518576D01*
X67542346Y-129447440D01*
X68030000Y-129447440D01*
X68277765Y-129398157D01*
X68487809Y-129257809D01*
X68628157Y-129047765D01*
X68677440Y-128800000D01*
X68677440Y-125900000D01*
X68628157Y-125652235D01*
X68487809Y-125442191D01*
X68277765Y-125301843D01*
X68030000Y-125252560D01*
X65130000Y-125252560D01*
X64882235Y-125301843D01*
X64672191Y-125442191D01*
X64531843Y-125652235D01*
X64482560Y-125900000D01*
X52175000Y-125900000D01*
X52175000Y-116162815D01*
X62094630Y-116162815D01*
X62418980Y-116947800D01*
X63019041Y-117548909D01*
X63803459Y-117874628D01*
X64652815Y-117875370D01*
X65437800Y-117551020D01*
X66038909Y-116950959D01*
X66364628Y-116166541D01*
X66365370Y-115317185D01*
X66041020Y-114532200D01*
X65440959Y-113931091D01*
X64656541Y-113605372D01*
X63807185Y-113604630D01*
X63022200Y-113928980D01*
X62421091Y-114529041D01*
X62095372Y-115313459D01*
X62094630Y-116162815D01*
X52175000Y-116162815D01*
X52175000Y-113622815D01*
X54474630Y-113622815D01*
X54798980Y-114407800D01*
X55399041Y-115008909D01*
X56183459Y-115334628D01*
X57032815Y-115335370D01*
X57817800Y-115011020D01*
X58418909Y-114410959D01*
X58744628Y-113626541D01*
X58745370Y-112777185D01*
X58421020Y-111992200D01*
X57820959Y-111391091D01*
X57078549Y-111082815D01*
X62094630Y-111082815D01*
X62418980Y-111867800D01*
X63019041Y-112468909D01*
X63803459Y-112794628D01*
X64652815Y-112795370D01*
X65437800Y-112471020D01*
X66038909Y-111870959D01*
X66364628Y-111086541D01*
X66365370Y-110237185D01*
X66041020Y-109452200D01*
X65440959Y-108851091D01*
X64656541Y-108525372D01*
X63807185Y-108524630D01*
X63022200Y-108848980D01*
X62421091Y-109449041D01*
X62095372Y-110233459D01*
X62094630Y-111082815D01*
X57078549Y-111082815D01*
X57036541Y-111065372D01*
X56187185Y-111064630D01*
X55402200Y-111388980D01*
X54801091Y-111989041D01*
X54475372Y-112773459D01*
X54474630Y-113622815D01*
X52175000Y-113622815D01*
X52175000Y-106461615D01*
X52174992Y-106461572D01*
X52176049Y-106271100D01*
X52179222Y-106080574D01*
X52184518Y-105889953D01*
X52191827Y-105699608D01*
X52201267Y-105508994D01*
X52212710Y-105318876D01*
X52214016Y-105300560D01*
X74904100Y-105300560D01*
X74904100Y-106499440D01*
X74953383Y-106747205D01*
X75015980Y-106840887D01*
X75015980Y-107499440D01*
X75102377Y-107933786D01*
X75278545Y-108197440D01*
X75348414Y-108302006D01*
X77694243Y-110647835D01*
X77763193Y-110751026D01*
X77866384Y-110819976D01*
X78811329Y-111764921D01*
X78576207Y-111764716D01*
X77975059Y-112013106D01*
X77514724Y-112472637D01*
X77265286Y-113073352D01*
X77264718Y-113723795D01*
X77513108Y-114324943D01*
X77972639Y-114785278D01*
X78573354Y-115034716D01*
X79223797Y-115035284D01*
X79823698Y-114787409D01*
X80365000Y-115328711D01*
X80365000Y-115899993D01*
X80364999Y-115899998D01*
X80443785Y-116296075D01*
X80668144Y-116631854D01*
X83268144Y-119231853D01*
X83268146Y-119231856D01*
X83603925Y-119456215D01*
X84000002Y-119535001D01*
X84000007Y-119535000D01*
X84422338Y-119535000D01*
X84265250Y-119913309D01*
X84264752Y-120484187D01*
X84482757Y-121011800D01*
X84886077Y-121415824D01*
X85413309Y-121634750D01*
X85984187Y-121635248D01*
X86511800Y-121417243D01*
X86915824Y-121013923D01*
X87134750Y-120486691D01*
X87134751Y-120485000D01*
X89899995Y-120485000D01*
X89900000Y-120485001D01*
X90182484Y-120428810D01*
X90238675Y-120417633D01*
X90525790Y-120225790D01*
X91491839Y-119259740D01*
X91913309Y-119434750D01*
X92484187Y-119435248D01*
X93011800Y-119217243D01*
X93415824Y-118813923D01*
X93634750Y-118286691D01*
X93635248Y-117715813D01*
X93448551Y-117263970D01*
X108875635Y-117263970D01*
X109035418Y-117582739D01*
X109826187Y-117892723D01*
X110675387Y-117876497D01*
X111384582Y-117582739D01*
X111544365Y-117263970D01*
X110210000Y-115929605D01*
X108875635Y-117263970D01*
X93448551Y-117263970D01*
X93417243Y-117188200D01*
X93013923Y-116784176D01*
X92706987Y-116656725D01*
X93997525Y-115366187D01*
X108067277Y-115366187D01*
X108083503Y-116215387D01*
X108377261Y-116924582D01*
X108696030Y-117084365D01*
X110030395Y-115750000D01*
X110389605Y-115750000D01*
X111723970Y-117084365D01*
X112042739Y-116924582D01*
X112352723Y-116133813D01*
X112336497Y-115284613D01*
X112104272Y-114723970D01*
X116495635Y-114723970D01*
X116655418Y-115042739D01*
X117446187Y-115352723D01*
X118295387Y-115336497D01*
X119004582Y-115042739D01*
X119164365Y-114723970D01*
X117830000Y-113389605D01*
X116495635Y-114723970D01*
X112104272Y-114723970D01*
X112042739Y-114575418D01*
X111723970Y-114415635D01*
X110389605Y-115750000D01*
X110030395Y-115750000D01*
X108696030Y-114415635D01*
X108377261Y-114575418D01*
X108067277Y-115366187D01*
X93997525Y-115366187D01*
X95127682Y-114236030D01*
X108875635Y-114236030D01*
X110210000Y-115570395D01*
X111544365Y-114236030D01*
X111384582Y-113917261D01*
X110593813Y-113607277D01*
X109744613Y-113623503D01*
X109035418Y-113917261D01*
X108875635Y-114236030D01*
X95127682Y-114236030D01*
X95347393Y-114016319D01*
X95873352Y-114234716D01*
X96523795Y-114235284D01*
X97124943Y-113986894D01*
X97585278Y-113527363D01*
X97834716Y-112926648D01*
X97834803Y-112826187D01*
X115687277Y-112826187D01*
X115703503Y-113675387D01*
X115997261Y-114384582D01*
X116316030Y-114544365D01*
X117650395Y-113210000D01*
X118009605Y-113210000D01*
X119343970Y-114544365D01*
X119662739Y-114384582D01*
X119972723Y-113593813D01*
X119956497Y-112744613D01*
X119662739Y-112035418D01*
X119343970Y-111875635D01*
X118009605Y-113210000D01*
X117650395Y-113210000D01*
X116316030Y-111875635D01*
X115997261Y-112035418D01*
X115687277Y-112826187D01*
X97834803Y-112826187D01*
X97835284Y-112276205D01*
X97797174Y-112183970D01*
X108875635Y-112183970D01*
X109035418Y-112502739D01*
X109826187Y-112812723D01*
X110675387Y-112796497D01*
X111384582Y-112502739D01*
X111544365Y-112183970D01*
X110210000Y-110849605D01*
X108875635Y-112183970D01*
X97797174Y-112183970D01*
X97586894Y-111675057D01*
X97127363Y-111214722D01*
X96526648Y-110965284D01*
X96388429Y-110965163D01*
X99051586Y-108302006D01*
X99121455Y-108197440D01*
X99240000Y-108020025D01*
X99240000Y-108326309D01*
X99336673Y-108559698D01*
X99515301Y-108738327D01*
X99748690Y-108835000D01*
X99964250Y-108835000D01*
X100123000Y-108676250D01*
X100123000Y-107727000D01*
X100103000Y-107727000D01*
X100103000Y-107473000D01*
X100123000Y-107473000D01*
X100123000Y-107453000D01*
X100377000Y-107453000D01*
X100377000Y-107473000D01*
X100397000Y-107473000D01*
X100397000Y-107727000D01*
X100377000Y-107727000D01*
X100377000Y-108676250D01*
X100465204Y-108764454D01*
X100464716Y-109323795D01*
X100713106Y-109924943D01*
X101172637Y-110385278D01*
X101773352Y-110634716D01*
X102423795Y-110635284D01*
X103024943Y-110386894D01*
X103125826Y-110286187D01*
X108067277Y-110286187D01*
X108083503Y-111135387D01*
X108377261Y-111844582D01*
X108696030Y-112004365D01*
X110030395Y-110670000D01*
X110389605Y-110670000D01*
X111723970Y-112004365D01*
X112042739Y-111844582D01*
X112100971Y-111696030D01*
X116495635Y-111696030D01*
X117830000Y-113030395D01*
X119164365Y-111696030D01*
X119004582Y-111377261D01*
X118213813Y-111067277D01*
X117364613Y-111083503D01*
X116655418Y-111377261D01*
X116495635Y-111696030D01*
X112100971Y-111696030D01*
X112352723Y-111053813D01*
X112336497Y-110204613D01*
X112042739Y-109495418D01*
X111723970Y-109335635D01*
X110389605Y-110670000D01*
X110030395Y-110670000D01*
X108696030Y-109335635D01*
X108377261Y-109495418D01*
X108067277Y-110286187D01*
X103125826Y-110286187D01*
X103485278Y-109927363D01*
X103734716Y-109326648D01*
X103734864Y-109156030D01*
X108875635Y-109156030D01*
X110210000Y-110490395D01*
X111544365Y-109156030D01*
X111384582Y-108837261D01*
X110593813Y-108527277D01*
X109744613Y-108543503D01*
X109035418Y-108837261D01*
X108875635Y-109156030D01*
X103734864Y-109156030D01*
X103735284Y-108676205D01*
X103717767Y-108633812D01*
X103725787Y-108625792D01*
X103725790Y-108625790D01*
X103874947Y-108402560D01*
X103917634Y-108338674D01*
X103985001Y-108000000D01*
X103985000Y-107999995D01*
X103985000Y-106051979D01*
X103985001Y-106051974D01*
X103917633Y-105713299D01*
X103865698Y-105635572D01*
X103725790Y-105426184D01*
X103725787Y-105426182D01*
X103045466Y-104745860D01*
X103045466Y-104150000D01*
X102996183Y-103902235D01*
X102894462Y-103750000D01*
X102996183Y-103597765D01*
X103045466Y-103350000D01*
X103045466Y-102150000D01*
X102996183Y-101902235D01*
X102855835Y-101692191D01*
X102792692Y-101650000D01*
X102855835Y-101607809D01*
X102996183Y-101397765D01*
X103045466Y-101150000D01*
X103045466Y-99950000D01*
X102996183Y-99702235D01*
X102855835Y-99492191D01*
X102833026Y-99476950D01*
X102833026Y-96108031D01*
X102833027Y-96108026D01*
X102765659Y-95769351D01*
X102758180Y-95758158D01*
X102573816Y-95482236D01*
X102573813Y-95482234D01*
X102300790Y-95209210D01*
X102265726Y-95185781D01*
X102013675Y-95017367D01*
X101936285Y-95001973D01*
X101810000Y-94976853D01*
X101810000Y-94850750D01*
X101651250Y-94692000D01*
X100527000Y-94692000D01*
X100527000Y-94712000D01*
X100273000Y-94712000D01*
X100273000Y-94692000D01*
X99148750Y-94692000D01*
X98990000Y-94850750D01*
X98990000Y-94918420D01*
X98797440Y-94725860D01*
X98797440Y-93800000D01*
X98790630Y-93765762D01*
X99040834Y-94015966D01*
X98990000Y-94138690D01*
X98990000Y-94279250D01*
X99148750Y-94438000D01*
X100273000Y-94438000D01*
X100273000Y-94430000D01*
X100400000Y-94430000D01*
X100460328Y-94418000D01*
X100527000Y-94418000D01*
X100527000Y-94438000D01*
X101651250Y-94438000D01*
X101810000Y-94279250D01*
X101810000Y-94138690D01*
X101720232Y-93921972D01*
X101773157Y-93842765D01*
X101822440Y-93595000D01*
X101822440Y-92995000D01*
X101773157Y-92747235D01*
X101632809Y-92537191D01*
X101625052Y-92532008D01*
X102113309Y-92734750D01*
X102684187Y-92735248D01*
X103211800Y-92517243D01*
X103482254Y-92247260D01*
X103806197Y-92247260D01*
X103774210Y-92279247D01*
X103582367Y-92566362D01*
X103572128Y-92617837D01*
X103514999Y-92905037D01*
X103515000Y-92905042D01*
X103515000Y-95049997D01*
X103514999Y-95050002D01*
X103561809Y-95285325D01*
X103582367Y-95388677D01*
X103711963Y-95582632D01*
X103774210Y-95675792D01*
X103949207Y-95850788D01*
X103949209Y-95850791D01*
X104003419Y-95905001D01*
X103674210Y-96234210D01*
X103482367Y-96521325D01*
X103482367Y-96521326D01*
X103414999Y-96860000D01*
X103415000Y-96860005D01*
X103415000Y-97849985D01*
X103414999Y-97849990D01*
X103460734Y-98079909D01*
X103482367Y-98188665D01*
X103668707Y-98467544D01*
X103674210Y-98475780D01*
X106074209Y-100875778D01*
X106074211Y-100875781D01*
X106265160Y-101066730D01*
X106264752Y-101534177D01*
X106482757Y-102061790D01*
X106886077Y-102465814D01*
X107413309Y-102684740D01*
X107984187Y-102685238D01*
X108511800Y-102467233D01*
X108915824Y-102063913D01*
X109134750Y-101536681D01*
X109135248Y-100965803D01*
X108917243Y-100438190D01*
X108831822Y-100352619D01*
X114674613Y-100352619D01*
X115014155Y-101174372D01*
X115642321Y-101803636D01*
X116463481Y-102144611D01*
X117352619Y-102145387D01*
X118174372Y-101805845D01*
X118803636Y-101177679D01*
X119144611Y-100356519D01*
X119145387Y-99467381D01*
X118805845Y-98645628D01*
X118177679Y-98016364D01*
X117356519Y-97675389D01*
X116467381Y-97674613D01*
X115645628Y-98014155D01*
X115016364Y-98642321D01*
X114675389Y-99463481D01*
X114674613Y-100352619D01*
X108831822Y-100352619D01*
X108513923Y-100034166D01*
X107986691Y-99815240D01*
X107516420Y-99814830D01*
X107325791Y-99624201D01*
X107325788Y-99624199D01*
X105627920Y-97926330D01*
X105673000Y-97881250D01*
X105673000Y-97232000D01*
X105927000Y-97232000D01*
X105927000Y-97881250D01*
X106085750Y-98040000D01*
X106701309Y-98040000D01*
X106934698Y-97943327D01*
X107113327Y-97764699D01*
X107210000Y-97531310D01*
X107210000Y-97390750D01*
X107051250Y-97232000D01*
X105927000Y-97232000D01*
X105673000Y-97232000D01*
X105653000Y-97232000D01*
X105653000Y-96978000D01*
X105673000Y-96978000D01*
X105673000Y-96958000D01*
X105927000Y-96958000D01*
X105927000Y-96978000D01*
X107051250Y-96978000D01*
X107210000Y-96819250D01*
X107210000Y-96678690D01*
X107120232Y-96461972D01*
X107173157Y-96382765D01*
X107222440Y-96135000D01*
X107222440Y-96024020D01*
X108215160Y-97016739D01*
X108214752Y-97484187D01*
X108432757Y-98011800D01*
X108836077Y-98415824D01*
X109363309Y-98634750D01*
X109934187Y-98635248D01*
X110461800Y-98417243D01*
X110865824Y-98013923D01*
X111084750Y-97486691D01*
X111085248Y-96915813D01*
X110867243Y-96388200D01*
X110463923Y-95984176D01*
X109936691Y-95765250D01*
X109466419Y-95764840D01*
X107640790Y-93939210D01*
X107613222Y-93920790D01*
X107353675Y-93747367D01*
X107288008Y-93734305D01*
X107198281Y-93716457D01*
X107222440Y-93595000D01*
X107222440Y-93119442D01*
X107711800Y-92917243D01*
X108115824Y-92513923D01*
X108334750Y-91986691D01*
X108335248Y-91415813D01*
X108117243Y-90888200D01*
X107713923Y-90484176D01*
X107186691Y-90265250D01*
X106615813Y-90264752D01*
X106485000Y-90318803D01*
X106485000Y-88100000D01*
X106417633Y-87761325D01*
X106334793Y-87637346D01*
X106335248Y-87115813D01*
X106117243Y-86588200D01*
X105713923Y-86184176D01*
X105186691Y-85965250D01*
X104615813Y-85964752D01*
X104088200Y-86182757D01*
X103684176Y-86586077D01*
X103465250Y-87113309D01*
X103464752Y-87684187D01*
X103682757Y-88211800D01*
X104086077Y-88615824D01*
X104415807Y-88752740D01*
X103438000Y-88752740D01*
X103190235Y-88802023D01*
X102980191Y-88942371D01*
X102839843Y-89152415D01*
X102790560Y-89400180D01*
X102790560Y-89908380D01*
X102686691Y-89865250D01*
X102285000Y-89864900D01*
X102285000Y-88044171D01*
X102615824Y-87713923D01*
X102834750Y-87186691D01*
X102835248Y-86615813D01*
X102617243Y-86088200D01*
X102213923Y-85684176D01*
X101686691Y-85465250D01*
X101115813Y-85464752D01*
X100588200Y-85682757D01*
X100184176Y-86086077D01*
X99965250Y-86613309D01*
X99964752Y-87184187D01*
X100182757Y-87711800D01*
X100515000Y-88044623D01*
X100515000Y-90299995D01*
X100514999Y-90300000D01*
X100566078Y-90556787D01*
X100582367Y-90638675D01*
X100749093Y-90888200D01*
X100774210Y-90925790D01*
X100965160Y-91116740D01*
X100964752Y-91584187D01*
X101182757Y-92111800D01*
X101556522Y-92486217D01*
X101422765Y-92396843D01*
X101175000Y-92347560D01*
X100985747Y-92347560D01*
X100834346Y-92246397D01*
X100400000Y-92160000D01*
X100395132Y-92160000D01*
X100032566Y-91797434D01*
X100017343Y-91787262D01*
X99664346Y-91551397D01*
X99230000Y-91465000D01*
X96100000Y-91465000D01*
X95665654Y-91551397D01*
X95312657Y-91787262D01*
X95297434Y-91797434D01*
X95097434Y-91997434D01*
X94851397Y-92365654D01*
X94765000Y-92800000D01*
X94765000Y-93415000D01*
X94685750Y-93415000D01*
X94527000Y-93573750D01*
X94527000Y-94523000D01*
X94547000Y-94523000D01*
X94547000Y-94777000D01*
X94527000Y-94777000D01*
X94527000Y-94797000D01*
X94273000Y-94797000D01*
X94273000Y-94777000D01*
X93548750Y-94777000D01*
X93390000Y-94935750D01*
X93390000Y-95376309D01*
X93486673Y-95609698D01*
X93487873Y-95610898D01*
X93426843Y-95702235D01*
X93377560Y-95950000D01*
X93377560Y-96076498D01*
X93351397Y-96115654D01*
X93325867Y-96244001D01*
X92676335Y-96893533D01*
X92126648Y-96665284D01*
X91476205Y-96664716D01*
X90875057Y-96913106D01*
X90414722Y-97372637D01*
X90165284Y-97973352D01*
X90164716Y-98623795D01*
X90413106Y-99224943D01*
X90872637Y-99685278D01*
X91473352Y-99934716D01*
X92123795Y-99935284D01*
X92724943Y-99686894D01*
X93002729Y-99409593D01*
X93261974Y-99358026D01*
X93234699Y-99385301D01*
X93138026Y-99618690D01*
X93138026Y-99759250D01*
X93296776Y-99918000D01*
X94421026Y-99918000D01*
X94421026Y-99268750D01*
X94675026Y-99268750D01*
X94675026Y-99918000D01*
X95799276Y-99918000D01*
X95958026Y-99759250D01*
X95958026Y-99618690D01*
X95861353Y-99385301D01*
X95682724Y-99206673D01*
X95449335Y-99110000D01*
X94833776Y-99110000D01*
X94675026Y-99268750D01*
X94421026Y-99268750D01*
X94262276Y-99110000D01*
X93666440Y-99110000D01*
X93677566Y-99102566D01*
X95050521Y-97729611D01*
X95117285Y-97685000D01*
X96832885Y-97685000D01*
X97002235Y-97798157D01*
X97250000Y-97847440D01*
X98150000Y-97847440D01*
X98397765Y-97798157D01*
X98607809Y-97657809D01*
X98748157Y-97447765D01*
X98792625Y-97224205D01*
X98978588Y-97410167D01*
X99026843Y-97652765D01*
X99167191Y-97862809D01*
X99377235Y-98003157D01*
X99625000Y-98052440D01*
X101063026Y-98052440D01*
X101063026Y-99208473D01*
X100970791Y-99146843D01*
X100723026Y-99097560D01*
X99173026Y-99097560D01*
X98925261Y-99146843D01*
X98905570Y-99160000D01*
X98673031Y-99160000D01*
X98673026Y-99159999D01*
X98390542Y-99216190D01*
X98334351Y-99227367D01*
X98047236Y-99419210D01*
X98047234Y-99419213D01*
X95911861Y-101554585D01*
X95799276Y-101442000D01*
X94675026Y-101442000D01*
X94675026Y-102458000D01*
X94695026Y-102458000D01*
X94695026Y-102712000D01*
X94675026Y-102712000D01*
X94675026Y-103728000D01*
X94695026Y-103728000D01*
X94695026Y-103982000D01*
X94675026Y-103982000D01*
X94675026Y-104631250D01*
X94833776Y-104790000D01*
X95172678Y-104790000D01*
X95093731Y-104842751D01*
X94953383Y-105052795D01*
X94904100Y-105300560D01*
X94904100Y-106499440D01*
X94953383Y-106747205D01*
X95015980Y-106840887D01*
X95015980Y-107029308D01*
X93642728Y-108402560D01*
X93000000Y-108402560D01*
X92752235Y-108451843D01*
X92542191Y-108592191D01*
X92501346Y-108653320D01*
X92359698Y-108511673D01*
X92126309Y-108415000D01*
X91685750Y-108415000D01*
X91527000Y-108573750D01*
X91527000Y-109373000D01*
X91547000Y-109373000D01*
X91547000Y-109627000D01*
X91527000Y-109627000D01*
X91527000Y-110426250D01*
X91573019Y-110472269D01*
X88329308Y-113715980D01*
X88140887Y-113715980D01*
X88047205Y-113653383D01*
X87799440Y-113604100D01*
X86600560Y-113604100D01*
X86352795Y-113653383D01*
X86259113Y-113715980D01*
X86070692Y-113715980D01*
X82140462Y-109785750D01*
X90165000Y-109785750D01*
X90165000Y-110076310D01*
X90261673Y-110309699D01*
X90440302Y-110488327D01*
X90673691Y-110585000D01*
X91114250Y-110585000D01*
X91273000Y-110426250D01*
X91273000Y-109627000D01*
X90323750Y-109627000D01*
X90165000Y-109785750D01*
X82140462Y-109785750D01*
X81278402Y-108923690D01*
X90165000Y-108923690D01*
X90165000Y-109214250D01*
X90323750Y-109373000D01*
X91273000Y-109373000D01*
X91273000Y-108573750D01*
X91114250Y-108415000D01*
X90673691Y-108415000D01*
X90440302Y-108511673D01*
X90261673Y-108690301D01*
X90165000Y-108923690D01*
X81278402Y-108923690D01*
X79384020Y-107029308D01*
X79384020Y-106840887D01*
X79446617Y-106747205D01*
X79495900Y-106499440D01*
X79495900Y-105300560D01*
X79446617Y-105052795D01*
X79384020Y-104959113D01*
X79384020Y-104770692D01*
X80013962Y-104140750D01*
X93138026Y-104140750D01*
X93138026Y-104281310D01*
X93234699Y-104514699D01*
X93413328Y-104693327D01*
X93646717Y-104790000D01*
X94262276Y-104790000D01*
X94421026Y-104631250D01*
X94421026Y-103982000D01*
X93296776Y-103982000D01*
X93138026Y-104140750D01*
X80013962Y-104140750D01*
X81283962Y-102870750D01*
X93138026Y-102870750D01*
X93138026Y-103011310D01*
X93224468Y-103220000D01*
X93138026Y-103428690D01*
X93138026Y-103569250D01*
X93296776Y-103728000D01*
X94421026Y-103728000D01*
X94421026Y-102712000D01*
X93296776Y-102712000D01*
X93138026Y-102870750D01*
X81283962Y-102870750D01*
X82553962Y-101600750D01*
X93138026Y-101600750D01*
X93138026Y-101741310D01*
X93224468Y-101950000D01*
X93138026Y-102158690D01*
X93138026Y-102299250D01*
X93296776Y-102458000D01*
X94421026Y-102458000D01*
X94421026Y-101442000D01*
X93296776Y-101442000D01*
X93138026Y-101600750D01*
X82553962Y-101600750D01*
X86070692Y-98084020D01*
X86259113Y-98084020D01*
X86352795Y-98146617D01*
X86600560Y-98195900D01*
X87030097Y-98195900D01*
X86815250Y-98713309D01*
X86814752Y-99284187D01*
X87032757Y-99811800D01*
X87436077Y-100215824D01*
X87963309Y-100434750D01*
X88534187Y-100435248D01*
X88787091Y-100330750D01*
X93138026Y-100330750D01*
X93138026Y-100471310D01*
X93224468Y-100680000D01*
X93138026Y-100888690D01*
X93138026Y-101029250D01*
X93296776Y-101188000D01*
X94421026Y-101188000D01*
X94421026Y-100172000D01*
X94675026Y-100172000D01*
X94675026Y-101188000D01*
X95799276Y-101188000D01*
X95958026Y-101029250D01*
X95958026Y-100888690D01*
X95871584Y-100680000D01*
X95958026Y-100471310D01*
X95958026Y-100330750D01*
X95799276Y-100172000D01*
X94675026Y-100172000D01*
X94421026Y-100172000D01*
X93296776Y-100172000D01*
X93138026Y-100330750D01*
X88787091Y-100330750D01*
X89061800Y-100217243D01*
X89465824Y-99813923D01*
X89684750Y-99286691D01*
X89685248Y-98715813D01*
X89467243Y-98188200D01*
X89165575Y-97886005D01*
X90216739Y-96834840D01*
X90684187Y-96835248D01*
X91211800Y-96617243D01*
X91615824Y-96213923D01*
X91834750Y-95686691D01*
X91835248Y-95115813D01*
X91617243Y-94588200D01*
X91213923Y-94184176D01*
X90686691Y-93965250D01*
X90115813Y-93964752D01*
X89588200Y-94182757D01*
X89184176Y-94586077D01*
X88965250Y-95113309D01*
X88964840Y-95583581D01*
X88405728Y-96142693D01*
X88397597Y-96101815D01*
X88262747Y-95900000D01*
X88397597Y-95698185D01*
X88446880Y-95450420D01*
X88446880Y-94251540D01*
X88397597Y-94003775D01*
X88344087Y-93923691D01*
X93390000Y-93923691D01*
X93390000Y-94364250D01*
X93548750Y-94523000D01*
X94273000Y-94523000D01*
X94273000Y-93573750D01*
X94114250Y-93415000D01*
X93898690Y-93415000D01*
X93665301Y-93511673D01*
X93486673Y-93690302D01*
X93390000Y-93923691D01*
X88344087Y-93923691D01*
X88257249Y-93793731D01*
X88047205Y-93653383D01*
X87799440Y-93604100D01*
X86600560Y-93604100D01*
X86352795Y-93653383D01*
X86259113Y-93715980D01*
X85600560Y-93715980D01*
X85166214Y-93802377D01*
X84913951Y-93970934D01*
X84797994Y-94048414D01*
X75348414Y-103497994D01*
X75102377Y-103866214D01*
X75015980Y-104300560D01*
X75015980Y-104959113D01*
X74953383Y-105052795D01*
X74904100Y-105300560D01*
X52214016Y-105300560D01*
X52226278Y-105128732D01*
X52241977Y-104938425D01*
X52259584Y-104748500D01*
X52279417Y-104558638D01*
X52301216Y-104368529D01*
X52324978Y-104179009D01*
X52350878Y-103989623D01*
X52378844Y-103800031D01*
X52408704Y-103610854D01*
X52440704Y-103421744D01*
X52474661Y-103232665D01*
X52510612Y-103043946D01*
X52548607Y-102855320D01*
X52588529Y-102666994D01*
X52630471Y-102478975D01*
X52674472Y-102291006D01*
X52720420Y-102103257D01*
X52768333Y-101915565D01*
X52818130Y-101728437D01*
X52869948Y-101541527D01*
X52923760Y-101354778D01*
X52979534Y-101168123D01*
X53037237Y-100981871D01*
X53096741Y-100796115D01*
X53158280Y-100610628D01*
X53221806Y-100425274D01*
X53247493Y-100352619D01*
X55274613Y-100352619D01*
X55614155Y-101174372D01*
X56242321Y-101803636D01*
X57063481Y-102144611D01*
X57952619Y-102145387D01*
X58774372Y-101805845D01*
X59403636Y-101177679D01*
X59744611Y-100356519D01*
X59745387Y-99467381D01*
X59405845Y-98645628D01*
X58777679Y-98016364D01*
X57956519Y-97675389D01*
X57067381Y-97674613D01*
X56245628Y-98014155D01*
X55616364Y-98642321D01*
X55275389Y-99463481D01*
X55274613Y-100352619D01*
X53247493Y-100352619D01*
X53287197Y-100240318D01*
X53354526Y-100055647D01*
X53423691Y-99871369D01*
X53494803Y-99687446D01*
X53567821Y-99503983D01*
X53642799Y-99320605D01*
X53719601Y-99137752D01*
X53798212Y-98955361D01*
X53878765Y-98773438D01*
X53961211Y-98591787D01*
X54045576Y-98410449D01*
X54131653Y-98229572D01*
X54219535Y-98049550D01*
X54309537Y-97869448D01*
X54401188Y-97689929D01*
X54494661Y-97511031D01*
X54590025Y-97332626D01*
X54687185Y-97154516D01*
X54786149Y-96977157D01*
X54886904Y-96800107D01*
X54989516Y-96623715D01*
X55093912Y-96447748D01*
X55200145Y-96272312D01*
X55308099Y-96097409D01*
X55417754Y-95923167D01*
X55529291Y-95749546D01*
X55642572Y-95576367D01*
X55757571Y-95403919D01*
X55874375Y-95231969D01*
X55992877Y-95060682D01*
X56113175Y-94890007D01*
X56235132Y-94720103D01*
X56359051Y-94550495D01*
X56484452Y-94381801D01*
X56611786Y-94213549D01*
X56740490Y-94046224D01*
X56871139Y-93879553D01*
X57003480Y-93713397D01*
X57137511Y-93548098D01*
X57273073Y-93383515D01*
X57410312Y-93219899D01*
X57549624Y-93056473D01*
X57690332Y-92893925D01*
X57832537Y-92732434D01*
X57976439Y-92571677D01*
X58122169Y-92411608D01*
X58269447Y-92252235D01*
X58418418Y-92093703D01*
X58568950Y-91936049D01*
X58721193Y-91779122D01*
X58874967Y-91623105D01*
X59030262Y-91468004D01*
X59187357Y-91313644D01*
X59345935Y-91160143D01*
X59506192Y-91007503D01*
X59667939Y-90855720D01*
X59831200Y-90704949D01*
X59996103Y-90554991D01*
X60162621Y-90405967D01*
X60330603Y-90257909D01*
X60500124Y-90110761D01*
X60671332Y-89964528D01*
X60843975Y-89819209D01*
X61018110Y-89674967D01*
X61129411Y-89584187D01*
X86264752Y-89584187D01*
X86482757Y-90111800D01*
X86886077Y-90515824D01*
X87413309Y-90734750D01*
X87883581Y-90735160D01*
X89524208Y-92375787D01*
X89524210Y-92375790D01*
X89730942Y-92513923D01*
X89811325Y-92567633D01*
X90150000Y-92635001D01*
X90150005Y-92635000D01*
X90355829Y-92635000D01*
X90686077Y-92965824D01*
X91213309Y-93184750D01*
X91784187Y-93185248D01*
X92311800Y-92967243D01*
X92715824Y-92563923D01*
X92934750Y-92036691D01*
X92935248Y-91465813D01*
X92717243Y-90938200D01*
X92313923Y-90534176D01*
X91786691Y-90315250D01*
X91215813Y-90314752D01*
X90688200Y-90532757D01*
X90436048Y-90784469D01*
X89134840Y-89483261D01*
X89135248Y-89015813D01*
X88917243Y-88488200D01*
X88513923Y-88084176D01*
X87986691Y-87865250D01*
X87415813Y-87864752D01*
X86888200Y-88082757D01*
X86484176Y-88486077D01*
X86265250Y-89013309D01*
X86264752Y-89584187D01*
X61129411Y-89584187D01*
X61193931Y-89531563D01*
X61371075Y-89389269D01*
X61549770Y-89248007D01*
X61730022Y-89107658D01*
X61911848Y-88968220D01*
X62095025Y-88829940D01*
X62279714Y-88692710D01*
X62465781Y-88556605D01*
X62653467Y-88421452D01*
X62842655Y-88287339D01*
X63033245Y-88154328D01*
X63225380Y-88022314D01*
X63418839Y-87891450D01*
X63613674Y-87761782D01*
X63809934Y-87633285D01*
X64007710Y-87505782D01*
X64206916Y-87379442D01*
X64407467Y-87254299D01*
X64609547Y-87130211D01*
X64812800Y-87007385D01*
X65017327Y-86885847D01*
X65223365Y-86765347D01*
X65430734Y-86645990D01*
X65639268Y-86527856D01*
X65849043Y-86411004D01*
X66060144Y-86295274D01*
X66272490Y-86180796D01*
X66486125Y-86067453D01*
X66700972Y-85955269D01*
X66916897Y-85844417D01*
X67134155Y-85734748D01*
X67352683Y-85626190D01*
X67572031Y-85518969D01*
X67792773Y-85412983D01*
X68014744Y-85308121D01*
X68237732Y-85204467D01*
X68461658Y-85102156D01*
X68686705Y-85001192D01*
X68913096Y-84901175D01*
X69140423Y-84802576D01*
X69368733Y-84705174D01*
X69598174Y-84608995D01*
X69828409Y-84514176D01*
X70059816Y-84420554D01*
X70292187Y-84328210D01*
X70525538Y-84237133D01*
X70759870Y-84147315D01*
X70995153Y-84058765D01*
X71231449Y-83971356D01*
X71468429Y-83885401D01*
X71706456Y-83800662D01*
X71945222Y-83717247D01*
X72185110Y-83635118D01*
X72425700Y-83554212D01*
X72667255Y-83474640D01*
X72909512Y-83396378D01*
X73152646Y-83319374D01*
X73396440Y-83243684D01*
X73641175Y-83169319D01*
X73886626Y-83096244D01*
X74132936Y-83024414D01*
X74379767Y-82954023D01*
X74627554Y-82884840D01*
X74875804Y-82817101D01*
X75124958Y-82750580D01*
X75374749Y-82685450D01*
X75625152Y-82621608D01*
X75876299Y-82559119D01*
X76128043Y-82497920D01*
X76380162Y-82438155D01*
X76633259Y-82379678D01*
X76886904Y-82322493D01*
X77140913Y-82266731D01*
X77395766Y-82212288D01*
X77650877Y-82159183D01*
X77906662Y-82107429D01*
X78162934Y-82057059D01*
X78419766Y-82008057D01*
X78676922Y-81960463D01*
X78934627Y-81914235D01*
X79193147Y-81869323D01*
X79451756Y-81825755D01*
X79710740Y-81783674D01*
X79970335Y-81742841D01*
X80230156Y-81703513D01*
X80490410Y-81665562D01*
X80751407Y-81628926D01*
X81012218Y-81593665D01*
X81273558Y-81559937D01*
X81535446Y-81527473D01*
X81797434Y-81496425D01*
X82059878Y-81466826D01*
X82322318Y-81438640D01*
X82585270Y-81411802D01*
X82848215Y-81386483D01*
X83111897Y-81362494D01*
X83375532Y-81339908D01*
X83639184Y-81318816D01*
X83903060Y-81299102D01*
X84167449Y-81280844D01*
X84431986Y-81263971D01*
X84696386Y-81248494D01*
X84960903Y-81234499D01*
X85225677Y-81221975D01*
X85490508Y-81210933D01*
X85755725Y-81201161D01*
X86020831Y-81192978D01*
X86285772Y-81186177D01*
X86551011Y-81180852D01*
X86816064Y-81177008D01*
X87081512Y-81174640D01*
X87346736Y-81173654D01*
X87612043Y-81174148D01*
X87612043Y-81174148D01*
G37*
X87612043Y-81174148D02*
X87877162Y-81176119D01*
X88142208Y-81179569D01*
X88407457Y-81184499D01*
X88672643Y-81190911D01*
X88937505Y-81198696D01*
X89202269Y-81208057D01*
X89467054Y-81218900D01*
X89731902Y-81231132D01*
X89996259Y-81244921D01*
X90260660Y-81260201D01*
X90524659Y-81276947D01*
X90788793Y-81295286D01*
X91052509Y-81314988D01*
X91316345Y-81336292D01*
X91579381Y-81358934D01*
X91842676Y-81383282D01*
X92105428Y-81408996D01*
X92367953Y-81436272D01*
X92630388Y-81465059D01*
X92892401Y-81495299D01*
X93153998Y-81527112D01*
X93415360Y-81560411D01*
X93676382Y-81595181D01*
X93937046Y-81631447D01*
X94197429Y-81669194D01*
X94457383Y-81708330D01*
X94716808Y-81748923D01*
X94975847Y-81790914D01*
X95234314Y-81834353D01*
X95492279Y-81879268D01*
X95750071Y-81925601D01*
X96006935Y-81973351D01*
X96263676Y-82022550D01*
X96519767Y-82073098D01*
X96775202Y-82125091D01*
X97030359Y-82178528D01*
X97284501Y-82233254D01*
X97538556Y-82289546D01*
X97791829Y-82347077D01*
X98044326Y-82406065D01*
X98296518Y-82466379D01*
X98547905Y-82528141D01*
X98798629Y-82591167D01*
X99048519Y-82655633D01*
X99298102Y-82721478D01*
X99546643Y-82788608D01*
X99795030Y-82857238D01*
X100042101Y-82927000D01*
X100288701Y-82998203D01*
X100534699Y-83070810D01*
X100779641Y-83144618D01*
X101023891Y-83219832D01*
X101267704Y-83296405D01*
X101510252Y-83374139D01*
X101752222Y-83453286D01*
X101993311Y-83533715D01*
X102233391Y-83615447D01*
X102472917Y-83698572D01*
X102711538Y-83782838D01*
X102949105Y-83868420D01*
X103185846Y-83955304D01*
X103421519Y-84043399D01*
X103656762Y-84133043D01*
X103890671Y-84223636D01*
X104123544Y-84315547D01*
X104355825Y-84408854D01*
X104586770Y-84503197D01*
X104816972Y-84599016D01*
X105046019Y-84695943D01*
X105274282Y-84794178D01*
X105501207Y-84893495D01*
X105727149Y-84994132D01*
X105952180Y-85095981D01*
X106176111Y-85199099D01*
X106398892Y-85303365D01*
X106620508Y-85408770D01*
X106840963Y-85515413D01*
X107060628Y-85623377D01*
X107278986Y-85732409D01*
X107496032Y-85842552D01*
X107712190Y-85954069D01*
X107926830Y-86066491D01*
X108140453Y-86180324D01*
X108352755Y-86295108D01*
X108564171Y-86411328D01*
X108774117Y-86528466D01*
X108982761Y-86646766D01*
X109189999Y-86766167D01*
X109396433Y-86886964D01*
X109601361Y-87008705D01*
X109804780Y-87131482D01*
X110006990Y-87255474D01*
X110207831Y-87380546D01*
X110407521Y-87506810D01*
X110605764Y-87634105D01*
X110802581Y-87762541D01*
X110998046Y-87891968D01*
X111192121Y-88022593D01*
X111384645Y-88154138D01*
X111575911Y-88286937D01*
X111765633Y-88420692D01*
X111953813Y-88555540D01*
X112140534Y-88691400D01*
X112325728Y-88828364D01*
X112509270Y-88966191D01*
X112691422Y-89105299D01*
X112872129Y-89245328D01*
X113051163Y-89386445D01*
X113228778Y-89528477D01*
X113404828Y-89671586D01*
X113579278Y-89815561D01*
X113752362Y-89960774D01*
X113923788Y-90106706D01*
X114093557Y-90253618D01*
X114261775Y-90401528D01*
X114428622Y-90550489D01*
X114593797Y-90700231D01*
X114757204Y-90850761D01*
X114919067Y-91002374D01*
X115079497Y-91154894D01*
X115238162Y-91308192D01*
X115395364Y-91462464D01*
X115550787Y-91617497D01*
X115704723Y-91773484D01*
X115857087Y-91930339D01*
X116007583Y-92087751D01*
X116156429Y-92246148D01*
X116304016Y-92405652D01*
X116449694Y-92565556D01*
X116593648Y-92726372D01*
X116735970Y-92887884D01*
X116876573Y-93050214D01*
X117015675Y-93213394D01*
X117152891Y-93377196D01*
X117288667Y-93541919D01*
X117422550Y-93707156D01*
X117554762Y-93873150D01*
X117685306Y-94039908D01*
X117814147Y-94207412D01*
X117941231Y-94375463D01*
X118066550Y-94544176D01*
X118190147Y-94713574D01*
X118312084Y-94883683D01*
X118432161Y-95054415D01*
X118550745Y-95225963D01*
X118667350Y-95397859D01*
X118782144Y-95570245D01*
X118895211Y-95743491D01*
X119006621Y-95917314D01*
X119116229Y-96091734D01*
X119224044Y-96266667D01*
X119329967Y-96442008D01*
X119434214Y-96618149D01*
X119536590Y-96794567D01*
X119637093Y-96971611D01*
X119735982Y-97149379D01*
X119832840Y-97327293D01*
X119927922Y-97505911D01*
X120021250Y-97685000D01*
X120112830Y-97864667D01*
X120202312Y-98044406D01*
X120290071Y-98224966D01*
X120376053Y-98405847D01*
X120460040Y-98587188D01*
X120542288Y-98768928D01*
X120622601Y-98951158D01*
X120701065Y-99133756D01*
X120777628Y-99316694D01*
X120852390Y-99500113D01*
X120925167Y-99683798D01*
X120996091Y-99867834D01*
X121064986Y-100052005D01*
X121132030Y-100236882D01*
X121197249Y-100422087D01*
X121260488Y-100607454D01*
X121321857Y-100793201D01*
X121381212Y-100979195D01*
X121438703Y-101165484D01*
X121494232Y-101352059D01*
X121547741Y-101538954D01*
X121599437Y-101726125D01*
X121649080Y-101913589D01*
X121696839Y-102101150D01*
X121742495Y-102288986D01*
X121786335Y-102477193D01*
X121828055Y-102665173D01*
X121867804Y-102853689D01*
X121905643Y-103042594D01*
X121941505Y-103231448D01*
X121975237Y-103420349D01*
X122007078Y-103609748D01*
X122036957Y-103799146D01*
X122064696Y-103988599D01*
X122090405Y-104178093D01*
X122114135Y-104368128D01*
X122135895Y-104558002D01*
X122155527Y-104747870D01*
X122173060Y-104938031D01*
X122188660Y-105128317D01*
X122202133Y-105318484D01*
X122213588Y-105508886D01*
X122222928Y-105699439D01*
X122230245Y-105889955D01*
X122235534Y-106080373D01*
X122238613Y-106270961D01*
X122239691Y-106465274D01*
X122239691Y-129907285D01*
X121974953Y-131238212D01*
X121259259Y-132309323D01*
X120188150Y-133025014D01*
X118857224Y-133289752D01*
X109645174Y-133289752D01*
X109767809Y-133207809D01*
X109908157Y-132997765D01*
X109957440Y-132750000D01*
X109957440Y-129850000D01*
X109908157Y-129602235D01*
X109767809Y-129392191D01*
X109557765Y-129251843D01*
X109310000Y-129202560D01*
X108812134Y-129202560D01*
X109039515Y-129108608D01*
X109626547Y-128522600D01*
X109944638Y-127756552D01*
X109945362Y-126927087D01*
X109628608Y-126160485D01*
X109042600Y-125573453D01*
X108276552Y-125255362D01*
X107447087Y-125254638D01*
X106680485Y-125571392D01*
X106093453Y-126157400D01*
X105775362Y-126923448D01*
X105774638Y-127752913D01*
X106091392Y-128519515D01*
X106677400Y-129106547D01*
X106908625Y-129202560D01*
X106410000Y-129202560D01*
X106162235Y-129251843D01*
X105952191Y-129392191D01*
X105811843Y-129602235D01*
X105762560Y-129850000D01*
X105762560Y-132750000D01*
X105811843Y-132997765D01*
X105952191Y-133207809D01*
X106074826Y-133289752D01*
X84679553Y-133289752D01*
X85002931Y-132805783D01*
X85135000Y-132141827D01*
X85135000Y-131258173D01*
X85002931Y-130594217D01*
X84626830Y-130031343D01*
X84531433Y-129967600D01*
X101103256Y-129967600D01*
X101124915Y-130076488D01*
X101124613Y-130422619D01*
X101257957Y-130745335D01*
X101275288Y-130832465D01*
X101324212Y-130905685D01*
X101464155Y-131244372D01*
X101725339Y-131506013D01*
X101765195Y-131565661D01*
X101824322Y-131605168D01*
X102092321Y-131873636D01*
X102445742Y-132020389D01*
X102498391Y-132055568D01*
X102559952Y-132067813D01*
X102913481Y-132214611D01*
X103299650Y-132214948D01*
X103363256Y-132227600D01*
X103426306Y-132215059D01*
X103802619Y-132215387D01*
X104153475Y-132070416D01*
X104228121Y-132055568D01*
X104290850Y-132013654D01*
X104624372Y-131875845D01*
X104882023Y-131618644D01*
X104961317Y-131565661D01*
X105013837Y-131487060D01*
X105253636Y-131247679D01*
X105384718Y-130931998D01*
X105451224Y-130832465D01*
X105474374Y-130716083D01*
X105594611Y-130426519D01*
X105594887Y-130110221D01*
X105623256Y-129967600D01*
X105595135Y-129826225D01*
X105595387Y-129537381D01*
X105484112Y-129268076D01*
X105451224Y-129102735D01*
X105358383Y-128963790D01*
X105255845Y-128715628D01*
X105064471Y-128523919D01*
X104961317Y-128369539D01*
X104808286Y-128267287D01*
X104627679Y-128086364D01*
X104389505Y-127987466D01*
X104228121Y-127879632D01*
X104039417Y-127842096D01*
X103806519Y-127745389D01*
X103552118Y-127745167D01*
X103363256Y-127707600D01*
X103176044Y-127744839D01*
X102917381Y-127744613D01*
X102676216Y-127844260D01*
X102498391Y-127879632D01*
X102348955Y-127979482D01*
X102095628Y-128084155D01*
X101899929Y-128279512D01*
X101765195Y-128369539D01*
X101675955Y-128503096D01*
X101466364Y-128712321D01*
X101351795Y-128988235D01*
X101275288Y-129102735D01*
X101248657Y-129236618D01*
X101125389Y-129533481D01*
X101125106Y-129857752D01*
X101103256Y-129967600D01*
X84531433Y-129967600D01*
X84063956Y-129655242D01*
X83400000Y-129523173D01*
X82736044Y-129655242D01*
X82173170Y-130031343D01*
X81899734Y-130440568D01*
X81660161Y-130312526D01*
X81617609Y-130306538D01*
X81427000Y-130431269D01*
X81427000Y-131573000D01*
X81447000Y-131573000D01*
X81447000Y-131827000D01*
X81427000Y-131827000D01*
X81427000Y-132968731D01*
X81617609Y-133093462D01*
X81660161Y-133087474D01*
X81899734Y-132959432D01*
X82120447Y-133289752D01*
X76479553Y-133289752D01*
X76688841Y-132976531D01*
X76827386Y-133069104D01*
X77300000Y-133163113D01*
X77772614Y-133069104D01*
X78173277Y-132801390D01*
X78300000Y-132611735D01*
X78426723Y-132801390D01*
X78827386Y-133069104D01*
X79300000Y-133163113D01*
X79772614Y-133069104D01*
X80173277Y-132801390D01*
X80304342Y-132605236D01*
X80512828Y-132859255D01*
X80939839Y-133087474D01*
X80982391Y-133093462D01*
X81173000Y-132968731D01*
X81173000Y-131827000D01*
X81153000Y-131827000D01*
X81153000Y-131573000D01*
X81173000Y-131573000D01*
X81173000Y-130431269D01*
X80982391Y-130306538D01*
X80939839Y-130312526D01*
X80555732Y-130517815D01*
X80734750Y-130086691D01*
X80735248Y-129515813D01*
X80517243Y-128988200D01*
X80185000Y-128655377D01*
X80185000Y-126966580D01*
X80916739Y-126234840D01*
X81384187Y-126235248D01*
X81911800Y-126017243D01*
X82315824Y-125613923D01*
X82534750Y-125086691D01*
X82535248Y-124515813D01*
X82317243Y-123988200D01*
X81913923Y-123584176D01*
X81386691Y-123365250D01*
X80815813Y-123364752D01*
X80288200Y-123582757D01*
X79884176Y-123986077D01*
X79665250Y-124513309D01*
X79664840Y-124983581D01*
X78674210Y-125974210D01*
X78482367Y-126261325D01*
X78482367Y-126261326D01*
X78414999Y-126600000D01*
X78415000Y-126600005D01*
X78415000Y-128655829D01*
X78084176Y-128986077D01*
X77865250Y-129513309D01*
X77864752Y-130084187D01*
X78040706Y-130510029D01*
X77772614Y-130330896D01*
X77300000Y-130236887D01*
X76827386Y-130330896D01*
X76688841Y-130423469D01*
X76426830Y-130031343D01*
X75863956Y-129655242D01*
X75200000Y-129523173D01*
X74536044Y-129655242D01*
X73973170Y-130031343D01*
X73597069Y-130594217D01*
X73465000Y-131258173D01*
X73465000Y-132141827D01*
X73597069Y-132805783D01*
X73920447Y-133289752D01*
X67269901Y-133289752D01*
X67724565Y-133101424D01*
X67878244Y-132787849D01*
X66580000Y-131489605D01*
X65281756Y-132787849D01*
X65435435Y-133101424D01*
X65917848Y-133289752D01*
X55557467Y-133289752D01*
X54226540Y-133025014D01*
X53155429Y-132309320D01*
X52439738Y-131238211D01*
X52380044Y-130938108D01*
X64486934Y-130938108D01*
X64503942Y-131767398D01*
X64788576Y-132454565D01*
X65102151Y-132608244D01*
X66400395Y-131310000D01*
X66759605Y-131310000D01*
X68057849Y-132608244D01*
X68371424Y-132454565D01*
X68673066Y-131681892D01*
X68656058Y-130852602D01*
X68473812Y-130412619D01*
X68824613Y-130412619D01*
X69164155Y-131234372D01*
X69792321Y-131863636D01*
X70613481Y-132204611D01*
X71502619Y-132205387D01*
X72324372Y-131865845D01*
X72953636Y-131237679D01*
X73294611Y-130416519D01*
X73295387Y-129527381D01*
X72955845Y-128705628D01*
X72327679Y-128076364D01*
X71506519Y-127735389D01*
X70617381Y-127734613D01*
X69795628Y-128074155D01*
X69166364Y-128702321D01*
X68825389Y-129523481D01*
X68824613Y-130412619D01*
X68473812Y-130412619D01*
X68371424Y-130165435D01*
X68057849Y-130011756D01*
X66759605Y-131310000D01*
X66400395Y-131310000D01*
X65102151Y-130011756D01*
X64788576Y-130165435D01*
X64486934Y-130938108D01*
X52380044Y-130938108D01*
X52175000Y-129907285D01*
X52175000Y-125900000D01*
X64482560Y-125900000D01*
X64482560Y-128800000D01*
X64531843Y-129047765D01*
X64672191Y-129257809D01*
X64882235Y-129398157D01*
X65130000Y-129447440D01*
X65607172Y-129447440D01*
X65435435Y-129518576D01*
X65281756Y-129832151D01*
X66580000Y-131130395D01*
X67878244Y-129832151D01*
X67724565Y-129518576D01*
X67542346Y-129447440D01*
X68030000Y-129447440D01*
X68277765Y-129398157D01*
X68487809Y-129257809D01*
X68628157Y-129047765D01*
X68677440Y-128800000D01*
X68677440Y-125900000D01*
X68628157Y-125652235D01*
X68487809Y-125442191D01*
X68277765Y-125301843D01*
X68030000Y-125252560D01*
X65130000Y-125252560D01*
X64882235Y-125301843D01*
X64672191Y-125442191D01*
X64531843Y-125652235D01*
X64482560Y-125900000D01*
X52175000Y-125900000D01*
X52175000Y-116162815D01*
X62094630Y-116162815D01*
X62418980Y-116947800D01*
X63019041Y-117548909D01*
X63803459Y-117874628D01*
X64652815Y-117875370D01*
X65437800Y-117551020D01*
X66038909Y-116950959D01*
X66364628Y-116166541D01*
X66365370Y-115317185D01*
X66041020Y-114532200D01*
X65440959Y-113931091D01*
X64656541Y-113605372D01*
X63807185Y-113604630D01*
X63022200Y-113928980D01*
X62421091Y-114529041D01*
X62095372Y-115313459D01*
X62094630Y-116162815D01*
X52175000Y-116162815D01*
X52175000Y-113622815D01*
X54474630Y-113622815D01*
X54798980Y-114407800D01*
X55399041Y-115008909D01*
X56183459Y-115334628D01*
X57032815Y-115335370D01*
X57817800Y-115011020D01*
X58418909Y-114410959D01*
X58744628Y-113626541D01*
X58745370Y-112777185D01*
X58421020Y-111992200D01*
X57820959Y-111391091D01*
X57078549Y-111082815D01*
X62094630Y-111082815D01*
X62418980Y-111867800D01*
X63019041Y-112468909D01*
X63803459Y-112794628D01*
X64652815Y-112795370D01*
X65437800Y-112471020D01*
X66038909Y-111870959D01*
X66364628Y-111086541D01*
X66365370Y-110237185D01*
X66041020Y-109452200D01*
X65440959Y-108851091D01*
X64656541Y-108525372D01*
X63807185Y-108524630D01*
X63022200Y-108848980D01*
X62421091Y-109449041D01*
X62095372Y-110233459D01*
X62094630Y-111082815D01*
X57078549Y-111082815D01*
X57036541Y-111065372D01*
X56187185Y-111064630D01*
X55402200Y-111388980D01*
X54801091Y-111989041D01*
X54475372Y-112773459D01*
X54474630Y-113622815D01*
X52175000Y-113622815D01*
X52175000Y-106461615D01*
X52174992Y-106461572D01*
X52176049Y-106271100D01*
X52179222Y-106080574D01*
X52184518Y-105889953D01*
X52191827Y-105699608D01*
X52201267Y-105508994D01*
X52212710Y-105318876D01*
X52214016Y-105300560D01*
X74904100Y-105300560D01*
X74904100Y-106499440D01*
X74953383Y-106747205D01*
X75015980Y-106840887D01*
X75015980Y-107499440D01*
X75102377Y-107933786D01*
X75278545Y-108197440D01*
X75348414Y-108302006D01*
X77694243Y-110647835D01*
X77763193Y-110751026D01*
X77866384Y-110819976D01*
X78811329Y-111764921D01*
X78576207Y-111764716D01*
X77975059Y-112013106D01*
X77514724Y-112472637D01*
X77265286Y-113073352D01*
X77264718Y-113723795D01*
X77513108Y-114324943D01*
X77972639Y-114785278D01*
X78573354Y-115034716D01*
X79223797Y-115035284D01*
X79823698Y-114787409D01*
X80365000Y-115328711D01*
X80365000Y-115899993D01*
X80364999Y-115899998D01*
X80443785Y-116296075D01*
X80668144Y-116631854D01*
X83268144Y-119231853D01*
X83268146Y-119231856D01*
X83603925Y-119456215D01*
X84000002Y-119535001D01*
X84000007Y-119535000D01*
X84422338Y-119535000D01*
X84265250Y-119913309D01*
X84264752Y-120484187D01*
X84482757Y-121011800D01*
X84886077Y-121415824D01*
X85413309Y-121634750D01*
X85984187Y-121635248D01*
X86511800Y-121417243D01*
X86915824Y-121013923D01*
X87134750Y-120486691D01*
X87134751Y-120485000D01*
X89899995Y-120485000D01*
X89900000Y-120485001D01*
X90182484Y-120428810D01*
X90238675Y-120417633D01*
X90525790Y-120225790D01*
X91491839Y-119259740D01*
X91913309Y-119434750D01*
X92484187Y-119435248D01*
X93011800Y-119217243D01*
X93415824Y-118813923D01*
X93634750Y-118286691D01*
X93635248Y-117715813D01*
X93448551Y-117263970D01*
X108875635Y-117263970D01*
X109035418Y-117582739D01*
X109826187Y-117892723D01*
X110675387Y-117876497D01*
X111384582Y-117582739D01*
X111544365Y-117263970D01*
X110210000Y-115929605D01*
X108875635Y-117263970D01*
X93448551Y-117263970D01*
X93417243Y-117188200D01*
X93013923Y-116784176D01*
X92706987Y-116656725D01*
X93997525Y-115366187D01*
X108067277Y-115366187D01*
X108083503Y-116215387D01*
X108377261Y-116924582D01*
X108696030Y-117084365D01*
X110030395Y-115750000D01*
X110389605Y-115750000D01*
X111723970Y-117084365D01*
X112042739Y-116924582D01*
X112352723Y-116133813D01*
X112336497Y-115284613D01*
X112104272Y-114723970D01*
X116495635Y-114723970D01*
X116655418Y-115042739D01*
X117446187Y-115352723D01*
X118295387Y-115336497D01*
X119004582Y-115042739D01*
X119164365Y-114723970D01*
X117830000Y-113389605D01*
X116495635Y-114723970D01*
X112104272Y-114723970D01*
X112042739Y-114575418D01*
X111723970Y-114415635D01*
X110389605Y-115750000D01*
X110030395Y-115750000D01*
X108696030Y-114415635D01*
X108377261Y-114575418D01*
X108067277Y-115366187D01*
X93997525Y-115366187D01*
X95127682Y-114236030D01*
X108875635Y-114236030D01*
X110210000Y-115570395D01*
X111544365Y-114236030D01*
X111384582Y-113917261D01*
X110593813Y-113607277D01*
X109744613Y-113623503D01*
X109035418Y-113917261D01*
X108875635Y-114236030D01*
X95127682Y-114236030D01*
X95347393Y-114016319D01*
X95873352Y-114234716D01*
X96523795Y-114235284D01*
X97124943Y-113986894D01*
X97585278Y-113527363D01*
X97834716Y-112926648D01*
X97834803Y-112826187D01*
X115687277Y-112826187D01*
X115703503Y-113675387D01*
X115997261Y-114384582D01*
X116316030Y-114544365D01*
X117650395Y-113210000D01*
X118009605Y-113210000D01*
X119343970Y-114544365D01*
X119662739Y-114384582D01*
X119972723Y-113593813D01*
X119956497Y-112744613D01*
X119662739Y-112035418D01*
X119343970Y-111875635D01*
X118009605Y-113210000D01*
X117650395Y-113210000D01*
X116316030Y-111875635D01*
X115997261Y-112035418D01*
X115687277Y-112826187D01*
X97834803Y-112826187D01*
X97835284Y-112276205D01*
X97797174Y-112183970D01*
X108875635Y-112183970D01*
X109035418Y-112502739D01*
X109826187Y-112812723D01*
X110675387Y-112796497D01*
X111384582Y-112502739D01*
X111544365Y-112183970D01*
X110210000Y-110849605D01*
X108875635Y-112183970D01*
X97797174Y-112183970D01*
X97586894Y-111675057D01*
X97127363Y-111214722D01*
X96526648Y-110965284D01*
X96388429Y-110965163D01*
X99051586Y-108302006D01*
X99121455Y-108197440D01*
X99240000Y-108020025D01*
X99240000Y-108326309D01*
X99336673Y-108559698D01*
X99515301Y-108738327D01*
X99748690Y-108835000D01*
X99964250Y-108835000D01*
X100123000Y-108676250D01*
X100123000Y-107727000D01*
X100103000Y-107727000D01*
X100103000Y-107473000D01*
X100123000Y-107473000D01*
X100123000Y-107453000D01*
X100377000Y-107453000D01*
X100377000Y-107473000D01*
X100397000Y-107473000D01*
X100397000Y-107727000D01*
X100377000Y-107727000D01*
X100377000Y-108676250D01*
X100465204Y-108764454D01*
X100464716Y-109323795D01*
X100713106Y-109924943D01*
X101172637Y-110385278D01*
X101773352Y-110634716D01*
X102423795Y-110635284D01*
X103024943Y-110386894D01*
X103125826Y-110286187D01*
X108067277Y-110286187D01*
X108083503Y-111135387D01*
X108377261Y-111844582D01*
X108696030Y-112004365D01*
X110030395Y-110670000D01*
X110389605Y-110670000D01*
X111723970Y-112004365D01*
X112042739Y-111844582D01*
X112100971Y-111696030D01*
X116495635Y-111696030D01*
X117830000Y-113030395D01*
X119164365Y-111696030D01*
X119004582Y-111377261D01*
X118213813Y-111067277D01*
X117364613Y-111083503D01*
X116655418Y-111377261D01*
X116495635Y-111696030D01*
X112100971Y-111696030D01*
X112352723Y-111053813D01*
X112336497Y-110204613D01*
X112042739Y-109495418D01*
X111723970Y-109335635D01*
X110389605Y-110670000D01*
X110030395Y-110670000D01*
X108696030Y-109335635D01*
X108377261Y-109495418D01*
X108067277Y-110286187D01*
X103125826Y-110286187D01*
X103485278Y-109927363D01*
X103734716Y-109326648D01*
X103734864Y-109156030D01*
X108875635Y-109156030D01*
X110210000Y-110490395D01*
X111544365Y-109156030D01*
X111384582Y-108837261D01*
X110593813Y-108527277D01*
X109744613Y-108543503D01*
X109035418Y-108837261D01*
X108875635Y-109156030D01*
X103734864Y-109156030D01*
X103735284Y-108676205D01*
X103717767Y-108633812D01*
X103725787Y-108625792D01*
X103725790Y-108625790D01*
X103874947Y-108402560D01*
X103917634Y-108338674D01*
X103985001Y-108000000D01*
X103985000Y-107999995D01*
X103985000Y-106051979D01*
X103985001Y-106051974D01*
X103917633Y-105713299D01*
X103865698Y-105635572D01*
X103725790Y-105426184D01*
X103725787Y-105426182D01*
X103045466Y-104745860D01*
X103045466Y-104150000D01*
X102996183Y-103902235D01*
X102894462Y-103750000D01*
X102996183Y-103597765D01*
X103045466Y-103350000D01*
X103045466Y-102150000D01*
X102996183Y-101902235D01*
X102855835Y-101692191D01*
X102792692Y-101650000D01*
X102855835Y-101607809D01*
X102996183Y-101397765D01*
X103045466Y-101150000D01*
X103045466Y-99950000D01*
X102996183Y-99702235D01*
X102855835Y-99492191D01*
X102833026Y-99476950D01*
X102833026Y-96108031D01*
X102833027Y-96108026D01*
X102765659Y-95769351D01*
X102758180Y-95758158D01*
X102573816Y-95482236D01*
X102573813Y-95482234D01*
X102300790Y-95209210D01*
X102265726Y-95185781D01*
X102013675Y-95017367D01*
X101936285Y-95001973D01*
X101810000Y-94976853D01*
X101810000Y-94850750D01*
X101651250Y-94692000D01*
X100527000Y-94692000D01*
X100527000Y-94712000D01*
X100273000Y-94712000D01*
X100273000Y-94692000D01*
X99148750Y-94692000D01*
X98990000Y-94850750D01*
X98990000Y-94918420D01*
X98797440Y-94725860D01*
X98797440Y-93800000D01*
X98790630Y-93765762D01*
X99040834Y-94015966D01*
X98990000Y-94138690D01*
X98990000Y-94279250D01*
X99148750Y-94438000D01*
X100273000Y-94438000D01*
X100273000Y-94430000D01*
X100400000Y-94430000D01*
X100460328Y-94418000D01*
X100527000Y-94418000D01*
X100527000Y-94438000D01*
X101651250Y-94438000D01*
X101810000Y-94279250D01*
X101810000Y-94138690D01*
X101720232Y-93921972D01*
X101773157Y-93842765D01*
X101822440Y-93595000D01*
X101822440Y-92995000D01*
X101773157Y-92747235D01*
X101632809Y-92537191D01*
X101625052Y-92532008D01*
X102113309Y-92734750D01*
X102684187Y-92735248D01*
X103211800Y-92517243D01*
X103482254Y-92247260D01*
X103806197Y-92247260D01*
X103774210Y-92279247D01*
X103582367Y-92566362D01*
X103572128Y-92617837D01*
X103514999Y-92905037D01*
X103515000Y-92905042D01*
X103515000Y-95049997D01*
X103514999Y-95050002D01*
X103561809Y-95285325D01*
X103582367Y-95388677D01*
X103711963Y-95582632D01*
X103774210Y-95675792D01*
X103949207Y-95850788D01*
X103949209Y-95850791D01*
X104003419Y-95905001D01*
X103674210Y-96234210D01*
X103482367Y-96521325D01*
X103482367Y-96521326D01*
X103414999Y-96860000D01*
X103415000Y-96860005D01*
X103415000Y-97849985D01*
X103414999Y-97849990D01*
X103460734Y-98079909D01*
X103482367Y-98188665D01*
X103668707Y-98467544D01*
X103674210Y-98475780D01*
X106074209Y-100875778D01*
X106074211Y-100875781D01*
X106265160Y-101066730D01*
X106264752Y-101534177D01*
X106482757Y-102061790D01*
X106886077Y-102465814D01*
X107413309Y-102684740D01*
X107984187Y-102685238D01*
X108511800Y-102467233D01*
X108915824Y-102063913D01*
X109134750Y-101536681D01*
X109135248Y-100965803D01*
X108917243Y-100438190D01*
X108831822Y-100352619D01*
X114674613Y-100352619D01*
X115014155Y-101174372D01*
X115642321Y-101803636D01*
X116463481Y-102144611D01*
X117352619Y-102145387D01*
X118174372Y-101805845D01*
X118803636Y-101177679D01*
X119144611Y-100356519D01*
X119145387Y-99467381D01*
X118805845Y-98645628D01*
X118177679Y-98016364D01*
X117356519Y-97675389D01*
X116467381Y-97674613D01*
X115645628Y-98014155D01*
X115016364Y-98642321D01*
X114675389Y-99463481D01*
X114674613Y-100352619D01*
X108831822Y-100352619D01*
X108513923Y-100034166D01*
X107986691Y-99815240D01*
X107516420Y-99814830D01*
X107325791Y-99624201D01*
X107325788Y-99624199D01*
X105627920Y-97926330D01*
X105673000Y-97881250D01*
X105673000Y-97232000D01*
X105927000Y-97232000D01*
X105927000Y-97881250D01*
X106085750Y-98040000D01*
X106701309Y-98040000D01*
X106934698Y-97943327D01*
X107113327Y-97764699D01*
X107210000Y-97531310D01*
X107210000Y-97390750D01*
X107051250Y-97232000D01*
X105927000Y-97232000D01*
X105673000Y-97232000D01*
X105653000Y-97232000D01*
X105653000Y-96978000D01*
X105673000Y-96978000D01*
X105673000Y-96958000D01*
X105927000Y-96958000D01*
X105927000Y-96978000D01*
X107051250Y-96978000D01*
X107210000Y-96819250D01*
X107210000Y-96678690D01*
X107120232Y-96461972D01*
X107173157Y-96382765D01*
X107222440Y-96135000D01*
X107222440Y-96024020D01*
X108215160Y-97016739D01*
X108214752Y-97484187D01*
X108432757Y-98011800D01*
X108836077Y-98415824D01*
X109363309Y-98634750D01*
X109934187Y-98635248D01*
X110461800Y-98417243D01*
X110865824Y-98013923D01*
X111084750Y-97486691D01*
X111085248Y-96915813D01*
X110867243Y-96388200D01*
X110463923Y-95984176D01*
X109936691Y-95765250D01*
X109466419Y-95764840D01*
X107640790Y-93939210D01*
X107613222Y-93920790D01*
X107353675Y-93747367D01*
X107288008Y-93734305D01*
X107198281Y-93716457D01*
X107222440Y-93595000D01*
X107222440Y-93119442D01*
X107711800Y-92917243D01*
X108115824Y-92513923D01*
X108334750Y-91986691D01*
X108335248Y-91415813D01*
X108117243Y-90888200D01*
X107713923Y-90484176D01*
X107186691Y-90265250D01*
X106615813Y-90264752D01*
X106485000Y-90318803D01*
X106485000Y-88100000D01*
X106417633Y-87761325D01*
X106334793Y-87637346D01*
X106335248Y-87115813D01*
X106117243Y-86588200D01*
X105713923Y-86184176D01*
X105186691Y-85965250D01*
X104615813Y-85964752D01*
X104088200Y-86182757D01*
X103684176Y-86586077D01*
X103465250Y-87113309D01*
X103464752Y-87684187D01*
X103682757Y-88211800D01*
X104086077Y-88615824D01*
X104415807Y-88752740D01*
X103438000Y-88752740D01*
X103190235Y-88802023D01*
X102980191Y-88942371D01*
X102839843Y-89152415D01*
X102790560Y-89400180D01*
X102790560Y-89908380D01*
X102686691Y-89865250D01*
X102285000Y-89864900D01*
X102285000Y-88044171D01*
X102615824Y-87713923D01*
X102834750Y-87186691D01*
X102835248Y-86615813D01*
X102617243Y-86088200D01*
X102213923Y-85684176D01*
X101686691Y-85465250D01*
X101115813Y-85464752D01*
X100588200Y-85682757D01*
X100184176Y-86086077D01*
X99965250Y-86613309D01*
X99964752Y-87184187D01*
X100182757Y-87711800D01*
X100515000Y-88044623D01*
X100515000Y-90299995D01*
X100514999Y-90300000D01*
X100566078Y-90556787D01*
X100582367Y-90638675D01*
X100749093Y-90888200D01*
X100774210Y-90925790D01*
X100965160Y-91116740D01*
X100964752Y-91584187D01*
X101182757Y-92111800D01*
X101556522Y-92486217D01*
X101422765Y-92396843D01*
X101175000Y-92347560D01*
X100985747Y-92347560D01*
X100834346Y-92246397D01*
X100400000Y-92160000D01*
X100395132Y-92160000D01*
X100032566Y-91797434D01*
X100017343Y-91787262D01*
X99664346Y-91551397D01*
X99230000Y-91465000D01*
X96100000Y-91465000D01*
X95665654Y-91551397D01*
X95312657Y-91787262D01*
X95297434Y-91797434D01*
X95097434Y-91997434D01*
X94851397Y-92365654D01*
X94765000Y-92800000D01*
X94765000Y-93415000D01*
X94685750Y-93415000D01*
X94527000Y-93573750D01*
X94527000Y-94523000D01*
X94547000Y-94523000D01*
X94547000Y-94777000D01*
X94527000Y-94777000D01*
X94527000Y-94797000D01*
X94273000Y-94797000D01*
X94273000Y-94777000D01*
X93548750Y-94777000D01*
X93390000Y-94935750D01*
X93390000Y-95376309D01*
X93486673Y-95609698D01*
X93487873Y-95610898D01*
X93426843Y-95702235D01*
X93377560Y-95950000D01*
X93377560Y-96076498D01*
X93351397Y-96115654D01*
X93325867Y-96244001D01*
X92676335Y-96893533D01*
X92126648Y-96665284D01*
X91476205Y-96664716D01*
X90875057Y-96913106D01*
X90414722Y-97372637D01*
X90165284Y-97973352D01*
X90164716Y-98623795D01*
X90413106Y-99224943D01*
X90872637Y-99685278D01*
X91473352Y-99934716D01*
X92123795Y-99935284D01*
X92724943Y-99686894D01*
X93002729Y-99409593D01*
X93261974Y-99358026D01*
X93234699Y-99385301D01*
X93138026Y-99618690D01*
X93138026Y-99759250D01*
X93296776Y-99918000D01*
X94421026Y-99918000D01*
X94421026Y-99268750D01*
X94675026Y-99268750D01*
X94675026Y-99918000D01*
X95799276Y-99918000D01*
X95958026Y-99759250D01*
X95958026Y-99618690D01*
X95861353Y-99385301D01*
X95682724Y-99206673D01*
X95449335Y-99110000D01*
X94833776Y-99110000D01*
X94675026Y-99268750D01*
X94421026Y-99268750D01*
X94262276Y-99110000D01*
X93666440Y-99110000D01*
X93677566Y-99102566D01*
X95050521Y-97729611D01*
X95117285Y-97685000D01*
X96832885Y-97685000D01*
X97002235Y-97798157D01*
X97250000Y-97847440D01*
X98150000Y-97847440D01*
X98397765Y-97798157D01*
X98607809Y-97657809D01*
X98748157Y-97447765D01*
X98792625Y-97224205D01*
X98978588Y-97410167D01*
X99026843Y-97652765D01*
X99167191Y-97862809D01*
X99377235Y-98003157D01*
X99625000Y-98052440D01*
X101063026Y-98052440D01*
X101063026Y-99208473D01*
X100970791Y-99146843D01*
X100723026Y-99097560D01*
X99173026Y-99097560D01*
X98925261Y-99146843D01*
X98905570Y-99160000D01*
X98673031Y-99160000D01*
X98673026Y-99159999D01*
X98390542Y-99216190D01*
X98334351Y-99227367D01*
X98047236Y-99419210D01*
X98047234Y-99419213D01*
X95911861Y-101554585D01*
X95799276Y-101442000D01*
X94675026Y-101442000D01*
X94675026Y-102458000D01*
X94695026Y-102458000D01*
X94695026Y-102712000D01*
X94675026Y-102712000D01*
X94675026Y-103728000D01*
X94695026Y-103728000D01*
X94695026Y-103982000D01*
X94675026Y-103982000D01*
X94675026Y-104631250D01*
X94833776Y-104790000D01*
X95172678Y-104790000D01*
X95093731Y-104842751D01*
X94953383Y-105052795D01*
X94904100Y-105300560D01*
X94904100Y-106499440D01*
X94953383Y-106747205D01*
X95015980Y-106840887D01*
X95015980Y-107029308D01*
X93642728Y-108402560D01*
X93000000Y-108402560D01*
X92752235Y-108451843D01*
X92542191Y-108592191D01*
X92501346Y-108653320D01*
X92359698Y-108511673D01*
X92126309Y-108415000D01*
X91685750Y-108415000D01*
X91527000Y-108573750D01*
X91527000Y-109373000D01*
X91547000Y-109373000D01*
X91547000Y-109627000D01*
X91527000Y-109627000D01*
X91527000Y-110426250D01*
X91573019Y-110472269D01*
X88329308Y-113715980D01*
X88140887Y-113715980D01*
X88047205Y-113653383D01*
X87799440Y-113604100D01*
X86600560Y-113604100D01*
X86352795Y-113653383D01*
X86259113Y-113715980D01*
X86070692Y-113715980D01*
X82140462Y-109785750D01*
X90165000Y-109785750D01*
X90165000Y-110076310D01*
X90261673Y-110309699D01*
X90440302Y-110488327D01*
X90673691Y-110585000D01*
X91114250Y-110585000D01*
X91273000Y-110426250D01*
X91273000Y-109627000D01*
X90323750Y-109627000D01*
X90165000Y-109785750D01*
X82140462Y-109785750D01*
X81278402Y-108923690D01*
X90165000Y-108923690D01*
X90165000Y-109214250D01*
X90323750Y-109373000D01*
X91273000Y-109373000D01*
X91273000Y-108573750D01*
X91114250Y-108415000D01*
X90673691Y-108415000D01*
X90440302Y-108511673D01*
X90261673Y-108690301D01*
X90165000Y-108923690D01*
X81278402Y-108923690D01*
X79384020Y-107029308D01*
X79384020Y-106840887D01*
X79446617Y-106747205D01*
X79495900Y-106499440D01*
X79495900Y-105300560D01*
X79446617Y-105052795D01*
X79384020Y-104959113D01*
X79384020Y-104770692D01*
X80013962Y-104140750D01*
X93138026Y-104140750D01*
X93138026Y-104281310D01*
X93234699Y-104514699D01*
X93413328Y-104693327D01*
X93646717Y-104790000D01*
X94262276Y-104790000D01*
X94421026Y-104631250D01*
X94421026Y-103982000D01*
X93296776Y-103982000D01*
X93138026Y-104140750D01*
X80013962Y-104140750D01*
X81283962Y-102870750D01*
X93138026Y-102870750D01*
X93138026Y-103011310D01*
X93224468Y-103220000D01*
X93138026Y-103428690D01*
X93138026Y-103569250D01*
X93296776Y-103728000D01*
X94421026Y-103728000D01*
X94421026Y-102712000D01*
X93296776Y-102712000D01*
X93138026Y-102870750D01*
X81283962Y-102870750D01*
X82553962Y-101600750D01*
X93138026Y-101600750D01*
X93138026Y-101741310D01*
X93224468Y-101950000D01*
X93138026Y-102158690D01*
X93138026Y-102299250D01*
X93296776Y-102458000D01*
X94421026Y-102458000D01*
X94421026Y-101442000D01*
X93296776Y-101442000D01*
X93138026Y-101600750D01*
X82553962Y-101600750D01*
X86070692Y-98084020D01*
X86259113Y-98084020D01*
X86352795Y-98146617D01*
X86600560Y-98195900D01*
X87030097Y-98195900D01*
X86815250Y-98713309D01*
X86814752Y-99284187D01*
X87032757Y-99811800D01*
X87436077Y-100215824D01*
X87963309Y-100434750D01*
X88534187Y-100435248D01*
X88787091Y-100330750D01*
X93138026Y-100330750D01*
X93138026Y-100471310D01*
X93224468Y-100680000D01*
X93138026Y-100888690D01*
X93138026Y-101029250D01*
X93296776Y-101188000D01*
X94421026Y-101188000D01*
X94421026Y-100172000D01*
X94675026Y-100172000D01*
X94675026Y-101188000D01*
X95799276Y-101188000D01*
X95958026Y-101029250D01*
X95958026Y-100888690D01*
X95871584Y-100680000D01*
X95958026Y-100471310D01*
X95958026Y-100330750D01*
X95799276Y-100172000D01*
X94675026Y-100172000D01*
X94421026Y-100172000D01*
X93296776Y-100172000D01*
X93138026Y-100330750D01*
X88787091Y-100330750D01*
X89061800Y-100217243D01*
X89465824Y-99813923D01*
X89684750Y-99286691D01*
X89685248Y-98715813D01*
X89467243Y-98188200D01*
X89165575Y-97886005D01*
X90216739Y-96834840D01*
X90684187Y-96835248D01*
X91211800Y-96617243D01*
X91615824Y-96213923D01*
X91834750Y-95686691D01*
X91835248Y-95115813D01*
X91617243Y-94588200D01*
X91213923Y-94184176D01*
X90686691Y-93965250D01*
X90115813Y-93964752D01*
X89588200Y-94182757D01*
X89184176Y-94586077D01*
X88965250Y-95113309D01*
X88964840Y-95583581D01*
X88405728Y-96142693D01*
X88397597Y-96101815D01*
X88262747Y-95900000D01*
X88397597Y-95698185D01*
X88446880Y-95450420D01*
X88446880Y-94251540D01*
X88397597Y-94003775D01*
X88344087Y-93923691D01*
X93390000Y-93923691D01*
X93390000Y-94364250D01*
X93548750Y-94523000D01*
X94273000Y-94523000D01*
X94273000Y-93573750D01*
X94114250Y-93415000D01*
X93898690Y-93415000D01*
X93665301Y-93511673D01*
X93486673Y-93690302D01*
X93390000Y-93923691D01*
X88344087Y-93923691D01*
X88257249Y-93793731D01*
X88047205Y-93653383D01*
X87799440Y-93604100D01*
X86600560Y-93604100D01*
X86352795Y-93653383D01*
X86259113Y-93715980D01*
X85600560Y-93715980D01*
X85166214Y-93802377D01*
X84913951Y-93970934D01*
X84797994Y-94048414D01*
X75348414Y-103497994D01*
X75102377Y-103866214D01*
X75015980Y-104300560D01*
X75015980Y-104959113D01*
X74953383Y-105052795D01*
X74904100Y-105300560D01*
X52214016Y-105300560D01*
X52226278Y-105128732D01*
X52241977Y-104938425D01*
X52259584Y-104748500D01*
X52279417Y-104558638D01*
X52301216Y-104368529D01*
X52324978Y-104179009D01*
X52350878Y-103989623D01*
X52378844Y-103800031D01*
X52408704Y-103610854D01*
X52440704Y-103421744D01*
X52474661Y-103232665D01*
X52510612Y-103043946D01*
X52548607Y-102855320D01*
X52588529Y-102666994D01*
X52630471Y-102478975D01*
X52674472Y-102291006D01*
X52720420Y-102103257D01*
X52768333Y-101915565D01*
X52818130Y-101728437D01*
X52869948Y-101541527D01*
X52923760Y-101354778D01*
X52979534Y-101168123D01*
X53037237Y-100981871D01*
X53096741Y-100796115D01*
X53158280Y-100610628D01*
X53221806Y-100425274D01*
X53247493Y-100352619D01*
X55274613Y-100352619D01*
X55614155Y-101174372D01*
X56242321Y-101803636D01*
X57063481Y-102144611D01*
X57952619Y-102145387D01*
X58774372Y-101805845D01*
X59403636Y-101177679D01*
X59744611Y-100356519D01*
X59745387Y-99467381D01*
X59405845Y-98645628D01*
X58777679Y-98016364D01*
X57956519Y-97675389D01*
X57067381Y-97674613D01*
X56245628Y-98014155D01*
X55616364Y-98642321D01*
X55275389Y-99463481D01*
X55274613Y-100352619D01*
X53247493Y-100352619D01*
X53287197Y-100240318D01*
X53354526Y-100055647D01*
X53423691Y-99871369D01*
X53494803Y-99687446D01*
X53567821Y-99503983D01*
X53642799Y-99320605D01*
X53719601Y-99137752D01*
X53798212Y-98955361D01*
X53878765Y-98773438D01*
X53961211Y-98591787D01*
X54045576Y-98410449D01*
X54131653Y-98229572D01*
X54219535Y-98049550D01*
X54309537Y-97869448D01*
X54401188Y-97689929D01*
X54494661Y-97511031D01*
X54590025Y-97332626D01*
X54687185Y-97154516D01*
X54786149Y-96977157D01*
X54886904Y-96800107D01*
X54989516Y-96623715D01*
X55093912Y-96447748D01*
X55200145Y-96272312D01*
X55308099Y-96097409D01*
X55417754Y-95923167D01*
X55529291Y-95749546D01*
X55642572Y-95576367D01*
X55757571Y-95403919D01*
X55874375Y-95231969D01*
X55992877Y-95060682D01*
X56113175Y-94890007D01*
X56235132Y-94720103D01*
X56359051Y-94550495D01*
X56484452Y-94381801D01*
X56611786Y-94213549D01*
X56740490Y-94046224D01*
X56871139Y-93879553D01*
X57003480Y-93713397D01*
X57137511Y-93548098D01*
X57273073Y-93383515D01*
X57410312Y-93219899D01*
X57549624Y-93056473D01*
X57690332Y-92893925D01*
X57832537Y-92732434D01*
X57976439Y-92571677D01*
X58122169Y-92411608D01*
X58269447Y-92252235D01*
X58418418Y-92093703D01*
X58568950Y-91936049D01*
X58721193Y-91779122D01*
X58874967Y-91623105D01*
X59030262Y-91468004D01*
X59187357Y-91313644D01*
X59345935Y-91160143D01*
X59506192Y-91007503D01*
X59667939Y-90855720D01*
X59831200Y-90704949D01*
X59996103Y-90554991D01*
X60162621Y-90405967D01*
X60330603Y-90257909D01*
X60500124Y-90110761D01*
X60671332Y-89964528D01*
X60843975Y-89819209D01*
X61018110Y-89674967D01*
X61129411Y-89584187D01*
X86264752Y-89584187D01*
X86482757Y-90111800D01*
X86886077Y-90515824D01*
X87413309Y-90734750D01*
X87883581Y-90735160D01*
X89524208Y-92375787D01*
X89524210Y-92375790D01*
X89730942Y-92513923D01*
X89811325Y-92567633D01*
X90150000Y-92635001D01*
X90150005Y-92635000D01*
X90355829Y-92635000D01*
X90686077Y-92965824D01*
X91213309Y-93184750D01*
X91784187Y-93185248D01*
X92311800Y-92967243D01*
X92715824Y-92563923D01*
X92934750Y-92036691D01*
X92935248Y-91465813D01*
X92717243Y-90938200D01*
X92313923Y-90534176D01*
X91786691Y-90315250D01*
X91215813Y-90314752D01*
X90688200Y-90532757D01*
X90436048Y-90784469D01*
X89134840Y-89483261D01*
X89135248Y-89015813D01*
X88917243Y-88488200D01*
X88513923Y-88084176D01*
X87986691Y-87865250D01*
X87415813Y-87864752D01*
X86888200Y-88082757D01*
X86484176Y-88486077D01*
X86265250Y-89013309D01*
X86264752Y-89584187D01*
X61129411Y-89584187D01*
X61193931Y-89531563D01*
X61371075Y-89389269D01*
X61549770Y-89248007D01*
X61730022Y-89107658D01*
X61911848Y-88968220D01*
X62095025Y-88829940D01*
X62279714Y-88692710D01*
X62465781Y-88556605D01*
X62653467Y-88421452D01*
X62842655Y-88287339D01*
X63033245Y-88154328D01*
X63225380Y-88022314D01*
X63418839Y-87891450D01*
X63613674Y-87761782D01*
X63809934Y-87633285D01*
X64007710Y-87505782D01*
X64206916Y-87379442D01*
X64407467Y-87254299D01*
X64609547Y-87130211D01*
X64812800Y-87007385D01*
X65017327Y-86885847D01*
X65223365Y-86765347D01*
X65430734Y-86645990D01*
X65639268Y-86527856D01*
X65849043Y-86411004D01*
X66060144Y-86295274D01*
X66272490Y-86180796D01*
X66486125Y-86067453D01*
X66700972Y-85955269D01*
X66916897Y-85844417D01*
X67134155Y-85734748D01*
X67352683Y-85626190D01*
X67572031Y-85518969D01*
X67792773Y-85412983D01*
X68014744Y-85308121D01*
X68237732Y-85204467D01*
X68461658Y-85102156D01*
X68686705Y-85001192D01*
X68913096Y-84901175D01*
X69140423Y-84802576D01*
X69368733Y-84705174D01*
X69598174Y-84608995D01*
X69828409Y-84514176D01*
X70059816Y-84420554D01*
X70292187Y-84328210D01*
X70525538Y-84237133D01*
X70759870Y-84147315D01*
X70995153Y-84058765D01*
X71231449Y-83971356D01*
X71468429Y-83885401D01*
X71706456Y-83800662D01*
X71945222Y-83717247D01*
X72185110Y-83635118D01*
X72425700Y-83554212D01*
X72667255Y-83474640D01*
X72909512Y-83396378D01*
X73152646Y-83319374D01*
X73396440Y-83243684D01*
X73641175Y-83169319D01*
X73886626Y-83096244D01*
X74132936Y-83024414D01*
X74379767Y-82954023D01*
X74627554Y-82884840D01*
X74875804Y-82817101D01*
X75124958Y-82750580D01*
X75374749Y-82685450D01*
X75625152Y-82621608D01*
X75876299Y-82559119D01*
X76128043Y-82497920D01*
X76380162Y-82438155D01*
X76633259Y-82379678D01*
X76886904Y-82322493D01*
X77140913Y-82266731D01*
X77395766Y-82212288D01*
X77650877Y-82159183D01*
X77906662Y-82107429D01*
X78162934Y-82057059D01*
X78419766Y-82008057D01*
X78676922Y-81960463D01*
X78934627Y-81914235D01*
X79193147Y-81869323D01*
X79451756Y-81825755D01*
X79710740Y-81783674D01*
X79970335Y-81742841D01*
X80230156Y-81703513D01*
X80490410Y-81665562D01*
X80751407Y-81628926D01*
X81012218Y-81593665D01*
X81273558Y-81559937D01*
X81535446Y-81527473D01*
X81797434Y-81496425D01*
X82059878Y-81466826D01*
X82322318Y-81438640D01*
X82585270Y-81411802D01*
X82848215Y-81386483D01*
X83111897Y-81362494D01*
X83375532Y-81339908D01*
X83639184Y-81318816D01*
X83903060Y-81299102D01*
X84167449Y-81280844D01*
X84431986Y-81263971D01*
X84696386Y-81248494D01*
X84960903Y-81234499D01*
X85225677Y-81221975D01*
X85490508Y-81210933D01*
X85755725Y-81201161D01*
X86020831Y-81192978D01*
X86285772Y-81186177D01*
X86551011Y-81180852D01*
X86816064Y-81177008D01*
X87081512Y-81174640D01*
X87346736Y-81173654D01*
X87612043Y-81174148D01*
M02*
