M48
;DRILL file {KiCad 0.201603210401+6634~43~ubuntu14.04.1-product} date Wed 30 Mar 2016 02:46:00 PM EEST
;FORMAT={-:-/ absolute / metric / decimal}
FMAT,2
METRIC,TZ
T1C0.800
T2C1.780
T3C1.800
T4C3.200
%
G90
G05
M71
T1
X72.8Y-106.5
X74.7Y-109.1
X77.9Y-118.6
X78.9Y-113.4
X83.5Y-115.4
X84.3Y-121.9
X85.9Y-124.4
X87.7Y-89.3
X89.Y-93.7
X89.2Y-96.7
X89.5Y-124.4
X90.2Y-91.8
X90.7Y-99.1
X92.3Y-105.3
X92.3Y-107.4
X92.6Y-93.8
X93.2Y-122.1
X96.2Y-112.6
X101.4Y-110.4
X102.8Y-87.4
X102.8Y-91.2
X105.4Y-89.5
X105.4Y-91.6
X107.7Y-101.25
X109.65Y-97.2
X112.Y-123.
X112.2Y-101.25
X121.Y-121.
T2
X66.58Y-127.35
X66.58Y-131.31
X107.86Y-127.34
X107.86Y-131.3
T3
X56.61Y-113.2
X64.23Y-110.66
X64.23Y-115.74
X110.21Y-110.67
X110.21Y-115.75
X117.83Y-113.21
T4
X57.51Y-99.91
X71.06Y-129.97
X103.36Y-129.98
X116.91Y-99.91
T0
M30
