  0
SECTION
  2
HEADER
  9
$ACADVER
  1
AC1009
  9
$INSBASE
 10
0.0
 20
0.0
 30
0.0
  9
$EXTMIN
 10
0.0
 20
0.0
 30
0.0
  9
$EXTMAX
 10
80.400700521045167
 20
60.143999058147408
 30
0.0
  9
$LIMMIN
 10
0.0
 20
0.0
  9
$LIMMAX
 10
80.400700521045167
 20
60.143999058147408
  9
$ORTHOMODE
 70
     0
  9
$REGENMODE
 70
     1
  9
$FILLMODE
 70
     1
  9
$QTEXTMODE
 70
     0
  9
$MIRRTEXT
 70
     0
  9
$DRAGMODE
 70
     2
  9
$LTSCALE
 40
1.0
  9
$OSMODE
 70
     0
  9
$ATTMODE
 70
     1
  9
$TEXTSIZE
 40
0.2
  9
$TRACEWID
 40
0.05
  9
$TEXTSTYLE
  7
STANDARD
  9
$CLAYER
  8
0
  9
$CELTYPE
  6
BYLAYER
  9
$CECOLOR
 62
   256
  9
$DIMSCALE
 40
1.0
  9
$DIMASZ
 40
1.7999999999999989
  9
$DIMEXO
 40
0.0625
  9
$DIMDLI
 40
0.38
  9
$DIMRND
 40
0.0
  9
$DIMDLE
 40
0.0
  9
$DIMEXE
 40
0.18
  9
$DIMTP
 40
0.0
  9
$DIMTM
 40
0.0
  9
$DIMTXT
 40
1.7999999999999989
  9
$DIMCEN
 40
0.09
  9
$DIMTSZ
 40
0.0
  9
$DIMTOL
 70
     0
  9
$DIMLIM
 70
     0
  9
$DIMTIH
 70
     1
  9
$DIMTOH
 70
     1
  9
$DIMSE1
 70
     0
  9
$DIMSE2
 70
     0
  9
$DIMTAD
 70
     0
  9
$DIMZIN
 70
     0
  9
$DIMBLK
  1

  9
$DIMASO
 70
     1
  9
$DIMSHO
 70
     1
  9
$DIMPOST
  1

  9
$DIMAPOST
  1

  9
$DIMALT
 70
     0
  9
$DIMALTD
 70
     2
  9
$DIMALTF
 40
25.399999999999999
  9
$DIMLFAC
 40
1.0
  9
$DIMTOFL
 70
     0
  9
$DIMTVP
 40
0.0
  9
$DIMTIX
 70
     0
  9
$DIMSOXD
 70
     0
  9
$DIMSAH
 70
     0
  9
$DIMBLK1
  1

  9
$DIMBLK2
  1

  9
$DIMSTYLE
  2
STANDARD
  9
$DIMCLRD
 70
     0
  9
$DIMCLRE
 70
     0
  9
$DIMCLRT
 70
     0
  9
$DIMTFAC
 40
1.0
  9
$DIMGAP
 40
0.09
  9
$LUNITS
 70
     2
  9
$LUPREC
 70
     4
  9
$SKETCHINC
 40
0.1
  9
$FILLETRAD
 40
0.0
  9
$AUNITS
 70
     0
  9
$AUPREC
 70
     0
  9
$MENU
  1
.
  9
$ELEVATION
 40
0.0
  9
$PELEVATION
 40
0.0
  9
$THICKNESS
 40
0.0
  9
$LIMCHECK
 70
     0
  9
$BLIPMODE
 70
     0
  9
$CHAMFERA
 40
0.0
  9
$CHAMFERB
 40
0.0
  9
$SKPOLY
 70
     0
  9
$TDCREATE
 40
2457474.6608954631
  9
$TDUPDATE
 40
2457474.6608954631
  9
$TDINDWG
 40
0.0000085185
  9
$TDUSRTIMER
 40
0.0000085185
  9
$USRTIMER
 70
     1
  9
$ANGBASE
 50
0.0
  9
$ANGDIR
 70
     0
  9
$PDMODE
 70
     0
  9
$PDSIZE
 40
0.0
  9
$PLINEWID
 40
0.0
  9
$COORDS
 70
     0
  9
$SPLFRAME
 70
     0
  9
$SPLINETYPE
 70
     6
  9
$SPLINESEGS
 70
     8
  9
$ATTDIA
 70
     1
  9
$ATTREQ
 70
     1
  9
$HANDLING
 70
     1
  9
$HANDSEED
  5
2CA
  9
$SURFTAB1
 70
     6
  9
$SURFTAB2
 70
     6
  9
$SURFTYPE
 70
     6
  9
$SURFU
 70
     6
  9
$SURFV
 70
     6
  9
$UCSNAME
  2

  9
$UCSORG
 10
0.0
 20
0.0
 30
0.0
  9
$UCSXDIR
 10
1.0
 20
0.0
 30
0.0
  9
$UCSYDIR
 10
0.0
 20
1.0
 30
0.0
  9
$PUCSNAME
  2

  9
$PUCSORG
 10
0.0
 20
0.0
 30
0.0
  9
$PUCSXDIR
 10
1.0
 20
0.0
 30
0.0
  9
$PUCSYDIR
 10
0.0
 20
1.0
 30
0.0
  9
$USERI1
 70
     0
  9
$USERI2
 70
     0
  9
$USERI3
 70
     0
  9
$USERI4
 70
     0
  9
$USERI5
 70
     0
  9
$USERR1
 40
0.0
  9
$USERR2
 40
0.0
  9
$USERR3
 40
0.0
  9
$USERR4
 40
0.0
  9
$USERR5
 40
0.0
  9
$WORLDVIEW
 70
     1
  9
$SHADEDGE
 70
     3
  9
$SHADEDIF
 70
    70
  9
$TILEMODE
 70
     1
  9
$MAXACTVP
 70
    64
  9
$PLIMCHECK
 70
     0
  9
$PEXTMIN
 10
0.0
 20
0.0
 30
0.0
  9
$PEXTMAX
 10
80.400700521045167
 20
60.143999058147408
 30
0.0
  9
$PLIMMIN
 10
0.0
 20
0.0
  9
$PLIMMAX
 10
80.400700521045167
 20
60.143999058147408
  9
$UNITMODE
 70
     0
  9
$VISRETAIN
 70
     1
  9
$PLINEGEN
 70
     0
  9
$PSLTSCALE
 70
     1
  0
ENDSEC
  0
SECTION
  2
TABLES
  0
TABLE
  2
VPORT
 70
     1
  0
VPORT
  2
*ACTIVE
 70
     0
 10
0.0
 20
0.0
 11
1.0
 21
1.0
 12
17.021164624082211
 22
24.00975402389939
 13
0.0
 23
0.0
 14
1.0
 24
1.0
 15
0.0
 25
0.0
 16
0.0
 26
0.0
 36
1.0
 17
0.0
 27
0.0
 37
0.0
 40
60.143999058147408
 41
1.3368033682514771
 42
50.0
 43
0.0
 44
0.0
 50
0.0
 51
0.0
 71
     0
 72
   100
 73
     1
 74
     1
 75
     0
 76
     0
 77
     0
 78
     0
  0
ENDTAB
  0
TABLE
  2
LTYPE
 70
    59
  0
LTYPE
  2
CONTINUOUS
 70
     0
  3
Solid line
 72
    65
 73
     0
 40
0.0
  0
LTYPE
  2
BY_STANDARD
 70
     0
  3
By Standard ____________    ____    ____   _
 72
    65
 73
     6
 40
1.2402999999999991
 49
0.6614
 49
-0.0827
 49
0.1654
 49
-0.0827
 49
0.1654
 49
-0.0827
  0
LTYPE
  2
CHAIN
 70
     0
  3
Chain ____ _ ____ _ ____ _ ____ _ ____ _ ____
 72
    65
 73
     4
 40
0.7087
 49
0.4724000000000001
 49
-0.0591
 49
0.1181
 49
-0.0591
  0
LTYPE
  2
DASH_DOT
 70
     0
  3
Dash dot __ . __ . __ . __ . __ . __ . __ . __
 72
    65
 73
     4
 40
0.37
 49
0.24
 49
-0.06
 49
0.01
 49
-0.06
  0
LTYPE
  2
DOUBLE_DASH_DOT
 70
     0
  3
Double-Dash Dot __ __ . __ __ . __ __ . __ _
 72
    65
 73
     6
 40
0.4398
 49
0.24
 49
-0.06
 49
0.0098
 49
-0.06
 49
0.01
 49
-0.06
  0
LTYPE
  2
DASH_TRIPLE_DOT
 70
     0
  3
Dash Triple-Dot _ . . . _ . . . _ . . . _
 72
    65
 73
     8
 40
0.51
 49
0.24
 49
-0.06
 49
0.01
 49
-0.06
 49
0.01
 49
-0.06
 49
0.01
 49
-0.06
  0
LTYPE
  2
DASHED
 70
     0
  3
Dashed __ __ __ __ __ __ __ __ __ __ __ __ __ _
 72
    65
 73
     2
 40
0.2067
 49
0.1654
 49
-0.0413
  0
LTYPE
  2
DASH_DOUBLE_DOT
 70
     0
  3
Dash Double-Dot __ . . __ . . __ . . __ . .
 72
    65
 73
     6
 40
0.4398
 49
0.24
 49
-0.06
 49
0.0098
 49
-0.06
 49
0.01
 49
-0.06
  0
LTYPE
  2
DASHED_SPACE
 70
     0
  3
Dashed Space __ __ __ __ __ __ __ __ __ __ __ _
 72
    65
 73
     2
 40
0.2067
 49
0.1654
 49
-0.0413
  0
LTYPE
  2
DOTTED
 70
     0
  3
Dotted . . . . . . . . . . . . . . . . . . . . 
 72
    65
 73
     2
 40
0.0482
 49
0.0069
 49
-0.0413
  0
LTYPE
  2
DOUBLE_DASH_CHAIN
 70
     0
  3
Double-Dash Chain ______  __  __  ______  __  _
 72
    65
 73
     6
 40
1.2402999999999991
 49
0.6614
 49
-0.0827
 49
0.1654
 49
-0.0827
 49
0.1654
 49
-0.0827
  0
LTYPE
  2
DOUBLE_DASH_DOUBLE_DOT
 70
     0
  3
Double-Dash Double-dot _ _ . . _ _ . . _
 72
    65
 73
     8
 40
0.7400000000000001
 49
0.24
 49
-0.06
 49
0.24
 49
-0.06
 49
0.01
 49
-0.06
 49
0.01
 49
-0.06
  0
LTYPE
  2
DOUBLE_DASH_TRIPLE_DOT
 70
     0
  3
Double Dash Triple Dot __ __ . . . __ __ . .
 72
    65
 73
    10
 40
0.8100000000000001
 49
0.24
 49
-0.06
 49
0.24
 49
-0.06
 49
0.01
 49
-0.06
 49
0.01
 49
-0.06
 49
0.01
 49
-0.06
  0
LTYPE
  2
LONG_DASH_DOTTED
 70
     0
  3
Long Dash Dotted ____ . ____ . ____ . ____ . _
 72
    65
 73
     4
 40
0.3543
 49
0.2362
 49
-0.0295
 49
0.0591
 49
-0.0295
  0
LTYPE
  2
LONG_DASH_DOUBLE_DOT
 70
     0
  3
Long Dash Double Dot ________  .  .  ________  
 72
    65
 73
     6
 40
0.6799999999999999
 49
0.48
 49
-0.06
 49
0.01
 49
-0.06
 49
0.01
 49
-0.06
  0
LTYPE
  2
LONG_DASH_TRIPLE_DOT
 70
     0
  3
Long Dash Triple Dot ____ ... ____ ... ____
 72
    65
 73
     8
 40
0.3689
 49
0.2362
 49
-0.0295
 49
0.0049
 49
-0.0295
 49
0.0049
 49
-0.0295
 49
0.0049
 49
-0.0295
  0
LTYPE
  2
BORDER
 70
     0
  3
Border __ __ . __ __ . __ __ . __ __ . __ __ .
 72
    65
 73
     6
 40
1.75
 49
0.5
 49
-0.25
 49
0.5
 49
-0.25
 49
0.0
 49
-0.25
  0
LTYPE
  2
BORDER2
 70
     0
  3
Border (.5x) __.__.__.__.__.__.__.__.__.__.__.
 72
    65
 73
     6
 40
0.875
 49
0.25
 49
-0.125
 49
0.25
 49
-0.125
 49
0.0
 49
-0.125
  0
LTYPE
  2
BORDERX2
 70
     0
  3
Border (2x) ____  ____  .  ____  ____  .  ___
 72
    65
 73
     6
 40
3.5
 49
1.0
 49
-0.5
 49
1.0
 49
-0.5
 49
0.0
 49
-0.5
  0
LTYPE
  2
CENTER
 70
     0
  3
Center ____ _ ____ _ ____ _ ____ _ ____ _ ____
 72
    65
 73
     4
 40
2.0
 49
1.25
 49
-0.25
 49
0.25
 49
-0.25
  0
LTYPE
  2
CENTER2
 70
     0
  3
Center (.5x) ___ _ ___ _ ___ _ ___ _ ___ _ ___
 72
    65
 73
     4
 40
1.125
 49
0.75
 49
-0.125
 49
0.125
 49
-0.125
  0
LTYPE
  2
CENTERX2
 70
     0
  3
Center (2x) ________  __  ________  __  _____
 72
    65
 73
     4
 40
4.0
 49
2.5
 49
-0.5
 49
0.5
 49
-0.5
  0
LTYPE
  2
DASHDOT2
 70
     0
  3
Dash dot (.5x) _._._._._._._._._._._._._._._.
 72
    65
 73
     4
 40
0.5
 49
0.25
 49
-0.125
 49
0.0
 49
-0.125
  0
LTYPE
  2
DASHDOTX2
 70
     0
  3
Dash dot (2x) ____  .  ____  .  ____  .  ___
 72
    65
 73
     4
 40
2.0
 49
1.0
 49
-0.5
 49
0.0
 49
-0.5
  0
LTYPE
  2
DASHED2
 70
     0
  3
Dashed (.5x) _ _ _ _ _ _ _ _ _ _ _ _ _ _ _ _ _
 72
    65
 73
     2
 40
0.375
 49
0.25
 49
-0.125
  0
LTYPE
  2
DASHEDX2
 70
     0
  3
Dashed (2x) ____  ____  ____  ____  ____  ___
 72
    65
 73
     2
 40
1.5
 49
1.0
 49
-0.5
  0
LTYPE
  2
DIVIDE
 70
     0
  3
Divide ____ . . ____ . . ____ . . ____ . . ____
 72
    65
 73
     6
 40
1.25
 49
0.5
 49
-0.25
 49
0.0
 49
-0.25
 49
0.0
 49
-0.25
  0
LTYPE
  2
DIVIDE2
 70
     0
  3
Divide (.5x) __..__..__..__..__..__..__..__.._
 72
    65
 73
     6
 40
0.625
 49
0.25
 49
-0.125
 49
0.0
 49
-0.125
 49
0.0
 49
-0.125
  0
LTYPE
  2
DIVIDEX2
 70
     0
  3
Divide (2x) ________  .  .  ________  .  .  _
 72
    65
 73
     6
 40
2.5
 49
1.0
 49
-0.5
 49
0.0
 49
-0.5
 49
0.0
 49
-0.5
  0
LTYPE
  2
DOT
 70
     0
  3
Dot . . . . . . . . . . . . . . . . . . . . . .
 72
    65
 73
     2
 40
0.25
 49
0.0
 49
-0.25
  0
LTYPE
  2
DOT2
 70
     0
  3
Dot (.5x) .....................................
 72
    65
 73
     2
 40
0.125
 49
0.0
 49
-0.125
  0
LTYPE
  2
DOTX2
 70
     0
  3
Dot (2x) .  .  .  .  .  .  .  .  .  .  .  .  . 
 72
    65
 73
     2
 40
0.5
 49
0.0
 49
-0.5
  0
LTYPE
  2
HIDDEN
 70
     0
  3
Hidden __ __ __ __ __ __ __ __ __ __ __ __ __ _
 72
    65
 73
     2
 40
0.375
 49
0.25
 49
-0.125
  0
LTYPE
  2
HIDDEN2
 70
     0
  3
Hidden (.5x) _ _ _ _ _ _ _ _ _ _ _ _ _ _ _ _ _
 72
    65
 73
     2
 40
0.1875
 49
0.125
 49
-0.0625
  0
LTYPE
  2
HIDDENX2
 70
     0
  3
Hidden (2x) ____ ____ ____ ____ ____ ____ ____
 72
    65
 73
     2
 40
0.75
 49
0.5
 49
-0.25
  0
LTYPE
  2
PHANTOM
 70
     0
  3
Phantom ______  __  __  ______  __  __  ______
 72
    65
 73
     6
 40
2.5
 49
1.25
 49
-0.25
 49
0.25
 49
-0.25
 49
0.25
 49
-0.25
  0
LTYPE
  2
PHANTOM2
 70
     0
  3
Phantom (.5x) ___ _ _ ___ _ _ ___ _ _ ___ _ _
 72
    65
 73
     6
 40
1.25
 49
0.625
 49
-0.125
 49
0.125
 49
-0.125
 49
0.125
 49
-0.125
  0
LTYPE
  2
PHANTOMX2
 70
     0
  3
Phantom (2x) ____________    ____    ____   _
 72
    65
 73
     6
 40
5.0
 49
2.5
 49
-0.5
 49
0.5
 49
-0.5
 49
0.5
 49
-0.5
  0
LTYPE
  2
ACAD_ISO02W100
 70
     0
  3
ISO dash __ __ __ __ __ __ __ __ __ __ __ __ __
 72
    65
 73
     2
 40
0.59
 49
0.47
 49
-0.12
  0
LTYPE
  2
ACAD_ISO03W100
 70
     0
  3
ISO dash space __    __    __    __    __    __
 72
    65
 73
     2
 40
1.179999999999999
 49
0.47
 49
-0.71
  0
LTYPE
  2
ACAD_ISO04W100
 70
     0
  3
ISO long-dash dot ____ . ____ . ____ . ____ . _
 72
    65
 73
     4
 40
1.179999999999999
 49
0.9399999999999998
 49
-0.12
 49
0.0
 49
-0.12
  0
LTYPE
  2
ACAD_ISO05W100
 70
     0
  3
ISO long-dash double-dot ____ .. ____ .. ____ .
 72
    65
 73
     6
 40
1.2999999999999989
 49
0.9399999999999998
 49
-0.12
 49
0.0
 49
-0.12
 49
0.0
 49
-0.12
  0
LTYPE
  2
ACAD_ISO06W100
 70
     0
  3
ISO long-dash triple-dot ____ ... ____ ... ____
 72
    65
 73
     8
 40
1.419999999999999
 49
0.9399999999999998
 49
-0.12
 49
0.0
 49
-0.12
 49
0.0
 49
-0.12
 49
0.0
 49
-0.12
  0
LTYPE
  2
ACAD_ISO07W100
 70
     0
  3
ISO dot . . . . . . . . . . . . . . . . . . . .
 72
    65
 73
     2
 40
0.12
 49
0.0
 49
-0.12
  0
LTYPE
  2
ACAD_ISO08W100
 70
     0
  3
ISO long-dash short-dash ____ __ ____ __ ____ _
 72
    65
 73
     4
 40
0.95
 49
0.47
 49
-0.12
 49
0.24
 49
-0.12
  0
LTYPE
  2
ACAD_ISO09W100
 70
     0
  3
ISO long-dash double-short-dash ____ __ __ ____
 72
    65
 73
     6
 40
1.3100000000000001
 49
0.47
 49
-0.12
 49
0.24
 49
-0.12
 49
0.24
 49
-0.12
  0
LTYPE
  2
ACAD_ISO10W100
 70
     0
  3
ISO dash dot __ . __ . __ . __ . __ . __ . __ .
 72
    65
 73
     4
 40
0.71
 49
0.47
 49
-0.12
 49
0.0
 49
-0.12
  0
LTYPE
  2
ACAD_ISO11W100
 70
     0
  3
ISO double-dash dot __ __ . __ __ . __ __ . __ 
 72
    65
 73
     6
 40
1.2999999999999989
 49
0.47
 49
-0.12
 49
0.47
 49
-0.12
 49
0.0
 49
-0.12
  0
LTYPE
  2
ACAD_ISO12W100
 70
     0
  3
ISO dash double-dot __ . . __ . . __ . . __ . .
 72
    65
 73
     6
 40
0.8299999999999999
 49
0.47
 49
-0.12
 49
0.0
 49
-0.12
 49
0.0
 49
-0.12
  0
LTYPE
  2
ACAD_ISO13W100
 70
     0
  3
ISO double-dash double-dot __ __ . . __ __ . . 
 72
    65
 73
     8
 40
1.419999999999999
 49
0.47
 49
-0.12
 49
0.47
 49
-0.12
 49
0.0
 49
-0.12
 49
0.0
 49
-0.12
  0
LTYPE
  2
ACAD_ISO14W100
 70
     0
  3
ISO dash triple-dot __ . . . __ . . . __ . . . 
 72
    65
 73
     8
 40
0.95
 49
0.47
 49
-0.12
 49
0.0
 49
-0.12
 49
0.0
 49
-0.12
 49
0.0
 49
-0.12
  0
LTYPE
  2
ACAD_ISO15W100
 70
     0
  3
ISO double-dash triple-dot __ __ . . . __ __ . 
 72
    65
 73
    10
 40
1.5399999999999989
 49
0.47
 49
-0.12
 49
0.47
 49
-0.12
 49
0.0
 49
-0.12
 49
0.0
 49
-0.12
 49
0.0
 49
-0.12
  0
LTYPE
  2
FENCELINE1
 70
     0
  3
Fenceline circle ----0-----0----0-----0----0---
 72
    65
 73
     4
 40
1.45
 49
0.25
 49
-0.1
 49
-0.1
 49
1.0
  0
LTYPE
  2
FENCELINE2
 70
     0
  3
Fenceline square ----[]-----[]----[]-----[]----
 72
    65
 73
     4
 40
1.45
 49
0.25
 49
-0.1
 49
-0.1
 49
1.0
  0
LTYPE
  2
TRACKS
 70
     0
  3
Tracks -|-|-|-|-|-|-|-|-|-|-|-|-|-|-|-|-|-|-|-|
 72
    65
 73
     2
 40
0.3
 49
0.15
 49
0.15
  0
LTYPE
  2
BATTING
 70
     0
  3
Batting SSSSSSSSSSSSSSSSSSSSSSSSSSSSSSSSSSSSSSS
 72
    65
 73
     4
 40
0.4001000000000001
 49
0.0001
 49
-0.1
 49
-0.2
 49
-0.1
  0
LTYPE
  2
HOT_WATER_SUPPLY
 70
     0
  3
Hot water supply ---- HW ---- HW ---- HW ----
 72
    65
 73
     3
 40
0.9
 49
0.5
 49
-0.2
 49
-0.2
  0
LTYPE
  2
GAS_LINE
 70
     0
  3
Gas line ----GAS----GAS----GAS----GAS----GAS---
 72
    65
 73
     3
 40
0.95
 49
0.5
 49
-0.2
 49
-0.25
  0
LTYPE
  2
ZIGZAG
 70
     0
  3
Zig zag /\/\/\/\/\/\/\/\/\/\/\/\/\/\/\/\/\/\/\/
 72
    65
 73
     4
 40
0.8001000000000001
 49
0.0001
 49
-0.2
 49
-0.4
 49
-0.2
  0
ENDTAB
  0
TABLE
  2
LAYER
 70
     1
  0
LAYER
  2
0
 70
     0
 62
     7
  6
CONTINUOUS
  0
ENDTAB
  0
TABLE
  2
STYLE
 70
     3
  0
STYLE
  2
STANDARD
 70
     0
 40
0.0
 41
1.0
 50
0.0
 71
     0
 42
0.2
  3
txt
  4

  0
STYLE
  2
ANNOTATIVE
 70
     0
 40
0.0
 41
1.0
 50
0.0
 71
     0
 42
0.2
  3
txt
  4

  0
STYLE
  2

 70
     1
 40
0.0
 41
1.0
 50
0.0
 71
     0
 42
0.2
  3
ltypeshp.shx
  4

  0
ENDTAB
  0
TABLE
  2
VIEW
 70
     0
  0
ENDTAB
  0
TABLE
  2
UCS
 70
     0
  0
ENDTAB
  0
TABLE
  2
APPID
 70
     3
  0
APPID
  2
ACAD
 70
     0
  0
APPID
  2
ACADANNOTATIVE
 70
     0
  0
APPID
  2
ACAD_MLEADERVER
 70
     0
  0
ENDTAB
  0
TABLE
  2
DIMSTYLE
 70
     2
  0
DIMSTYLE
  2
STANDARD
 70
     0
  3

  4

  5

  6

  7

 40
1.0
 41
0.18
 42
0.0625
 43
0.38
 44
0.18
 45
0.0
 46
0.0
 47
0.0
 48
0.0
140
0.18
141
0.09
142
0.0
143
25.399999999999999
144
1.0
145
0.0
146
1.0
147
0.09
 71
     0
 72
     0
 73
     1
 74
     1
 75
     0
 76
     0
 77
     0
 78
     0
170
     0
171
     2
172
     0
173
     0
174
     0
175
     0
176
     0
177
     0
178
     0
  0
DIMSTYLE
  2
ANNOTATIVE
 70
     0
  3

  4

  5

  6

  7

 40
1.0
 41
0.18
 42
0.0625
 43
0.38
 44
0.18
 45
0.0
 46
0.0
 47
0.0
 48
0.0
140
0.18
141
0.09
142
0.0
143
25.399999999999999
144
1.0
145
0.0
146
1.0
147
0.09
 71
     0
 72
     0
 73
     1
 74
     1
 75
     0
 76
     0
 77
     0
 78
     0
170
     0
171
     2
172
     0
173
     0
174
     0
175
     0
176
     0
177
     0
178
     0
  0
ENDTAB
  0
ENDSEC
  0
SECTION
  2
BLOCKS
  0
BLOCK
  8
0
  2
$MODEL_SPACE
 70
     0
 10
0.0
 20
0.0
 30
0.0
  3
$MODEL_SPACE
  1

  0
ENDBLK
  5
72
  8
0
  0
BLOCK
 67
     1
  8
0
  2
$PAPER_SPACE
 70
     0
 10
0.0
 20
0.0
 30
0.0
  3
$PAPER_SPACE
  1

  0
ENDBLK
  5
6E
 67
     1
  8
0
  0
ENDSEC
  0
SECTION
  2
ENTITIES
  0
POLYLINE
  5
B6
  8
0
 66
     1
 10
0.0
 20
0.0
 30
0.0
  0
VERTEX
  5
B7
  8
0
 10
52.738510222026321
 20
25.01313661450623
 30
0.0
  0
VERTEX
  5
B8
  8
0
 10
52.7385102220261
 20
1.499999999999954
 30
0.0
 42
-0.4142135623730922
  0
VERTEX
  5
BA
  8
0
 10
48.738510222026072
 20
-2.5000000000000071
 30
0.0
  0
VERTEX
  5
BB
  8
0
 10
-14.69618097386167
 20
-2.4999999999999911
 30
0.0
 42
-0.4142135623730954
  0
VERTEX
  5
BC
  8
0
 10
-18.696180973861669
 20
1.500000000000018
 30
0.0
  0
VERTEX
  5
BD
  8
0
 10
-18.696180973861662
 20
25.013136614506571
 30
0.0
  0
SEQEND
  5
B9
  8
0
  0
CIRCLE
  5
BF
  8
0
 10
-12.679324847551429
 20
31.563136614506469
 30
0.0
 40
1.575
  0
CIRCLE
  5
C0
  8
0
 10
0.8779737181512103
 20
1.5000000000000011
 30
0.0
 40
1.575
  0
CIRCLE
  5
C1
  8
0
 10
-3.6161809738617818
 20
0.1547516829089734
 30
0.0
 40
1.0
  0
CIRCLE
  5
C2
  8
0
 10
-3.6161809738617818
 20
4.1147516829089303
 30
0.0
 40
1.0
  0
CIRCLE
  5
C3
  8
0
 10
-14.596180973861671
 20
18.263136614506561
 30
0.0
 40
0.915
  0
CIRCLE
  5
C4
  8
0
 10
-6.9761809738616778
 20
20.80313661450656
 30
0.0
 40
0.915
  0
CIRCLE
  5
C5
  8
0
 10
-6.9761809738616689
 20
15.72313661450656
 30
0.0
 40
0.915
  0
CIRCLE
  5
C6
  8
0
 10
41.018510222026222
 20
15.72313661450633
 30
0.0
 40
0.915
  0
CIRCLE
  5
C7
  8
0
 10
41.018510222026272
 20
20.803136614506329
 30
0.0
 40
0.915
  0
CIRCLE
  5
C8
  8
0
 10
48.638510222026241
 20
18.263136614506259
 30
0.0
 40
0.915
  0
CIRCLE
  5
C9
  8
0
 10
37.658510222026223
 20
4.1147516829087341
 30
0.0
 40
1.0
  0
CIRCLE
  5
CA
  8
0
 10
37.65851022202618
 20
0.1547516829087736
 30
0.0
 40
1.0
  0
CIRCLE
  5
CB
  8
0
 10
33.164355530013196
 20
1.499999999999845
 30
0.0
 40
1.575
  0
CIRCLE
  5
CC
  8
0
 10
46.721654095716133
 20
31.563136614506188
 30
0.0
 40
1.575
  0
POLYLINE
  8
0
  5
128
  66
     1
 10
0.000000
 20
0.000000
 30
0.000000
  70
     8
  0
VERTEX
  8
0
  5
129
 10
52.7385
 20
25.0131
 30
0.000000
  70
    32
  0
VERTEX
  8
0
  5
12A
 10
52.7374
 20
25.2113
 30
0.000000
  70
    32
  0
VERTEX
  8
0
  5
12B
 10
52.7342
 20
25.4094
 30
0.000000
  70
    32
  0
VERTEX
  8
0
  5
12C
 10
52.7287
 20
25.6074
 30
0.000000
  70
    32
  0
VERTEX
  8
0
  5
12D
 10
52.7211
 20
25.8053
 30
0.000000
  70
    32
  0
VERTEX
  8
0
  5
12E
 10
52.7114
 20
26.0032
 30
0.000000
  70
    32
  0
VERTEX
  8
0
  5
12F
 10
52.6995
 20
26.2010
 30
0.000000
  70
    32
  0
VERTEX
  8
0
  5
130
 10
52.6855
 20
26.3986
 30
0.000000
  70
    32
  0
VERTEX
  8
0
  5
131
 10
52.6693
 20
26.5962
 30
0.000000
  70
    32
  0
VERTEX
  8
0
  5
132
 10
52.6511
 20
26.7936
 30
0.000000
  70
    32
  0
VERTEX
  8
0
  5
133
 10
52.6307
 20
26.9909
 30
0.000000
  70
    32
  0
VERTEX
  8
0
  5
134
 10
52.6081
 20
27.1881
 30
0.000000
  70
    32
  0
VERTEX
  8
0
  5
135
 10
52.5835
 20
27.3851
 30
0.000000
  70
    32
  0
VERTEX
  8
0
  5
136
 10
52.5568
 20
27.5819
 30
0.000000
  70
    32
  0
VERTEX
  8
0
  5
137
 10
52.5280
 20
27.7786
 30
0.000000
  70
    32
  0
VERTEX
  8
0
  5
138
 10
52.4970
 20
27.9751
 30
0.000000
  70
    32
  0
VERTEX
  8
0
  5
139
 10
52.4640
 20
28.1714
 30
0.000000
  70
    32
  0
VERTEX
  8
0
  5
13A
 10
52.4290
 20
28.3674
 30
0.000000
  70
    32
  0
VERTEX
  8
0
  5
13B
 10
52.3918
 20
28.5633
 30
0.000000
  70
    32
  0
VERTEX
  8
0
  5
13C
 10
52.3526
 20
28.7590
 30
0.000000
  70
    32
  0
VERTEX
  8
0
  5
13D
 10
52.3114
 20
28.9544
 30
0.000000
  70
    32
  0
VERTEX
  8
0
  5
13E
 10
52.2681
 20
29.1495
 30
0.000000
  70
    32
  0
VERTEX
  8
0
  5
13F
 10
52.2227
 20
29.3444
 30
0.000000
  70
    32
  0
VERTEX
  8
0
  5
140
 10
52.1754
 20
29.5390
 30
0.000000
  70
    32
  0
VERTEX
  8
0
  5
141
 10
52.1259
 20
29.7334
 30
0.000000
  70
    32
  0
VERTEX
  8
0
  5
142
 10
52.0745
 20
29.9275
 30
0.000000
  70
    32
  0
VERTEX
  8
0
  5
143
 10
52.0210
 20
30.1212
 30
0.000000
  70
    32
  0
VERTEX
  8
0
  5
144
 10
51.9656
 20
30.3147
 30
0.000000
  70
    32
  0
VERTEX
  8
0
  5
145
 10
51.9081
 20
30.5079
 30
0.000000
  70
    32
  0
VERTEX
  8
0
  5
146
 10
51.8486
 20
30.7007
 30
0.000000
  70
    32
  0
VERTEX
  8
0
  5
147
 10
51.7872
 20
30.8931
 30
0.000000
  70
    32
  0
VERTEX
  8
0
  5
148
 10
51.7237
 20
31.0853
 30
0.000000
  70
    32
  0
VERTEX
  8
0
  5
149
 10
51.6583
 20
31.2770
 30
0.000000
  70
    32
  0
VERTEX
  8
0
  5
14A
 10
51.5909
 20
31.4684
 30
0.000000
  70
    32
  0
VERTEX
  8
0
  5
14B
 10
51.5216
 20
31.6595
 30
0.000000
  70
    32
  0
VERTEX
  8
0
  5
14C
 10
51.4503
 20
31.8501
 30
0.000000
  70
    32
  0
VERTEX
  8
0
  5
14D
 10
51.3770
 20
32.0403
 30
0.000000
  70
    32
  0
VERTEX
  8
0
  5
14E
 10
51.3018
 20
32.2301
 30
0.000000
  70
    32
  0
VERTEX
  8
0
  5
14F
 10
51.2246
 20
32.4195
 30
0.000000
  70
    32
  0
VERTEX
  8
0
  5
150
 10
51.1455
 20
32.6085
 30
0.000000
  70
    32
  0
VERTEX
  8
0
  5
151
 10
51.0645
 20
32.7970
 30
0.000000
  70
    32
  0
VERTEX
  8
0
  5
152
 10
50.9816
 20
32.9851
 30
0.000000
  70
    32
  0
VERTEX
  8
0
  5
153
 10
50.8967
 20
33.1727
 30
0.000000
  70
    32
  0
VERTEX
  8
0
  5
154
 10
50.8100
 20
33.3599
 30
0.000000
  70
    32
  0
VERTEX
  8
0
  5
155
 10
50.7213
 20
33.5465
 30
0.000000
  70
    32
  0
VERTEX
  8
0
  5
156
 10
50.6308
 20
33.7327
 30
0.000000
  70
    32
  0
VERTEX
  8
0
  5
157
 10
50.5384
 20
33.9183
 30
0.000000
  70
    32
  0
VERTEX
  8
0
  5
158
 10
50.4440
 20
34.1035
 30
0.000000
  70
    32
  0
VERTEX
  8
0
  5
159
 10
50.3478
 20
34.2881
 30
0.000000
  70
    32
  0
VERTEX
  8
0
  5
15A
 10
50.2498
 20
34.4722
 30
0.000000
  70
    32
  0
VERTEX
  8
0
  5
15B
 10
50.1499
 20
34.6557
 30
0.000000
  70
    32
  0
VERTEX
  8
0
  5
15C
 10
50.0481
 20
34.8387
 30
0.000000
  70
    32
  0
VERTEX
  8
0
  5
15D
 10
49.9445
 20
35.0212
 30
0.000000
  70
    32
  0
VERTEX
  8
0
  5
15E
 10
49.8390
 20
35.2030
 30
0.000000
  70
    32
  0
VERTEX
  8
0
  5
15F
 10
49.7317
 20
35.3843
 30
0.000000
  70
    32
  0
VERTEX
  8
0
  5
160
 10
49.6226
 20
35.5649
 30
0.000000
  70
    32
  0
VERTEX
  8
0
  5
161
 10
49.5116
 20
35.7450
 30
0.000000
  70
    32
  0
VERTEX
  8
0
  5
162
 10
49.3988
 20
35.9245
 30
0.000000
  70
    32
  0
VERTEX
  8
0
  5
163
 10
49.2842
 20
36.1033
 30
0.000000
  70
    32
  0
VERTEX
  8
0
  5
164
 10
49.1679
 20
36.2815
 30
0.000000
  70
    32
  0
VERTEX
  8
0
  5
165
 10
49.0497
 20
36.4590
 30
0.000000
  70
    32
  0
VERTEX
  8
0
  5
166
 10
48.9297
 20
36.6359
 30
0.000000
  70
    32
  0
VERTEX
  8
0
  5
167
 10
48.8079
 20
36.8121
 30
0.000000
  70
    32
  0
VERTEX
  8
0
  5
168
 10
48.6844
 20
36.9877
 30
0.000000
  70
    32
  0
VERTEX
  8
0
  5
169
 10
48.5591
 20
37.1625
 30
0.000000
  70
    32
  0
VERTEX
  8
0
  5
16A
 10
48.4320
 20
37.3367
 30
0.000000
  70
    32
  0
VERTEX
  8
0
  5
16B
 10
48.3032
 20
37.5101
 30
0.000000
  70
    32
  0
VERTEX
  8
0
  5
16C
 10
48.1726
 20
37.6828
 30
0.000000
  70
    32
  0
VERTEX
  8
0
  5
16D
 10
48.0403
 20
37.8548
 30
0.000000
  70
    32
  0
VERTEX
  8
0
  5
16E
 10
47.9062
 20
38.0261
 30
0.000000
  70
    32
  0
VERTEX
  8
0
  5
16F
 10
47.7704
 20
38.1966
 30
0.000000
  70
    32
  0
VERTEX
  8
0
  5
170
 10
47.6329
 20
38.3663
 30
0.000000
  70
    32
  0
VERTEX
  8
0
  5
171
 10
47.4936
 20
38.5353
 30
0.000000
  70
    32
  0
VERTEX
  8
0
  5
172
 10
47.3527
 20
38.7035
 30
0.000000
  70
    32
  0
VERTEX
  8
0
  5
173
 10
47.2100
 20
38.8709
 30
0.000000
  70
    32
  0
VERTEX
  8
0
  5
174
 10
47.0657
 20
39.0375
 30
0.000000
  70
    32
  0
VERTEX
  8
0
  5
175
 10
46.9196
 20
39.2033
 30
0.000000
  70
    32
  0
VERTEX
  8
0
  5
176
 10
46.7719
 20
39.3683
 30
0.000000
  70
    32
  0
VERTEX
  8
0
  5
177
 10
46.6224
 20
39.5324
 30
0.000000
  70
    32
  0
VERTEX
  8
0
  5
178
 10
46.4713
 20
39.6957
 30
0.000000
  70
    32
  0
VERTEX
  8
0
  5
179
 10
46.3186
 20
39.8582
 30
0.000000
  70
    32
  0
VERTEX
  8
0
  5
17A
 10
46.1641
 20
40.0198
 30
0.000000
  70
    32
  0
VERTEX
  8
0
  5
17B
 10
46.0080
 20
40.1805
 30
0.000000
  70
    32
  0
VERTEX
  8
0
  5
17C
 10
45.8503
 20
40.3403
 30
0.000000
  70
    32
  0
VERTEX
  8
0
  5
17D
 10
45.6909
 20
40.4993
 30
0.000000
  70
    32
  0
VERTEX
  8
0
  5
17E
 10
45.5299
 20
40.6573
 30
0.000000
  70
    32
  0
VERTEX
  8
0
  5
17F
 10
45.3673
 20
40.8144
 30
0.000000
  70
    32
  0
VERTEX
  8
0
  5
180
 10
45.2030
 20
40.9706
 30
0.000000
  70
    32
  0
VERTEX
  8
0
  5
181
 10
45.0372
 20
41.1259
 30
0.000000
  70
    32
  0
VERTEX
  8
0
  5
182
 10
44.8697
 20
41.2802
 30
0.000000
  70
    32
  0
VERTEX
  8
0
  5
183
 10
44.7006
 20
41.4335
 30
0.000000
  70
    32
  0
VERTEX
  8
0
  5
184
 10
44.5299
 20
41.5859
 30
0.000000
  70
    32
  0
VERTEX
  8
0
  5
185
 10
44.3576
 20
41.7374
 30
0.000000
  70
    32
  0
VERTEX
  8
0
  5
186
 10
44.1838
 20
41.8878
 30
0.000000
  70
    32
  0
VERTEX
  8
0
  5
187
 10
44.0083
 20
42.0372
 30
0.000000
  70
    32
  0
VERTEX
  8
0
  5
188
 10
43.8313
 20
42.1857
 30
0.000000
  70
    32
  0
VERTEX
  8
0
  5
189
 10
43.6527
 20
42.3331
 30
0.000000
  70
    32
  0
VERTEX
  8
0
  5
18A
 10
43.4726
 20
42.4795
 30
0.000000
  70
    32
  0
VERTEX
  8
0
  5
18B
 10
43.2909
 20
42.6248
 30
0.000000
  70
    32
  0
VERTEX
  8
0
  5
18C
 10
43.1077
 20
42.7692
 30
0.000000
  70
    32
  0
VERTEX
  8
0
  5
18D
 10
42.9229
 20
42.9124
 30
0.000000
  70
    32
  0
VERTEX
  8
0
  5
18E
 10
42.7367
 20
43.0546
 30
0.000000
  70
    32
  0
VERTEX
  8
0
  5
18F
 10
42.5488
 20
43.1957
 30
0.000000
  70
    32
  0
VERTEX
  8
0
  5
190
 10
42.3595
 20
43.3357
 30
0.000000
  70
    32
  0
VERTEX
  8
0
  5
191
 10
42.1686
 20
43.4746
 30
0.000000
  70
    32
  0
VERTEX
  8
0
  5
192
 10
41.9763
 20
43.6124
 30
0.000000
  70
    32
  0
VERTEX
  8
0
  5
193
 10
41.7824
 20
43.7491
 30
0.000000
  70
    32
  0
VERTEX
  8
0
  5
194
 10
41.5871
 20
43.8847
 30
0.000000
  70
    32
  0
VERTEX
  8
0
  5
195
 10
41.3904
 20
44.0191
 30
0.000000
  70
    32
  0
VERTEX
  8
0
  5
196
 10
41.1922
 20
44.1525
 30
0.000000
  70
    32
  0
VERTEX
  8
0
  5
197
 10
40.9927
 20
44.2846
 30
0.000000
  70
    32
  0
VERTEX
  8
0
  5
198
 10
40.7918
 20
44.4157
 30
0.000000
  70
    32
  0
VERTEX
  8
0
  5
199
 10
40.5895
 20
44.5456
 30
0.000000
  70
    32
  0
VERTEX
  8
0
  5
19A
 10
40.3858
 20
44.6744
 30
0.000000
  70
    32
  0
VERTEX
  8
0
  5
19B
 10
40.1809
 20
44.8020
 30
0.000000
  70
    32
  0
VERTEX
  8
0
  5
19C
 10
39.9746
 20
44.9285
 30
0.000000
  70
    32
  0
VERTEX
  8
0
  5
19D
 10
39.7670
 20
45.0538
 30
0.000000
  70
    32
  0
VERTEX
  8
0
  5
19E
 10
39.5581
 20
45.1779
 30
0.000000
  70
    32
  0
VERTEX
  8
0
  5
19F
 10
39.3479
 20
45.3009
 30
0.000000
  70
    32
  0
VERTEX
  8
0
  5
1A0
 10
39.1365
 20
45.4227
 30
0.000000
  70
    32
  0
VERTEX
  8
0
  5
1A1
 10
38.9238
 20
45.5433
 30
0.000000
  70
    32
  0
VERTEX
  8
0
  5
1A2
 10
38.7098
 20
45.6627
 30
0.000000
  70
    32
  0
VERTEX
  8
0
  5
1A3
 10
38.4946
 20
45.7810
 30
0.000000
  70
    32
  0
VERTEX
  8
0
  5
1A4
 10
38.2782
 20
45.8980
 30
0.000000
  70
    32
  0
VERTEX
  8
0
  5
1A5
 10
38.0607
 20
46.0139
 30
0.000000
  70
    32
  0
VERTEX
  8
0
  5
1A6
 10
37.8419
 20
46.1285
 30
0.000000
  70
    32
  0
VERTEX
  8
0
  5
1A7
 10
37.6219
 20
46.2420
 30
0.000000
  70
    32
  0
VERTEX
  8
0
  5
1A8
 10
37.4008
 20
46.3542
 30
0.000000
  70
    32
  0
VERTEX
  8
0
  5
1A9
 10
37.1785
 20
46.4652
 30
0.000000
  70
    32
  0
VERTEX
  8
0
  5
1AA
 10
36.9551
 20
46.5750
 30
0.000000
  70
    32
  0
VERTEX
  8
0
  5
1AB
 10
36.7306
 20
46.6836
 30
0.000000
  70
    32
  0
VERTEX
  8
0
  5
1AC
 10
36.5050
 20
46.7909
 30
0.000000
  70
    32
  0
VERTEX
  8
0
  5
1AD
 10
36.2783
 20
46.8970
 30
0.000000
  70
    32
  0
VERTEX
  8
0
  5
1AE
 10
36.0505
 20
47.0019
 30
0.000000
  70
    32
  0
VERTEX
  8
0
  5
1AF
 10
35.8216
 20
47.1055
 30
0.000000
  70
    32
  0
VERTEX
  8
0
  5
1B0
 10
35.5917
 20
47.2079
 30
0.000000
  70
    32
  0
VERTEX
  8
0
  5
1B1
 10
35.3607
 20
47.3090
 30
0.000000
  70
    32
  0
VERTEX
  8
0
  5
1B2
 10
35.1288
 20
47.4088
 30
0.000000
  70
    32
  0
VERTEX
  8
0
  5
1B3
 10
34.8958
 20
47.5074
 30
0.000000
  70
    32
  0
VERTEX
  8
0
  5
1B4
 10
34.6618
 20
47.6048
 30
0.000000
  70
    32
  0
VERTEX
  8
0
  5
1B5
 10
34.4268
 20
47.7008
 30
0.000000
  70
    32
  0
VERTEX
  8
0
  5
1B6
 10
34.1908
 20
47.7956
 30
0.000000
  70
    32
  0
VERTEX
  8
0
  5
1B7
 10
33.9539
 20
47.8891
 30
0.000000
  70
    32
  0
VERTEX
  8
0
  5
1B8
 10
33.7161
 20
47.9812
 30
0.000000
  70
    32
  0
VERTEX
  8
0
  5
1B9
 10
33.4773
 20
48.0722
 30
0.000000
  70
    32
  0
VERTEX
  8
0
  5
1BA
 10
33.2376
 20
48.1618
 30
0.000000
  70
    32
  0
VERTEX
  8
0
  5
1BB
 10
32.9970
 20
48.2501
 30
0.000000
  70
    32
  0
VERTEX
  8
0
  5
1BC
 10
32.7555
 20
48.3371
 30
0.000000
  70
    32
  0
VERTEX
  8
0
  5
1BD
 10
32.5131
 20
48.4227
 30
0.000000
  70
    32
  0
VERTEX
  8
0
  5
1BE
 10
32.2699
 20
48.5071
 30
0.000000
  70
    32
  0
VERTEX
  8
0
  5
1BF
 10
32.0258
 20
48.5902
 30
0.000000
  70
    32
  0
VERTEX
  8
0
  5
1C0
 10
31.7809
 20
48.6719
 30
0.000000
  70
    32
  0
VERTEX
  8
0
  5
1C1
 10
31.5351
 20
48.7523
 30
0.000000
  70
    32
  0
VERTEX
  8
0
  5
1C2
 10
31.2886
 20
48.8313
 30
0.000000
  70
    32
  0
VERTEX
  8
0
  5
1C3
 10
31.0412
 20
48.9090
 30
0.000000
  70
    32
  0
VERTEX
  8
0
  5
1C4
 10
30.7931
 20
48.9854
 30
0.000000
  70
    32
  0
VERTEX
  8
0
  5
1C5
 10
30.5442
 20
49.0604
 30
0.000000
  70
    32
  0
VERTEX
  8
0
  5
1C6
 10
30.2945
 20
49.1341
 30
0.000000
  70
    32
  0
VERTEX
  8
0
  5
1C7
 10
30.0441
 20
49.2064
 30
0.000000
  70
    32
  0
VERTEX
  8
0
  5
1C8
 10
29.7930
 20
49.2773
 30
0.000000
  70
    32
  0
VERTEX
  8
0
  5
1C9
 10
29.5411
 20
49.3469
 30
0.000000
  70
    32
  0
VERTEX
  8
0
  5
1CA
 10
29.2886
 20
49.4151
 30
0.000000
  70
    32
  0
VERTEX
  8
0
  5
1CB
 10
29.0354
 20
49.4819
 30
0.000000
  70
    32
  0
VERTEX
  8
0
  5
1CC
 10
28.7815
 20
49.5474
 30
0.000000
  70
    32
  0
VERTEX
  8
0
  5
1CD
 10
28.5269
 20
49.6114
 30
0.000000
  70
    32
  0
VERTEX
  8
0
  5
1CE
 10
28.2717
 20
49.6741
 30
0.000000
  70
    32
  0
VERTEX
  8
0
  5
1CF
 10
28.0158
 20
49.7353
 30
0.000000
  70
    32
  0
VERTEX
  8
0
  5
1D0
 10
27.7594
 20
49.7952
 30
0.000000
  70
    32
  0
VERTEX
  8
0
  5
1D1
 10
27.5023
 20
49.8536
 30
0.000000
  70
    32
  0
VERTEX
  8
0
  5
1D2
 10
27.2446
 20
49.9107
 30
0.000000
  70
    32
  0
VERTEX
  8
0
  5
1D3
 10
26.9864
 20
49.9663
 30
0.000000
  70
    32
  0
VERTEX
  8
0
  5
1D4
 10
26.7276
 20
50.0205
 30
0.000000
  70
    32
  0
VERTEX
  8
0
  5
1D5
 10
26.4682
 20
50.0733
 30
0.000000
  70
    32
  0
VERTEX
  8
0
  5
1D6
 10
26.2083
 20
50.1246
 30
0.000000
  70
    32
  0
VERTEX
  8
0
  5
1D7
 10
25.9479
 20
50.1745
 30
0.000000
  70
    32
  0
VERTEX
  8
0
  5
1D8
 10
25.6870
 20
50.2230
 30
0.000000
  70
    32
  0
VERTEX
  8
0
  5
1D9
 10
25.4255
 20
50.2700
 30
0.000000
  70
    32
  0
VERTEX
  8
0
  5
1DA
 10
25.1636
 20
50.3156
 30
0.000000
  70
    32
  0
VERTEX
  8
0
  5
1DB
 10
24.9012
 20
50.3597
 30
0.000000
  70
    32
  0
VERTEX
  8
0
  5
1DC
 10
24.6384
 20
50.4023
 30
0.000000
  70
    32
  0
VERTEX
  8
0
  5
1DD
 10
24.3751
 20
50.4435
 30
0.000000
  70
    32
  0
VERTEX
  8
0
  5
1DE
 10
24.1114
 20
50.4832
 30
0.000000
  70
    32
  0
VERTEX
  8
0
  5
1DF
 10
23.8472
 20
50.5215
 30
0.000000
  70
    32
  0
VERTEX
  8
0
  5
1E0
 10
23.5827
 20
50.5583
 30
0.000000
  70
    32
  0
VERTEX
  8
0
  5
1E1
 10
23.3177
 20
50.5936
 30
0.000000
  70
    32
  0
VERTEX
  8
0
  5
1E2
 10
23.0524
 20
50.6274
 30
0.000000
  70
    32
  0
VERTEX
  8
0
  5
1E3
 10
22.7868
 20
50.6597
 30
0.000000
  70
    32
  0
VERTEX
  8
0
  5
1E4
 10
22.5208
 20
50.6904
 30
0.000000
  70
    32
  0
VERTEX
  8
0
  5
1E5
 10
22.2546
 20
50.7196
 30
0.000000
  70
    32
  0
VERTEX
  8
0
  5
1E6
 10
21.9880
 20
50.7473
 30
0.000000
  70
    32
  0
VERTEX
  8
0
  5
1E7
 10
21.7213
 20
50.7734
 30
0.000000
  70
    32
  0
VERTEX
  8
0
  5
1E8
 10
21.4542
 20
50.7981
 30
0.000000
  70
    32
  0
VERTEX
  8
0
  5
1E9
 10
21.1870
 20
50.8211
 30
0.000000
  70
    32
  0
VERTEX
  8
0
  5
1EA
 10
20.9195
 20
50.8427
 30
0.000000
  70
    32
  0
VERTEX
  8
0
  5
1EB
 10
20.6518
 20
50.8627
 30
0.000000
  70
    32
  0
VERTEX
  8
0
  5
1EC
 10
20.3839
 20
50.8813
 30
0.000000
  70
    32
  0
VERTEX
  8
0
  5
1ED
 10
20.1159
 20
50.8983
 30
0.000000
  70
    32
  0
VERTEX
  8
0
  5
1EE
 10
19.8477
 20
50.9138
 30
0.000000
  70
    32
  0
VERTEX
  8
0
  5
1EF
 10
19.5793
 20
50.9278
 30
0.000000
  70
    32
  0
VERTEX
  8
0
  5
1F0
 10
19.3108
 20
50.9402
 30
0.000000
  70
    32
  0
VERTEX
  8
0
  5
1F1
 10
19.0422
 20
50.9512
 30
0.000000
  70
    32
  0
VERTEX
  8
0
  5
1F2
 10
18.7735
 20
50.9607
 30
0.000000
  70
    32
  0
VERTEX
  8
0
  5
1F3
 10
18.5047
 20
50.9686
 30
0.000000
  70
    32
  0
VERTEX
  8
0
  5
1F4
 10
18.2359
 20
50.9751
 30
0.000000
  70
    32
  0
VERTEX
  8
0
  5
1F5
 10
17.9669
 20
50.9801
 30
0.000000
  70
    32
  0
VERTEX
  8
0
  5
1F6
 10
17.6980
 20
50.9836
 30
0.000000
  70
    32
  0
VERTEX
  8
0
  5
1F7
 10
17.4290
 20
50.9856
 30
0.000000
  70
    32
  0
VERTEX
  8
0
  5
1F8
 10
17.1600
 20
50.9861
 30
0.000000
  70
    32
  0
VERTEX
  8
0
  5
1F9
 10
16.8909
 20
50.9851
 30
0.000000
  70
    32
  0
VERTEX
  8
0
  5
1FA
 10
16.6219
 20
50.9827
 30
0.000000
  70
    32
  0
VERTEX
  8
0
  5
1FB
 10
16.3530
 20
50.9788
 30
0.000000
  70
    32
  0
VERTEX
  8
0
  5
1FC
 10
16.0840
 20
50.9734
 30
0.000000
  70
    32
  0
VERTEX
  8
0
  5
1FD
 10
15.8152
 20
50.9665
 30
0.000000
  70
    32
  0
VERTEX
  8
0
  5
1FE
 10
15.5463
 20
50.9582
 30
0.000000
  70
    32
  0
VERTEX
  8
0
  5
1FF
 10
15.2776
 20
50.9483
 30
0.000000
  70
    32
  0
VERTEX
  8
0
  5
200
 10
15.0090
 20
50.9371
 30
0.000000
  70
    32
  0
VERTEX
  8
0
  5
201
 10
14.7405
 20
50.9244
 30
0.000000
  70
    32
  0
VERTEX
  8
0
  5
202
 10
14.4721
 20
50.9102
 30
0.000000
  70
    32
  0
VERTEX
  8
0
  5
203
 10
14.2039
 20
50.8945
 30
0.000000
  70
    32
  0
VERTEX
  8
0
  5
204
 10
13.9358
 20
50.8774
 30
0.000000
  70
    32
  0
VERTEX
  8
0
  5
205
 10
13.6679
 20
50.8589
 30
0.000000
  70
    32
  0
VERTEX
  8
0
  5
206
 10
13.4002
 20
50.8389
 30
0.000000
  70
    32
  0
VERTEX
  8
0
  5
207
 10
13.1327
 20
50.8175
 30
0.000000
  70
    32
  0
VERTEX
  8
0
  5
208
 10
12.8654
 20
50.7946
 30
0.000000
  70
    32
  0
VERTEX
  8
0
  5
209
 10
12.5983
 20
50.7703
 30
0.000000
  70
    32
  0
VERTEX
  8
0
  5
20A
 10
12.3314
 20
50.7446
 30
0.000000
  70
    32
  0
VERTEX
  8
0
  5
20B
 10
12.0649
 20
50.7174
 30
0.000000
  70
    32
  0
VERTEX
  8
0
  5
20C
 10
11.7986
 20
50.6888
 30
0.000000
  70
    32
  0
VERTEX
  8
0
  5
20D
 10
11.5326
 20
50.6588
 30
0.000000
  70
    32
  0
VERTEX
  8
0
  5
20E
 10
11.2668
 20
50.6273
 30
0.000000
  70
    32
  0
VERTEX
  8
0
  5
20F
 10
11.0014
 20
50.5944
 30
0.000000
  70
    32
  0
VERTEX
  8
0
  5
210
 10
10.7364
 20
50.5602
 30
0.000000
  70
    32
  0
VERTEX
  8
0
  5
211
 10
10.4716
 20
50.5244
 30
0.000000
  70
    32
  0
VERTEX
  8
0
  5
212
 10
10.2073
 20
50.4873
 30
0.000000
  70
    32
  0
VERTEX
  8
0
  5
213
 10
9.94328
 20
50.4488
 30
0.000000
  70
    32
  0
VERTEX
  8
0
  5
214
 10
9.67968
 20
50.4089
 30
0.000000
  70
    32
  0
VERTEX
  8
0
  5
215
 10
9.41648
 20
50.3675
 30
0.000000
  70
    32
  0
VERTEX
  8
0
  5
216
 10
9.15369
 20
50.3248
 30
0.000000
  70
    32
  0
VERTEX
  8
0
  5
217
 10
8.89133
 20
50.2806
 30
0.000000
  70
    32
  0
VERTEX
  8
0
  5
218
 10
8.62942
 20
50.2351
 30
0.000000
  70
    32
  0
VERTEX
  8
0
  5
219
 10
8.36797
 20
50.1882
 30
0.000000
  70
    32
  0
VERTEX
  8
0
  5
21A
 10
8.10700
 20
50.1399
 30
0.000000
  70
    32
  0
VERTEX
  8
0
  5
21B
 10
7.84651
 20
50.0902
 30
0.000000
  70
    32
  0
VERTEX
  8
0
  5
21C
 10
7.58652
 20
50.0391
 30
0.000000
  70
    32
  0
VERTEX
  8
0
  5
21D
 10
7.32705
 20
49.9866
 30
0.000000
  70
    32
  0
VERTEX
  8
0
  5
21E
 10
7.06812
 20
49.9327
 30
0.000000
  70
    32
  0
VERTEX
  8
0
  5
21F
 10
6.80973
 20
49.8775
 30
0.000000
  70
    32
  0
VERTEX
  8
0
  5
220
 10
6.55190
 20
49.8209
 30
0.000000
  70
    32
  0
VERTEX
  8
0
  5
221
 10
6.29464
 20
49.7629
 30
0.000000
  70
    32
  0
VERTEX
  8
0
  5
222
 10
6.03798
 20
49.7036
 30
0.000000
  70
    32
  0
VERTEX
  8
0
  5
223
 10
5.78192
 20
49.6429
 30
0.000000
  70
    32
  0
VERTEX
  8
0
  5
224
 10
5.52647
 20
49.5808
 30
0.000000
  70
    32
  0
VERTEX
  8
0
  5
225
 10
5.27166
 20
49.5174
 30
0.000000
  70
    32
  0
VERTEX
  8
0
  5
226
 10
5.01750
 20
49.4526
 30
0.000000
  70
    32
  0
VERTEX
  8
0
  5
227
 10
4.76399
 20
49.3865
 30
0.000000
  70
    32
  0
VERTEX
  8
0
  5
228
 10
4.51117
 20
49.3190
 30
0.000000
  70
    32
  0
VERTEX
  8
0
  5
229
 10
4.25903
 20
49.2502
 30
0.000000
  70
    32
  0
VERTEX
  8
0
  5
22A
 10
4.00760
 20
49.1800
 30
0.000000
  70
    32
  0
VERTEX
  8
0
  5
22B
 10
3.75688
 20
49.1085
 30
0.000000
  70
    32
  0
VERTEX
  8
0
  5
22C
 10
3.50690
 20
49.0356
 30
0.000000
  70
    32
  0
VERTEX
  8
0
  5
22D
 10
3.25767
 20
48.9614
 30
0.000000
  70
    32
  0
VERTEX
  8
0
  5
22E
 10
3.00920
 20
48.8859
 30
0.000000
  70
    32
  0
VERTEX
  8
0
  5
22F
 10
2.76151
 20
48.8090
 30
0.000000
  70
    32
  0
VERTEX
  8
0
  5
230
 10
2.51460
 20
48.7308
 30
0.000000
  70
    32
  0
VERTEX
  8
0
  5
231
 10
2.26851
 20
48.6513
 30
0.000000
  70
    32
  0
VERTEX
  8
0
  5
232
 10
2.02323
 20
48.5705
 30
0.000000
  70
    32
  0
VERTEX
  8
0
  5
233
 10
1.77879
 20
48.4883
 30
0.000000
  70
    32
  0
VERTEX
  8
0
  5
234
 10
1.53519
 20
48.4049
 30
0.000000
  70
    32
  0
VERTEX
  8
0
  5
235
 10
1.29246
 20
48.3201
 30
0.000000
  70
    32
  0
VERTEX
  8
0
  5
236
 10
1.05061
 20
48.2340
 30
0.000000
  70
    32
  0
VERTEX
  8
0
  5
237
 10
0.809644
 20
48.1466
 30
0.000000
  70
    32
  0
VERTEX
  8
0
  5
238
 10
0.569587
 20
48.0578
 30
0.000000
  70
    32
  0
VERTEX
  8
0
  5
239
 10
0.330452
 20
47.9678
 30
0.000000
  70
    32
  0
VERTEX
  8
0
  5
23A
 10
0.0922515
 20
47.8765
 30
0.000000
  70
    32
  0
VERTEX
  8
0
  5
23B
 10
-0.145000
 20
47.7839
 30
0.000000
  70
    32
  0
VERTEX
  8
0
  5
23C
 10
-0.381287
 20
47.6900
 30
0.000000
  70
    32
  0
VERTEX
  8
0
  5
23D
 10
-0.616596
 20
47.5948
 30
0.000000
  70
    32
  0
VERTEX
  8
0
  5
23E
 10
-0.850912
 20
47.4983
 30
0.000000
  70
    32
  0
VERTEX
  8
0
  5
23F
 10
-1.08422
 20
47.4005
 30
0.000000
  70
    32
  0
VERTEX
  8
0
  5
240
 10
-1.31651
 20
47.3014
 30
0.000000
  70
    32
  0
VERTEX
  8
0
  5
241
 10
-1.54776
 20
47.2011
 30
0.000000
  70
    32
  0
VERTEX
  8
0
  5
242
 10
-1.77796
 20
47.0994
 30
0.000000
  70
    32
  0
VERTEX
  8
0
  5
243
 10
-2.00710
 20
46.9966
 30
0.000000
  70
    32
  0
VERTEX
  8
0
  5
244
 10
-2.23516
 20
46.8924
 30
0.000000
  70
    32
  0
VERTEX
  8
0
  5
245
 10
-2.46212
 20
46.7869
 30
0.000000
  70
    32
  0
VERTEX
  8
0
  5
246
 10
-2.68798
 20
46.6802
 30
0.000000
  70
    32
  0
VERTEX
  8
0
  5
247
 10
-2.91271
 20
46.5723
 30
0.000000
  70
    32
  0
VERTEX
  8
0
  5
248
 10
-3.13631
 20
46.4630
 30
0.000000
  70
    32
  0
VERTEX
  8
0
  5
249
 10
-3.35875
 20
46.3525
 30
0.000000
  70
    32
  0
VERTEX
  8
0
  5
24A
 10
-3.58003
 20
46.2408
 30
0.000000
  70
    32
  0
VERTEX
  8
0
  5
24B
 10
-3.80014
 20
46.1278
 30
0.000000
  70
    32
  0
VERTEX
  8
0
  5
24C
 10
-4.01904
 20
46.0135
 30
0.000000
  70
    32
  0
VERTEX
  8
0
  5
24D
 10
-4.23674
 20
45.8980
 30
0.000000
  70
    32
  0
VERTEX
  8
0
  5
24E
 10
-4.45321
 20
45.7813
 30
0.000000
  70
    32
  0
VERTEX
  8
0
  5
24F
 10
-4.66845
 20
45.6633
 30
0.000000
  70
    32
  0
VERTEX
  8
0
  5
250
 10
-4.88244
 20
45.5441
 30
0.000000
  70
    32
  0
VERTEX
  8
0
  5
251
 10
-5.09515
 20
45.4236
 30
0.000000
  70
    32
  0
VERTEX
  8
0
  5
252
 10
-5.30659
 20
45.3019
 30
0.000000
  70
    32
  0
VERTEX
  8
0
  5
253
 10
-5.51673
 20
45.1790
 30
0.000000
  70
    32
  0
VERTEX
  8
0
  5
254
 10
-5.72557
 20
45.0549
 30
0.000000
  70
    32
  0
VERTEX
  8
0
  5
255
 10
-5.93308
 20
44.9295
 30
0.000000
  70
    32
  0
VERTEX
  8
0
  5
256
 10
-6.13925
 20
44.8029
 30
0.000000
  70
    32
  0
VERTEX
  8
0
  5
257
 10
-6.34406
 20
44.6751
 30
0.000000
  70
    32
  0
VERTEX
  8
0
  5
258
 10
-6.54746
 20
44.5461
 30
0.000000
  70
    32
  0
VERTEX
  8
0
  5
259
 10
-6.74942
 20
44.4159
 30
0.000000
  70
    32
  0
VERTEX
  8
0
  5
25A
 10
-6.94996
 20
44.2846
 30
0.000000
  70
    32
  0
VERTEX
  8
0
  5
25B
 10
-7.14905
 20
44.1521
 30
0.000000
  70
    32
  0
VERTEX
  8
0
  5
25C
 10
-7.34670
 20
44.0184
 30
0.000000
  70
    32
  0
VERTEX
  8
0
  5
25D
 10
-7.54289
 20
43.8836
 30
0.000000
  70
    32
  0
VERTEX
  8
0
  5
25E
 10
-7.73762
 20
43.7477
 30
0.000000
  70
    32
  0
VERTEX
  8
0
  5
25F
 10
-7.93088
 20
43.6107
 30
0.000000
  70
    32
  0
VERTEX
  8
0
  5
260
 10
-8.12266
 20
43.4726
 30
0.000000
  70
    32
  0
VERTEX
  8
0
  5
261
 10
-8.31296
 20
43.3334
 30
0.000000
  70
    32
  0
VERTEX
  8
0
  5
262
 10
-8.50178
 20
43.1931
 30
0.000000
  70
    32
  0
VERTEX
  8
0
  5
263
 10
-8.68909
 20
43.0517
 30
0.000000
  70
    32
  0
VERTEX
  8
0
  5
264
 10
-8.87491
 20
42.9092
 30
0.000000
  70
    32
  0
VERTEX
  8
0
  5
265
 10
-9.05921
 20
42.7657
 30
0.000000
  70
    32
  0
VERTEX
  8
0
  5
266
 10
-9.24200
 20
42.6212
 30
0.000000
  70
    32
  0
VERTEX
  8
0
  5
267
 10
-9.42326
 20
42.4756
 30
0.000000
  70
    32
  0
VERTEX
  8
0
  5
268
 10
-9.60300
 20
42.3290
 30
0.000000
  70
    32
  0
VERTEX
  8
0
  5
269
 10
-9.78119
 20
42.1814
 30
0.000000
  70
    32
  0
VERTEX
  8
0
  5
26A
 10
-9.95785
 20
42.0327
 30
0.000000
  70
    32
  0
VERTEX
  8
0
  5
26B
 10
-10.1330
 20
41.8831
 30
0.000000
  70
    32
  0
VERTEX
  8
0
  5
26C
 10
-10.3065
 20
41.7325
 30
0.000000
  70
    32
  0
VERTEX
  8
0
  5
26D
 10
-10.4785
 20
41.5809
 30
0.000000
  70
    32
  0
VERTEX
  8
0
  5
26E
 10
-10.6489
 20
41.4284
 30
0.000000
  70
    32
  0
VERTEX
  8
0
  5
26F
 10
-10.8177
 20
41.2749
 30
0.000000
  70
    32
  0
VERTEX
  8
0
  5
270
 10
-10.9850
 20
41.1204
 30
0.000000
  70
    32
  0
VERTEX
  8
0
  5
271
 10
-11.1506
 20
40.9650
 30
0.000000
  70
    32
  0
VERTEX
  8
0
  5
272
 10
-11.3147
 20
40.8087
 30
0.000000
  70
    32
  0
VERTEX
  8
0
  5
273
 10
-11.4771
 20
40.6515
 30
0.000000
  70
    32
  0
VERTEX
  8
0
  5
274
 10
-11.6380
 20
40.4934
 30
0.000000
  70
    32
  0
VERTEX
  8
0
  5
275
 10
-11.7972
 20
40.3344
 30
0.000000
  70
    32
  0
VERTEX
  8
0
  5
276
 10
-11.9548
 20
40.1745
 30
0.000000
  70
    32
  0
VERTEX
  8
0
  5
277
 10
-12.1108
 20
40.0137
 30
0.000000
  70
    32
  0
VERTEX
  8
0
  5
278
 10
-12.2651
 20
39.8521
 30
0.000000
  70
    32
  0
VERTEX
  8
0
  5
279
 10
-12.4178
 20
39.6896
 30
0.000000
  70
    32
  0
VERTEX
  8
0
  5
27A
 10
-12.5688
 20
39.5262
 30
0.000000
  70
    32
  0
VERTEX
  8
0
  5
27B
 10
-12.7182
 20
39.3621
 30
0.000000
  70
    32
  0
VERTEX
  8
0
  5
27C
 10
-12.8659
 20
39.1971
 30
0.000000
  70
    32
  0
VERTEX
  8
0
  5
27D
 10
-13.0119
 20
39.0313
 30
0.000000
  70
    32
  0
VERTEX
  8
0
  5
27E
 10
-13.1562
 20
38.8646
 30
0.000000
  70
    32
  0
VERTEX
  8
0
  5
27F
 10
-13.2989
 20
38.6972
 30
0.000000
  70
    32
  0
VERTEX
  8
0
  5
280
 10
-13.4399
 20
38.5291
 30
0.000000
  70
    32
  0
VERTEX
  8
0
  5
281
 10
-13.5791
 20
38.3601
 30
0.000000
  70
    32
  0
VERTEX
  8
0
  5
282
 10
-13.7167
 20
38.1904
 30
0.000000
  70
    32
  0
VERTEX
  8
0
  5
283
 10
-13.8525
 20
38.0199
 30
0.000000
  70
    32
  0
VERTEX
  8
0
  5
284
 10
-13.9867
 20
37.8487
 30
0.000000
  70
    32
  0
VERTEX
  8
0
  5
285
 10
-14.1190
 20
37.6767
 30
0.000000
  70
    32
  0
VERTEX
  8
0
  5
286
 10
-14.2497
 20
37.5040
 30
0.000000
  70
    32
  0
VERTEX
  8
0
  5
287
 10
-14.3786
 20
37.3306
 30
0.000000
  70
    32
  0
VERTEX
  8
0
  5
288
 10
-14.5058
 20
37.1565
 30
0.000000
  70
    32
  0
VERTEX
  8
0
  5
289
 10
-14.6312
 20
36.9818
 30
0.000000
  70
    32
  0
VERTEX
  8
0
  5
28A
 10
-14.7549
 20
36.8063
 30
0.000000
  70
    32
  0
VERTEX
  8
0
  5
28B
 10
-14.8768
 20
36.6301
 30
0.000000
  70
    32
  0
VERTEX
  8
0
  5
28C
 10
-14.9969
 20
36.4533
 30
0.000000
  70
    32
  0
VERTEX
  8
0
  5
28D
 10
-15.1152
 20
36.2759
 30
0.000000
  70
    32
  0
VERTEX
  8
0
  5
28E
 10
-15.2317
 20
36.0978
 30
0.000000
  70
    32
  0
VERTEX
  8
0
  5
28F
 10
-15.3465
 20
35.9191
 30
0.000000
  70
    32
  0
VERTEX
  8
0
  5
290
 10
-15.4594
 20
35.7397
 30
0.000000
  70
    32
  0
VERTEX
  8
0
  5
291
 10
-15.5705
 20
35.5597
 30
0.000000
  70
    32
  0
VERTEX
  8
0
  5
292
 10
-15.6798
 20
35.3792
 30
0.000000
  70
    32
  0
VERTEX
  8
0
  5
293
 10
-15.7873
 20
35.1980
 30
0.000000
  70
    32
  0
VERTEX
  8
0
  5
294
 10
-15.8930
 20
35.0163
 30
0.000000
  70
    32
  0
VERTEX
  8
0
  5
295
 10
-15.9968
 20
34.8339
 30
0.000000
  70
    32
  0
VERTEX
  8
0
  5
296
 10
-16.0988
 20
34.6511
 30
0.000000
  70
    32
  0
VERTEX
  8
0
  5
297
 10
-16.1989
 20
34.4676
 30
0.000000
  70
    32
  0
VERTEX
  8
0
  5
298
 10
-16.2972
 20
34.2837
 30
0.000000
  70
    32
  0
VERTEX
  8
0
  5
299
 10
-16.3936
 20
34.0992
 30
0.000000
  70
    32
  0
VERTEX
  8
0
  5
29A
 10
-16.4881
 20
33.9141
 30
0.000000
  70
    32
  0
VERTEX
  8
0
  5
29B
 10
-16.5808
 20
33.7286
 30
0.000000
  70
    32
  0
VERTEX
  8
0
  5
29C
 10
-16.6716
 20
33.5426
 30
0.000000
  70
    32
  0
VERTEX
  8
0
  5
29D
 10
-16.7604
 20
33.3560
 30
0.000000
  70
    32
  0
VERTEX
  8
0
  5
29E
 10
-16.8474
 20
33.1690
 30
0.000000
  70
    32
  0
VERTEX
  8
0
  5
29F
 10
-16.9325
 20
32.9815
 30
0.000000
  70
    32
  0
VERTEX
  8
0
  5
2A0
 10
-17.0157
 20
32.7936
 30
0.000000
  70
    32
  0
VERTEX
  8
0
  5
2A1
 10
-17.0969
 20
32.6052
 30
0.000000
  70
    32
  0
VERTEX
  8
0
  5
2A2
 10
-17.1762
 20
32.4164
 30
0.000000
  70
    32
  0
VERTEX
  8
0
  5
2A3
 10
-17.2536
 20
32.2271
 30
0.000000
  70
    32
  0
VERTEX
  8
0
  5
2A4
 10
-17.3291
 20
32.0374
 30
0.000000
  70
    32
  0
VERTEX
  8
0
  5
2A5
 10
-17.4026
 20
31.8473
 30
0.000000
  70
    32
  0
VERTEX
  8
0
  5
2A6
 10
-17.4741
 20
31.6568
 30
0.000000
  70
    32
  0
VERTEX
  8
0
  5
2A7
 10
-17.5437
 20
31.4659
 30
0.000000
  70
    32
  0
VERTEX
  8
0
  5
2A8
 10
-17.6113
 20
31.2747
 30
0.000000
  70
    32
  0
VERTEX
  8
0
  5
2A9
 10
-17.6770
 20
31.0830
 30
0.000000
  70
    32
  0
VERTEX
  8
0
  5
2AA
 10
-17.7407
 20
30.8910
 30
0.000000
  70
    32
  0
VERTEX
  8
0
  5
2AB
 10
-17.8023
 20
30.6987
 30
0.000000
  70
    32
  0
VERTEX
  8
0
  5
2AC
 10
-17.8620
 20
30.5060
 30
0.000000
  70
    32
  0
VERTEX
  8
0
  5
2AD
 10
-17.9197
 20
30.3129
 30
0.000000
  70
    32
  0
VERTEX
  8
0
  5
2AE
 10
-17.9754
 20
30.1196
 30
0.000000
  70
    32
  0
VERTEX
  8
0
  5
2AF
 10
-18.0291
 20
29.9259
 30
0.000000
  70
    32
  0
VERTEX
  8
0
  5
2B0
 10
-18.0807
 20
29.7320
 30
0.000000
  70
    32
  0
VERTEX
  8
0
  5
2B1
 10
-18.1303
 20
29.5377
 30
0.000000
  70
    32
  0
VERTEX
  8
0
  5
2B2
 10
-18.1779
 20
29.3432
 30
0.000000
  70
    32
  0
VERTEX
  8
0
  5
2B3
 10
-18.2235
 20
29.1484
 30
0.000000
  70
    32
  0
VERTEX
  8
0
  5
2B4
 10
-18.2670
 20
28.9534
 30
0.000000
  70
    32
  0
VERTEX
  8
0
  5
2B5
 10
-18.3084
 20
28.7581
 30
0.000000
  70
    32
  0
VERTEX
  8
0
  5
2B6
 10
-18.3478
 20
28.5625
 30
0.000000
  70
    32
  0
VERTEX
  8
0
  5
2B7
 10
-18.3851
 20
28.3667
 30
0.000000
  70
    32
  0
VERTEX
  8
0
  5
2B8
 10
-18.4203
 20
28.1707
 30
0.000000
  70
    32
  0
VERTEX
  8
0
  5
2B9
 10
-18.4535
 20
27.9745
 30
0.000000
  70
    32
  0
VERTEX
  8
0
  5
2BA
 10
-18.4845
 20
27.7781
 30
0.000000
  70
    32
  0
VERTEX
  8
0
  5
2BB
 10
-18.5135
 20
27.5815
 30
0.000000
  70
    32
  0
VERTEX
  8
0
  5
2BC
 10
-18.5404
 20
27.3848
 30
0.000000
  70
    32
  0
VERTEX
  8
0
  5
2BD
 10
-18.5651
 20
27.1878
 30
0.000000
  70
    32
  0
VERTEX
  8
0
  5
2BE
 10
-18.5877
 20
26.9907
 30
0.000000
  70
    32
  0
VERTEX
  8
0
  5
2BF
 10
-18.6083
 20
26.7935
 30
0.000000
  70
    32
  0
VERTEX
  8
0
  5
2C0
 10
-18.6266
 20
26.5961
 30
0.000000
  70
    32
  0
VERTEX
  8
0
  5
2C1
 10
-18.6429
 20
26.3985
 30
0.000000
  70
    32
  0
VERTEX
  8
0
  5
2C2
 10
-18.6570
 20
26.2009
 30
0.000000
  70
    32
  0
VERTEX
  8
0
  5
2C3
 10
-18.6689
 20
26.0032
 30
0.000000
  70
    32
  0
VERTEX
  8
0
  5
2C4
 10
-18.6787
 20
25.8053
 30
0.000000
  70
    32
  0
VERTEX
  8
0
  5
2C5
 10
-18.6863
 20
25.6074
 30
0.000000
  70
    32
  0
VERTEX
  8
0
  5
2C6
 10
-18.6918
 20
25.4094
 30
0.000000
  70
    32
  0
VERTEX
  8
0
  5
2C7
 10
-18.6951
 20
25.2113
 30
0.000000
  70
    32
  0
VERTEX
  8
0
  5
2C8
 10
-18.6962
 20
25.0131
 30
0.000000
  70
    32
  0
SEQEND
  8
0
  5
2C9
  0
ENDSEC
  0
EOF
