  0
SECTION
  2
HEADER
  9
$ACADVER
  1
AC1009
  9
$INSBASE
 10
0.0
 20
0.0
 30
0.0
  9
$EXTMIN
 10
0.0
 20
0.0
 30
0.0
  9
$EXTMAX
 10
83.911260183030492
 20
60.354270435231001
 30
0.0
  9
$LIMMIN
 10
0.0
 20
0.0
  9
$LIMMAX
 10
83.911260183030492
 20
60.354270435231001
  9
$ORTHOMODE
 70
     0
  9
$REGENMODE
 70
     1
  9
$FILLMODE
 70
     1
  9
$QTEXTMODE
 70
     0
  9
$MIRRTEXT
 70
     0
  9
$DRAGMODE
 70
     2
  9
$LTSCALE
 40
1.0
  9
$OSMODE
 70
     0
  9
$ATTMODE
 70
     1
  9
$TEXTSIZE
 40
0.2
  9
$TRACEWID
 40
0.05
  9
$TEXTSTYLE
  7
STANDARD
  9
$CLAYER
  8
0
  9
$CELTYPE
  6
BYLAYER
  9
$CECOLOR
 62
   256
  9
$DIMSCALE
 40
1.0
  9
$DIMASZ
 40
1.7999999999999989
  9
$DIMEXO
 40
0.0625
  9
$DIMDLI
 40
0.38
  9
$DIMRND
 40
0.0
  9
$DIMDLE
 40
0.0
  9
$DIMEXE
 40
0.18
  9
$DIMTP
 40
0.0
  9
$DIMTM
 40
0.0
  9
$DIMTXT
 40
1.7999999999999989
  9
$DIMCEN
 40
0.09
  9
$DIMTSZ
 40
0.0
  9
$DIMTOL
 70
     0
  9
$DIMLIM
 70
     0
  9
$DIMTIH
 70
     1
  9
$DIMTOH
 70
     1
  9
$DIMSE1
 70
     0
  9
$DIMSE2
 70
     0
  9
$DIMTAD
 70
     0
  9
$DIMZIN
 70
     0
  9
$DIMBLK
  1

  9
$DIMASO
 70
     1
  9
$DIMSHO
 70
     1
  9
$DIMPOST
  1

  9
$DIMAPOST
  1

  9
$DIMALT
 70
     0
  9
$DIMALTD
 70
     2
  9
$DIMALTF
 40
25.399999999999999
  9
$DIMLFAC
 40
1.0
  9
$DIMTOFL
 70
     0
  9
$DIMTVP
 40
0.0
  9
$DIMTIX
 70
     0
  9
$DIMSOXD
 70
     0
  9
$DIMSAH
 70
     0
  9
$DIMBLK1
  1

  9
$DIMBLK2
  1

  9
$DIMSTYLE
  2
STANDARD
  9
$DIMCLRD
 70
     0
  9
$DIMCLRE
 70
     0
  9
$DIMCLRT
 70
     0
  9
$DIMTFAC
 40
1.0
  9
$DIMGAP
 40
0.09
  9
$LUNITS
 70
     2
  9
$LUPREC
 70
     4
  9
$SKETCHINC
 40
0.1
  9
$FILLETRAD
 40
0.0
  9
$AUNITS
 70
     0
  9
$AUPREC
 70
     0
  9
$MENU
  1
.
  9
$ELEVATION
 40
0.0
  9
$PELEVATION
 40
0.0
  9
$THICKNESS
 40
0.0
  9
$LIMCHECK
 70
     0
  9
$BLIPMODE
 70
     0
  9
$CHAMFERA
 40
0.0
  9
$CHAMFERB
 40
0.0
  9
$SKPOLY
 70
     0
  9
$TDCREATE
 40
2457469.73601169
  9
$TDUPDATE
 40
2457469.73601169
  9
$TDINDWG
 40
0.0000063889
  9
$TDUSRTIMER
 40
0.0000063889
  9
$USRTIMER
 70
     1
  9
$ANGBASE
 50
0.0
  9
$ANGDIR
 70
     0
  9
$PDMODE
 70
     0
  9
$PDSIZE
 40
0.0
  9
$PLINEWID
 40
0.0
  9
$COORDS
 70
     0
  9
$SPLFRAME
 70
     0
  9
$SPLINETYPE
 70
     6
  9
$SPLINESEGS
 70
     8
  9
$ATTDIA
 70
     1
  9
$ATTREQ
 70
     1
  9
$HANDLING
 70
     1
  9
$HANDSEED
  5
4E7
  9
$SURFTAB1
 70
     6
  9
$SURFTAB2
 70
     6
  9
$SURFTYPE
 70
     6
  9
$SURFU
 70
     6
  9
$SURFV
 70
     6
  9
$UCSNAME
  2

  9
$UCSORG
 10
0.0
 20
0.0
 30
0.0
  9
$UCSXDIR
 10
1.0
 20
0.0
 30
0.0
  9
$UCSYDIR
 10
0.0
 20
1.0
 30
0.0
  9
$PUCSNAME
  2

  9
$PUCSORG
 10
0.0
 20
0.0
 30
0.0
  9
$PUCSXDIR
 10
1.0
 20
0.0
 30
0.0
  9
$PUCSYDIR
 10
0.0
 20
1.0
 30
0.0
  9
$USERI1
 70
     0
  9
$USERI2
 70
     0
  9
$USERI3
 70
     0
  9
$USERI4
 70
     0
  9
$USERI5
 70
     0
  9
$USERR1
 40
0.0
  9
$USERR2
 40
0.0
  9
$USERR3
 40
0.0
  9
$USERR4
 40
0.0
  9
$USERR5
 40
0.0
  9
$WORLDVIEW
 70
     1
  9
$SHADEDGE
 70
     3
  9
$SHADEDIF
 70
    70
  9
$TILEMODE
 70
     1
  9
$MAXACTVP
 70
    64
  9
$PLIMCHECK
 70
     0
  9
$PEXTMIN
 10
0.0
 20
0.0
 30
0.0
  9
$PEXTMAX
 10
83.911260183030492
 20
60.354270435231001
 30
0.0
  9
$PLIMMIN
 10
0.0
 20
0.0
  9
$PLIMMAX
 10
83.911260183030492
 20
60.354270435231001
  9
$UNITMODE
 70
     0
  9
$VISRETAIN
 70
     1
  9
$PLINEGEN
 70
     0
  9
$PSLTSCALE
 70
     1
  0
ENDSEC
  0
SECTION
  2
TABLES
  0
TABLE
  2
VPORT
 70
     1
  0
VPORT
  2
*ACTIVE
 70
     0
 10
0.0
 20
0.0
 11
1.0
 21
1.0
 12
17.025181979052132
 22
23.914176125224991
 13
0.0
 23
0.0
 14
1.0
 24
1.0
 15
0.0
 25
0.0
 16
0.0
 26
0.0
 36
1.0
 17
0.0
 27
0.0
 37
0.0
 40
60.354270435231001
 41
1.3903118963732579
 42
50.0
 43
0.0
 44
0.0
 50
0.0
 51
0.0
 71
     0
 72
   100
 73
     1
 74
     1
 75
     0
 76
     0
 77
     0
 78
     0
  0
ENDTAB
  0
TABLE
  2
LTYPE
 70
    59
  0
LTYPE
  2
CONTINUOUS
 70
     0
  3
Solid line
 72
    65
 73
     0
 40
0.0
  0
LTYPE
  2
BY_STANDARD
 70
     0
  3
By Standard ____________    ____    ____   _
 72
    65
 73
     6
 40
1.2402999999999991
 49
0.6614
 49
-0.0827
 49
0.1654
 49
-0.0827
 49
0.1654
 49
-0.0827
  0
LTYPE
  2
CHAIN
 70
     0
  3
Chain ____ _ ____ _ ____ _ ____ _ ____ _ ____
 72
    65
 73
     4
 40
0.7087
 49
0.4724000000000001
 49
-0.0591
 49
0.1181
 49
-0.0591
  0
LTYPE
  2
DASH_DOT
 70
     0
  3
Dash dot __ . __ . __ . __ . __ . __ . __ . __
 72
    65
 73
     4
 40
0.37
 49
0.24
 49
-0.06
 49
0.01
 49
-0.06
  0
LTYPE
  2
DOUBLE_DASH_DOT
 70
     0
  3
Double-Dash Dot __ __ . __ __ . __ __ . __ _
 72
    65
 73
     6
 40
0.4398
 49
0.24
 49
-0.06
 49
0.0098
 49
-0.06
 49
0.01
 49
-0.06
  0
LTYPE
  2
DASH_TRIPLE_DOT
 70
     0
  3
Dash Triple-Dot _ . . . _ . . . _ . . . _
 72
    65
 73
     8
 40
0.51
 49
0.24
 49
-0.06
 49
0.01
 49
-0.06
 49
0.01
 49
-0.06
 49
0.01
 49
-0.06
  0
LTYPE
  2
DASHED
 70
     0
  3
Dashed __ __ __ __ __ __ __ __ __ __ __ __ __ _
 72
    65
 73
     2
 40
0.2067
 49
0.1654
 49
-0.0413
  0
LTYPE
  2
DASH_DOUBLE_DOT
 70
     0
  3
Dash Double-Dot __ . . __ . . __ . . __ . .
 72
    65
 73
     6
 40
0.4398
 49
0.24
 49
-0.06
 49
0.0098
 49
-0.06
 49
0.01
 49
-0.06
  0
LTYPE
  2
DASHED_SPACE
 70
     0
  3
Dashed Space __ __ __ __ __ __ __ __ __ __ __ _
 72
    65
 73
     2
 40
0.2067
 49
0.1654
 49
-0.0413
  0
LTYPE
  2
DOTTED
 70
     0
  3
Dotted . . . . . . . . . . . . . . . . . . . . 
 72
    65
 73
     2
 40
0.0482
 49
0.0069
 49
-0.0413
  0
LTYPE
  2
DOUBLE_DASH_CHAIN
 70
     0
  3
Double-Dash Chain ______  __  __  ______  __  _
 72
    65
 73
     6
 40
1.2402999999999991
 49
0.6614
 49
-0.0827
 49
0.1654
 49
-0.0827
 49
0.1654
 49
-0.0827
  0
LTYPE
  2
DOUBLE_DASH_DOUBLE_DOT
 70
     0
  3
Double-Dash Double-dot _ _ . . _ _ . . _
 72
    65
 73
     8
 40
0.7400000000000001
 49
0.24
 49
-0.06
 49
0.24
 49
-0.06
 49
0.01
 49
-0.06
 49
0.01
 49
-0.06
  0
LTYPE
  2
DOUBLE_DASH_TRIPLE_DOT
 70
     0
  3
Double Dash Triple Dot __ __ . . . __ __ . .
 72
    65
 73
    10
 40
0.8100000000000001
 49
0.24
 49
-0.06
 49
0.24
 49
-0.06
 49
0.01
 49
-0.06
 49
0.01
 49
-0.06
 49
0.01
 49
-0.06
  0
LTYPE
  2
LONG_DASH_DOTTED
 70
     0
  3
Long Dash Dotted ____ . ____ . ____ . ____ . _
 72
    65
 73
     4
 40
0.3543
 49
0.2362
 49
-0.0295
 49
0.0591
 49
-0.0295
  0
LTYPE
  2
LONG_DASH_DOUBLE_DOT
 70
     0
  3
Long Dash Double Dot ________  .  .  ________  
 72
    65
 73
     6
 40
0.6799999999999999
 49
0.48
 49
-0.06
 49
0.01
 49
-0.06
 49
0.01
 49
-0.06
  0
LTYPE
  2
LONG_DASH_TRIPLE_DOT
 70
     0
  3
Long Dash Triple Dot ____ ... ____ ... ____
 72
    65
 73
     8
 40
0.3689
 49
0.2362
 49
-0.0295
 49
0.0049
 49
-0.0295
 49
0.0049
 49
-0.0295
 49
0.0049
 49
-0.0295
  0
LTYPE
  2
BORDER
 70
     0
  3
Border __ __ . __ __ . __ __ . __ __ . __ __ .
 72
    65
 73
     6
 40
1.75
 49
0.5
 49
-0.25
 49
0.5
 49
-0.25
 49
0.0
 49
-0.25
  0
LTYPE
  2
BORDER2
 70
     0
  3
Border (.5x) __.__.__.__.__.__.__.__.__.__.__.
 72
    65
 73
     6
 40
0.875
 49
0.25
 49
-0.125
 49
0.25
 49
-0.125
 49
0.0
 49
-0.125
  0
LTYPE
  2
BORDERX2
 70
     0
  3
Border (2x) ____  ____  .  ____  ____  .  ___
 72
    65
 73
     6
 40
3.5
 49
1.0
 49
-0.5
 49
1.0
 49
-0.5
 49
0.0
 49
-0.5
  0
LTYPE
  2
CENTER
 70
     0
  3
Center ____ _ ____ _ ____ _ ____ _ ____ _ ____
 72
    65
 73
     4
 40
2.0
 49
1.25
 49
-0.25
 49
0.25
 49
-0.25
  0
LTYPE
  2
CENTER2
 70
     0
  3
Center (.5x) ___ _ ___ _ ___ _ ___ _ ___ _ ___
 72
    65
 73
     4
 40
1.125
 49
0.75
 49
-0.125
 49
0.125
 49
-0.125
  0
LTYPE
  2
CENTERX2
 70
     0
  3
Center (2x) ________  __  ________  __  _____
 72
    65
 73
     4
 40
4.0
 49
2.5
 49
-0.5
 49
0.5
 49
-0.5
  0
LTYPE
  2
DASHDOT2
 70
     0
  3
Dash dot (.5x) _._._._._._._._._._._._._._._.
 72
    65
 73
     4
 40
0.5
 49
0.25
 49
-0.125
 49
0.0
 49
-0.125
  0
LTYPE
  2
DASHDOTX2
 70
     0
  3
Dash dot (2x) ____  .  ____  .  ____  .  ___
 72
    65
 73
     4
 40
2.0
 49
1.0
 49
-0.5
 49
0.0
 49
-0.5
  0
LTYPE
  2
DASHED2
 70
     0
  3
Dashed (.5x) _ _ _ _ _ _ _ _ _ _ _ _ _ _ _ _ _
 72
    65
 73
     2
 40
0.375
 49
0.25
 49
-0.125
  0
LTYPE
  2
DASHEDX2
 70
     0
  3
Dashed (2x) ____  ____  ____  ____  ____  ___
 72
    65
 73
     2
 40
1.5
 49
1.0
 49
-0.5
  0
LTYPE
  2
DIVIDE
 70
     0
  3
Divide ____ . . ____ . . ____ . . ____ . . ____
 72
    65
 73
     6
 40
1.25
 49
0.5
 49
-0.25
 49
0.0
 49
-0.25
 49
0.0
 49
-0.25
  0
LTYPE
  2
DIVIDE2
 70
     0
  3
Divide (.5x) __..__..__..__..__..__..__..__.._
 72
    65
 73
     6
 40
0.625
 49
0.25
 49
-0.125
 49
0.0
 49
-0.125
 49
0.0
 49
-0.125
  0
LTYPE
  2
DIVIDEX2
 70
     0
  3
Divide (2x) ________  .  .  ________  .  .  _
 72
    65
 73
     6
 40
2.5
 49
1.0
 49
-0.5
 49
0.0
 49
-0.5
 49
0.0
 49
-0.5
  0
LTYPE
  2
DOT
 70
     0
  3
Dot . . . . . . . . . . . . . . . . . . . . . .
 72
    65
 73
     2
 40
0.25
 49
0.0
 49
-0.25
  0
LTYPE
  2
DOT2
 70
     0
  3
Dot (.5x) .....................................
 72
    65
 73
     2
 40
0.125
 49
0.0
 49
-0.125
  0
LTYPE
  2
DOTX2
 70
     0
  3
Dot (2x) .  .  .  .  .  .  .  .  .  .  .  .  . 
 72
    65
 73
     2
 40
0.5
 49
0.0
 49
-0.5
  0
LTYPE
  2
HIDDEN
 70
     0
  3
Hidden __ __ __ __ __ __ __ __ __ __ __ __ __ _
 72
    65
 73
     2
 40
0.375
 49
0.25
 49
-0.125
  0
LTYPE
  2
HIDDEN2
 70
     0
  3
Hidden (.5x) _ _ _ _ _ _ _ _ _ _ _ _ _ _ _ _ _
 72
    65
 73
     2
 40
0.1875
 49
0.125
 49
-0.0625
  0
LTYPE
  2
HIDDENX2
 70
     0
  3
Hidden (2x) ____ ____ ____ ____ ____ ____ ____
 72
    65
 73
     2
 40
0.75
 49
0.5
 49
-0.25
  0
LTYPE
  2
PHANTOM
 70
     0
  3
Phantom ______  __  __  ______  __  __  ______
 72
    65
 73
     6
 40
2.5
 49
1.25
 49
-0.25
 49
0.25
 49
-0.25
 49
0.25
 49
-0.25
  0
LTYPE
  2
PHANTOM2
 70
     0
  3
Phantom (.5x) ___ _ _ ___ _ _ ___ _ _ ___ _ _
 72
    65
 73
     6
 40
1.25
 49
0.625
 49
-0.125
 49
0.125
 49
-0.125
 49
0.125
 49
-0.125
  0
LTYPE
  2
PHANTOMX2
 70
     0
  3
Phantom (2x) ____________    ____    ____   _
 72
    65
 73
     6
 40
5.0
 49
2.5
 49
-0.5
 49
0.5
 49
-0.5
 49
0.5
 49
-0.5
  0
LTYPE
  2
ACAD_ISO02W100
 70
     0
  3
ISO dash __ __ __ __ __ __ __ __ __ __ __ __ __
 72
    65
 73
     2
 40
0.59
 49
0.47
 49
-0.12
  0
LTYPE
  2
ACAD_ISO03W100
 70
     0
  3
ISO dash space __    __    __    __    __    __
 72
    65
 73
     2
 40
1.179999999999999
 49
0.47
 49
-0.71
  0
LTYPE
  2
ACAD_ISO04W100
 70
     0
  3
ISO long-dash dot ____ . ____ . ____ . ____ . _
 72
    65
 73
     4
 40
1.179999999999999
 49
0.9399999999999998
 49
-0.12
 49
0.0
 49
-0.12
  0
LTYPE
  2
ACAD_ISO05W100
 70
     0
  3
ISO long-dash double-dot ____ .. ____ .. ____ .
 72
    65
 73
     6
 40
1.2999999999999989
 49
0.9399999999999998
 49
-0.12
 49
0.0
 49
-0.12
 49
0.0
 49
-0.12
  0
LTYPE
  2
ACAD_ISO06W100
 70
     0
  3
ISO long-dash triple-dot ____ ... ____ ... ____
 72
    65
 73
     8
 40
1.419999999999999
 49
0.9399999999999998
 49
-0.12
 49
0.0
 49
-0.12
 49
0.0
 49
-0.12
 49
0.0
 49
-0.12
  0
LTYPE
  2
ACAD_ISO07W100
 70
     0
  3
ISO dot . . . . . . . . . . . . . . . . . . . .
 72
    65
 73
     2
 40
0.12
 49
0.0
 49
-0.12
  0
LTYPE
  2
ACAD_ISO08W100
 70
     0
  3
ISO long-dash short-dash ____ __ ____ __ ____ _
 72
    65
 73
     4
 40
0.95
 49
0.47
 49
-0.12
 49
0.24
 49
-0.12
  0
LTYPE
  2
ACAD_ISO09W100
 70
     0
  3
ISO long-dash double-short-dash ____ __ __ ____
 72
    65
 73
     6
 40
1.3100000000000001
 49
0.47
 49
-0.12
 49
0.24
 49
-0.12
 49
0.24
 49
-0.12
  0
LTYPE
  2
ACAD_ISO10W100
 70
     0
  3
ISO dash dot __ . __ . __ . __ . __ . __ . __ .
 72
    65
 73
     4
 40
0.71
 49
0.47
 49
-0.12
 49
0.0
 49
-0.12
  0
LTYPE
  2
ACAD_ISO11W100
 70
     0
  3
ISO double-dash dot __ __ . __ __ . __ __ . __ 
 72
    65
 73
     6
 40
1.2999999999999989
 49
0.47
 49
-0.12
 49
0.47
 49
-0.12
 49
0.0
 49
-0.12
  0
LTYPE
  2
ACAD_ISO12W100
 70
     0
  3
ISO dash double-dot __ . . __ . . __ . . __ . .
 72
    65
 73
     6
 40
0.8299999999999999
 49
0.47
 49
-0.12
 49
0.0
 49
-0.12
 49
0.0
 49
-0.12
  0
LTYPE
  2
ACAD_ISO13W100
 70
     0
  3
ISO double-dash double-dot __ __ . . __ __ . . 
 72
    65
 73
     8
 40
1.419999999999999
 49
0.47
 49
-0.12
 49
0.47
 49
-0.12
 49
0.0
 49
-0.12
 49
0.0
 49
-0.12
  0
LTYPE
  2
ACAD_ISO14W100
 70
     0
  3
ISO dash triple-dot __ . . . __ . . . __ . . . 
 72
    65
 73
     8
 40
0.95
 49
0.47
 49
-0.12
 49
0.0
 49
-0.12
 49
0.0
 49
-0.12
 49
0.0
 49
-0.12
  0
LTYPE
  2
ACAD_ISO15W100
 70
     0
  3
ISO double-dash triple-dot __ __ . . . __ __ . 
 72
    65
 73
    10
 40
1.5399999999999989
 49
0.47
 49
-0.12
 49
0.47
 49
-0.12
 49
0.0
 49
-0.12
 49
0.0
 49
-0.12
 49
0.0
 49
-0.12
  0
LTYPE
  2
FENCELINE1
 70
     0
  3
Fenceline circle ----0-----0----0-----0----0---
 72
    65
 73
     4
 40
1.45
 49
0.25
 49
-0.1
 49
-0.1
 49
1.0
  0
LTYPE
  2
FENCELINE2
 70
     0
  3
Fenceline square ----[]-----[]----[]-----[]----
 72
    65
 73
     4
 40
1.45
 49
0.25
 49
-0.1
 49
-0.1
 49
1.0
  0
LTYPE
  2
TRACKS
 70
     0
  3
Tracks -|-|-|-|-|-|-|-|-|-|-|-|-|-|-|-|-|-|-|-|
 72
    65
 73
     2
 40
0.3
 49
0.15
 49
0.15
  0
LTYPE
  2
BATTING
 70
     0
  3
Batting SSSSSSSSSSSSSSSSSSSSSSSSSSSSSSSSSSSSSSS
 72
    65
 73
     4
 40
0.4001000000000001
 49
0.0001
 49
-0.1
 49
-0.2
 49
-0.1
  0
LTYPE
  2
HOT_WATER_SUPPLY
 70
     0
  3
Hot water supply ---- HW ---- HW ---- HW ----
 72
    65
 73
     3
 40
0.9
 49
0.5
 49
-0.2
 49
-0.2
  0
LTYPE
  2
GAS_LINE
 70
     0
  3
Gas line ----GAS----GAS----GAS----GAS----GAS---
 72
    65
 73
     3
 40
0.95
 49
0.5
 49
-0.2
 49
-0.25
  0
LTYPE
  2
ZIGZAG
 70
     0
  3
Zig zag /\/\/\/\/\/\/\/\/\/\/\/\/\/\/\/\/\/\/\/
 72
    65
 73
     4
 40
0.8001000000000001
 49
0.0001
 49
-0.2
 49
-0.4
 49
-0.2
  0
ENDTAB
  0
TABLE
  2
LAYER
 70
     1
  0
LAYER
  2
0
 70
     0
 62
     7
  6
CONTINUOUS
  0
ENDTAB
  0
TABLE
  2
STYLE
 70
     3
  0
STYLE
  2
STANDARD
 70
     0
 40
0.0
 41
1.0
 50
0.0
 71
     0
 42
0.2
  3
txt
  4

  0
STYLE
  2
ANNOTATIVE
 70
     0
 40
0.0
 41
1.0
 50
0.0
 71
     0
 42
0.2
  3
txt
  4

  0
STYLE
  2

 70
     1
 40
0.0
 41
1.0
 50
0.0
 71
     0
 42
0.2
  3
ltypeshp.shx
  4

  0
ENDTAB
  0
TABLE
  2
VIEW
 70
     0
  0
ENDTAB
  0
TABLE
  2
UCS
 70
     0
  0
ENDTAB
  0
TABLE
  2
APPID
 70
     3
  0
APPID
  2
ACAD
 70
     0
  0
APPID
  2
ACADANNOTATIVE
 70
     0
  0
APPID
  2
ACAD_MLEADERVER
 70
     0
  0
ENDTAB
  0
TABLE
  2
DIMSTYLE
 70
     2
  0
DIMSTYLE
  2
STANDARD
 70
     0
  3

  4

  5

  6

  7

 40
1.0
 41
0.18
 42
0.0625
 43
0.38
 44
0.18
 45
0.0
 46
0.0
 47
0.0
 48
0.0
140
0.18
141
0.09
142
0.0
143
25.399999999999999
144
1.0
145
0.0
146
1.0
147
0.09
 71
     0
 72
     0
 73
     1
 74
     1
 75
     0
 76
     0
 77
     0
 78
     0
170
     0
171
     2
172
     0
173
     0
174
     0
175
     0
176
     0
177
     0
178
     0
  0
DIMSTYLE
  2
ANNOTATIVE
 70
     0
  3

  4

  5

  6

  7

 40
1.0
 41
0.18
 42
0.0625
 43
0.38
 44
0.18
 45
0.0
 46
0.0
 47
0.0
 48
0.0
140
0.18
141
0.09
142
0.0
143
25.399999999999999
144
1.0
145
0.0
146
1.0
147
0.09
 71
     0
 72
     0
 73
     1
 74
     1
 75
     0
 76
     0
 77
     0
 78
     0
170
     0
171
     2
172
     0
173
     0
174
     0
175
     0
176
     0
177
     0
178
     0
  0
ENDTAB
  0
ENDSEC
  0
SECTION
  2
BLOCKS
  0
BLOCK
  8
0
  2
$MODEL_SPACE
 70
     0
 10
0.0
 20
0.0
 30
0.0
  3
$MODEL_SPACE
  1

  0
ENDBLK
  5
72
  8
0
  0
BLOCK
 67
     1
  8
0
  2
$PAPER_SPACE
 70
     0
 10
0.0
 20
0.0
 30
0.0
  3
$PAPER_SPACE
  1

  0
ENDBLK
  5
6E
 67
     1
  8
0
  0
ENDSEC
  0
SECTION
  2
ENTITIES
  0
POLYLINE
  8
0
  5
121
  66
     1
 10
0.000000
 20
0.000000
 30
0.000000
  70
     8
  0
VERTEX
  8
0
  5
122
 10
-18.6962
 20
25.0131
 30
0.000000
  70
    32
  0
VERTEX
  8
0
  5
123
 10
-18.6951
 20
25.2113
 30
0.000000
  70
    32
  0
VERTEX
  8
0
  5
124
 10
-18.6918
 20
25.4094
 30
0.000000
  70
    32
  0
VERTEX
  8
0
  5
125
 10
-18.6863
 20
25.6074
 30
0.000000
  70
    32
  0
VERTEX
  8
0
  5
126
 10
-18.6787
 20
25.8053
 30
0.000000
  70
    32
  0
VERTEX
  8
0
  5
127
 10
-18.6689
 20
26.0032
 30
0.000000
  70
    32
  0
VERTEX
  8
0
  5
128
 10
-18.6570
 20
26.2009
 30
0.000000
  70
    32
  0
VERTEX
  8
0
  5
129
 10
-18.6429
 20
26.3985
 30
0.000000
  70
    32
  0
VERTEX
  8
0
  5
12A
 10
-18.6266
 20
26.5961
 30
0.000000
  70
    32
  0
VERTEX
  8
0
  5
12B
 10
-18.6083
 20
26.7935
 30
0.000000
  70
    32
  0
VERTEX
  8
0
  5
12C
 10
-18.5877
 20
26.9907
 30
0.000000
  70
    32
  0
VERTEX
  8
0
  5
12D
 10
-18.5651
 20
27.1878
 30
0.000000
  70
    32
  0
VERTEX
  8
0
  5
12E
 10
-18.5404
 20
27.3848
 30
0.000000
  70
    32
  0
VERTEX
  8
0
  5
12F
 10
-18.5135
 20
27.5815
 30
0.000000
  70
    32
  0
VERTEX
  8
0
  5
130
 10
-18.4845
 20
27.7781
 30
0.000000
  70
    32
  0
VERTEX
  8
0
  5
131
 10
-18.4535
 20
27.9745
 30
0.000000
  70
    32
  0
VERTEX
  8
0
  5
132
 10
-18.4203
 20
28.1707
 30
0.000000
  70
    32
  0
VERTEX
  8
0
  5
133
 10
-18.3851
 20
28.3667
 30
0.000000
  70
    32
  0
VERTEX
  8
0
  5
134
 10
-18.3478
 20
28.5625
 30
0.000000
  70
    32
  0
VERTEX
  8
0
  5
135
 10
-18.3084
 20
28.7581
 30
0.000000
  70
    32
  0
VERTEX
  8
0
  5
136
 10
-18.2670
 20
28.9534
 30
0.000000
  70
    32
  0
VERTEX
  8
0
  5
137
 10
-18.2235
 20
29.1484
 30
0.000000
  70
    32
  0
VERTEX
  8
0
  5
138
 10
-18.1779
 20
29.3432
 30
0.000000
  70
    32
  0
VERTEX
  8
0
  5
139
 10
-18.1303
 20
29.5377
 30
0.000000
  70
    32
  0
VERTEX
  8
0
  5
13A
 10
-18.0807
 20
29.7320
 30
0.000000
  70
    32
  0
VERTEX
  8
0
  5
13B
 10
-18.0291
 20
29.9259
 30
0.000000
  70
    32
  0
VERTEX
  8
0
  5
13C
 10
-17.9754
 20
30.1196
 30
0.000000
  70
    32
  0
VERTEX
  8
0
  5
13D
 10
-17.9197
 20
30.3129
 30
0.000000
  70
    32
  0
VERTEX
  8
0
  5
13E
 10
-17.8620
 20
30.5060
 30
0.000000
  70
    32
  0
VERTEX
  8
0
  5
13F
 10
-17.8023
 20
30.6987
 30
0.000000
  70
    32
  0
VERTEX
  8
0
  5
140
 10
-17.7407
 20
30.8910
 30
0.000000
  70
    32
  0
VERTEX
  8
0
  5
141
 10
-17.6770
 20
31.0830
 30
0.000000
  70
    32
  0
VERTEX
  8
0
  5
142
 10
-17.6113
 20
31.2747
 30
0.000000
  70
    32
  0
VERTEX
  8
0
  5
143
 10
-17.5437
 20
31.4659
 30
0.000000
  70
    32
  0
VERTEX
  8
0
  5
144
 10
-17.4741
 20
31.6568
 30
0.000000
  70
    32
  0
VERTEX
  8
0
  5
145
 10
-17.4026
 20
31.8473
 30
0.000000
  70
    32
  0
VERTEX
  8
0
  5
146
 10
-17.3291
 20
32.0374
 30
0.000000
  70
    32
  0
VERTEX
  8
0
  5
147
 10
-17.2536
 20
32.2271
 30
0.000000
  70
    32
  0
VERTEX
  8
0
  5
148
 10
-17.1762
 20
32.4164
 30
0.000000
  70
    32
  0
VERTEX
  8
0
  5
149
 10
-17.0969
 20
32.6052
 30
0.000000
  70
    32
  0
VERTEX
  8
0
  5
14A
 10
-17.0157
 20
32.7936
 30
0.000000
  70
    32
  0
VERTEX
  8
0
  5
14B
 10
-16.9325
 20
32.9815
 30
0.000000
  70
    32
  0
VERTEX
  8
0
  5
14C
 10
-16.8474
 20
33.1690
 30
0.000000
  70
    32
  0
VERTEX
  8
0
  5
14D
 10
-16.7604
 20
33.3560
 30
0.000000
  70
    32
  0
VERTEX
  8
0
  5
14E
 10
-16.6716
 20
33.5426
 30
0.000000
  70
    32
  0
VERTEX
  8
0
  5
14F
 10
-16.5808
 20
33.7286
 30
0.000000
  70
    32
  0
VERTEX
  8
0
  5
150
 10
-16.4881
 20
33.9141
 30
0.000000
  70
    32
  0
VERTEX
  8
0
  5
151
 10
-16.3936
 20
34.0992
 30
0.000000
  70
    32
  0
VERTEX
  8
0
  5
152
 10
-16.2972
 20
34.2837
 30
0.000000
  70
    32
  0
VERTEX
  8
0
  5
153
 10
-16.1989
 20
34.4676
 30
0.000000
  70
    32
  0
VERTEX
  8
0
  5
154
 10
-16.0988
 20
34.6511
 30
0.000000
  70
    32
  0
VERTEX
  8
0
  5
155
 10
-15.9968
 20
34.8339
 30
0.000000
  70
    32
  0
VERTEX
  8
0
  5
156
 10
-15.8930
 20
35.0163
 30
0.000000
  70
    32
  0
VERTEX
  8
0
  5
157
 10
-15.7873
 20
35.1980
 30
0.000000
  70
    32
  0
VERTEX
  8
0
  5
158
 10
-15.6798
 20
35.3792
 30
0.000000
  70
    32
  0
VERTEX
  8
0
  5
159
 10
-15.5705
 20
35.5597
 30
0.000000
  70
    32
  0
VERTEX
  8
0
  5
15A
 10
-15.4594
 20
35.7397
 30
0.000000
  70
    32
  0
VERTEX
  8
0
  5
15B
 10
-15.3465
 20
35.9191
 30
0.000000
  70
    32
  0
VERTEX
  8
0
  5
15C
 10
-15.2317
 20
36.0978
 30
0.000000
  70
    32
  0
VERTEX
  8
0
  5
15D
 10
-15.1152
 20
36.2759
 30
0.000000
  70
    32
  0
VERTEX
  8
0
  5
15E
 10
-14.9969
 20
36.4533
 30
0.000000
  70
    32
  0
VERTEX
  8
0
  5
15F
 10
-14.8768
 20
36.6301
 30
0.000000
  70
    32
  0
VERTEX
  8
0
  5
160
 10
-14.7549
 20
36.8063
 30
0.000000
  70
    32
  0
VERTEX
  8
0
  5
161
 10
-14.6312
 20
36.9818
 30
0.000000
  70
    32
  0
VERTEX
  8
0
  5
162
 10
-14.5058
 20
37.1565
 30
0.000000
  70
    32
  0
VERTEX
  8
0
  5
163
 10
-14.3786
 20
37.3306
 30
0.000000
  70
    32
  0
VERTEX
  8
0
  5
164
 10
-14.2497
 20
37.5040
 30
0.000000
  70
    32
  0
VERTEX
  8
0
  5
165
 10
-14.1190
 20
37.6767
 30
0.000000
  70
    32
  0
VERTEX
  8
0
  5
166
 10
-13.9867
 20
37.8487
 30
0.000000
  70
    32
  0
VERTEX
  8
0
  5
167
 10
-13.8525
 20
38.0199
 30
0.000000
  70
    32
  0
VERTEX
  8
0
  5
168
 10
-13.7167
 20
38.1904
 30
0.000000
  70
    32
  0
VERTEX
  8
0
  5
169
 10
-13.5791
 20
38.3601
 30
0.000000
  70
    32
  0
VERTEX
  8
0
  5
16A
 10
-13.4399
 20
38.5291
 30
0.000000
  70
    32
  0
VERTEX
  8
0
  5
16B
 10
-13.2989
 20
38.6972
 30
0.000000
  70
    32
  0
VERTEX
  8
0
  5
16C
 10
-13.1562
 20
38.8646
 30
0.000000
  70
    32
  0
VERTEX
  8
0
  5
16D
 10
-13.0119
 20
39.0313
 30
0.000000
  70
    32
  0
VERTEX
  8
0
  5
16E
 10
-12.8659
 20
39.1971
 30
0.000000
  70
    32
  0
VERTEX
  8
0
  5
16F
 10
-12.7182
 20
39.3621
 30
0.000000
  70
    32
  0
VERTEX
  8
0
  5
170
 10
-12.5688
 20
39.5262
 30
0.000000
  70
    32
  0
VERTEX
  8
0
  5
171
 10
-12.4178
 20
39.6896
 30
0.000000
  70
    32
  0
VERTEX
  8
0
  5
172
 10
-12.2651
 20
39.8521
 30
0.000000
  70
    32
  0
VERTEX
  8
0
  5
173
 10
-12.1108
 20
40.0137
 30
0.000000
  70
    32
  0
VERTEX
  8
0
  5
174
 10
-11.9548
 20
40.1745
 30
0.000000
  70
    32
  0
VERTEX
  8
0
  5
175
 10
-11.7972
 20
40.3344
 30
0.000000
  70
    32
  0
VERTEX
  8
0
  5
176
 10
-11.6380
 20
40.4934
 30
0.000000
  70
    32
  0
VERTEX
  8
0
  5
177
 10
-11.4771
 20
40.6515
 30
0.000000
  70
    32
  0
VERTEX
  8
0
  5
178
 10
-11.3147
 20
40.8087
 30
0.000000
  70
    32
  0
VERTEX
  8
0
  5
179
 10
-11.1506
 20
40.9650
 30
0.000000
  70
    32
  0
VERTEX
  8
0
  5
17A
 10
-10.9850
 20
41.1204
 30
0.000000
  70
    32
  0
VERTEX
  8
0
  5
17B
 10
-10.8177
 20
41.2749
 30
0.000000
  70
    32
  0
VERTEX
  8
0
  5
17C
 10
-10.6489
 20
41.4284
 30
0.000000
  70
    32
  0
VERTEX
  8
0
  5
17D
 10
-10.4785
 20
41.5809
 30
0.000000
  70
    32
  0
VERTEX
  8
0
  5
17E
 10
-10.3065
 20
41.7325
 30
0.000000
  70
    32
  0
VERTEX
  8
0
  5
17F
 10
-10.1330
 20
41.8831
 30
0.000000
  70
    32
  0
VERTEX
  8
0
  5
180
 10
-9.95785
 20
42.0327
 30
0.000000
  70
    32
  0
VERTEX
  8
0
  5
181
 10
-9.78119
 20
42.1814
 30
0.000000
  70
    32
  0
VERTEX
  8
0
  5
182
 10
-9.60300
 20
42.3290
 30
0.000000
  70
    32
  0
VERTEX
  8
0
  5
183
 10
-9.42326
 20
42.4756
 30
0.000000
  70
    32
  0
VERTEX
  8
0
  5
184
 10
-9.24200
 20
42.6212
 30
0.000000
  70
    32
  0
VERTEX
  8
0
  5
185
 10
-9.05921
 20
42.7657
 30
0.000000
  70
    32
  0
VERTEX
  8
0
  5
186
 10
-8.87491
 20
42.9092
 30
0.000000
  70
    32
  0
VERTEX
  8
0
  5
187
 10
-8.68909
 20
43.0517
 30
0.000000
  70
    32
  0
VERTEX
  8
0
  5
188
 10
-8.50178
 20
43.1931
 30
0.000000
  70
    32
  0
VERTEX
  8
0
  5
189
 10
-8.31296
 20
43.3334
 30
0.000000
  70
    32
  0
VERTEX
  8
0
  5
18A
 10
-8.12266
 20
43.4726
 30
0.000000
  70
    32
  0
VERTEX
  8
0
  5
18B
 10
-7.93088
 20
43.6107
 30
0.000000
  70
    32
  0
VERTEX
  8
0
  5
18C
 10
-7.73762
 20
43.7477
 30
0.000000
  70
    32
  0
VERTEX
  8
0
  5
18D
 10
-7.54289
 20
43.8836
 30
0.000000
  70
    32
  0
VERTEX
  8
0
  5
18E
 10
-7.34670
 20
44.0184
 30
0.000000
  70
    32
  0
VERTEX
  8
0
  5
18F
 10
-7.14905
 20
44.1521
 30
0.000000
  70
    32
  0
VERTEX
  8
0
  5
190
 10
-6.94996
 20
44.2846
 30
0.000000
  70
    32
  0
VERTEX
  8
0
  5
191
 10
-6.74942
 20
44.4159
 30
0.000000
  70
    32
  0
VERTEX
  8
0
  5
192
 10
-6.54746
 20
44.5461
 30
0.000000
  70
    32
  0
VERTEX
  8
0
  5
193
 10
-6.34406
 20
44.6751
 30
0.000000
  70
    32
  0
VERTEX
  8
0
  5
194
 10
-6.13925
 20
44.8029
 30
0.000000
  70
    32
  0
VERTEX
  8
0
  5
195
 10
-5.93308
 20
44.9295
 30
0.000000
  70
    32
  0
VERTEX
  8
0
  5
196
 10
-5.72557
 20
45.0549
 30
0.000000
  70
    32
  0
VERTEX
  8
0
  5
197
 10
-5.51673
 20
45.1790
 30
0.000000
  70
    32
  0
VERTEX
  8
0
  5
198
 10
-5.30659
 20
45.3019
 30
0.000000
  70
    32
  0
VERTEX
  8
0
  5
199
 10
-5.09515
 20
45.4236
 30
0.000000
  70
    32
  0
VERTEX
  8
0
  5
19A
 10
-4.88244
 20
45.5441
 30
0.000000
  70
    32
  0
VERTEX
  8
0
  5
19B
 10
-4.66845
 20
45.6633
 30
0.000000
  70
    32
  0
VERTEX
  8
0
  5
19C
 10
-4.45321
 20
45.7813
 30
0.000000
  70
    32
  0
VERTEX
  8
0
  5
19D
 10
-4.23674
 20
45.8980
 30
0.000000
  70
    32
  0
VERTEX
  8
0
  5
19E
 10
-4.01904
 20
46.0135
 30
0.000000
  70
    32
  0
VERTEX
  8
0
  5
19F
 10
-3.80014
 20
46.1278
 30
0.000000
  70
    32
  0
VERTEX
  8
0
  5
1A0
 10
-3.58003
 20
46.2408
 30
0.000000
  70
    32
  0
VERTEX
  8
0
  5
1A1
 10
-3.35875
 20
46.3525
 30
0.000000
  70
    32
  0
VERTEX
  8
0
  5
1A2
 10
-3.13631
 20
46.4630
 30
0.000000
  70
    32
  0
VERTEX
  8
0
  5
1A3
 10
-2.91271
 20
46.5723
 30
0.000000
  70
    32
  0
VERTEX
  8
0
  5
1A4
 10
-2.68798
 20
46.6802
 30
0.000000
  70
    32
  0
VERTEX
  8
0
  5
1A5
 10
-2.46212
 20
46.7869
 30
0.000000
  70
    32
  0
VERTEX
  8
0
  5
1A6
 10
-2.23516
 20
46.8924
 30
0.000000
  70
    32
  0
VERTEX
  8
0
  5
1A7
 10
-2.00710
 20
46.9966
 30
0.000000
  70
    32
  0
VERTEX
  8
0
  5
1A8
 10
-1.77796
 20
47.0994
 30
0.000000
  70
    32
  0
VERTEX
  8
0
  5
1A9
 10
-1.54776
 20
47.2011
 30
0.000000
  70
    32
  0
VERTEX
  8
0
  5
1AA
 10
-1.31651
 20
47.3014
 30
0.000000
  70
    32
  0
VERTEX
  8
0
  5
1AB
 10
-1.08422
 20
47.4005
 30
0.000000
  70
    32
  0
VERTEX
  8
0
  5
1AC
 10
-0.850912
 20
47.4983
 30
0.000000
  70
    32
  0
VERTEX
  8
0
  5
1AD
 10
-0.616596
 20
47.5948
 30
0.000000
  70
    32
  0
VERTEX
  8
0
  5
1AE
 10
-0.381287
 20
47.6900
 30
0.000000
  70
    32
  0
VERTEX
  8
0
  5
1AF
 10
-0.145000
 20
47.7839
 30
0.000000
  70
    32
  0
VERTEX
  8
0
  5
1B0
 10
0.0922515
 20
47.8765
 30
0.000000
  70
    32
  0
VERTEX
  8
0
  5
1B1
 10
0.330452
 20
47.9678
 30
0.000000
  70
    32
  0
VERTEX
  8
0
  5
1B2
 10
0.569587
 20
48.0578
 30
0.000000
  70
    32
  0
VERTEX
  8
0
  5
1B3
 10
0.809644
 20
48.1466
 30
0.000000
  70
    32
  0
VERTEX
  8
0
  5
1B4
 10
1.05061
 20
48.2340
 30
0.000000
  70
    32
  0
VERTEX
  8
0
  5
1B5
 10
1.29246
 20
48.3201
 30
0.000000
  70
    32
  0
VERTEX
  8
0
  5
1B6
 10
1.53519
 20
48.4049
 30
0.000000
  70
    32
  0
VERTEX
  8
0
  5
1B7
 10
1.77879
 20
48.4883
 30
0.000000
  70
    32
  0
VERTEX
  8
0
  5
1B8
 10
2.02323
 20
48.5705
 30
0.000000
  70
    32
  0
VERTEX
  8
0
  5
1B9
 10
2.26851
 20
48.6513
 30
0.000000
  70
    32
  0
VERTEX
  8
0
  5
1BA
 10
2.51460
 20
48.7308
 30
0.000000
  70
    32
  0
VERTEX
  8
0
  5
1BB
 10
2.76151
 20
48.8090
 30
0.000000
  70
    32
  0
VERTEX
  8
0
  5
1BC
 10
3.00920
 20
48.8859
 30
0.000000
  70
    32
  0
VERTEX
  8
0
  5
1BD
 10
3.25767
 20
48.9614
 30
0.000000
  70
    32
  0
VERTEX
  8
0
  5
1BE
 10
3.50690
 20
49.0356
 30
0.000000
  70
    32
  0
VERTEX
  8
0
  5
1BF
 10
3.75688
 20
49.1085
 30
0.000000
  70
    32
  0
VERTEX
  8
0
  5
1C0
 10
4.00760
 20
49.1800
 30
0.000000
  70
    32
  0
VERTEX
  8
0
  5
1C1
 10
4.25903
 20
49.2502
 30
0.000000
  70
    32
  0
VERTEX
  8
0
  5
1C2
 10
4.51117
 20
49.3190
 30
0.000000
  70
    32
  0
VERTEX
  8
0
  5
1C3
 10
4.76399
 20
49.3865
 30
0.000000
  70
    32
  0
VERTEX
  8
0
  5
1C4
 10
5.01750
 20
49.4526
 30
0.000000
  70
    32
  0
VERTEX
  8
0
  5
1C5
 10
5.27166
 20
49.5174
 30
0.000000
  70
    32
  0
VERTEX
  8
0
  5
1C6
 10
5.52647
 20
49.5808
 30
0.000000
  70
    32
  0
VERTEX
  8
0
  5
1C7
 10
5.78192
 20
49.6429
 30
0.000000
  70
    32
  0
VERTEX
  8
0
  5
1C8
 10
6.03798
 20
49.7036
 30
0.000000
  70
    32
  0
VERTEX
  8
0
  5
1C9
 10
6.29464
 20
49.7629
 30
0.000000
  70
    32
  0
VERTEX
  8
0
  5
1CA
 10
6.55190
 20
49.8209
 30
0.000000
  70
    32
  0
VERTEX
  8
0
  5
1CB
 10
6.80973
 20
49.8775
 30
0.000000
  70
    32
  0
VERTEX
  8
0
  5
1CC
 10
7.06812
 20
49.9327
 30
0.000000
  70
    32
  0
VERTEX
  8
0
  5
1CD
 10
7.32705
 20
49.9866
 30
0.000000
  70
    32
  0
VERTEX
  8
0
  5
1CE
 10
7.58652
 20
50.0391
 30
0.000000
  70
    32
  0
VERTEX
  8
0
  5
1CF
 10
7.84651
 20
50.0902
 30
0.000000
  70
    32
  0
VERTEX
  8
0
  5
1D0
 10
8.10700
 20
50.1399
 30
0.000000
  70
    32
  0
VERTEX
  8
0
  5
1D1
 10
8.36797
 20
50.1882
 30
0.000000
  70
    32
  0
VERTEX
  8
0
  5
1D2
 10
8.62942
 20
50.2351
 30
0.000000
  70
    32
  0
VERTEX
  8
0
  5
1D3
 10
8.89133
 20
50.2806
 30
0.000000
  70
    32
  0
VERTEX
  8
0
  5
1D4
 10
9.15369
 20
50.3248
 30
0.000000
  70
    32
  0
VERTEX
  8
0
  5
1D5
 10
9.41648
 20
50.3675
 30
0.000000
  70
    32
  0
VERTEX
  8
0
  5
1D6
 10
9.67968
 20
50.4089
 30
0.000000
  70
    32
  0
VERTEX
  8
0
  5
1D7
 10
9.94328
 20
50.4488
 30
0.000000
  70
    32
  0
VERTEX
  8
0
  5
1D8
 10
10.2073
 20
50.4873
 30
0.000000
  70
    32
  0
VERTEX
  8
0
  5
1D9
 10
10.4716
 20
50.5244
 30
0.000000
  70
    32
  0
VERTEX
  8
0
  5
1DA
 10
10.7364
 20
50.5602
 30
0.000000
  70
    32
  0
VERTEX
  8
0
  5
1DB
 10
11.0014
 20
50.5944
 30
0.000000
  70
    32
  0
VERTEX
  8
0
  5
1DC
 10
11.2668
 20
50.6273
 30
0.000000
  70
    32
  0
VERTEX
  8
0
  5
1DD
 10
11.5326
 20
50.6588
 30
0.000000
  70
    32
  0
VERTEX
  8
0
  5
1DE
 10
11.7986
 20
50.6888
 30
0.000000
  70
    32
  0
VERTEX
  8
0
  5
1DF
 10
12.0649
 20
50.7174
 30
0.000000
  70
    32
  0
VERTEX
  8
0
  5
1E0
 10
12.3314
 20
50.7446
 30
0.000000
  70
    32
  0
VERTEX
  8
0
  5
1E1
 10
12.5983
 20
50.7703
 30
0.000000
  70
    32
  0
VERTEX
  8
0
  5
1E2
 10
12.8654
 20
50.7946
 30
0.000000
  70
    32
  0
VERTEX
  8
0
  5
1E3
 10
13.1327
 20
50.8175
 30
0.000000
  70
    32
  0
VERTEX
  8
0
  5
1E4
 10
13.4002
 20
50.8389
 30
0.000000
  70
    32
  0
VERTEX
  8
0
  5
1E5
 10
13.6679
 20
50.8589
 30
0.000000
  70
    32
  0
VERTEX
  8
0
  5
1E6
 10
13.9358
 20
50.8774
 30
0.000000
  70
    32
  0
VERTEX
  8
0
  5
1E7
 10
14.2039
 20
50.8945
 30
0.000000
  70
    32
  0
VERTEX
  8
0
  5
1E8
 10
14.4721
 20
50.9102
 30
0.000000
  70
    32
  0
VERTEX
  8
0
  5
1E9
 10
14.7405
 20
50.9244
 30
0.000000
  70
    32
  0
VERTEX
  8
0
  5
1EA
 10
15.0090
 20
50.9371
 30
0.000000
  70
    32
  0
VERTEX
  8
0
  5
1EB
 10
15.2776
 20
50.9483
 30
0.000000
  70
    32
  0
VERTEX
  8
0
  5
1EC
 10
15.5463
 20
50.9582
 30
0.000000
  70
    32
  0
VERTEX
  8
0
  5
1ED
 10
15.8152
 20
50.9665
 30
0.000000
  70
    32
  0
VERTEX
  8
0
  5
1EE
 10
16.0840
 20
50.9734
 30
0.000000
  70
    32
  0
VERTEX
  8
0
  5
1EF
 10
16.3530
 20
50.9788
 30
0.000000
  70
    32
  0
VERTEX
  8
0
  5
1F0
 10
16.6219
 20
50.9827
 30
0.000000
  70
    32
  0
VERTEX
  8
0
  5
1F1
 10
16.8909
 20
50.9851
 30
0.000000
  70
    32
  0
VERTEX
  8
0
  5
1F2
 10
17.1600
 20
50.9861
 30
0.000000
  70
    32
  0
VERTEX
  8
0
  5
1F3
 10
17.4290
 20
50.9856
 30
0.000000
  70
    32
  0
VERTEX
  8
0
  5
1F4
 10
17.6980
 20
50.9836
 30
0.000000
  70
    32
  0
VERTEX
  8
0
  5
1F5
 10
17.9669
 20
50.9801
 30
0.000000
  70
    32
  0
VERTEX
  8
0
  5
1F6
 10
18.2359
 20
50.9751
 30
0.000000
  70
    32
  0
VERTEX
  8
0
  5
1F7
 10
18.5047
 20
50.9686
 30
0.000000
  70
    32
  0
VERTEX
  8
0
  5
1F8
 10
18.7735
 20
50.9607
 30
0.000000
  70
    32
  0
VERTEX
  8
0
  5
1F9
 10
19.0422
 20
50.9512
 30
0.000000
  70
    32
  0
VERTEX
  8
0
  5
1FA
 10
19.3108
 20
50.9402
 30
0.000000
  70
    32
  0
VERTEX
  8
0
  5
1FB
 10
19.5793
 20
50.9278
 30
0.000000
  70
    32
  0
VERTEX
  8
0
  5
1FC
 10
19.8477
 20
50.9138
 30
0.000000
  70
    32
  0
VERTEX
  8
0
  5
1FD
 10
20.1159
 20
50.8983
 30
0.000000
  70
    32
  0
VERTEX
  8
0
  5
1FE
 10
20.3839
 20
50.8813
 30
0.000000
  70
    32
  0
VERTEX
  8
0
  5
1FF
 10
20.6518
 20
50.8627
 30
0.000000
  70
    32
  0
VERTEX
  8
0
  5
200
 10
20.9195
 20
50.8427
 30
0.000000
  70
    32
  0
VERTEX
  8
0
  5
201
 10
21.1870
 20
50.8211
 30
0.000000
  70
    32
  0
VERTEX
  8
0
  5
202
 10
21.4542
 20
50.7981
 30
0.000000
  70
    32
  0
VERTEX
  8
0
  5
203
 10
21.7213
 20
50.7734
 30
0.000000
  70
    32
  0
VERTEX
  8
0
  5
204
 10
21.9880
 20
50.7473
 30
0.000000
  70
    32
  0
VERTEX
  8
0
  5
205
 10
22.2546
 20
50.7196
 30
0.000000
  70
    32
  0
VERTEX
  8
0
  5
206
 10
22.5208
 20
50.6904
 30
0.000000
  70
    32
  0
VERTEX
  8
0
  5
207
 10
22.7868
 20
50.6597
 30
0.000000
  70
    32
  0
VERTEX
  8
0
  5
208
 10
23.0524
 20
50.6274
 30
0.000000
  70
    32
  0
VERTEX
  8
0
  5
209
 10
23.3177
 20
50.5936
 30
0.000000
  70
    32
  0
VERTEX
  8
0
  5
20A
 10
23.5827
 20
50.5583
 30
0.000000
  70
    32
  0
VERTEX
  8
0
  5
20B
 10
23.8472
 20
50.5215
 30
0.000000
  70
    32
  0
VERTEX
  8
0
  5
20C
 10
24.1114
 20
50.4832
 30
0.000000
  70
    32
  0
VERTEX
  8
0
  5
20D
 10
24.3751
 20
50.4435
 30
0.000000
  70
    32
  0
VERTEX
  8
0
  5
20E
 10
24.6384
 20
50.4023
 30
0.000000
  70
    32
  0
VERTEX
  8
0
  5
20F
 10
24.9012
 20
50.3597
 30
0.000000
  70
    32
  0
VERTEX
  8
0
  5
210
 10
25.1636
 20
50.3156
 30
0.000000
  70
    32
  0
VERTEX
  8
0
  5
211
 10
25.4255
 20
50.2700
 30
0.000000
  70
    32
  0
VERTEX
  8
0
  5
212
 10
25.6870
 20
50.2230
 30
0.000000
  70
    32
  0
VERTEX
  8
0
  5
213
 10
25.9479
 20
50.1745
 30
0.000000
  70
    32
  0
VERTEX
  8
0
  5
214
 10
26.2083
 20
50.1246
 30
0.000000
  70
    32
  0
VERTEX
  8
0
  5
215
 10
26.4682
 20
50.0733
 30
0.000000
  70
    32
  0
VERTEX
  8
0
  5
216
 10
26.7276
 20
50.0205
 30
0.000000
  70
    32
  0
VERTEX
  8
0
  5
217
 10
26.9864
 20
49.9663
 30
0.000000
  70
    32
  0
VERTEX
  8
0
  5
218
 10
27.2446
 20
49.9107
 30
0.000000
  70
    32
  0
VERTEX
  8
0
  5
219
 10
27.5023
 20
49.8536
 30
0.000000
  70
    32
  0
VERTEX
  8
0
  5
21A
 10
27.7594
 20
49.7952
 30
0.000000
  70
    32
  0
VERTEX
  8
0
  5
21B
 10
28.0158
 20
49.7353
 30
0.000000
  70
    32
  0
VERTEX
  8
0
  5
21C
 10
28.2717
 20
49.6741
 30
0.000000
  70
    32
  0
VERTEX
  8
0
  5
21D
 10
28.5269
 20
49.6114
 30
0.000000
  70
    32
  0
VERTEX
  8
0
  5
21E
 10
28.7815
 20
49.5474
 30
0.000000
  70
    32
  0
VERTEX
  8
0
  5
21F
 10
29.0354
 20
49.4819
 30
0.000000
  70
    32
  0
VERTEX
  8
0
  5
220
 10
29.2886
 20
49.4151
 30
0.000000
  70
    32
  0
VERTEX
  8
0
  5
221
 10
29.5411
 20
49.3469
 30
0.000000
  70
    32
  0
VERTEX
  8
0
  5
222
 10
29.7930
 20
49.2773
 30
0.000000
  70
    32
  0
VERTEX
  8
0
  5
223
 10
30.0441
 20
49.2064
 30
0.000000
  70
    32
  0
VERTEX
  8
0
  5
224
 10
30.2945
 20
49.1341
 30
0.000000
  70
    32
  0
VERTEX
  8
0
  5
225
 10
30.5442
 20
49.0604
 30
0.000000
  70
    32
  0
VERTEX
  8
0
  5
226
 10
30.7931
 20
48.9854
 30
0.000000
  70
    32
  0
VERTEX
  8
0
  5
227
 10
31.0412
 20
48.9090
 30
0.000000
  70
    32
  0
VERTEX
  8
0
  5
228
 10
31.2886
 20
48.8313
 30
0.000000
  70
    32
  0
VERTEX
  8
0
  5
229
 10
31.5351
 20
48.7523
 30
0.000000
  70
    32
  0
VERTEX
  8
0
  5
22A
 10
31.7809
 20
48.6719
 30
0.000000
  70
    32
  0
VERTEX
  8
0
  5
22B
 10
32.0258
 20
48.5902
 30
0.000000
  70
    32
  0
VERTEX
  8
0
  5
22C
 10
32.2699
 20
48.5071
 30
0.000000
  70
    32
  0
VERTEX
  8
0
  5
22D
 10
32.5131
 20
48.4227
 30
0.000000
  70
    32
  0
VERTEX
  8
0
  5
22E
 10
32.7555
 20
48.3371
 30
0.000000
  70
    32
  0
VERTEX
  8
0
  5
22F
 10
32.9970
 20
48.2501
 30
0.000000
  70
    32
  0
VERTEX
  8
0
  5
230
 10
33.2376
 20
48.1618
 30
0.000000
  70
    32
  0
VERTEX
  8
0
  5
231
 10
33.4773
 20
48.0722
 30
0.000000
  70
    32
  0
VERTEX
  8
0
  5
232
 10
33.7161
 20
47.9812
 30
0.000000
  70
    32
  0
VERTEX
  8
0
  5
233
 10
33.9539
 20
47.8891
 30
0.000000
  70
    32
  0
VERTEX
  8
0
  5
234
 10
34.1908
 20
47.7956
 30
0.000000
  70
    32
  0
VERTEX
  8
0
  5
235
 10
34.4268
 20
47.7008
 30
0.000000
  70
    32
  0
VERTEX
  8
0
  5
236
 10
34.6618
 20
47.6048
 30
0.000000
  70
    32
  0
VERTEX
  8
0
  5
237
 10
34.8958
 20
47.5074
 30
0.000000
  70
    32
  0
VERTEX
  8
0
  5
238
 10
35.1288
 20
47.4088
 30
0.000000
  70
    32
  0
VERTEX
  8
0
  5
239
 10
35.3607
 20
47.3090
 30
0.000000
  70
    32
  0
VERTEX
  8
0
  5
23A
 10
35.5917
 20
47.2079
 30
0.000000
  70
    32
  0
VERTEX
  8
0
  5
23B
 10
35.8216
 20
47.1055
 30
0.000000
  70
    32
  0
VERTEX
  8
0
  5
23C
 10
36.0505
 20
47.0019
 30
0.000000
  70
    32
  0
VERTEX
  8
0
  5
23D
 10
36.2783
 20
46.8970
 30
0.000000
  70
    32
  0
VERTEX
  8
0
  5
23E
 10
36.5050
 20
46.7909
 30
0.000000
  70
    32
  0
VERTEX
  8
0
  5
23F
 10
36.7306
 20
46.6836
 30
0.000000
  70
    32
  0
VERTEX
  8
0
  5
240
 10
36.9551
 20
46.5750
 30
0.000000
  70
    32
  0
VERTEX
  8
0
  5
241
 10
37.1785
 20
46.4652
 30
0.000000
  70
    32
  0
VERTEX
  8
0
  5
242
 10
37.4008
 20
46.3542
 30
0.000000
  70
    32
  0
VERTEX
  8
0
  5
243
 10
37.6219
 20
46.2420
 30
0.000000
  70
    32
  0
VERTEX
  8
0
  5
244
 10
37.8419
 20
46.1285
 30
0.000000
  70
    32
  0
VERTEX
  8
0
  5
245
 10
38.0607
 20
46.0139
 30
0.000000
  70
    32
  0
VERTEX
  8
0
  5
246
 10
38.2782
 20
45.8980
 30
0.000000
  70
    32
  0
VERTEX
  8
0
  5
247
 10
38.4946
 20
45.7810
 30
0.000000
  70
    32
  0
VERTEX
  8
0
  5
248
 10
38.7098
 20
45.6627
 30
0.000000
  70
    32
  0
VERTEX
  8
0
  5
249
 10
38.9238
 20
45.5433
 30
0.000000
  70
    32
  0
VERTEX
  8
0
  5
24A
 10
39.1365
 20
45.4227
 30
0.000000
  70
    32
  0
VERTEX
  8
0
  5
24B
 10
39.3479
 20
45.3009
 30
0.000000
  70
    32
  0
VERTEX
  8
0
  5
24C
 10
39.5581
 20
45.1779
 30
0.000000
  70
    32
  0
VERTEX
  8
0
  5
24D
 10
39.7670
 20
45.0538
 30
0.000000
  70
    32
  0
VERTEX
  8
0
  5
24E
 10
39.9746
 20
44.9285
 30
0.000000
  70
    32
  0
VERTEX
  8
0
  5
24F
 10
40.1809
 20
44.8020
 30
0.000000
  70
    32
  0
VERTEX
  8
0
  5
250
 10
40.3858
 20
44.6744
 30
0.000000
  70
    32
  0
VERTEX
  8
0
  5
251
 10
40.5895
 20
44.5456
 30
0.000000
  70
    32
  0
VERTEX
  8
0
  5
252
 10
40.7918
 20
44.4157
 30
0.000000
  70
    32
  0
VERTEX
  8
0
  5
253
 10
40.9927
 20
44.2846
 30
0.000000
  70
    32
  0
VERTEX
  8
0
  5
254
 10
41.1922
 20
44.1525
 30
0.000000
  70
    32
  0
VERTEX
  8
0
  5
255
 10
41.3904
 20
44.0191
 30
0.000000
  70
    32
  0
VERTEX
  8
0
  5
256
 10
41.5871
 20
43.8847
 30
0.000000
  70
    32
  0
VERTEX
  8
0
  5
257
 10
41.7824
 20
43.7491
 30
0.000000
  70
    32
  0
VERTEX
  8
0
  5
258
 10
41.9763
 20
43.6124
 30
0.000000
  70
    32
  0
VERTEX
  8
0
  5
259
 10
42.1686
 20
43.4746
 30
0.000000
  70
    32
  0
VERTEX
  8
0
  5
25A
 10
42.3595
 20
43.3357
 30
0.000000
  70
    32
  0
VERTEX
  8
0
  5
25B
 10
42.5488
 20
43.1957
 30
0.000000
  70
    32
  0
VERTEX
  8
0
  5
25C
 10
42.7367
 20
43.0546
 30
0.000000
  70
    32
  0
VERTEX
  8
0
  5
25D
 10
42.9229
 20
42.9124
 30
0.000000
  70
    32
  0
VERTEX
  8
0
  5
25E
 10
43.1077
 20
42.7692
 30
0.000000
  70
    32
  0
VERTEX
  8
0
  5
25F
 10
43.2909
 20
42.6248
 30
0.000000
  70
    32
  0
VERTEX
  8
0
  5
260
 10
43.4726
 20
42.4795
 30
0.000000
  70
    32
  0
VERTEX
  8
0
  5
261
 10
43.6527
 20
42.3331
 30
0.000000
  70
    32
  0
VERTEX
  8
0
  5
262
 10
43.8313
 20
42.1857
 30
0.000000
  70
    32
  0
VERTEX
  8
0
  5
263
 10
44.0083
 20
42.0372
 30
0.000000
  70
    32
  0
VERTEX
  8
0
  5
264
 10
44.1838
 20
41.8878
 30
0.000000
  70
    32
  0
VERTEX
  8
0
  5
265
 10
44.3576
 20
41.7374
 30
0.000000
  70
    32
  0
VERTEX
  8
0
  5
266
 10
44.5299
 20
41.5859
 30
0.000000
  70
    32
  0
VERTEX
  8
0
  5
267
 10
44.7006
 20
41.4335
 30
0.000000
  70
    32
  0
VERTEX
  8
0
  5
268
 10
44.8697
 20
41.2802
 30
0.000000
  70
    32
  0
VERTEX
  8
0
  5
269
 10
45.0372
 20
41.1259
 30
0.000000
  70
    32
  0
VERTEX
  8
0
  5
26A
 10
45.2030
 20
40.9706
 30
0.000000
  70
    32
  0
VERTEX
  8
0
  5
26B
 10
45.3673
 20
40.8144
 30
0.000000
  70
    32
  0
VERTEX
  8
0
  5
26C
 10
45.5299
 20
40.6573
 30
0.000000
  70
    32
  0
VERTEX
  8
0
  5
26D
 10
45.6909
 20
40.4993
 30
0.000000
  70
    32
  0
VERTEX
  8
0
  5
26E
 10
45.8503
 20
40.3403
 30
0.000000
  70
    32
  0
VERTEX
  8
0
  5
26F
 10
46.0080
 20
40.1805
 30
0.000000
  70
    32
  0
VERTEX
  8
0
  5
270
 10
46.1641
 20
40.0198
 30
0.000000
  70
    32
  0
VERTEX
  8
0
  5
271
 10
46.3186
 20
39.8582
 30
0.000000
  70
    32
  0
VERTEX
  8
0
  5
272
 10
46.4713
 20
39.6957
 30
0.000000
  70
    32
  0
VERTEX
  8
0
  5
273
 10
46.6224
 20
39.5324
 30
0.000000
  70
    32
  0
VERTEX
  8
0
  5
274
 10
46.7719
 20
39.3683
 30
0.000000
  70
    32
  0
VERTEX
  8
0
  5
275
 10
46.9196
 20
39.2033
 30
0.000000
  70
    32
  0
VERTEX
  8
0
  5
276
 10
47.0657
 20
39.0375
 30
0.000000
  70
    32
  0
VERTEX
  8
0
  5
277
 10
47.2100
 20
38.8709
 30
0.000000
  70
    32
  0
VERTEX
  8
0
  5
278
 10
47.3527
 20
38.7035
 30
0.000000
  70
    32
  0
VERTEX
  8
0
  5
279
 10
47.4936
 20
38.5353
 30
0.000000
  70
    32
  0
VERTEX
  8
0
  5
27A
 10
47.6329
 20
38.3663
 30
0.000000
  70
    32
  0
VERTEX
  8
0
  5
27B
 10
47.7704
 20
38.1966
 30
0.000000
  70
    32
  0
VERTEX
  8
0
  5
27C
 10
47.9062
 20
38.0261
 30
0.000000
  70
    32
  0
VERTEX
  8
0
  5
27D
 10
48.0403
 20
37.8548
 30
0.000000
  70
    32
  0
VERTEX
  8
0
  5
27E
 10
48.1726
 20
37.6828
 30
0.000000
  70
    32
  0
VERTEX
  8
0
  5
27F
 10
48.3032
 20
37.5101
 30
0.000000
  70
    32
  0
VERTEX
  8
0
  5
280
 10
48.4320
 20
37.3367
 30
0.000000
  70
    32
  0
VERTEX
  8
0
  5
281
 10
48.5591
 20
37.1625
 30
0.000000
  70
    32
  0
VERTEX
  8
0
  5
282
 10
48.6844
 20
36.9877
 30
0.000000
  70
    32
  0
VERTEX
  8
0
  5
283
 10
48.8079
 20
36.8121
 30
0.000000
  70
    32
  0
VERTEX
  8
0
  5
284
 10
48.9297
 20
36.6359
 30
0.000000
  70
    32
  0
VERTEX
  8
0
  5
285
 10
49.0497
 20
36.4590
 30
0.000000
  70
    32
  0
VERTEX
  8
0
  5
286
 10
49.1679
 20
36.2815
 30
0.000000
  70
    32
  0
VERTEX
  8
0
  5
287
 10
49.2842
 20
36.1033
 30
0.000000
  70
    32
  0
VERTEX
  8
0
  5
288
 10
49.3988
 20
35.9245
 30
0.000000
  70
    32
  0
VERTEX
  8
0
  5
289
 10
49.5116
 20
35.7450
 30
0.000000
  70
    32
  0
VERTEX
  8
0
  5
28A
 10
49.6226
 20
35.5649
 30
0.000000
  70
    32
  0
VERTEX
  8
0
  5
28B
 10
49.7317
 20
35.3843
 30
0.000000
  70
    32
  0
VERTEX
  8
0
  5
28C
 10
49.8390
 20
35.2030
 30
0.000000
  70
    32
  0
VERTEX
  8
0
  5
28D
 10
49.9445
 20
35.0212
 30
0.000000
  70
    32
  0
VERTEX
  8
0
  5
28E
 10
50.0481
 20
34.8387
 30
0.000000
  70
    32
  0
VERTEX
  8
0
  5
28F
 10
50.1499
 20
34.6557
 30
0.000000
  70
    32
  0
VERTEX
  8
0
  5
290
 10
50.2498
 20
34.4722
 30
0.000000
  70
    32
  0
VERTEX
  8
0
  5
291
 10
50.3478
 20
34.2881
 30
0.000000
  70
    32
  0
VERTEX
  8
0
  5
292
 10
50.4440
 20
34.1035
 30
0.000000
  70
    32
  0
VERTEX
  8
0
  5
293
 10
50.5384
 20
33.9183
 30
0.000000
  70
    32
  0
VERTEX
  8
0
  5
294
 10
50.6308
 20
33.7327
 30
0.000000
  70
    32
  0
VERTEX
  8
0
  5
295
 10
50.7213
 20
33.5465
 30
0.000000
  70
    32
  0
VERTEX
  8
0
  5
296
 10
50.8100
 20
33.3599
 30
0.000000
  70
    32
  0
VERTEX
  8
0
  5
297
 10
50.8967
 20
33.1727
 30
0.000000
  70
    32
  0
VERTEX
  8
0
  5
298
 10
50.9816
 20
32.9851
 30
0.000000
  70
    32
  0
VERTEX
  8
0
  5
299
 10
51.0645
 20
32.7970
 30
0.000000
  70
    32
  0
VERTEX
  8
0
  5
29A
 10
51.1455
 20
32.6085
 30
0.000000
  70
    32
  0
VERTEX
  8
0
  5
29B
 10
51.2246
 20
32.4195
 30
0.000000
  70
    32
  0
VERTEX
  8
0
  5
29C
 10
51.3018
 20
32.2301
 30
0.000000
  70
    32
  0
VERTEX
  8
0
  5
29D
 10
51.3770
 20
32.0403
 30
0.000000
  70
    32
  0
VERTEX
  8
0
  5
29E
 10
51.4503
 20
31.8501
 30
0.000000
  70
    32
  0
VERTEX
  8
0
  5
29F
 10
51.5216
 20
31.6595
 30
0.000000
  70
    32
  0
VERTEX
  8
0
  5
2A0
 10
51.5909
 20
31.4684
 30
0.000000
  70
    32
  0
VERTEX
  8
0
  5
2A1
 10
51.6583
 20
31.2770
 30
0.000000
  70
    32
  0
VERTEX
  8
0
  5
2A2
 10
51.7237
 20
31.0853
 30
0.000000
  70
    32
  0
VERTEX
  8
0
  5
2A3
 10
51.7872
 20
30.8931
 30
0.000000
  70
    32
  0
VERTEX
  8
0
  5
2A4
 10
51.8486
 20
30.7007
 30
0.000000
  70
    32
  0
VERTEX
  8
0
  5
2A5
 10
51.9081
 20
30.5079
 30
0.000000
  70
    32
  0
VERTEX
  8
0
  5
2A6
 10
51.9656
 20
30.3147
 30
0.000000
  70
    32
  0
VERTEX
  8
0
  5
2A7
 10
52.0210
 20
30.1212
 30
0.000000
  70
    32
  0
VERTEX
  8
0
  5
2A8
 10
52.0745
 20
29.9275
 30
0.000000
  70
    32
  0
VERTEX
  8
0
  5
2A9
 10
52.1259
 20
29.7334
 30
0.000000
  70
    32
  0
VERTEX
  8
0
  5
2AA
 10
52.1754
 20
29.5390
 30
0.000000
  70
    32
  0
VERTEX
  8
0
  5
2AB
 10
52.2227
 20
29.3444
 30
0.000000
  70
    32
  0
VERTEX
  8
0
  5
2AC
 10
52.2681
 20
29.1495
 30
0.000000
  70
    32
  0
VERTEX
  8
0
  5
2AD
 10
52.3114
 20
28.9544
 30
0.000000
  70
    32
  0
VERTEX
  8
0
  5
2AE
 10
52.3526
 20
28.7590
 30
0.000000
  70
    32
  0
VERTEX
  8
0
  5
2AF
 10
52.3918
 20
28.5633
 30
0.000000
  70
    32
  0
VERTEX
  8
0
  5
2B0
 10
52.4290
 20
28.3674
 30
0.000000
  70
    32
  0
VERTEX
  8
0
  5
2B1
 10
52.4640
 20
28.1714
 30
0.000000
  70
    32
  0
VERTEX
  8
0
  5
2B2
 10
52.4970
 20
27.9751
 30
0.000000
  70
    32
  0
VERTEX
  8
0
  5
2B3
 10
52.5280
 20
27.7786
 30
0.000000
  70
    32
  0
VERTEX
  8
0
  5
2B4
 10
52.5568
 20
27.5819
 30
0.000000
  70
    32
  0
VERTEX
  8
0
  5
2B5
 10
52.5835
 20
27.3851
 30
0.000000
  70
    32
  0
VERTEX
  8
0
  5
2B6
 10
52.6081
 20
27.1881
 30
0.000000
  70
    32
  0
VERTEX
  8
0
  5
2B7
 10
52.6307
 20
26.9909
 30
0.000000
  70
    32
  0
VERTEX
  8
0
  5
2B8
 10
52.6511
 20
26.7936
 30
0.000000
  70
    32
  0
VERTEX
  8
0
  5
2B9
 10
52.6693
 20
26.5962
 30
0.000000
  70
    32
  0
VERTEX
  8
0
  5
2BA
 10
52.6855
 20
26.3986
 30
0.000000
  70
    32
  0
VERTEX
  8
0
  5
2BB
 10
52.6995
 20
26.2010
 30
0.000000
  70
    32
  0
VERTEX
  8
0
  5
2BC
 10
52.7114
 20
26.0032
 30
0.000000
  70
    32
  0
VERTEX
  8
0
  5
2BD
 10
52.7211
 20
25.8053
 30
0.000000
  70
    32
  0
VERTEX
  8
0
  5
2BE
 10
52.7287
 20
25.6074
 30
0.000000
  70
    32
  0
VERTEX
  8
0
  5
2BF
 10
52.7342
 20
25.4094
 30
0.000000
  70
    32
  0
VERTEX
  8
0
  5
2C0
 10
52.7374
 20
25.2113
 30
0.000000
  70
    32
  0
VERTEX
  8
0
  5
2C1
 10
52.7385
 20
25.0131
 30
0.000000
  70
    32
  0
SEQEND
  8
0
  5
2C2
  0
LINE
  5
B8
  8
0
 10
52.738510222026051
 20
25.013136614506561
 30
0.0
 11
52.738510222026051
 21
11.513136614506539
 31
0.0
  0
POLYLINE
  8
0
  5
2C3
  66
     1
 10
0.000000
 20
0.000000
 30
0.000000
  70
     8
  0
VERTEX
  8
0
  5
2C4
 10
52.7385
 20
11.5131
 30
0.000000
  70
    32
  0
VERTEX
  8
0
  5
2C5
 10
52.7380
 20
11.4298
 30
0.000000
  70
    32
  0
VERTEX
  8
0
  5
2C6
 10
52.7365
 20
11.3465
 30
0.000000
  70
    32
  0
VERTEX
  8
0
  5
2C7
 10
52.7339
 20
11.2632
 30
0.000000
  70
    32
  0
VERTEX
  8
0
  5
2C8
 10
52.7303
 20
11.1800
 30
0.000000
  70
    32
  0
VERTEX
  8
0
  5
2C9
 10
52.7257
 20
11.0969
 30
0.000000
  70
    32
  0
VERTEX
  8
0
  5
2CA
 10
52.7201
 20
11.0138
 30
0.000000
  70
    32
  0
VERTEX
  8
0
  5
2CB
 10
52.7135
 20
10.9309
 30
0.000000
  70
    32
  0
VERTEX
  8
0
  5
2CC
 10
52.7059
 20
10.8480
 30
0.000000
  70
    32
  0
VERTEX
  8
0
  5
2CD
 10
52.6973
 20
10.7651
 30
0.000000
  70
    32
  0
VERTEX
  8
0
  5
2CE
 10
52.6877
 20
10.6824
 30
0.000000
  70
    32
  0
VERTEX
  8
0
  5
2CF
 10
52.6771
 20
10.5997
 30
0.000000
  70
    32
  0
VERTEX
  8
0
  5
2D0
 10
52.6655
 20
10.5172
 30
0.000000
  70
    32
  0
VERTEX
  8
0
  5
2D1
 10
52.6529
 20
10.4347
 30
0.000000
  70
    32
  0
VERTEX
  8
0
  5
2D2
 10
52.6394
 20
10.3523
 30
0.000000
  70
    32
  0
VERTEX
  8
0
  5
2D3
 10
52.6248
 20
10.2700
 30
0.000000
  70
    32
  0
VERTEX
  8
0
  5
2D4
 10
52.6093
 20
10.1879
 30
0.000000
  70
    32
  0
VERTEX
  8
0
  5
2D5
 10
52.5928
 20
10.1058
 30
0.000000
  70
    32
  0
VERTEX
  8
0
  5
2D6
 10
52.5754
 20
10.0238
 30
0.000000
  70
    32
  0
VERTEX
  8
0
  5
2D7
 10
52.5569
 20
9.94198
 30
0.000000
  70
    32
  0
VERTEX
  8
0
  5
2D8
 10
52.5376
 20
9.86025
 30
0.000000
  70
    32
  0
VERTEX
  8
0
  5
2D9
 10
52.5172
 20
9.77863
 30
0.000000
  70
    32
  0
VERTEX
  8
0
  5
2DA
 10
52.4959
 20
9.69714
 30
0.000000
  70
    32
  0
VERTEX
  8
0
  5
2DB
 10
52.4737
 20
9.61577
 30
0.000000
  70
    32
  0
VERTEX
  8
0
  5
2DC
 10
52.4505
 20
9.53454
 30
0.000000
  70
    32
  0
VERTEX
  8
0
  5
2DD
 10
52.4263
 20
9.45343
 30
0.000000
  70
    32
  0
VERTEX
  8
0
  5
2DE
 10
52.4013
 20
9.37246
 30
0.000000
  70
    32
  0
VERTEX
  8
0
  5
2DF
 10
52.3753
 20
9.29163
 30
0.000000
  70
    32
  0
VERTEX
  8
0
  5
2E0
 10
52.3483
 20
9.21094
 30
0.000000
  70
    32
  0
VERTEX
  8
0
  5
2E1
 10
52.3204
 20
9.13040
 30
0.000000
  70
    32
  0
VERTEX
  8
0
  5
2E2
 10
52.2916
 20
9.05000
 30
0.000000
  70
    32
  0
VERTEX
  8
0
  5
2E3
 10
52.2619
 20
8.96976
 30
0.000000
  70
    32
  0
VERTEX
  8
0
  5
2E4
 10
52.2313
 20
8.88967
 30
0.000000
  70
    32
  0
VERTEX
  8
0
  5
2E5
 10
52.1997
 20
8.80974
 30
0.000000
  70
    32
  0
VERTEX
  8
0
  5
2E6
 10
52.1672
 20
8.72998
 30
0.000000
  70
    32
  0
VERTEX
  8
0
  5
2E7
 10
52.1339
 20
8.65037
 30
0.000000
  70
    32
  0
VERTEX
  8
0
  5
2E8
 10
52.0996
 20
8.57094
 30
0.000000
  70
    32
  0
VERTEX
  8
0
  5
2E9
 10
52.0644
 20
8.49168
 30
0.000000
  70
    32
  0
VERTEX
  8
0
  5
2EA
 10
52.0283
 20
8.41259
 30
0.000000
  70
    32
  0
VERTEX
  8
0
  5
2EB
 10
51.9913
 20
8.33368
 30
0.000000
  70
    32
  0
VERTEX
  8
0
  5
2EC
 10
51.9534
 20
8.25495
 30
0.000000
  70
    32
  0
VERTEX
  8
0
  5
2ED
 10
51.9147
 20
8.17641
 30
0.000000
  70
    32
  0
VERTEX
  8
0
  5
2EE
 10
51.8750
 20
8.09806
 30
0.000000
  70
    32
  0
VERTEX
  8
0
  5
2EF
 10
51.8345
 20
8.01989
 30
0.000000
  70
    32
  0
VERTEX
  8
0
  5
2F0
 10
51.7931
 20
7.94193
 30
0.000000
  70
    32
  0
VERTEX
  8
0
  5
2F1
 10
51.7508
 20
7.86416
 30
0.000000
  70
    32
  0
VERTEX
  8
0
  5
2F2
 10
51.7077
 20
7.78659
 30
0.000000
  70
    32
  0
VERTEX
  8
0
  5
2F3
 10
51.6637
 20
7.70922
 30
0.000000
  70
    32
  0
VERTEX
  8
0
  5
2F4
 10
51.6188
 20
7.63207
 30
0.000000
  70
    32
  0
VERTEX
  8
0
  5
2F5
 10
51.5731
 20
7.55512
 30
0.000000
  70
    32
  0
VERTEX
  8
0
  5
2F6
 10
51.5265
 20
7.47839
 30
0.000000
  70
    32
  0
VERTEX
  8
0
  5
2F7
 10
51.4791
 20
7.40188
 30
0.000000
  70
    32
  0
VERTEX
  8
0
  5
2F8
 10
51.4308
 20
7.32559
 30
0.000000
  70
    32
  0
VERTEX
  8
0
  5
2F9
 10
51.3816
 20
7.24952
 30
0.000000
  70
    32
  0
VERTEX
  8
0
  5
2FA
 10
51.3317
 20
7.17369
 30
0.000000
  70
    32
  0
VERTEX
  8
0
  5
2FB
 10
51.2808
 20
7.09808
 30
0.000000
  70
    32
  0
VERTEX
  8
0
  5
2FC
 10
51.2292
 20
7.02270
 30
0.000000
  70
    32
  0
VERTEX
  8
0
  5
2FD
 10
51.1767
 20
6.94757
 30
0.000000
  70
    32
  0
VERTEX
  8
0
  5
2FE
 10
51.1234
 20
6.87267
 30
0.000000
  70
    32
  0
VERTEX
  8
0
  5
2FF
 10
51.0693
 20
6.79802
 30
0.000000
  70
    32
  0
VERTEX
  8
0
  5
300
 10
51.0143
 20
6.72362
 30
0.000000
  70
    32
  0
VERTEX
  8
0
  5
301
 10
50.9586
 20
6.64947
 30
0.000000
  70
    32
  0
VERTEX
  8
0
  5
302
 10
50.9020
 20
6.57557
 30
0.000000
  70
    32
  0
VERTEX
  8
0
  5
303
 10
50.8446
 20
6.50193
 30
0.000000
  70
    32
  0
VERTEX
  8
0
  5
304
 10
50.7864
 20
6.42855
 30
0.000000
  70
    32
  0
VERTEX
  8
0
  5
305
 10
50.7274
 20
6.35543
 30
0.000000
  70
    32
  0
VERTEX
  8
0
  5
306
 10
50.6676
 20
6.28259
 30
0.000000
  70
    32
  0
VERTEX
  8
0
  5
307
 10
50.6070
 20
6.21001
 30
0.000000
  70
    32
  0
VERTEX
  8
0
  5
308
 10
50.5456
 20
6.13770
 30
0.000000
  70
    32
  0
VERTEX
  8
0
  5
309
 10
50.4834
 20
6.06568
 30
0.000000
  70
    32
  0
VERTEX
  8
0
  5
30A
 10
50.4204
 20
5.99393
 30
0.000000
  70
    32
  0
VERTEX
  8
0
  5
30B
 10
50.3567
 20
5.92247
 30
0.000000
  70
    32
  0
VERTEX
  8
0
  5
30C
 10
50.2922
 20
5.85129
 30
0.000000
  70
    32
  0
VERTEX
  8
0
  5
30D
 10
50.2269
 20
5.78041
 30
0.000000
  70
    32
  0
VERTEX
  8
0
  5
30E
 10
50.1608
 20
5.70982
 30
0.000000
  70
    32
  0
VERTEX
  8
0
  5
30F
 10
50.0939
 20
5.63952
 30
0.000000
  70
    32
  0
VERTEX
  8
0
  5
310
 10
50.0263
 20
5.56953
 30
0.000000
  70
    32
  0
VERTEX
  8
0
  5
311
 10
49.9580
 20
5.49984
 30
0.000000
  70
    32
  0
VERTEX
  8
0
  5
312
 10
49.8888
 20
5.43045
 30
0.000000
  70
    32
  0
VERTEX
  8
0
  5
313
 10
49.8190
 20
5.36138
 30
0.000000
  70
    32
  0
VERTEX
  8
0
  5
314
 10
49.7483
 20
5.29262
 30
0.000000
  70
    32
  0
VERTEX
  8
0
  5
315
 10
49.6770
 20
5.22417
 30
0.000000
  70
    32
  0
VERTEX
  8
0
  5
316
 10
49.6048
 20
5.15605
 30
0.000000
  70
    32
  0
VERTEX
  8
0
  5
317
 10
49.5320
 20
5.08825
 30
0.000000
  70
    32
  0
VERTEX
  8
0
  5
318
 10
49.4584
 20
5.02078
 30
0.000000
  70
    32
  0
VERTEX
  8
0
  5
319
 10
49.3841
 20
4.95363
 30
0.000000
  70
    32
  0
VERTEX
  8
0
  5
31A
 10
49.3090
 20
4.88682
 30
0.000000
  70
    32
  0
VERTEX
  8
0
  5
31B
 10
49.2332
 20
4.82035
 30
0.000000
  70
    32
  0
VERTEX
  8
0
  5
31C
 10
49.1567
 20
4.75422
 30
0.000000
  70
    32
  0
VERTEX
  8
0
  5
31D
 10
49.0795
 20
4.68843
 30
0.000000
  70
    32
  0
VERTEX
  8
0
  5
31E
 10
49.0016
 20
4.62298
 30
0.000000
  70
    32
  0
VERTEX
  8
0
  5
31F
 10
48.9229
 20
4.55789
 30
0.000000
  70
    32
  0
VERTEX
  8
0
  5
320
 10
48.8436
 20
4.49314
 30
0.000000
  70
    32
  0
VERTEX
  8
0
  5
321
 10
48.7635
 20
4.42876
 30
0.000000
  70
    32
  0
VERTEX
  8
0
  5
322
 10
48.6827
 20
4.36473
 30
0.000000
  70
    32
  0
VERTEX
  8
0
  5
323
 10
48.6013
 20
4.30107
 30
0.000000
  70
    32
  0
VERTEX
  8
0
  5
324
 10
48.5191
 20
4.23777
 30
0.000000
  70
    32
  0
VERTEX
  8
0
  5
325
 10
48.4363
 20
4.17485
 30
0.000000
  70
    32
  0
VERTEX
  8
0
  5
326
 10
48.3527
 20
4.11229
 30
0.000000
  70
    32
  0
VERTEX
  8
0
  5
327
 10
48.2685
 20
4.05011
 30
0.000000
  70
    32
  0
VERTEX
  8
0
  5
328
 10
48.1836
 20
3.98831
 30
0.000000
  70
    32
  0
VERTEX
  8
0
  5
329
 10
48.0980
 20
3.92690
 30
0.000000
  70
    32
  0
VERTEX
  8
0
  5
32A
 10
48.0118
 20
3.86587
 30
0.000000
  70
    32
  0
VERTEX
  8
0
  5
32B
 10
47.9249
 20
3.80523
 30
0.000000
  70
    32
  0
VERTEX
  8
0
  5
32C
 10
47.8373
 20
3.74498
 30
0.000000
  70
    32
  0
VERTEX
  8
0
  5
32D
 10
47.7491
 20
3.68513
 30
0.000000
  70
    32
  0
VERTEX
  8
0
  5
32E
 10
47.6602
 20
3.62567
 30
0.000000
  70
    32
  0
VERTEX
  8
0
  5
32F
 10
47.5706
 20
3.56662
 30
0.000000
  70
    32
  0
VERTEX
  8
0
  5
330
 10
47.4804
 20
3.50797
 30
0.000000
  70
    32
  0
VERTEX
  8
0
  5
331
 10
47.3895
 20
3.44974
 30
0.000000
  70
    32
  0
VERTEX
  8
0
  5
332
 10
47.2980
 20
3.39191
 30
0.000000
  70
    32
  0
VERTEX
  8
0
  5
333
 10
47.2059
 20
3.33451
 30
0.000000
  70
    32
  0
VERTEX
  8
0
  5
334
 10
47.1131
 20
3.27752
 30
0.000000
  70
    32
  0
VERTEX
  8
0
  5
335
 10
47.0197
 20
3.22095
 30
0.000000
  70
    32
  0
VERTEX
  8
0
  5
336
 10
46.9256
 20
3.16481
 30
0.000000
  70
    32
  0
VERTEX
  8
0
  5
337
 10
46.8310
 20
3.10909
 30
0.000000
  70
    32
  0
VERTEX
  8
0
  5
338
 10
46.7357
 20
3.05381
 30
0.000000
  70
    32
  0
VERTEX
  8
0
  5
339
 10
46.6398
 20
2.99897
 30
0.000000
  70
    32
  0
VERTEX
  8
0
  5
33A
 10
46.5432
 20
2.94456
 30
0.000000
  70
    32
  0
VERTEX
  8
0
  5
33B
 10
46.4461
 20
2.89060
 30
0.000000
  70
    32
  0
VERTEX
  8
0
  5
33C
 10
46.3483
 20
2.83708
 30
0.000000
  70
    32
  0
VERTEX
  8
0
  5
33D
 10
46.2499
 20
2.78401
 30
0.000000
  70
    32
  0
VERTEX
  8
0
  5
33E
 10
46.1510
 20
2.73139
 30
0.000000
  70
    32
  0
VERTEX
  8
0
  5
33F
 10
46.0514
 20
2.67922
 30
0.000000
  70
    32
  0
VERTEX
  8
0
  5
340
 10
45.9513
 20
2.62752
 30
0.000000
  70
    32
  0
VERTEX
  8
0
  5
341
 10
45.8505
 20
2.57627
 30
0.000000
  70
    32
  0
VERTEX
  8
0
  5
342
 10
45.7492
 20
2.52550
 30
0.000000
  70
    32
  0
VERTEX
  8
0
  5
343
 10
45.6472
 20
2.47519
 30
0.000000
  70
    32
  0
VERTEX
  8
0
  5
344
 10
45.5447
 20
2.42535
 30
0.000000
  70
    32
  0
VERTEX
  8
0
  5
345
 10
45.4416
 20
2.37598
 30
0.000000
  70
    32
  0
VERTEX
  8
0
  5
346
 10
45.3380
 20
2.32710
 30
0.000000
  70
    32
  0
VERTEX
  8
0
  5
347
 10
45.2338
 20
2.27869
 30
0.000000
  70
    32
  0
VERTEX
  8
0
  5
348
 10
45.1290
 20
2.23078
 30
0.000000
  70
    32
  0
VERTEX
  8
0
  5
349
 10
45.0236
 20
2.18334
 30
0.000000
  70
    32
  0
VERTEX
  8
0
  5
34A
 10
44.9177
 20
2.13641
 30
0.000000
  70
    32
  0
VERTEX
  8
0
  5
34B
 10
44.8112
 20
2.08996
 30
0.000000
  70
    32
  0
VERTEX
  8
0
  5
34C
 10
44.7042
 20
2.04401
 30
0.000000
  70
    32
  0
VERTEX
  8
0
  5
34D
 10
44.5966
 20
1.99857
 30
0.000000
  70
    32
  0
VERTEX
  8
0
  5
34E
 10
44.4885
 20
1.95360
 30
0.000000
  70
    32
  0
VERTEX
  8
0
  5
34F
 10
44.3799
 20
1.90912
 30
0.000000
  70
    32
  0
VERTEX
  8
0
  5
350
 10
44.2707
 20
1.86513
 30
0.000000
  70
    32
  0
VERTEX
  8
0
  5
351
 10
44.1611
 20
1.82161
 30
0.000000
  70
    32
  0
VERTEX
  8
0
  5
352
 10
44.0510
 20
1.77859
 30
0.000000
  70
    32
  0
VERTEX
  8
0
  5
353
 10
43.9404
 20
1.73604
 30
0.000000
  70
    32
  0
VERTEX
  8
0
  5
354
 10
43.8293
 20
1.69399
 30
0.000000
  70
    32
  0
VERTEX
  8
0
  5
355
 10
43.7177
 20
1.65243
 30
0.000000
  70
    32
  0
VERTEX
  8
0
  5
356
 10
43.6057
 20
1.61135
 30
0.000000
  70
    32
  0
VERTEX
  8
0
  5
357
 10
43.4932
 20
1.57076
 30
0.000000
  70
    32
  0
VERTEX
  8
0
  5
358
 10
43.3803
 20
1.53067
 30
0.000000
  70
    32
  0
VERTEX
  8
0
  5
359
 10
43.2669
 20
1.49107
 30
0.000000
  70
    32
  0
VERTEX
  8
0
  5
35A
 10
43.1530
 20
1.45196
 30
0.000000
  70
    32
  0
VERTEX
  8
0
  5
35B
 10
43.0387
 20
1.41335
 30
0.000000
  70
    32
  0
VERTEX
  8
0
  5
35C
 10
42.9240
 20
1.37523
 30
0.000000
  70
    32
  0
VERTEX
  8
0
  5
35D
 10
42.8088
 20
1.33761
 30
0.000000
  70
    32
  0
VERTEX
  8
0
  5
35E
 10
42.6933
 20
1.30048
 30
0.000000
  70
    32
  0
VERTEX
  8
0
  5
35F
 10
42.5773
 20
1.26386
 30
0.000000
  70
    32
  0
VERTEX
  8
0
  5
360
 10
42.4609
 20
1.22773
 30
0.000000
  70
    32
  0
VERTEX
  8
0
  5
361
 10
42.3440
 20
1.19211
 30
0.000000
  70
    32
  0
VERTEX
  8
0
  5
362
 10
42.2268
 20
1.15699
 30
0.000000
  70
    32
  0
VERTEX
  8
0
  5
363
 10
42.1092
 20
1.12237
 30
0.000000
  70
    32
  0
VERTEX
  8
0
  5
364
 10
41.9913
 20
1.08825
 30
0.000000
  70
    32
  0
VERTEX
  8
0
  5
365
 10
41.8729
 20
1.05464
 30
0.000000
  70
    32
  0
VERTEX
  8
0
  5
366
 10
41.7542
 20
1.02154
 30
0.000000
  70
    32
  0
VERTEX
  8
0
  5
367
 10
41.6351
 20
0.988937
 30
0.000000
  70
    32
  0
VERTEX
  8
0
  5
368
 10
41.5156
 20
0.956847
 30
0.000000
  70
    32
  0
VERTEX
  8
0
  5
369
 10
41.3958
 20
0.925267
 30
0.000000
  70
    32
  0
VERTEX
  8
0
  5
36A
 10
41.2756
 20
0.894196
 30
0.000000
  70
    32
  0
VERTEX
  8
0
  5
36B
 10
41.1551
 20
0.863637
 30
0.000000
  70
    32
  0
VERTEX
  8
0
  5
36C
 10
41.0342
 20
0.833589
 30
0.000000
  70
    32
  0
VERTEX
  8
0
  5
36D
 10
40.9130
 20
0.804055
 30
0.000000
  70
    32
  0
VERTEX
  8
0
  5
36E
 10
40.7915
 20
0.775035
 30
0.000000
  70
    32
  0
VERTEX
  8
0
  5
36F
 10
40.6697
 20
0.746531
 30
0.000000
  70
    32
  0
VERTEX
  8
0
  5
370
 10
40.5475
 20
0.718543
 30
0.000000
  70
    32
  0
VERTEX
  8
0
  5
371
 10
40.4251
 20
0.691072
 30
0.000000
  70
    32
  0
VERTEX
  8
0
  5
372
 10
40.3023
 20
0.664119
 30
0.000000
  70
    32
  0
VERTEX
  8
0
  5
373
 10
40.1793
 20
0.637686
 30
0.000000
  70
    32
  0
VERTEX
  8
0
  5
374
 10
40.0559
 20
0.611773
 30
0.000000
  70
    32
  0
VERTEX
  8
0
  5
375
 10
39.9323
 20
0.586382
 30
0.000000
  70
    32
  0
VERTEX
  8
0
  5
376
 10
39.8084
 20
0.561514
 30
0.000000
  70
    32
  0
VERTEX
  8
0
  5
377
 10
39.6842
 20
0.537168
 30
0.000000
  70
    32
  0
VERTEX
  8
0
  5
378
 10
39.5598
 20
0.513348
 30
0.000000
  70
    32
  0
VERTEX
  8
0
  5
379
 10
39.4351
 20
0.490053
 30
0.000000
  70
    32
  0
VERTEX
  8
0
  5
37A
 10
39.3101
 20
0.467285
 30
0.000000
  70
    32
  0
VERTEX
  8
0
  5
37B
 10
39.1849
 20
0.445044
 30
0.000000
  70
    32
  0
VERTEX
  8
0
  5
37C
 10
39.0594
 20
0.423332
 30
0.000000
  70
    32
  0
VERTEX
  8
0
  5
37D
 10
38.9338
 20
0.402150
 30
0.000000
  70
    32
  0
VERTEX
  8
0
  5
37E
 10
38.8078
 20
0.381499
 30
0.000000
  70
    32
  0
VERTEX
  8
0
  5
37F
 10
38.6817
 20
0.361379
 30
0.000000
  70
    32
  0
VERTEX
  8
0
  5
380
 10
38.5554
 20
0.341793
 30
0.000000
  70
    32
  0
VERTEX
  8
0
  5
381
 10
38.4288
 20
0.322740
 30
0.000000
  70
    32
  0
VERTEX
  8
0
  5
382
 10
38.3020
 20
0.304222
 30
0.000000
  70
    32
  0
VERTEX
  8
0
  5
383
 10
38.1750
 20
0.286240
 30
0.000000
  70
    32
  0
VERTEX
  8
0
  5
384
 10
38.0479
 20
0.268796
 30
0.000000
  70
    32
  0
VERTEX
  8
0
  5
385
 10
37.9205
 20
0.251889
 30
0.000000
  70
    32
  0
VERTEX
  8
0
  5
386
 10
37.7930
 20
0.235521
 30
0.000000
  70
    32
  0
VERTEX
  8
0
  5
387
 10
37.6653
 20
0.219693
 30
0.000000
  70
    32
  0
VERTEX
  8
0
  5
388
 10
37.5374
 20
0.204407
 30
0.000000
  70
    32
  0
VERTEX
  8
0
  5
389
 10
37.4093
 20
0.189663
 30
0.000000
  70
    32
  0
VERTEX
  8
0
  5
38A
 10
37.2811
 20
0.175462
 30
0.000000
  70
    32
  0
VERTEX
  8
0
  5
38B
 10
37.1528
 20
0.161805
 30
0.000000
  70
    32
  0
VERTEX
  8
0
  5
38C
 10
37.0243
 20
0.148693
 30
0.000000
  70
    32
  0
VERTEX
  8
0
  5
38D
 10
36.8956
 20
0.136128
 30
0.000000
  70
    32
  0
VERTEX
  8
0
  5
38E
 10
36.7669
 20
0.124110
 30
0.000000
  70
    32
  0
VERTEX
  8
0
  5
38F
 10
36.6380
 20
0.112640
 30
0.000000
  70
    32
  0
VERTEX
  8
0
  5
390
 10
36.5089
 20
0.101720
 30
0.000000
  70
    32
  0
VERTEX
  8
0
  5
391
 10
36.3798
 20
0.0913502
 30
0.000000
  70
    32
  0
VERTEX
  8
0
  5
392
 10
36.2506
 20
0.0815320
 30
0.000000
  70
    32
  0
VERTEX
  8
0
  5
393
 10
36.1212
 20
0.0722662
 30
0.000000
  70
    32
  0
VERTEX
  8
0
  5
394
 10
35.9917
 20
0.0635540
 30
0.000000
  70
    32
  0
VERTEX
  8
0
  5
395
 10
35.8622
 20
0.0553964
 30
0.000000
  70
    32
  0
VERTEX
  8
0
  5
396
 10
35.7326
 20
0.0477944
 30
0.000000
  70
    32
  0
VERTEX
  8
0
  5
397
 10
35.6029
 20
0.0407490
 30
0.000000
  70
    32
  0
VERTEX
  8
0
  5
398
 10
35.4731
 20
0.0342614
 30
0.000000
  70
    32
  0
VERTEX
  8
0
  5
399
 10
35.3432
 20
0.0283324
 30
0.000000
  70
    32
  0
VERTEX
  8
0
  5
39A
 10
35.2133
 20
0.0229632
 30
0.000000
  70
    32
  0
VERTEX
  8
0
  5
39B
 10
35.0834
 20
0.0181548
 30
0.000000
  70
    32
  0
VERTEX
  8
0
  5
39C
 10
34.9533
 20
0.0139082
 30
0.000000
  70
    32
  0
VERTEX
  8
0
  5
39D
 10
34.8233
 20
0.0102245
 30
0.000000
  70
    32
  0
VERTEX
  8
0
  5
39E
 10
34.6932
 20
0.00710465
 30
0.000000
  70
    32
  0
VERTEX
  8
0
  5
39F
 10
34.5630
 20
0.00454974
 30
0.000000
  70
    32
  0
VERTEX
  8
0
  5
3A0
 10
34.4329
 20
0.00256078
 30
0.000000
  70
    32
  0
VERTEX
  8
0
  5
3A1
 10
34.3027
 20
0.00113881
 30
0.000000
  70
    32
  0
VERTEX
  8
0
  5
3A2
 10
34.1725
 20
0.000284876
 30
0.000000
  70
    32
  0
VERTEX
  8
0
  5
3A3
 10
34.0423
 20
-8.90000e-015
 30
0.000000
  70
    32
  0
SEQEND
  8
0
  5
3A4
  0
LINE
  5
BA
  8
0
 10
0.0
 20
0.0
 30
0.0
 11
34.042329248164378
 21
-0.0000000000000022
 31
0.0
  0
POLYLINE
  8
0
  5
3A5
  66
     1
 10
0.000000
 20
0.000000
 30
0.000000
  70
     8
  0
VERTEX
  8
0
  5
3A6
 10
-18.6962
 20
11.5131
 30
0.000000
  70
    32
  0
VERTEX
  8
0
  5
3A7
 10
-18.6959
 20
11.4549
 30
0.000000
  70
    32
  0
VERTEX
  8
0
  5
3A8
 10
-18.6952
 20
11.3966
 30
0.000000
  70
    32
  0
VERTEX
  8
0
  5
3A9
 10
-18.6940
 20
11.3383
 30
0.000000
  70
    32
  0
VERTEX
  8
0
  5
3AA
 10
-18.6924
 20
11.2800
 30
0.000000
  70
    32
  0
VERTEX
  8
0
  5
3AB
 10
-18.6903
 20
11.2217
 30
0.000000
  70
    32
  0
VERTEX
  8
0
  5
3AC
 10
-18.6876
 20
11.1634
 30
0.000000
  70
    32
  0
VERTEX
  8
0
  5
3AD
 10
-18.6846
 20
11.1052
 30
0.000000
  70
    32
  0
VERTEX
  8
0
  5
3AE
 10
-18.6810
 20
11.0469
 30
0.000000
  70
    32
  0
VERTEX
  8
0
  5
3AF
 10
-18.6770
 20
10.9887
 30
0.000000
  70
    32
  0
VERTEX
  8
0
  5
3B0
 10
-18.6724
 20
10.9305
 30
0.000000
  70
    32
  0
VERTEX
  8
0
  5
3B1
 10
-18.6674
 20
10.8724
 30
0.000000
  70
    32
  0
VERTEX
  8
0
  5
3B2
 10
-18.6619
 20
10.8143
 30
0.000000
  70
    32
  0
VERTEX
  8
0
  5
3B3
 10
-18.6559
 20
10.7562
 30
0.000000
  70
    32
  0
VERTEX
  8
0
  5
3B4
 10
-18.6494
 20
10.6982
 30
0.000000
  70
    32
  0
VERTEX
  8
0
  5
3B5
 10
-18.6425
 20
10.6402
 30
0.000000
  70
    32
  0
VERTEX
  8
0
  5
3B6
 10
-18.6350
 20
10.5822
 30
0.000000
  70
    32
  0
VERTEX
  8
0
  5
3B7
 10
-18.6271
 20
10.5243
 30
0.000000
  70
    32
  0
VERTEX
  8
0
  5
3B8
 10
-18.6187
 20
10.4665
 30
0.000000
  70
    32
  0
VERTEX
  8
0
  5
3B9
 10
-18.6098
 20
10.4087
 30
0.000000
  70
    32
  0
VERTEX
  8
0
  5
3BA
 10
-18.6004
 20
10.3509
 30
0.000000
  70
    32
  0
VERTEX
  8
0
  5
3BB
 10
-18.5905
 20
10.2932
 30
0.000000
  70
    32
  0
VERTEX
  8
0
  5
3BC
 10
-18.5802
 20
10.2355
 30
0.000000
  70
    32
  0
VERTEX
  8
0
  5
3BD
 10
-18.5694
 20
10.1779
 30
0.000000
  70
    32
  0
VERTEX
  8
0
  5
3BE
 10
-18.5581
 20
10.1203
 30
0.000000
  70
    32
  0
VERTEX
  8
0
  5
3BF
 10
-18.5463
 20
10.0628
 30
0.000000
  70
    32
  0
VERTEX
  8
0
  5
3C0
 10
-18.5341
 20
10.0054
 30
0.000000
  70
    32
  0
VERTEX
  8
0
  5
3C1
 10
-18.5214
 20
9.94795
 30
0.000000
  70
    32
  0
VERTEX
  8
0
  5
3C2
 10
-18.5083
 20
9.89060
 30
0.000000
  70
    32
  0
VERTEX
  8
0
  5
3C3
 10
-18.4946
 20
9.83331
 30
0.000000
  70
    32
  0
VERTEX
  8
0
  5
3C4
 10
-18.4805
 20
9.77608
 30
0.000000
  70
    32
  0
VERTEX
  8
0
  5
3C5
 10
-18.4659
 20
9.71891
 30
0.000000
  70
    32
  0
VERTEX
  8
0
  5
3C6
 10
-18.4509
 20
9.66180
 30
0.000000
  70
    32
  0
VERTEX
  8
0
  5
3C7
 10
-18.4354
 20
9.60475
 30
0.000000
  70
    32
  0
VERTEX
  8
0
  5
3C8
 10
-18.4194
 20
9.54777
 30
0.000000
  70
    32
  0
VERTEX
  8
0
  5
3C9
 10
-18.4030
 20
9.49085
 30
0.000000
  70
    32
  0
VERTEX
  8
0
  5
3CA
 10
-18.3861
 20
9.43399
 30
0.000000
  70
    32
  0
VERTEX
  8
0
  5
3CB
 10
-18.3688
 20
9.37721
 30
0.000000
  70
    32
  0
VERTEX
  8
0
  5
3CC
 10
-18.3509
 20
9.32049
 30
0.000000
  70
    32
  0
VERTEX
  8
0
  5
3CD
 10
-18.3327
 20
9.26384
 30
0.000000
  70
    32
  0
VERTEX
  8
0
  5
3CE
 10
-18.3140
 20
9.20726
 30
0.000000
  70
    32
  0
VERTEX
  8
0
  5
3CF
 10
-18.2948
 20
9.15075
 30
0.000000
  70
    32
  0
VERTEX
  8
0
  5
3D0
 10
-18.2752
 20
9.09432
 30
0.000000
  70
    32
  0
VERTEX
  8
0
  5
3D1
 10
-18.2551
 20
9.03796
 30
0.000000
  70
    32
  0
VERTEX
  8
0
  5
3D2
 10
-18.2345
 20
8.98167
 30
0.000000
  70
    32
  0
VERTEX
  8
0
  5
3D3
 10
-18.2135
 20
8.92546
 30
0.000000
  70
    32
  0
VERTEX
  8
0
  5
3D4
 10
-18.1921
 20
8.86933
 30
0.000000
  70
    32
  0
VERTEX
  8
0
  5
3D5
 10
-18.1702
 20
8.81328
 30
0.000000
  70
    32
  0
VERTEX
  8
0
  5
3D6
 10
-18.1479
 20
8.75731
 30
0.000000
  70
    32
  0
VERTEX
  8
0
  5
3D7
 10
-18.1251
 20
8.70142
 30
0.000000
  70
    32
  0
VERTEX
  8
0
  5
3D8
 10
-18.1019
 20
8.64561
 30
0.000000
  70
    32
  0
VERTEX
  8
0
  5
3D9
 10
-18.0782
 20
8.58988
 30
0.000000
  70
    32
  0
VERTEX
  8
0
  5
3DA
 10
-18.0541
 20
8.53424
 30
0.000000
  70
    32
  0
VERTEX
  8
0
  5
3DB
 10
-18.0296
 20
8.47869
 30
0.000000
  70
    32
  0
VERTEX
  8
0
  5
3DC
 10
-18.0046
 20
8.42322
 30
0.000000
  70
    32
  0
VERTEX
  8
0
  5
3DD
 10
-17.9791
 20
8.36784
 30
0.000000
  70
    32
  0
VERTEX
  8
0
  5
3DE
 10
-17.9533
 20
8.31255
 30
0.000000
  70
    32
  0
VERTEX
  8
0
  5
3DF
 10
-17.9270
 20
8.25735
 30
0.000000
  70
    32
  0
VERTEX
  8
0
  5
3E0
 10
-17.9002
 20
8.20224
 30
0.000000
  70
    32
  0
VERTEX
  8
0
  5
3E1
 10
-17.8731
 20
8.14723
 30
0.000000
  70
    32
  0
VERTEX
  8
0
  5
3E2
 10
-17.8455
 20
8.09231
 30
0.000000
  70
    32
  0
VERTEX
  8
0
  5
3E3
 10
-17.8174
 20
8.03748
 30
0.000000
  70
    32
  0
VERTEX
  8
0
  5
3E4
 10
-17.7889
 20
7.98276
 30
0.000000
  70
    32
  0
VERTEX
  8
0
  5
3E5
 10
-17.7600
 20
7.92813
 30
0.000000
  70
    32
  0
VERTEX
  8
0
  5
3E6
 10
-17.7307
 20
7.87359
 30
0.000000
  70
    32
  0
VERTEX
  8
0
  5
3E7
 10
-17.7009
 20
7.81916
 30
0.000000
  70
    32
  0
VERTEX
  8
0
  5
3E8
 10
-17.6708
 20
7.76483
 30
0.000000
  70
    32
  0
VERTEX
  8
0
  5
3E9
 10
-17.6402
 20
7.71060
 30
0.000000
  70
    32
  0
VERTEX
  8
0
  5
3EA
 10
-17.6091
 20
7.65648
 30
0.000000
  70
    32
  0
VERTEX
  8
0
  5
3EB
 10
-17.5777
 20
7.60246
 30
0.000000
  70
    32
  0
VERTEX
  8
0
  5
3EC
 10
-17.5458
 20
7.54854
 30
0.000000
  70
    32
  0
VERTEX
  8
0
  5
3ED
 10
-17.5135
 20
7.49474
 30
0.000000
  70
    32
  0
VERTEX
  8
0
  5
3EE
 10
-17.4808
 20
7.44104
 30
0.000000
  70
    32
  0
VERTEX
  8
0
  5
3EF
 10
-17.4476
 20
7.38745
 30
0.000000
  70
    32
  0
VERTEX
  8
0
  5
3F0
 10
-17.4141
 20
7.33397
 30
0.000000
  70
    32
  0
VERTEX
  8
0
  5
3F1
 10
-17.3801
 20
7.28060
 30
0.000000
  70
    32
  0
VERTEX
  8
0
  5
3F2
 10
-17.3457
 20
7.22735
 30
0.000000
  70
    32
  0
VERTEX
  8
0
  5
3F3
 10
-17.3109
 20
7.17421
 30
0.000000
  70
    32
  0
VERTEX
  8
0
  5
3F4
 10
-17.2757
 20
7.12119
 30
0.000000
  70
    32
  0
VERTEX
  8
0
  5
3F5
 10
-17.2401
 20
7.06828
 30
0.000000
  70
    32
  0
VERTEX
  8
0
  5
3F6
 10
-17.2040
 20
7.01549
 30
0.000000
  70
    32
  0
VERTEX
  8
0
  5
3F7
 10
-17.1676
 20
6.96282
 30
0.000000
  70
    32
  0
VERTEX
  8
0
  5
3F8
 10
-17.1307
 20
6.91027
 30
0.000000
  70
    32
  0
VERTEX
  8
0
  5
3F9
 10
-17.0935
 20
6.85784
 30
0.000000
  70
    32
  0
VERTEX
  8
0
  5
3FA
 10
-17.0558
 20
6.80553
 30
0.000000
  70
    32
  0
VERTEX
  8
0
  5
3FB
 10
-17.0177
 20
6.75335
 30
0.000000
  70
    32
  0
VERTEX
  8
0
  5
3FC
 10
-16.9793
 20
6.70129
 30
0.000000
  70
    32
  0
VERTEX
  8
0
  5
3FD
 10
-16.9404
 20
6.64936
 30
0.000000
  70
    32
  0
VERTEX
  8
0
  5
3FE
 10
-16.9011
 20
6.59755
 30
0.000000
  70
    32
  0
VERTEX
  8
0
  5
3FF
 10
-16.8614
 20
6.54588
 30
0.000000
  70
    32
  0
VERTEX
  8
0
  5
400
 10
-16.8213
 20
6.49433
 30
0.000000
  70
    32
  0
VERTEX
  8
0
  5
401
 10
-16.7809
 20
6.44291
 30
0.000000
  70
    32
  0
VERTEX
  8
0
  5
402
 10
-16.7400
 20
6.39163
 30
0.000000
  70
    32
  0
VERTEX
  8
0
  5
403
 10
-16.6987
 20
6.34048
 30
0.000000
  70
    32
  0
VERTEX
  8
0
  5
404
 10
-16.6571
 20
6.28946
 30
0.000000
  70
    32
  0
VERTEX
  8
0
  5
405
 10
-16.6150
 20
6.23858
 30
0.000000
  70
    32
  0
VERTEX
  8
0
  5
406
 10
-16.5726
 20
6.18783
 30
0.000000
  70
    32
  0
VERTEX
  8
0
  5
407
 10
-16.5297
 20
6.13723
 30
0.000000
  70
    32
  0
VERTEX
  8
0
  5
408
 10
-16.4865
 20
6.08676
 30
0.000000
  70
    32
  0
VERTEX
  8
0
  5
409
 10
-16.4429
 20
6.03643
 30
0.000000
  70
    32
  0
VERTEX
  8
0
  5
40A
 10
-16.3989
 20
5.98624
 30
0.000000
  70
    32
  0
VERTEX
  8
0
  5
40B
 10
-16.3545
 20
5.93620
 30
0.000000
  70
    32
  0
VERTEX
  8
0
  5
40C
 10
-16.3097
 20
5.88630
 30
0.000000
  70
    32
  0
VERTEX
  8
0
  5
40D
 10
-16.2645
 20
5.83654
 30
0.000000
  70
    32
  0
VERTEX
  8
0
  5
40E
 10
-16.2190
 20
5.78693
 30
0.000000
  70
    32
  0
VERTEX
  8
0
  5
40F
 10
-16.1731
 20
5.73747
 30
0.000000
  70
    32
  0
VERTEX
  8
0
  5
410
 10
-16.1268
 20
5.68816
 30
0.000000
  70
    32
  0
VERTEX
  8
0
  5
411
 10
-16.0801
 20
5.63899
 30
0.000000
  70
    32
  0
VERTEX
  8
0
  5
412
 10
-16.0330
 20
5.58998
 30
0.000000
  70
    32
  0
VERTEX
  8
0
  5
413
 10
-15.9856
 20
5.54112
 30
0.000000
  70
    32
  0
VERTEX
  8
0
  5
414
 10
-15.9378
 20
5.49241
 30
0.000000
  70
    32
  0
VERTEX
  8
0
  5
415
 10
-15.8896
 20
5.44386
 30
0.000000
  70
    32
  0
VERTEX
  8
0
  5
416
 10
-15.8410
 20
5.39546
 30
0.000000
  70
    32
  0
VERTEX
  8
0
  5
417
 10
-15.7921
 20
5.34722
 30
0.000000
  70
    32
  0
VERTEX
  8
0
  5
418
 10
-15.7427
 20
5.29913
 30
0.000000
  70
    32
  0
VERTEX
  8
0
  5
419
 10
-15.6931
 20
5.25121
 30
0.000000
  70
    32
  0
VERTEX
  8
0
  5
41A
 10
-15.6430
 20
5.20344
 30
0.000000
  70
    32
  0
VERTEX
  8
0
  5
41B
 10
-15.5926
 20
5.15584
 30
0.000000
  70
    32
  0
VERTEX
  8
0
  5
41C
 10
-15.5418
 20
5.10840
 30
0.000000
  70
    32
  0
VERTEX
  8
0
  5
41D
 10
-15.4907
 20
5.06113
 30
0.000000
  70
    32
  0
VERTEX
  8
0
  5
41E
 10
-15.4391
 20
5.01401
 30
0.000000
  70
    32
  0
VERTEX
  8
0
  5
41F
 10
-15.3873
 20
4.96707
 30
0.000000
  70
    32
  0
VERTEX
  8
0
  5
420
 10
-15.3350
 20
4.92029
 30
0.000000
  70
    32
  0
VERTEX
  8
0
  5
421
 10
-15.2824
 20
4.87368
 30
0.000000
  70
    32
  0
VERTEX
  8
0
  5
422
 10
-15.2295
 20
4.82724
 30
0.000000
  70
    32
  0
VERTEX
  8
0
  5
423
 10
-15.1761
 20
4.78097
 30
0.000000
  70
    32
  0
VERTEX
  8
0
  5
424
 10
-15.1225
 20
4.73487
 30
0.000000
  70
    32
  0
VERTEX
  8
0
  5
425
 10
-15.0684
 20
4.68895
 30
0.000000
  70
    32
  0
VERTEX
  8
0
  5
426
 10
-15.0140
 20
4.64320
 30
0.000000
  70
    32
  0
VERTEX
  8
0
  5
427
 10
-14.9593
 20
4.59763
 30
0.000000
  70
    32
  0
VERTEX
  8
0
  5
428
 10
-14.9042
 20
4.55223
 30
0.000000
  70
    32
  0
VERTEX
  8
0
  5
429
 10
-14.8487
 20
4.50701
 30
0.000000
  70
    32
  0
VERTEX
  8
0
  5
42A
 10
-14.7929
 20
4.46197
 30
0.000000
  70
    32
  0
VERTEX
  8
0
  5
42B
 10
-14.7368
 20
4.41711
 30
0.000000
  70
    32
  0
VERTEX
  8
0
  5
42C
 10
-14.6803
 20
4.37244
 30
0.000000
  70
    32
  0
VERTEX
  8
0
  5
42D
 10
-14.6234
 20
4.32794
 30
0.000000
  70
    32
  0
VERTEX
  8
0
  5
42E
 10
-14.5662
 20
4.28363
 30
0.000000
  70
    32
  0
VERTEX
  8
0
  5
42F
 10
-14.5087
 20
4.23950
 30
0.000000
  70
    32
  0
VERTEX
  8
0
  5
430
 10
-14.4508
 20
4.19556
 30
0.000000
  70
    32
  0
VERTEX
  8
0
  5
431
 10
-14.3926
 20
4.15181
 30
0.000000
  70
    32
  0
VERTEX
  8
0
  5
432
 10
-14.3340
 20
4.10824
 30
0.000000
  70
    32
  0
VERTEX
  8
0
  5
433
 10
-14.2751
 20
4.06487
 30
0.000000
  70
    32
  0
VERTEX
  8
0
  5
434
 10
-14.2159
 20
4.02169
 30
0.000000
  70
    32
  0
VERTEX
  8
0
  5
435
 10
-14.1563
 20
3.97870
 30
0.000000
  70
    32
  0
VERTEX
  8
0
  5
436
 10
-14.0964
 20
3.93590
 30
0.000000
  70
    32
  0
VERTEX
  8
0
  5
437
 10
-14.0361
 20
3.89329
 30
0.000000
  70
    32
  0
VERTEX
  8
0
  5
438
 10
-13.9755
 20
3.85089
 30
0.000000
  70
    32
  0
VERTEX
  8
0
  5
439
 10
-13.9146
 20
3.80868
 30
0.000000
  70
    32
  0
VERTEX
  8
0
  5
43A
 10
-13.8533
 20
3.76666
 30
0.000000
  70
    32
  0
VERTEX
  8
0
  5
43B
 10
-13.7918
 20
3.72485
 30
0.000000
  70
    32
  0
VERTEX
  8
0
  5
43C
 10
-13.7298
 20
3.68323
 30
0.000000
  70
    32
  0
VERTEX
  8
0
  5
43D
 10
-13.6676
 20
3.64182
 30
0.000000
  70
    32
  0
VERTEX
  8
0
  5
43E
 10
-13.6050
 20
3.60061
 30
0.000000
  70
    32
  0
VERTEX
  8
0
  5
43F
 10
-13.5421
 20
3.55961
 30
0.000000
  70
    32
  0
VERTEX
  8
0
  5
440
 10
-13.4789
 20
3.51881
 30
0.000000
  70
    32
  0
VERTEX
  8
0
  5
441
 10
-13.4153
 20
3.47821
 30
0.000000
  70
    32
  0
VERTEX
  8
0
  5
442
 10
-13.3514
 20
3.43783
 30
0.000000
  70
    32
  0
VERTEX
  8
0
  5
443
 10
-13.2872
 20
3.39765
 30
0.000000
  70
    32
  0
VERTEX
  8
0
  5
444
 10
-13.2227
 20
3.35768
 30
0.000000
  70
    32
  0
VERTEX
  8
0
  5
445
 10
-13.1579
 20
3.31793
 30
0.000000
  70
    32
  0
VERTEX
  8
0
  5
446
 10
-13.0927
 20
3.27838
 30
0.000000
  70
    32
  0
VERTEX
  8
0
  5
447
 10
-13.0272
 20
3.23905
 30
0.000000
  70
    32
  0
VERTEX
  8
0
  5
448
 10
-12.9615
 20
3.19993
 30
0.000000
  70
    32
  0
VERTEX
  8
0
  5
449
 10
-12.8953
 20
3.16103
 30
0.000000
  70
    32
  0
VERTEX
  8
0
  5
44A
 10
-12.8289
 20
3.12235
 30
0.000000
  70
    32
  0
VERTEX
  8
0
  5
44B
 10
-12.7622
 20
3.08388
 30
0.000000
  70
    32
  0
VERTEX
  8
0
  5
44C
 10
-12.6951
 20
3.04563
 30
0.000000
  70
    32
  0
VERTEX
  8
0
  5
44D
 10
-12.6278
 20
3.00760
 30
0.000000
  70
    32
  0
VERTEX
  8
0
  5
44E
 10
-12.5601
 20
2.96979
 30
0.000000
  70
    32
  0
VERTEX
  8
0
  5
44F
 10
-12.4922
 20
2.93219
 30
0.000000
  70
    32
  0
VERTEX
  8
0
  5
450
 10
-12.4239
 20
2.89481
 30
0.000000
  70
    32
  0
VERTEX
  8
0
  5
451
 10
-12.3554
 20
2.85765
 30
0.000000
  70
    32
  0
VERTEX
  8
0
  5
452
 10
-12.2865
 20
2.82071
 30
0.000000
  70
    32
  0
VERTEX
  8
0
  5
453
 10
-12.2174
 20
2.78399
 30
0.000000
  70
    32
  0
VERTEX
  8
0
  5
454
 10
-12.1479
 20
2.74748
 30
0.000000
  70
    32
  0
VERTEX
  8
0
  5
455
 10
-12.0782
 20
2.71120
 30
0.000000
  70
    32
  0
VERTEX
  8
0
  5
456
 10
-12.0082
 20
2.67514
 30
0.000000
  70
    32
  0
VERTEX
  8
0
  5
457
 10
-11.9378
 20
2.63929
 30
0.000000
  70
    32
  0
VERTEX
  8
0
  5
458
 10
-11.8673
 20
2.60367
 30
0.000000
  70
    32
  0
VERTEX
  8
0
  5
459
 10
-11.7964
 20
2.56827
 30
0.000000
  70
    32
  0
VERTEX
  8
0
  5
45A
 10
-11.7252
 20
2.53310
 30
0.000000
  70
    32
  0
VERTEX
  8
0
  5
45B
 10
-11.6538
 20
2.49814
 30
0.000000
  70
    32
  0
VERTEX
  8
0
  5
45C
 10
-11.5821
 20
2.46341
 30
0.000000
  70
    32
  0
VERTEX
  8
0
  5
45D
 10
-11.5101
 20
2.42890
 30
0.000000
  70
    32
  0
VERTEX
  8
0
  5
45E
 10
-11.4378
 20
2.39461
 30
0.000000
  70
    32
  0
VERTEX
  8
0
  5
45F
 10
-11.3653
 20
2.36055
 30
0.000000
  70
    32
  0
VERTEX
  8
0
  5
460
 10
-11.2925
 20
2.32672
 30
0.000000
  70
    32
  0
VERTEX
  8
0
  5
461
 10
-11.2194
 20
2.29310
 30
0.000000
  70
    32
  0
VERTEX
  8
0
  5
462
 10
-11.1461
 20
2.25972
 30
0.000000
  70
    32
  0
VERTEX
  8
0
  5
463
 10
-11.0725
 20
2.22656
 30
0.000000
  70
    32
  0
VERTEX
  8
0
  5
464
 10
-10.9986
 20
2.19362
 30
0.000000
  70
    32
  0
VERTEX
  8
0
  5
465
 10
-10.9245
 20
2.16092
 30
0.000000
  70
    32
  0
VERTEX
  8
0
  5
466
 10
-10.8502
 20
2.12844
 30
0.000000
  70
    32
  0
VERTEX
  8
0
  5
467
 10
-10.7755
 20
2.09619
 30
0.000000
  70
    32
  0
VERTEX
  8
0
  5
468
 10
-10.7006
 20
2.06416
 30
0.000000
  70
    32
  0
VERTEX
  8
0
  5
469
 10
-10.6255
 20
2.03237
 30
0.000000
  70
    32
  0
VERTEX
  8
0
  5
46A
 10
-10.5501
 20
2.00080
 30
0.000000
  70
    32
  0
VERTEX
  8
0
  5
46B
 10
-10.4745
 20
1.96946
 30
0.000000
  70
    32
  0
VERTEX
  8
0
  5
46C
 10
-10.3986
 20
1.93835
 30
0.000000
  70
    32
  0
VERTEX
  8
0
  5
46D
 10
-10.3225
 20
1.90748
 30
0.000000
  70
    32
  0
VERTEX
  8
0
  5
46E
 10
-10.2461
 20
1.87683
 30
0.000000
  70
    32
  0
VERTEX
  8
0
  5
46F
 10
-10.1695
 20
1.84641
 30
0.000000
  70
    32
  0
VERTEX
  8
0
  5
470
 10
-10.0927
 20
1.81623
 30
0.000000
  70
    32
  0
VERTEX
  8
0
  5
471
 10
-10.0156
 20
1.78628
 30
0.000000
  70
    32
  0
VERTEX
  8
0
  5
472
 10
-9.93833
 20
1.75656
 30
0.000000
  70
    32
  0
VERTEX
  8
0
  5
473
 10
-9.86079
 20
1.72707
 30
0.000000
  70
    32
  0
VERTEX
  8
0
  5
474
 10
-9.78303
 20
1.69782
 30
0.000000
  70
    32
  0
VERTEX
  8
0
  5
475
 10
-9.70503
 20
1.66880
 30
0.000000
  70
    32
  0
VERTEX
  8
0
  5
476
 10
-9.62681
 20
1.64001
 30
0.000000
  70
    32
  0
VERTEX
  8
0
  5
477
 10
-9.54836
 20
1.61146
 30
0.000000
  70
    32
  0
VERTEX
  8
0
  5
478
 10
-9.46969
 20
1.58314
 30
0.000000
  70
    32
  0
VERTEX
  8
0
  5
479
 10
-9.39081
 20
1.55506
 30
0.000000
  70
    32
  0
VERTEX
  8
0
  5
47A
 10
-9.31170
 20
1.52721
 30
0.000000
  70
    32
  0
VERTEX
  8
0
  5
47B
 10
-9.23238
 20
1.49960
 30
0.000000
  70
    32
  0
VERTEX
  8
0
  5
47C
 10
-9.15284
 20
1.47223
 30
0.000000
  70
    32
  0
VERTEX
  8
0
  5
47D
 10
-9.07310
 20
1.44510
 30
0.000000
  70
    32
  0
VERTEX
  8
0
  5
47E
 10
-8.99314
 20
1.41820
 30
0.000000
  70
    32
  0
VERTEX
  8
0
  5
47F
 10
-8.91297
 20
1.39154
 30
0.000000
  70
    32
  0
VERTEX
  8
0
  5
480
 10
-8.83260
 20
1.36511
 30
0.000000
  70
    32
  0
VERTEX
  8
0
  5
481
 10
-8.75202
 20
1.33893
 30
0.000000
  70
    32
  0
VERTEX
  8
0
  5
482
 10
-8.67124
 20
1.31299
 30
0.000000
  70
    32
  0
VERTEX
  8
0
  5
483
 10
-8.59026
 20
1.28728
 30
0.000000
  70
    32
  0
VERTEX
  8
0
  5
484
 10
-8.50909
 20
1.26182
 30
0.000000
  70
    32
  0
VERTEX
  8
0
  5
485
 10
-8.42771
 20
1.23659
 30
0.000000
  70
    32
  0
VERTEX
  8
0
  5
486
 10
-8.34614
 20
1.21161
 30
0.000000
  70
    32
  0
VERTEX
  8
0
  5
487
 10
-8.26438
 20
1.18687
 30
0.000000
  70
    32
  0
VERTEX
  8
0
  5
488
 10
-8.18243
 20
1.16237
 30
0.000000
  70
    32
  0
VERTEX
  8
0
  5
489
 10
-8.10029
 20
1.13811
 30
0.000000
  70
    32
  0
VERTEX
  8
0
  5
48A
 10
-8.01797
 20
1.11409
 30
0.000000
  70
    32
  0
VERTEX
  8
0
  5
48B
 10
-7.93545
 20
1.09032
 30
0.000000
  70
    32
  0
VERTEX
  8
0
  5
48C
 10
-7.85276
 20
1.06679
 30
0.000000
  70
    32
  0
VERTEX
  8
0
  5
48D
 10
-7.76989
 20
1.04351
 30
0.000000
  70
    32
  0
VERTEX
  8
0
  5
48E
 10
-7.68683
 20
1.02047
 30
0.000000
  70
    32
  0
VERTEX
  8
0
  5
48F
 10
-7.60360
 20
0.997673
 30
0.000000
  70
    32
  0
VERTEX
  8
0
  5
490
 10
-7.52020
 20
0.975123
 30
0.000000
  70
    32
  0
VERTEX
  8
0
  5
491
 10
-7.43662
 20
0.952818
 30
0.000000
  70
    32
  0
VERTEX
  8
0
  5
492
 10
-7.35287
 20
0.930759
 30
0.000000
  70
    32
  0
VERTEX
  8
0
  5
493
 10
-7.26896
 20
0.908947
 30
0.000000
  70
    32
  0
VERTEX
  8
0
  5
494
 10
-7.18487
 20
0.887381
 30
0.000000
  70
    32
  0
VERTEX
  8
0
  5
495
 10
-7.10062
 20
0.866063
 30
0.000000
  70
    32
  0
VERTEX
  8
0
  5
496
 10
-7.01621
 20
0.844993
 30
0.000000
  70
    32
  0
VERTEX
  8
0
  5
497
 10
-6.93164
 20
0.824171
 30
0.000000
  70
    32
  0
VERTEX
  8
0
  5
498
 10
-6.84690
 20
0.803598
 30
0.000000
  70
    32
  0
VERTEX
  8
0
  5
499
 10
-6.76201
 20
0.783273
 30
0.000000
  70
    32
  0
VERTEX
  8
0
  5
49A
 10
-6.67697
 20
0.763199
 30
0.000000
  70
    32
  0
VERTEX
  8
0
  5
49B
 10
-6.59177
 20
0.743374
 30
0.000000
  70
    32
  0
VERTEX
  8
0
  5
49C
 10
-6.50642
 20
0.723799
 30
0.000000
  70
    32
  0
VERTEX
  8
0
  5
49D
 10
-6.42092
 20
0.704475
 30
0.000000
  70
    32
  0
VERTEX
  8
0
  5
49E
 10
-6.33528
 20
0.685403
 30
0.000000
  70
    32
  0
VERTEX
  8
0
  5
49F
 10
-6.24949
 20
0.666582
 30
0.000000
  70
    32
  0
VERTEX
  8
0
  5
4A0
 10
-6.16355
 20
0.648013
 30
0.000000
  70
    32
  0
VERTEX
  8
0
  5
4A1
 10
-6.07748
 20
0.629696
 30
0.000000
  70
    32
  0
VERTEX
  8
0
  5
4A2
 10
-5.99126
 20
0.611633
 30
0.000000
  70
    32
  0
VERTEX
  8
0
  5
4A3
 10
-5.90491
 20
0.593823
 30
0.000000
  70
    32
  0
VERTEX
  8
0
  5
4A4
 10
-5.81842
 20
0.576267
 30
0.000000
  70
    32
  0
VERTEX
  8
0
  5
4A5
 10
-5.73180
 20
0.558964
 30
0.000000
  70
    32
  0
VERTEX
  8
0
  5
4A6
 10
-5.64505
 20
0.541917
 30
0.000000
  70
    32
  0
VERTEX
  8
0
  5
4A7
 10
-5.55816
 20
0.525124
 30
0.000000
  70
    32
  0
VERTEX
  8
0
  5
4A8
 10
-5.47115
 20
0.508587
 30
0.000000
  70
    32
  0
VERTEX
  8
0
  5
4A9
 10
-5.38401
 20
0.492306
 30
0.000000
  70
    32
  0
VERTEX
  8
0
  5
4AA
 10
-5.29675
 20
0.476282
 30
0.000000
  70
    32
  0
VERTEX
  8
0
  5
4AB
 10
-5.20937
 20
0.460514
 30
0.000000
  70
    32
  0
VERTEX
  8
0
  5
4AC
 10
-5.12187
 20
0.445003
 30
0.000000
  70
    32
  0
VERTEX
  8
0
  5
4AD
 10
-5.03425
 20
0.429750
 30
0.000000
  70
    32
  0
VERTEX
  8
0
  5
4AE
 10
-4.94651
 20
0.414755
 30
0.000000
  70
    32
  0
VERTEX
  8
0
  5
4AF
 10
-4.85866
 20
0.400019
 30
0.000000
  70
    32
  0
VERTEX
  8
0
  5
4B0
 10
-4.77070
 20
0.385541
 30
0.000000
  70
    32
  0
VERTEX
  8
0
  5
4B1
 10
-4.68263
 20
0.371323
 30
0.000000
  70
    32
  0
VERTEX
  8
0
  5
4B2
 10
-4.59445
 20
0.357364
 30
0.000000
  70
    32
  0
VERTEX
  8
0
  5
4B3
 10
-4.50617
 20
0.343666
 30
0.000000
  70
    32
  0
VERTEX
  8
0
  5
4B4
 10
-4.41778
 20
0.330229
 30
0.000000
  70
    32
  0
VERTEX
  8
0
  5
4B5
 10
-4.32928
 20
0.317052
 30
0.000000
  70
    32
  0
VERTEX
  8
0
  5
4B6
 10
-4.24069
 20
0.304137
 30
0.000000
  70
    32
  0
VERTEX
  8
0
  5
4B7
 10
-4.15200
 20
0.291484
 30
0.000000
  70
    32
  0
VERTEX
  8
0
  5
4B8
 10
-4.06321
 20
0.279093
 30
0.000000
  70
    32
  0
VERTEX
  8
0
  5
4B9
 10
-3.97433
 20
0.266965
 30
0.000000
  70
    32
  0
VERTEX
  8
0
  5
4BA
 10
-3.88536
 20
0.255100
 30
0.000000
  70
    32
  0
VERTEX
  8
0
  5
4BB
 10
-3.79630
 20
0.243499
 30
0.000000
  70
    32
  0
VERTEX
  8
0
  5
4BC
 10
-3.70714
 20
0.232162
 30
0.000000
  70
    32
  0
VERTEX
  8
0
  5
4BD
 10
-3.61790
 20
0.221090
 30
0.000000
  70
    32
  0
VERTEX
  8
0
  5
4BE
 10
-3.52858
 20
0.210282
 30
0.000000
  70
    32
  0
VERTEX
  8
0
  5
4BF
 10
-3.43918
 20
0.199740
 30
0.000000
  70
    32
  0
VERTEX
  8
0
  5
4C0
 10
-3.34969
 20
0.189463
 30
0.000000
  70
    32
  0
VERTEX
  8
0
  5
4C1
 10
-3.26012
 20
0.179453
 30
0.000000
  70
    32
  0
VERTEX
  8
0
  5
4C2
 10
-3.17048
 20
0.169710
 30
0.000000
  70
    32
  0
VERTEX
  8
0
  5
4C3
 10
-3.08077
 20
0.160233
 30
0.000000
  70
    32
  0
VERTEX
  8
0
  5
4C4
 10
-2.99098
 20
0.151024
 30
0.000000
  70
    32
  0
VERTEX
  8
0
  5
4C5
 10
-2.90112
 20
0.142083
 30
0.000000
  70
    32
  0
VERTEX
  8
0
  5
4C6
 10
-2.81119
 20
0.133410
 30
0.000000
  70
    32
  0
VERTEX
  8
0
  5
4C7
 10
-2.72119
 20
0.125006
 30
0.000000
  70
    32
  0
VERTEX
  8
0
  5
4C8
 10
-2.63113
 20
0.116871
 30
0.000000
  70
    32
  0
VERTEX
  8
0
  5
4C9
 10
-2.54101
 20
0.109006
 30
0.000000
  70
    32
  0
VERTEX
  8
0
  5
4CA
 10
-2.45083
 20
0.101411
 30
0.000000
  70
    32
  0
VERTEX
  8
0
  5
4CB
 10
-2.36058
 20
0.0940868
 30
0.000000
  70
    32
  0
VERTEX
  8
0
  5
4CC
 10
-2.27028
 20
0.0870332
 30
0.000000
  70
    32
  0
VERTEX
  8
0
  5
4CD
 10
-2.17993
 20
0.0802510
 30
0.000000
  70
    32
  0
VERTEX
  8
0
  5
4CE
 10
-2.08952
 20
0.0737405
 30
0.000000
  70
    32
  0
VERTEX
  8
0
  5
4CF
 10
-1.99906
 20
0.0675023
 30
0.000000
  70
    32
  0
VERTEX
  8
0
  5
4D0
 10
-1.90855
 20
0.0615367
 30
0.000000
  70
    32
  0
VERTEX
  8
0
  5
4D1
 10
-1.81800
 20
0.0558442
 30
0.000000
  70
    32
  0
VERTEX
  8
0
  5
4D2
 10
-1.72740
 20
0.0504252
 30
0.000000
  70
    32
  0
VERTEX
  8
0
  5
4D3
 10
-1.63675
 20
0.0452801
 30
0.000000
  70
    32
  0
VERTEX
  8
0
  5
4D4
 10
-1.54607
 20
0.0404094
 30
0.000000
  70
    32
  0
VERTEX
  8
0
  5
4D5
 10
-1.45534
 20
0.0358135
 30
0.000000
  70
    32
  0
VERTEX
  8
0
  5
4D6
 10
-1.36458
 20
0.0314928
 30
0.000000
  70
    32
  0
VERTEX
  8
0
  5
4D7
 10
-1.27378
 20
0.0274477
 30
0.000000
  70
    32
  0
VERTEX
  8
0
  5
4D8
 10
-1.18295
 20
0.0236787
 30
0.000000
  70
    32
  0
VERTEX
  8
0
  5
4D9
 10
-1.09209
 20
0.0201862
 30
0.000000
  70
    32
  0
VERTEX
  8
0
  5
4DA
 10
-1.00120
 20
0.0169707
 30
0.000000
  70
    32
  0
VERTEX
  8
0
  5
4DB
 10
-0.910279
 20
0.0140325
 30
0.000000
  70
    32
  0
VERTEX
  8
0
  5
4DC
 10
-0.819334
 20
0.0113721
 30
0.000000
  70
    32
  0
VERTEX
  8
0
  5
4DD
 10
-0.728365
 20
0.00898996
 30
0.000000
  70
    32
  0
VERTEX
  8
0
  5
4DE
 10
-0.637375
 20
0.00688644
 30
0.000000
  70
    32
  0
VERTEX
  8
0
  5
4DF
 10
-0.546365
 20
0.00506200
 30
0.000000
  70
    32
  0
VERTEX
  8
0
  5
4E0
 10
-0.455337
 20
0.00351706
 30
0.000000
  70
    32
  0
VERTEX
  8
0
  5
4E1
 10
-0.364293
 20
0.00225206
 30
0.000000
  70
    32
  0
VERTEX
  8
0
  5
4E2
 10
-0.273236
 20
0.00126743
 30
0.000000
  70
    32
  0
VERTEX
  8
0
  5
4E3
 10
-0.182166
 20
0.000563588
 30
0.000000
  70
    32
  0
VERTEX
  8
0
  5
4E4
 10
-0.0910871
 20
0.000140968
 30
0.000000
  70
    32
  0
VERTEX
  8
0
  5
4E5
 10
-1.84985e-010
 20
-2.20000e-015
 30
0.000000
  70
    32
  0
SEQEND
  8
0
  5
4E6
  0
LINE
  5
BC
  8
0
 10
-18.696180973861669
 20
25.013136614506571
 30
0.0
 11
-18.696180973861669
 21
11.513136614506561
 31
0.0
  0
CIRCLE
  5
BD
  8
0
 10
-6.9761809738616778
 20
15.72313661450656
 30
0.0
 40
0.9149999999999998
  0
CIRCLE
  5
BE
  8
0
 10
-6.9761809738616778
 20
20.80313661450656
 30
0.0
 40
0.9149999999999998
  0
CIRCLE
  5
BF
  8
0
 10
-14.596180973861671
 20
18.263136614506561
 30
0.0
 40
0.9149999999999998
  0
CIRCLE
  5
C0
  8
0
 10
-4.8474714167315813
 20
4.963136614506559
 30
0.0
 40
1.5749999999999991
  0
CIRCLE
  5
C1
  8
0
 10
-12.67932484755144
 20
31.563136614506458
 30
0.0
 40
1.5749999999999991
  0
CIRCLE
  5
C2
  8
0
 10
46.72165409571582
 20
31.563136614506458
 30
0.0
 40
1.575
  0
CIRCLE
  5
C3
  8
0
 10
38.889800664895958
 20
4.9631366145065527
 30
0.0
 40
1.575
  0
CIRCLE
  5
C4
  8
0
 10
48.638510222026063
 20
18.26313661450655
 30
0.0
 40
0.9149999999999998
  0
CIRCLE
  5
C5
  8
0
 10
41.018510222026052
 20
20.80313661450656
 30
0.0
 40
0.9149999999999998
  0
CIRCLE
  5
C6
  8
0
 10
41.018510222026052
 20
15.723136614506551
 30
0.0
 40
0.9149999999999998
  0
ENDSEC
  0
EOF
